<svg width="26" height="16" viewBox="0 0 26 16" fill="none" xmlns="http://www.w3.org/2000/svg">
<path d="M7.04399 12.999H4.87755C4.57858 12.999 4.33594 12.7564 4.33594 12.4574C4.33594 12.1584 4.57858 11.9158 4.87755 11.9158H7.04399C7.34296 11.9158 7.5856 12.1584 7.5856 12.4574C7.5856 12.7564 7.34296 12.999 7.04399 12.999Z" fill="#EA9000"/>
<path d="M24.6473 12.9987H23.2933C22.9943 12.9987 22.7517 12.7561 22.7517 12.4571C22.7517 12.1582 22.9943 11.9155 23.2933 11.9155H24.1978L24.9279 8.02459C24.9181 6.03363 23.2175 4.33298 21.1269 4.33298H17.5707L15.8473 11.9155H18.9604C19.2594 11.9155 19.502 12.1582 19.502 12.4571C19.502 12.7561 19.2594 12.9987 18.9604 12.9987H15.1692C15.0045 12.9987 14.8485 12.924 14.7456 12.7951C14.6427 12.6673 14.6037 12.4983 14.6405 12.338L16.6098 3.67221C16.6662 3.42415 16.885 3.24976 17.1385 3.24976H21.1269C23.8143 3.24976 26.0014 5.43678 26.0014 8.12425L25.1792 12.5568C25.1315 12.8135 24.9084 12.9987 24.6473 12.9987Z" fill="#EA9000"/>
<path d="M21.1221 15.1654C19.6294 15.1654 18.4141 13.9511 18.4141 12.4573C18.4141 10.9636 19.6294 9.74927 21.1221 9.74927C22.6148 9.74927 23.8302 10.9636 23.8302 12.4573C23.8302 13.9511 22.6148 15.1654 21.1221 15.1654ZM21.1221 10.8325C20.2263 10.8325 19.4973 11.5615 19.4973 12.4573C19.4973 13.3531 20.2263 14.0821 21.1221 14.0821C22.0179 14.0821 22.7469 13.3531 22.7469 12.4573C22.7469 11.5615 22.0179 10.8325 21.1221 10.8325Z" fill="#EA9000"/>
<path d="M9.20805 15.1654C7.71537 15.1654 6.5 13.9511 6.5 12.4573C6.5 10.9636 7.71537 9.74927 9.20805 9.74927C10.7007 9.74927 11.9161 10.9636 11.9161 12.4573C11.9161 13.9511 10.7007 15.1654 9.20805 15.1654ZM9.20805 10.8325C8.31223 10.8325 7.58322 11.5615 7.58322 12.4573C7.58322 13.3531 8.31223 14.0821 9.20805 14.0821C10.1039 14.0821 10.8329 13.3531 10.8329 12.4573C10.8329 11.5615 10.1039 10.8325 9.20805 10.8325Z" fill="#EA9000"/>
<path d="M7.0366 3.24948H2.70372C2.40475 3.24948 2.16211 3.00684 2.16211 2.70787C2.16211 2.4089 2.40475 2.16626 2.70372 2.16626H7.0366C7.33557 2.16626 7.57821 2.4089 7.57821 2.70787C7.57821 3.00684 7.33557 3.24948 7.0366 3.24948Z" fill="#EA9000"/>
<path d="M7.04365 6.49924H1.62755C1.32858 6.49924 1.08594 6.25659 1.08594 5.95763C1.08594 5.65866 1.32858 5.41602 1.62755 5.41602H7.04365C7.34262 5.41602 7.58526 5.65866 7.58526 5.95763C7.58526 6.25659 7.34262 6.49924 7.04365 6.49924Z" fill="#EA9000"/>
<path d="M7.04093 9.74972H0.54161C0.242641 9.74972 0 9.50708 0 9.20811C0 8.90915 0.242641 8.6665 0.54161 8.6665H7.04093C7.3399 8.6665 7.58255 8.90915 7.58255 9.20811C7.58255 9.50708 7.3399 9.74972 7.04093 9.74972Z" fill="#EA9000"/>
<path d="M15.1681 12.9986H11.3769C11.0779 12.9986 10.8353 12.756 10.8353 12.457C10.8353 12.1581 11.0779 11.9154 11.3769 11.9154H14.7359L17.197 1.08322H4.87755C4.57858 1.08322 4.33594 0.840579 4.33594 0.54161C4.33594 0.242641 4.57858 0 4.87755 0H17.8762C18.0408 0 18.1968 0.0747424 18.2997 0.203646C18.4026 0.331466 18.4416 0.500448 18.4048 0.660765L15.6968 12.5762C15.6404 12.8242 15.4205 12.9986 15.1681 12.9986Z" fill="#EA9000"/>
</svg>
