<svg width="19" height="18" viewBox="0 0 19 18" fill="none" xmlns="http://www.w3.org/2000/svg">
<path d="M8.99703 9.00035V8.36035C9.34903 8.36035 9.63703 8.64835 9.63703 9.00035C9.63703 9.35235 9.34903 9.64035 8.99703 9.64035C8.87863 9.64035 8.76983 9.60835 8.67383 9.55395L8.99703 9.00035Z" fill="#EA9000"/>
<path d="M8.99937 8.36035V9.00035L8.67617 9.55395C8.48737 9.44195 8.35938 9.23395 8.35938 9.00035C8.35938 8.64835 8.64737 8.36035 8.99937 8.36035Z" fill="#EA9000"/>
<path d="M17 9.64V9C17 4.5808 13.4192 1 9 1C4.5808 1 1 4.5808 1 9C1 13.4192 4.5808 17 9 17H9.32" stroke="#EA9000" stroke-miterlimit="10" stroke-linejoin="round"/>
<path d="M15.7207 8.35938L17.0007 9.63937L18.2807 8.35938" stroke="#EA9000" stroke-miterlimit="10" stroke-linecap="round" stroke-linejoin="round"/>
<path d="M11.5605 12.4742C11.5605 11.7894 12.1333 11.239 12.8405 11.239C13.5477 11.239 14.1205 11.7894 14.1205 12.4742C14.1205 12.6662 14.0725 12.8518 13.9925 13.0118C13.9765 13.0406 13.9637 13.0694 13.9445 13.0982L11.5605 16.999H14.1205" stroke="#EA9000" stroke-miterlimit="10" stroke-linecap="round" stroke-linejoin="round"/>
<path d="M16.3581 11.239L15.0781 15.399H17.6381" stroke="#EA9000" stroke-miterlimit="10" stroke-linecap="round" stroke-linejoin="round"/>
<path d="M17.6367 13.7991V15.3991V16.9991" stroke="#EA9000" stroke-miterlimit="10" stroke-linecap="round" stroke-linejoin="round"/>
<path d="M9.00195 1.95996V3.23996" stroke="#EA9000" stroke-width="0.6" stroke-miterlimit="10" stroke-linecap="round" stroke-linejoin="round"/>
<path d="M9.00195 14.7598V16.0398" stroke="#EA9000" stroke-width="0.6" stroke-miterlimit="10" stroke-linecap="round" stroke-linejoin="round"/>
<path d="M5.48242 2.9043L6.12242 4.0115" stroke="#EA9000" stroke-width="0.6" stroke-miterlimit="10" stroke-linecap="round" stroke-linejoin="round"/>
<path d="M2.90234 5.47998L4.00954 6.11998" stroke="#EA9000" stroke-width="0.6" stroke-miterlimit="10" stroke-linecap="round" stroke-linejoin="round"/>
<path d="M1.95898 8.99976H3.23898" stroke="#EA9000" stroke-width="0.6" stroke-miterlimit="10" stroke-linecap="round" stroke-linejoin="round"/>
<path d="M2.90234 12.5201L4.00954 11.8801" stroke="#EA9000" stroke-width="0.6" stroke-miterlimit="10" stroke-linecap="round" stroke-linejoin="round"/>
<path d="M13.9883 6.11998L15.0955 5.47998" stroke="#EA9000" stroke-width="0.6" stroke-miterlimit="10" stroke-linecap="round" stroke-linejoin="round"/>
<path d="M5.48242 15.096L6.12242 13.9888" stroke="#EA9000" stroke-width="0.6" stroke-miterlimit="10" stroke-linecap="round" stroke-linejoin="round"/>
<path d="M11.8809 4.0115L12.5209 2.9043" stroke="#EA9000" stroke-width="0.6" stroke-miterlimit="10" stroke-linecap="round" stroke-linejoin="round"/>
<path d="M9.00172 4.19971V8.51971V9.13685L8.67852 9.67068L6.76172 12.8397" stroke="#EA9000" stroke-width="0.6" stroke-miterlimit="10" stroke-linecap="round" stroke-linejoin="round"/>
</svg>
