<svg width="29" height="29" viewBox="0 0 29 29" fill="none" xmlns="http://www.w3.org/2000/svg">
<path d="M14.5 29C22.5081 29 29 22.5081 29 14.5C29 6.49187 22.5081 0 14.5 0C6.49187 0 0 6.49187 0 14.5C0 22.5081 6.49187 29 14.5 29Z" fill="#F2F2F2"/>
<path d="M6.77697 6C6.70345 5.99976 6.63288 6.02882 6.58079 6.08079C6.52882 6.13276 6.49976 6.20345 6.5 6.27697V18.9451C6.50012 19.0184 6.52943 19.0886 6.5814 19.1402C6.63337 19.1918 6.70369 19.2207 6.77697 19.2203H13.9128C14.5774 20.849 16.1768 22 18.0421 22C20.5012 22 22.4994 20.0011 22.4994 17.5421C22.4994 15.6767 21.3484 14.0779 19.7198 13.4133V6.27692L19.7199 6.27705C19.7205 6.12471 19.5975 6.0007 19.4451 6.00008L6.77697 6ZM7.05172 6.55172H11.1773V10.5269H11.1774C11.1773 10.6293 11.234 10.7232 11.3245 10.771C11.415 10.8188 11.5245 10.8125 11.609 10.7548L13.1101 9.72672L14.6111 10.7548H14.611C14.6956 10.8125 14.8051 10.8188 14.8956 10.771C14.9861 10.7232 15.0427 10.6293 15.0427 10.5269V6.55172H19.1683V13.2323C18.8078 13.1379 18.4318 13.0825 18.0422 13.0825C15.5831 13.0825 13.5827 15.083 13.5827 17.542C13.5827 17.9315 13.6382 18.3077 13.7324 18.6681L7.05222 18.668L7.05172 6.55172ZM11.729 6.55172H14.4909V10.0039L13.2667 9.16451L13.2669 9.16439C13.1729 9.10022 13.0493 9.10022 12.9554 9.16439L11.7292 10.0038L11.729 6.55172ZM18.042 13.6339C20.2028 13.6339 21.9475 15.3808 21.9475 17.5417C21.9475 19.7026 20.2027 21.4472 18.042 21.4472C15.8812 21.4472 14.1342 19.7024 14.1342 17.5417C14.1342 15.3807 15.8813 13.6339 18.042 13.6339ZM8.70751 15.0536L8.70763 15.0537C8.63399 15.0534 8.56342 15.0824 8.51145 15.1345C8.45948 15.1865 8.43042 15.257 8.43067 15.3306V17.0143C8.43079 17.0876 8.4601 17.1578 8.51207 17.2094C8.56391 17.2611 8.63436 17.2899 8.70763 17.2897H12.1428C12.2945 17.289 12.4172 17.166 12.4175 17.0143V15.3306C12.4182 15.1782 12.2951 15.0542 12.1428 15.0537L8.70751 15.0536ZM8.98226 15.6053H11.8659V16.7373H8.98239L8.98226 15.6053ZM20.1169 15.927H20.117C20.0451 15.9282 19.9764 15.9574 19.9257 16.0084L17.3923 18.4971L16.1542 17.2999C16.1034 17.2416 16.0306 17.2074 15.9536 17.2054C15.8763 17.2035 15.8018 17.2339 15.7481 17.2893C15.6944 17.3447 15.6664 17.4201 15.6709 17.4972C15.6754 17.5743 15.7119 17.646 15.7717 17.6948L17.2011 19.0816C17.3091 19.1866 17.4811 19.1856 17.5879 19.0794L20.3125 16.4016H20.3127C20.3943 16.323 20.4196 16.2026 20.3765 16.0978C20.3332 15.993 20.2304 15.9252 20.1171 15.927L20.1169 15.927Z" fill="#BDBDBD"/>
</svg>
