<svg width="29" height="29" viewBox="0 0 29 29" fill="none" xmlns="http://www.w3.org/2000/svg">
<path d="M14.5 29C22.5081 29 29 22.5081 29 14.5C29 6.49187 22.5081 0 14.5 0C6.49187 0 0 6.49187 0 14.5C0 22.5081 6.49187 29 14.5 29Z" fill="#F2F2F2"/>
<path d="M19.1467 13.3757L19.2236 13.4499C19.2602 13.4847 19.3074 13.5021 19.3544 13.5021C19.4016 13.5021 19.4486 13.4847 19.4853 13.4499L19.5696 13.369C20.8012 12.1991 21.6267 10.4773 21.6311 8.55544C21.6313 8.47859 21.5852 8.40907 21.5142 8.37939C20.9436 8.14004 20.479 7.67552 20.2396 7.10508C20.2099 7.03434 20.1406 6.98828 20.064 6.98828H18.6376C18.561 6.98828 18.4918 7.03422 18.462 7.10496C18.2221 7.6759 17.7568 8.1404 17.1852 8.37976C17.1143 8.40945 17.0681 8.47897 17.0684 8.55594C17.0728 10.3154 17.7717 12.0615 19.1467 13.3758L19.1467 13.3757ZM18.7607 7.36924H19.941C20.2124 7.93858 20.6796 8.40602 21.2489 8.67764C21.2111 10.4174 20.4615 11.9718 19.355 13.0474C18.1572 11.8773 17.4869 10.314 17.4506 8.67826C18.0208 8.40654 18.4887 7.93871 18.7607 7.36924H18.7607Z" fill="#BDBDBD" stroke="#BDBDBD" stroke-width="0.2"/>
<path d="M6.69037 11.6924H7.0662V21.8096C7.0662 21.9147 7.15148 22 7.25655 22H18.7835C18.8886 22 18.9739 21.9147 18.9739 21.8096V14.542C19.0596 14.6109 19.1473 14.6797 19.2413 14.749C19.275 14.7738 19.3147 14.7862 19.3543 14.7862C19.3935 14.7862 19.4329 14.7741 19.4661 14.7499C21.3765 13.3645 22.6192 11.0663 22.6192 8.54068V7.76472C22.6192 7.65965 22.5339 7.57437 22.4288 7.57437C21.6658 7.57437 21.0448 6.95346 21.0448 6.19035C21.0448 6.08528 20.9595 6 20.8545 6H17.8467C17.7416 6 17.6563 6.08528 17.6563 6.19035C17.6563 6.95346 17.0343 7.57437 16.2701 7.57437C16.1651 7.57437 16.0798 7.65965 16.0798 7.76472V8.54068C16.0798 8.72725 16.0888 8.91185 16.102 9.09426C6.67628 9.09341 21.0157 9.09353 6.69035 9.09353C6.58528 9.09353 6.5 9.17881 6.5 9.28388V11.5019C6.5 11.6071 6.58528 11.6924 6.69035 11.6924L6.69037 11.6924ZM7.44691 21.6195V11.6924H10.9337V13.6434C10.9337 13.7179 10.9771 13.7856 11.0448 13.8165C11.0703 13.828 11.0973 13.8338 11.1241 13.8338C11.1689 13.8338 11.2132 13.8179 11.2486 13.7875L13.0195 12.2571L14.7907 13.7875C14.8468 13.836 14.9261 13.8473 14.9945 13.8165C15.0622 13.7855 15.1056 13.7178 15.1056 13.6434V11.6919H16.7634C17.2392 12.7452 17.8371 13.5073 18.593 14.2128V21.6192L7.44691 21.6195ZM16.4604 7.94502C17.2829 7.85669 17.9381 7.20219 18.0268 6.38078H20.6742C20.7626 7.20206 21.4172 7.85657 22.2384 7.94502V8.54076C22.2384 10.8537 21.1412 13.0022 19.3552 14.3584C17.5774 13.0017 16.4605 10.8781 16.4605 8.54076L16.4604 7.94502ZM15.1059 9.47505H16.1368C16.2049 10.0319 16.3728 10.7274 16.5993 11.3112H15.1059V9.47505ZM14.7249 13.2274L13.144 11.8614C13.1083 11.8305 13.064 11.8151 13.0195 11.8151C12.9752 11.8151 12.9308 11.8307 12.895 11.8614L11.3144 13.2274V9.47442H14.7249L14.7249 13.2274ZM6.88082 9.47442H10.934V11.3112C10.5196 11.3112 12.4354 11.3111 6.88082 11.3117V9.47442Z" fill="#BDBDBD" stroke="#BDBDBD" stroke-width="0.2"/>
</svg>
