<svg width="29" height="29" viewBox="0 0 29 29" fill="none" xmlns="http://www.w3.org/2000/svg">
<circle cx="14.5" cy="14.5" r="14.5" fill="#FFD086"/>
<path d="M13.7676 7.59961H17.2342V8.13294H13.7676V7.59961Z" fill="white"/>
<path d="M12.0332 14.8008H18.9665V15.3341H12.0332V14.8008Z" fill="white"/>
<path d="M12.0332 16.1328H18.9665V16.6661H12.0332V16.1328Z" fill="white"/>
<path d="M12.0342 17.4668H18.9675V18.0001H12.0342V17.4668Z" fill="white"/>
<path d="M12.0332 18.8008H16.5665V19.3341H12.0332V18.8008Z" fill="white"/>
<path d="M20.3004 6H10.7004C10.2471 6 9.90039 6.34667 9.90039 6.8V21.2C9.90039 21.6533 10.2471 22 10.7004 22H18.0071L21.1004 18.9067V6.8C21.1004 6.34667 20.7537 6 20.3004 6ZM20.5671 18.6933L18.1671 21.0933V19.3333C18.1671 19.1733 18.2737 19.0667 18.4337 19.0667H19.7671V18.5333H18.4337C17.9804 18.5333 17.6337 18.88 17.6337 19.3333V21.4667H10.7004C10.5404 21.4667 10.4337 21.36 10.4337 21.2V6.8C10.4337 6.64 10.5404 6.53333 10.7004 6.53333H20.3004C20.4604 6.53333 20.5671 6.64 20.5671 6.8V18.6933Z" fill="white"/>
<path d="M15.5006 8.64062L13.1006 9.84062V13.094L15.5006 14.294L17.9006 13.094V9.84062L15.5006 8.64062ZM15.5006 11.014L14.8339 10.614L16.4339 9.70729L17.1006 10.0273L15.5006 11.014ZM15.8473 9.41396L14.3273 10.294L13.9006 10.0273L15.5006 9.22729L15.8473 9.41396ZM15.5006 13.7074L13.6339 12.7741V10.4808L15.2339 11.4674V13.0141H15.7673V11.4674L17.3673 10.4808V12.7741L15.5006 13.7074Z" fill="white"/>
</svg>
