<svg width="29" height="29" viewBox="0 0 29 29" fill="none" xmlns="http://www.w3.org/2000/svg">
<circle cx="14.5" cy="14.5" r="14.5" fill="#EB5757"/>
<path d="M22.0778 18.43V10.1996V10.1843V10.1193C22.0787 10.1103 22.0787 10.1014 22.0778 10.0924C22.0711 10.0665 22.0615 10.0415 22.0491 10.0178C22.0349 9.99215 22.0176 9.96838 21.9974 9.94702L21.9802 9.93167C21.9644 9.91658 21.9479 9.90256 21.9304 9.88961L21.917 9.88H21.9056L21.8865 9.86851L14.2303 6.04045C14.1225 5.98652 13.9955 5.98652 13.8876 6.04045L6.23151 9.86851H6.21816C6.19613 9.8816 6.1749 9.89628 6.15501 9.91257L6.13966 9.92592C6.11682 9.94755 6.09693 9.97199 6.08037 9.99869C6.07677 10.0035 6.07357 10.0086 6.07076 10.0139C6.05781 10.0363 6.04753 10.0601 6.04019 10.0848C6.03939 10.0924 6.03939 10.1002 6.04019 10.1078C6.02296 10.1366 6.00948 10.1674 6 10.1996V19.1228C6.0004 19.2716 6.08692 19.4067 6.22203 19.4692L13.8782 23.0369V23.037C13.8963 23.0462 13.9157 23.0533 13.9356 23.0579H13.9528C14.0057 23.0708 14.0607 23.0708 14.1135 23.0579H14.1308C14.1507 23.0533 14.17 23.0462 14.1882 23.037L16.7338 21.8559C17.0711 22.7856 17.8129 23.5114 18.7496 23.8283C19.6862 24.1453 20.7162 24.0191 21.5488 23.4854C22.3812 22.9517 22.9259 22.0683 23.0288 21.0848C23.1317 20.1013 22.7818 19.1244 22.0778 18.4299L22.0778 18.43ZM14.0389 13.5991L11.0319 12.0965L13.7287 10.5978L17.4727 8.51733L20.8394 10.1997L14.0389 13.5991ZM14.0389 6.80051L16.6438 8.09436L13.4646 9.86487L10.2108 11.6813L7.23828 10.1999L14.0389 6.80051ZM6.76555 10.82L9.82806 12.3512V15.9417C9.82806 16.1532 9.99936 16.3245 10.2108 16.3245C10.4223 16.3245 10.5936 16.1532 10.5936 15.9417V12.7339L13.6561 14.2651V22.0897L6.76562 18.88L6.76555 10.82ZM14.4217 22.0899V14.2652L21.3122 10.82V17.8561C20.3036 17.3182 19.0869 17.3489 18.1068 17.937C17.1267 18.525 16.5271 19.5841 16.5271 20.7271C16.5279 20.8513 16.5356 20.9752 16.5501 21.0984L14.4217 22.0899ZM19.781 23.2154C19.121 23.2154 18.4882 22.9531 18.0215 22.4865C17.5549 22.0199 17.2927 21.3871 17.2927 20.7271C17.2927 20.0671 17.5549 19.4343 18.0215 18.9677C18.4881 18.501 19.121 18.2388 19.781 18.2388C20.4409 18.2388 21.0737 18.501 21.5404 18.9677C22.007 19.4343 22.2692 20.0671 22.2692 20.7271C22.2692 21.3871 22.007 22.0199 21.5404 22.4865C21.0738 22.9531 20.4409 23.2154 19.781 23.2154Z" fill="white"/>
<path d="M21.0074 19.5C20.8581 19.3516 20.617 19.3516 20.4677 19.5L19.7805 20.1852L19.0934 19.5C18.9416 19.3698 18.7151 19.3787 18.5737 19.5201C18.4324 19.6614 18.4235 19.8879 18.5537 20.0397L19.2389 20.7268L18.5537 21.414C18.4727 21.4833 18.4242 21.5833 18.4202 21.69C18.4161 21.7965 18.4565 21.9 18.532 21.9754C18.6074 22.0509 18.7109 22.0913 18.8174 22.0872C18.9241 22.0832 19.0241 22.0347 19.0934 21.9537L19.7805 21.2685L20.4677 21.9537C20.6195 22.0838 20.8459 22.075 20.9873 21.9336C21.1287 21.7923 21.1375 21.5658 21.0074 21.414L20.3222 20.7269L21.0074 20.0397C21.1558 19.8904 21.1558 19.6493 21.0074 19.5L21.0074 19.5Z" fill="white"/>
</svg>
