<svg width="29" height="29" viewBox="0 0 29 29" fill="none" xmlns="http://www.w3.org/2000/svg">
<path d="M14.5 29C22.5081 29 29 22.5081 29 14.5C29 6.49187 22.5081 0 14.5 0C6.49187 0 0 6.49187 0 14.5C0 22.5081 6.49187 29 14.5 29Z" fill="#5766EB"/>
<path d="M6.40356 11.7379C6.40356 13.9584 8.21001 15.7648 10.4305 15.7648C12.651 15.7648 14.4574 13.9584 14.4574 11.7379C14.4574 9.51738 12.651 7.71094 10.4305 7.71094C8.21001 7.71094 6.40356 9.51738 6.40356 11.7379ZM10.4305 8.33047C12.3093 8.33047 13.8379 9.85911 13.8379 11.7379C13.8379 13.6166 12.3093 15.1453 10.4305 15.1453C8.55174 15.1453 7.02309 13.6166 7.02309 11.7379C7.02309 9.85911 8.55174 8.33047 10.4305 8.33047Z" fill="white"/>
<path d="M9.59199 13.5688H10.1201V14.1532C10.1201 14.3243 10.2588 14.463 10.4299 14.463C10.6009 14.463 10.7396 14.3243 10.7396 14.1532V13.5688H11.2678C11.6071 13.5688 11.8833 13.2927 11.8833 12.9533V12.047C11.8833 11.7076 11.6071 11.4314 11.2678 11.4314H9.59613V10.5332H11.2636V10.6742C11.2636 10.8452 11.4023 10.9839 11.5734 10.9839C11.7444 10.9839 11.8831 10.8452 11.8831 10.6742V10.5292C11.8831 10.1899 11.607 9.91371 11.2676 9.91371H10.7395V9.3293C10.7395 9.15824 10.6008 9.01953 10.4297 9.01953C10.2587 9.01953 10.12 9.15824 10.12 9.3293V9.91371H9.59185C9.25249 9.91371 8.97632 10.1899 8.97632 10.5292V11.4356C8.97632 11.7749 9.25248 12.0511 9.59185 12.0511H11.2635V12.9493H9.59599V12.756C9.59599 12.5849 9.45729 12.4462 9.28623 12.4462C9.11516 12.4462 8.97646 12.5849 8.97646 12.756V12.9533C8.97646 13.2927 9.25262 13.5688 9.59199 13.5688Z" fill="white"/>
<path d="M12.9336 7.63076C13.6252 8.05377 14.2041 8.6487 14.6075 9.35135C15.0231 10.0753 15.2427 10.901 15.2427 11.7389C15.2427 13.2984 14.4855 14.7479 13.2341 15.6469L13.25 15.4003C13.2611 15.2295 13.1317 15.0822 12.9609 15.0712C12.7906 15.0607 12.6428 15.1895 12.6317 15.3603L12.5766 16.2126C12.5713 16.2946 12.5987 16.3754 12.653 16.437C12.7072 16.4987 12.7837 16.5365 12.8657 16.5417L13.7545 16.5992C13.7613 16.5997 13.768 16.5999 13.7747 16.5999C13.9366 16.5999 14.073 16.4741 14.0835 16.3101C14.094 16.1466 13.9757 16.005 13.8159 15.9834C15.0962 14.9616 15.862 13.4058 15.862 11.7388C15.862 10.7926 15.6139 9.86041 15.1444 9.04273C14.6894 8.2502 14.0366 7.57923 13.2565 7.10216C13.1105 7.01296 12.9199 7.05887 12.8306 7.20477C12.7414 7.3508 12.7873 7.54136 12.9332 7.63068L12.9336 7.63076Z" fill="white"/>
<path d="M8.12543 15.9616C6.5798 15.1139 5.61953 13.4961 5.61953 11.7396C5.61953 10.9016 5.83926 10.076 6.25481 9.35209C6.55392 8.83102 6.94971 8.36941 7.41616 7.99313L7.40275 8.19959C7.39168 8.37038 7.52126 8.51765 7.69191 8.52872C7.69868 8.52913 7.70546 8.52941 7.7121 8.52941C7.87403 8.52941 8.01038 8.40357 8.0209 8.23956L8.07593 7.3873C8.087 7.21651 7.95742 7.06924 7.78677 7.05817L6.89801 7.00064C6.72778 6.98972 6.57995 7.11902 6.56889 7.28981C6.55783 7.46059 6.68726 7.60787 6.85805 7.61893L6.8947 7.62128C6.42605 8.02454 6.02598 8.5059 5.71731 9.04358C5.24809 9.86115 5 10.7935 5 11.7395C5 13.7223 6.08347 15.5484 7.82757 16.5049C7.87486 16.5309 7.92589 16.5431 7.97623 16.5431C8.08561 16.5431 8.19168 16.485 8.2481 16.3822C8.33038 16.2322 8.27548 16.044 8.12544 15.9617L8.12543 15.9616Z" fill="white"/>
<path d="M23.7368 11.4277H16.934C16.7629 11.4277 16.6242 11.5664 16.6242 11.7375C16.6242 11.9086 16.7629 12.0473 16.934 12.0473H23.7368C23.9952 12.0473 24.2056 12.2576 24.2056 12.5161V14.8703H21.0269C19.8313 14.8703 18.8585 15.843 18.8585 17.0386C18.8585 18.2342 19.8313 19.207 21.0269 19.207H24.2056V21.9131C24.2056 22.1716 23.9952 22.3819 23.7368 22.3819H11.2099C10.9514 22.3819 10.7411 22.1716 10.7411 21.9131V16.6938C10.7411 16.5228 10.6024 16.3841 10.4313 16.3841C10.2603 16.3841 10.1216 16.5228 10.1216 16.6938V21.9131C10.1216 22.5131 10.6097 23.0014 11.2099 23.0014H23.7368C24.3368 23.0014 24.8251 22.5133 24.8251 21.9131V12.5161C24.8251 11.9161 24.3369 11.4278 23.7368 11.4278V11.4277ZM24.2056 18.5874H21.0269C20.1728 18.5874 19.4781 17.8926 19.4781 17.0385C19.4781 16.1845 20.1728 15.4897 21.0269 15.4897H24.2056V18.5874Z" fill="white"/>
<path d="M16.7721 10.319L22.0169 9.12277C22.087 9.10673 22.147 9.11821 22.1956 9.15693C22.2686 9.21515 22.3121 9.33062 22.3121 9.46586V10.4391C22.3121 10.6102 22.4508 10.7489 22.6219 10.7489C22.793 10.7489 22.9317 10.6102 22.9317 10.4391V9.46586C22.9317 9.13909 22.8042 8.84995 22.5819 8.67265C22.3845 8.51515 22.1348 8.46052 21.8793 8.51888L16.6345 9.71506C16.4678 9.75309 16.3633 9.91918 16.4014 10.086C16.4394 10.2527 16.6055 10.3572 16.7723 10.3191L16.7721 10.319Z" fill="white"/>
<path d="M20.0969 17.0426C20.0969 17.5551 20.5139 17.9719 21.0262 17.9719C21.5386 17.9719 21.9555 17.5551 21.9555 17.0426C21.9555 16.5301 21.5386 16.1133 21.0262 16.1133C20.5139 16.1133 20.0969 16.5301 20.0969 17.0426ZM21.336 17.0426C21.336 17.2134 21.197 17.3523 21.0262 17.3523C20.8554 17.3523 20.7165 17.2134 20.7165 17.0426C20.7165 16.8718 20.8554 16.7328 21.0262 16.7328C21.197 16.7328 21.336 16.8718 21.336 17.0426Z" fill="white"/>
</svg>
