<svg width="29" height="29" viewBox="0 0 29 29" fill="none" xmlns="http://www.w3.org/2000/svg">
<path d="M14.5 29C22.5081 29 29 22.5081 29 14.5C29 6.49187 22.5081 0 14.5 0C6.49187 0 0 6.49187 0 14.5C0 22.5081 6.49187 29 14.5 29Z" fill="#455A64"/>
<path d="M23.628 15.8306L22.287 12.5976C22.0975 12.1404 21.6551 11.845 21.1602 11.845H18.6299C18.5362 11.845 18.4455 11.8578 18.3585 11.8797L18.3587 10.2849C18.3587 10.051 18.169 9.86133 17.9351 9.86133H16.4356C16.445 9.97939 16.451 10.0981 16.451 10.2186C16.451 10.3842 16.4415 10.5475 16.424 10.7086H17.5114V19.2937H11.3947C11.0912 18.6452 10.4342 18.1938 9.67215 18.1938C8.91016 18.1938 8.25297 18.6452 7.94945 19.2937H6.34724V10.7086H7.43451C7.41708 10.5474 7.40749 10.3842 7.40749 10.2186C7.40749 10.0983 7.4137 9.97939 7.42289 9.86133H5.92362C5.68966 9.86133 5.5 10.051 5.5 10.2849V19.7173C5.5 19.9513 5.68966 20.1409 5.92362 20.1409H7.77157C7.79548 21.1696 8.638 21.9995 9.67219 21.9995C10.7064 21.9995 11.5489 21.1696 11.5728 20.1409H18.4327C18.4566 21.1696 19.2991 21.9995 20.3333 21.9995C21.3675 21.9995 22.21 21.1696 22.2339 20.1409H22.4405C23.113 20.1409 23.6602 19.5937 23.6602 18.9212V15.9931C23.6602 15.9374 23.6492 15.8822 23.628 15.8307L23.628 15.8306ZM9.67204 21.1523C9.08997 21.1523 8.61638 20.6789 8.61638 20.0967C8.61638 19.5145 9.08997 19.041 9.67204 19.041C10.2541 19.041 10.7276 19.5145 10.7276 20.0967C10.7276 20.6789 10.2542 21.1523 9.67204 21.1523ZM22.6524 15.6902H19.8864V14.3769C19.8864 13.9686 20.2185 13.6364 20.6267 13.6364H21.8005L22.6524 15.6902ZM20.3332 21.1523C19.751 21.1523 19.2776 20.6789 19.2776 20.0967C19.2776 19.5145 19.751 19.041 20.3332 19.041C20.9154 19.041 21.3889 19.5145 21.3889 20.0967C21.3889 20.6789 20.9154 21.1523 20.3332 21.1523ZM22.8129 17.9271H22.5686C22.4923 17.9271 22.43 17.8648 22.43 17.7884V17.4026C22.43 17.3261 22.4923 17.2638 22.5686 17.2638H22.8129V17.9271ZM22.8129 16.6588H22.5686C22.1585 16.6588 21.8248 16.9924 21.8248 17.4027V17.7885C21.8248 18.1987 22.1585 18.5324 22.5686 18.5324H22.8129V18.9212C22.8129 19.1266 22.6458 19.2937 22.4404 19.2937H22.056C21.7524 18.6452 21.0953 18.1938 20.3333 18.1938C19.5713 18.1938 18.9141 18.6452 18.6106 19.2937H18.3585V12.9636C18.3585 12.8141 18.4802 12.6922 18.6299 12.6922H21.1601C21.3113 12.6922 21.4464 12.7825 21.5042 12.9221L21.5496 13.0314H20.6267C19.8848 13.0314 19.2811 13.6351 19.2811 14.3771V15.993C19.2811 16.1601 19.4166 16.2956 19.5837 16.2956H22.8128L22.8129 16.6588Z" fill="white"/>
<path d="M20.333 19.7285C20.1299 19.7285 19.9648 19.8936 19.9648 20.0966C19.9648 20.2997 20.1299 20.4649 20.333 20.4649C20.536 20.4649 20.7012 20.2998 20.7012 20.0966C20.7012 19.8936 20.5361 19.7285 20.333 19.7285Z" fill="white"/>
<path d="M19.2812 16.9627C19.2812 17.1298 19.4167 17.2653 19.5838 17.2653H20.3333C20.5004 17.2653 20.6359 17.1298 20.6359 16.9627C20.6359 16.7956 20.5004 16.6602 20.3333 16.6602H19.5838C19.4167 16.6602 19.2812 16.7956 19.2812 16.9627Z" fill="white"/>
<path d="M9.67193 19.7285C9.4689 19.7285 9.30371 19.8936 9.30371 20.0966C9.30371 20.2997 9.46878 20.4649 9.67193 20.4649C9.87496 20.4649 10.0402 20.2998 10.0402 20.0966C10.0402 19.8936 9.87508 19.7285 9.67193 19.7285Z" fill="white"/>
<path d="M11.9292 14.4385C14.2557 14.4385 16.1485 12.5456 16.1485 10.2193C16.1483 7.89298 14.2558 6 11.9292 6C9.60259 6 7.70996 7.89277 7.70996 10.2193C7.70996 12.5458 9.60273 14.4385 11.9292 14.4385ZM11.9292 6.84724C13.7885 6.84724 15.3012 8.35989 15.3012 10.2192C15.3012 12.0783 13.7885 13.5913 11.9292 13.5913C10.0701 13.5913 8.55727 12.0786 8.55727 10.2192C8.55727 8.35989 10.0699 6.84724 11.9292 6.84724Z" fill="white"/>
<path d="M10.007 10.707L11.2913 11.7381C11.3694 11.8006 11.463 11.8314 11.5562 11.8314C11.6721 11.8314 11.7873 11.7842 11.8707 11.6919L13.9004 9.44589C14.0572 9.27231 14.0437 9.00443 13.8701 8.8476C13.6966 8.69077 13.4288 8.70428 13.2719 8.87786L11.51 10.8272L10.5375 10.0465C10.355 9.90003 10.0882 9.92935 9.94207 10.1116C9.79537 10.2939 9.82468 10.5606 10.007 10.707L10.007 10.707Z" fill="white"/>
</svg>
