<svg width="43" height="42" viewBox="0 0 43 42" fill="none" xmlns="http://www.w3.org/2000/svg">
<circle cx="20" cy="19.5" r="19" fill="#FF3225"/>
<path d="M18.125 18.225L19.625 17.475C19.75 17.4125 19.875 17.3813 20 17.3813C20.125 17.3813 20.25 17.4125 20.375 17.475L21.875 18.225V13.875H18.125V18.225ZM17 23.25C16.7875 23.25 16.6094 23.1781 16.4656 23.0344C16.3219 22.8906 16.25 22.7125 16.25 22.5C16.25 22.2875 16.3219 22.1094 16.4656 21.9656C16.6094 21.8219 16.7875 21.75 17 21.75H19.25C19.4625 21.75 19.6406 21.8219 19.7844 21.9656C19.9281 22.1094 20 22.2875 20 22.5C20 22.7125 19.9281 22.8906 19.7844 23.0344C19.6406 23.1781 19.4625 23.25 19.25 23.25H17ZM14.375 26.25C14.075 26.25 13.8125 26.1375 13.5875 25.9125C13.3625 25.6875 13.25 25.425 13.25 25.125V13.875C13.25 13.575 13.3625 13.3125 13.5875 13.0875C13.8125 12.8625 14.075 12.75 14.375 12.75H25.625C25.925 12.75 26.1875 12.8625 26.4125 13.0875C26.6375 13.3125 26.75 13.575 26.75 13.875V25.125C26.75 25.425 26.6375 25.6875 26.4125 25.9125C26.1875 26.1375 25.925 26.25 25.625 26.25H14.375ZM14.375 13.875V25.125V13.875ZM14.375 25.125H25.625V13.875H23V19.125C23 19.3375 22.9125 19.5 22.7375 19.6125C22.5625 19.725 22.3813 19.7313 22.1938 19.6313L20 18.5438L17.8062 19.6313C17.6187 19.7313 17.4375 19.725 17.2625 19.6125C17.0875 19.5 17 19.3375 17 19.125V13.875H14.375V25.125Z" fill="#FAFAFA"/>
<path d="M41.4201 32.7101C41.4201 37.2444 37.7444 40.9201 33.2101 40.9201C28.6758 40.9201 25 37.2444 25 32.7101C25 28.1758 28.6758 24.5 33.2101 24.5C37.7444 24.5 41.4201 28.1758 41.4201 32.7101Z" fill="#FF3225" stroke="white" stroke-width="2"/>
<path d="M30.15 35.35C30.25 35.45 30.3667 35.5 30.5 35.5C30.6333 35.5 30.75 35.45 30.85 35.35L33 33.2L35.1667 35.3667C35.2556 35.4556 35.3694 35.4972 35.5083 35.4917C35.6472 35.4861 35.7611 35.4389 35.85 35.35C35.95 35.25 36 35.1333 36 35C36 34.8667 35.95 34.75 35.85 34.65L33.7 32.5L35.8667 30.3333C35.9556 30.2444 35.9972 30.1306 35.9917 29.9917C35.9861 29.8528 35.9389 29.7389 35.85 29.65C35.75 29.55 35.6333 29.5 35.5 29.5C35.3667 29.5 35.25 29.55 35.15 29.65L33 31.8L30.8333 29.6333C30.7444 29.5444 30.6306 29.5028 30.4917 29.5083C30.3528 29.5139 30.2389 29.5611 30.15 29.65C30.05 29.75 30 29.8667 30 30C30 30.1333 30.05 30.25 30.15 30.35L32.3 32.5L30.1333 34.6667C30.0444 34.7556 30.0028 34.8694 30.0083 35.0083C30.0139 35.1472 30.0611 35.2611 30.15 35.35Z" fill="#FAFAFA"/>
</svg>
