<svg width="18" height="19" viewBox="0 0 18 19" fill="none" xmlns="http://www.w3.org/2000/svg">
<path d="M9 18.5C13.9706 18.5 18 14.4706 18 9.5C18 4.52944 13.9706 0.5 9 0.5C4.02944 0.5 0 4.52944 0 9.5C0 14.4706 4.02944 18.5 9 18.5Z" fill="#E21B1B"/>
<path d="M17.9396 10.5286L12.9345 5.52344L5.28223 13.4572L10.2367 18.4117C14.2859 17.8548 17.4747 14.6061 17.9396 10.5286Z" fill="#C40606"/>
<path d="M12.4579 13.5603C12.2779 13.5603 12.0982 13.4917 11.9606 13.3544L5.14652 6.54004C4.87173 6.26526 4.87173 5.82032 5.14652 5.54582C5.4213 5.27132 5.86623 5.27104 6.14073 5.54582L12.9551 12.3602C13.2299 12.635 13.2299 13.0799 12.9551 13.3544C12.8176 13.4917 12.6379 13.5603 12.4579 13.5603Z" fill="white"/>
<path d="M5.64377 13.5604C5.46377 13.5604 5.28405 13.4918 5.14652 13.3546C4.87173 13.0798 4.87173 12.6348 5.14652 12.3603L11.9609 5.54593C12.2357 5.27115 12.6806 5.27115 12.9551 5.54593C13.2296 5.82071 13.2299 6.26565 12.9551 6.54015L6.14102 13.3546C6.00377 13.4918 5.82377 13.5604 5.64377 13.5604Z" fill="white"/>
</svg>
