<svg width="20" height="20" viewBox="0 0 20 20" fill="none" xmlns="http://www.w3.org/2000/svg">
<path d="M7.91667 8.58333L9.58333 7.75C9.72222 7.68056 9.86111 7.64583 10 7.64583C10.1389 7.64583 10.2778 7.68056 10.4167 7.75L12.0833 8.58333V3.75H7.91667V8.58333ZM6.66667 14.1667C6.43056 14.1667 6.23264 14.0868 6.07292 13.9271C5.91319 13.7674 5.83333 13.5694 5.83333 13.3333C5.83333 13.0972 5.91319 12.8993 6.07292 12.7396C6.23264 12.5799 6.43056 12.5 6.66667 12.5H9.16667C9.40278 12.5 9.60069 12.5799 9.76042 12.7396C9.92014 12.8993 10 13.0972 10 13.3333C10 13.5694 9.92014 13.7674 9.76042 13.9271C9.60069 14.0868 9.40278 14.1667 9.16667 14.1667H6.66667ZM3.75 17.5C3.41667 17.5 3.125 17.375 2.875 17.125C2.625 16.875 2.5 16.5833 2.5 16.25V3.75C2.5 3.41667 2.625 3.125 2.875 2.875C3.125 2.625 3.41667 2.5 3.75 2.5H16.25C16.5833 2.5 16.875 2.625 17.125 2.875C17.375 3.125 17.5 3.41667 17.5 3.75V16.25C17.5 16.5833 17.375 16.875 17.125 17.125C16.875 17.375 16.5833 17.5 16.25 17.5H3.75ZM3.75 3.75V16.25V3.75ZM3.75 16.25H16.25V3.75H13.3333V9.58333C13.3333 9.81944 13.2361 10 13.0417 10.125C12.8472 10.25 12.6458 10.2569 12.4375 10.1458L10 8.9375L7.5625 10.1458C7.35417 10.2569 7.15278 10.25 6.95833 10.125C6.76389 10 6.66667 9.81944 6.66667 9.58333V3.75H3.75V16.25Z" fill="white"/>
</svg>
