<svg width="20" height="20" viewBox="0 0 20 20" fill="none" xmlns="http://www.w3.org/2000/svg">
<mask id="path-1-inside-1_977_32388" fill="white">
<path d="M15.2188 5.0625L13.9062 3.90625L15.2812 1.71875C15.375 1.5625 15.3125 1.375 15.1875 1.28125C15.0312 1.1875 14.8438 1.25 14.75 1.375L13.4375 3.5L12.7188 2.875C12.6562 2.84375 12.5625 2.8125 12.5 2.8125H3.75C3.6875 2.8125 3.59375 2.84375 3.53125 2.875L1.03125 5.0625C0.96875 5.15625 0.9375 5.21875 0.9375 5.3125V17.8125C0.9375 18 1.0625 18.125 1.25 18.125H8.6875C8.6875 18.25 8.71875 18.3438 8.78125 18.4688C8.875 18.5938 9.03125 18.75 9.40625 18.75C9.6875 18.75 9.9375 18.6563 10.125 18.5313C10.2188 18.6563 10.4062 18.75 10.75 18.75C11.0312 18.75 11.2812 18.6563 11.4688 18.5313C11.5625 18.6563 11.75 18.75 12.0938 18.75C12.6875 18.75 13.0312 18.375 13.2188 18.125H15.0938C15.2812 18.125 15.4062 18 15.4062 17.8125V14.0625H15.625C15.75 14.0625 15.8438 14 15.9062 13.9063L19.0312 8.59375C19.125 8.4375 19.0625 8.25 18.9062 8.15625C18.75 8.0625 18.5625 8.125 18.4688 8.28125L15.4375 13.4375C14.5 13.4063 13.0625 12.5313 12.8438 11.875L18.7188 1.71875C18.7812 1.5625 18.75 1.375 18.5938 1.28125C18.4375 1.21875 18.25 1.25 18.1562 1.40625L15.3125 6.375V5.3125C15.3125 5.21875 15.2812 5.15625 15.2188 5.0625ZM14.1562 5H10.8125L9.90625 3.4375H12.375L14.1562 5ZM5.9375 5.625H10.3125V8.875L8.25 7.84375C8.15625 7.8125 8.0625 7.8125 7.96875 7.84375L5.9375 8.875V5.625ZM9.1875 3.4375L10.0938 5H6.15625L7.0625 3.4375H9.1875ZM3.875 3.4375H6.34375L5.4375 5H2.09375L3.875 3.4375ZM1.5625 5.625H5.3125V9.375C5.3125 9.46875 5.375 9.59375 5.46875 9.65625C5.5625 9.71875 5.6875 9.71875 5.78125 9.65625L8.15625 8.46875L10.5312 9.65625C10.5312 9.6875 10.5625 9.6875 10.625 9.6875C10.6875 9.6875 10.75 9.6875 10.7812 9.65625C10.875 9.59375 10.9375 9.5 10.9375 9.375V5.625H14.6875V7.4375L12.2188 11.7188C12.1562 11.8125 12.1562 11.9063 12.2188 12C12.2812 12.125 12.3438 12.25 12.4062 12.3438L12.3125 12.5L10.5938 12.8125C10.4688 12.8125 10.125 12.875 9.78125 13.2188L8.53125 14.4688C8.4375 14.5625 8.40625 14.7188 8.46875 14.8438C8.65625 15.2188 9.15625 15.625 9.8125 15.2813C9.8125 15.2813 9.84375 15.2813 9.84375 15.25L9.875 15.2188L8.875 17.5H1.5625V5.625ZM12.0312 18.125C11.9375 18.125 11.875 18.0938 11.875 18.125C11.875 18.0938 11.875 18.0625 11.9062 18C11.9062 17.9688 11.9375 17.9688 11.9375 17.9688L12.8125 16.4063C12.9062 16.25 12.8438 16.0625 12.6875 15.9688C12.5312 15.875 12.3438 15.9375 12.25 16.0938L11.4062 17.625L11.375 17.6563C11.375 17.6563 11.375 17.6875 11.3438 17.7188C11.2812 17.8438 11.0625 18.125 10.7188 18.125C10.625 18.125 10.5625 18.0938 10.5625 18.125C10.5625 18.0938 10.5625 18 10.5938 17.9688L11.5312 16.0938C11.5938 15.9375 11.5312 15.75 11.4062 15.6875C11.25 15.625 11.0625 15.6875 11 15.8125L10.0625 17.6875C10.0625 17.6875 9.8125 18.1563 9.40625 18.1563C9.375 18.1563 9.34375 18.1563 9.3125 18.1563C9.3125 18.125 9.34375 18.0313 9.375 17.9688L10.9375 14.5313C11 14.4063 10.9688 14.25 10.8438 14.1563C10.75 14.0625 10.5938 14.0625 10.4688 14.125L9.5625 14.75C9.40625 14.8125 9.28125 14.7813 9.1875 14.75L10.25 13.6875C10.4375 13.4375 10.625 13.4375 10.625 13.4375H10.6875L12.5625 13.125C12.6562 13.125 12.7188 13.0625 12.7812 13L12.8438 12.9063C13.3125 13.4063 13.9062 13.7813 14.5625 13.9375L12.6875 17.6875C12.6875 17.6875 12.4375 18.125 12.0312 18.125ZM13.4688 17.5L14.6875 15.0625V17.5H13.4688Z"/>
</mask>
<path d="M15.2188 5.0625L13.9062 3.90625L15.2812 1.71875C15.375 1.5625 15.3125 1.375 15.1875 1.28125C15.0312 1.1875 14.8438 1.25 14.75 1.375L13.4375 3.5L12.7188 2.875C12.6562 2.84375 12.5625 2.8125 12.5 2.8125H3.75C3.6875 2.8125 3.59375 2.84375 3.53125 2.875L1.03125 5.0625C0.96875 5.15625 0.9375 5.21875 0.9375 5.3125V17.8125C0.9375 18 1.0625 18.125 1.25 18.125H8.6875C8.6875 18.25 8.71875 18.3438 8.78125 18.4688C8.875 18.5938 9.03125 18.75 9.40625 18.75C9.6875 18.75 9.9375 18.6563 10.125 18.5313C10.2188 18.6563 10.4062 18.75 10.75 18.75C11.0312 18.75 11.2812 18.6563 11.4688 18.5313C11.5625 18.6563 11.75 18.75 12.0938 18.75C12.6875 18.75 13.0312 18.375 13.2188 18.125H15.0938C15.2812 18.125 15.4062 18 15.4062 17.8125V14.0625H15.625C15.75 14.0625 15.8438 14 15.9062 13.9063L19.0312 8.59375C19.125 8.4375 19.0625 8.25 18.9062 8.15625C18.75 8.0625 18.5625 8.125 18.4688 8.28125L15.4375 13.4375C14.5 13.4063 13.0625 12.5313 12.8438 11.875L18.7188 1.71875C18.7812 1.5625 18.75 1.375 18.5938 1.28125C18.4375 1.21875 18.25 1.25 18.1562 1.40625L15.3125 6.375V5.3125C15.3125 5.21875 15.2812 5.15625 15.2188 5.0625ZM14.1562 5H10.8125L9.90625 3.4375H12.375L14.1562 5ZM5.9375 5.625H10.3125V8.875L8.25 7.84375C8.15625 7.8125 8.0625 7.8125 7.96875 7.84375L5.9375 8.875V5.625ZM9.1875 3.4375L10.0938 5H6.15625L7.0625 3.4375H9.1875ZM3.875 3.4375H6.34375L5.4375 5H2.09375L3.875 3.4375ZM1.5625 5.625H5.3125V9.375C5.3125 9.46875 5.375 9.59375 5.46875 9.65625C5.5625 9.71875 5.6875 9.71875 5.78125 9.65625L8.15625 8.46875L10.5312 9.65625C10.5312 9.6875 10.5625 9.6875 10.625 9.6875C10.6875 9.6875 10.75 9.6875 10.7812 9.65625C10.875 9.59375 10.9375 9.5 10.9375 9.375V5.625H14.6875V7.4375L12.2188 11.7188C12.1562 11.8125 12.1562 11.9063 12.2188 12C12.2812 12.125 12.3438 12.25 12.4062 12.3438L12.3125 12.5L10.5938 12.8125C10.4688 12.8125 10.125 12.875 9.78125 13.2188L8.53125 14.4688C8.4375 14.5625 8.40625 14.7188 8.46875 14.8438C8.65625 15.2188 9.15625 15.625 9.8125 15.2813C9.8125 15.2813 9.84375 15.2813 9.84375 15.25L9.875 15.2188L8.875 17.5H1.5625V5.625ZM12.0312 18.125C11.9375 18.125 11.875 18.0938 11.875 18.125C11.875 18.0938 11.875 18.0625 11.9062 18C11.9062 17.9688 11.9375 17.9688 11.9375 17.9688L12.8125 16.4063C12.9062 16.25 12.8438 16.0625 12.6875 15.9688C12.5312 15.875 12.3438 15.9375 12.25 16.0938L11.4062 17.625L11.375 17.6563C11.375 17.6563 11.375 17.6875 11.3438 17.7188C11.2812 17.8438 11.0625 18.125 10.7188 18.125C10.625 18.125 10.5625 18.0938 10.5625 18.125C10.5625 18.0938 10.5625 18 10.5938 17.9688L11.5312 16.0938C11.5938 15.9375 11.5312 15.75 11.4062 15.6875C11.25 15.625 11.0625 15.6875 11 15.8125L10.0625 17.6875C10.0625 17.6875 9.8125 18.1563 9.40625 18.1563C9.375 18.1563 9.34375 18.1563 9.3125 18.1563C9.3125 18.125 9.34375 18.0313 9.375 17.9688L10.9375 14.5313C11 14.4063 10.9688 14.25 10.8438 14.1563C10.75 14.0625 10.5938 14.0625 10.4688 14.125L9.5625 14.75C9.40625 14.8125 9.28125 14.7813 9.1875 14.75L10.25 13.6875C10.4375 13.4375 10.625 13.4375 10.625 13.4375H10.6875L12.5625 13.125C12.6562 13.125 12.7188 13.0625 12.7812 13L12.8438 12.9063C13.3125 13.4063 13.9062 13.7813 14.5625 13.9375L12.6875 17.6875C12.6875 17.6875 12.4375 18.125 12.0312 18.125ZM13.4688 17.5L14.6875 15.0625V17.5H13.4688Z" fill="white" stroke="white" stroke-width="14" mask="url(#path-1-inside-1_977_32388)"/>
<path d="M4.6875 14.6875C4.875 14.6875 5 14.5625 5 14.375C5 14.1875 4.875 14.0625 4.6875 14.0625H3.125C2.9375 14.0625 2.8125 14.1875 2.8125 14.375C2.8125 14.5625 2.9375 14.6875 3.125 14.6875H4.6875Z" fill="white" stroke="black" stroke-width="7"/>
<path d="M3.125 15.625C2.9375 15.625 2.8125 15.75 2.8125 15.9375C2.8125 16.125 2.9375 16.25 3.125 16.25H5.625C5.8125 16.25 5.9375 16.125 5.9375 15.9375C5.9375 15.75 5.8125 15.625 5.625 15.625H3.125Z" fill="white" stroke="black" stroke-width="7"/>
</svg>
