<svg width="39" height="38" viewBox="0 0 39 38" fill="none" xmlns="http://www.w3.org/2000/svg">
<circle cx="19.5" cy="19" r="19" fill="#ECC521"/>
<g clip-path="url(#clip0_979_37444)">
<path d="M25.3519 17.7025V12.286C25.3519 11.5941 24.789 11.0312 24.0972 11.0312H12.7547C12.0629 11.0312 11.5 11.5941 11.5 12.286V23.6285C11.5 24.3204 12.0629 24.8832 12.7547 24.8832H20.0591C20.9106 26.0411 22.2821 26.794 23.8263 26.794C26.4034 26.794 28.5 24.6974 28.5 22.1203C28.5 20.0772 27.1821 18.3363 25.3519 17.7025ZM17.1938 12.0526H19.6581V14.8719L18.6155 14.4553C18.4938 14.4068 18.3581 14.4068 18.2365 14.4553L17.1938 14.8719V12.0526ZM12.7547 23.8618C12.6261 23.8618 12.5214 23.7571 12.5214 23.6285V12.286C12.5214 12.1573 12.6261 12.0526 12.7547 12.0526H16.1726V15.626C16.1726 15.7954 16.2566 15.9537 16.3968 16.0488C16.5371 16.1438 16.7154 16.1631 16.8727 16.1002L18.426 15.4796L19.9794 16.1002C20.0405 16.1246 20.1048 16.1366 20.1687 16.1366C20.2694 16.1366 20.3694 16.1068 20.4552 16.0488C20.5955 15.9537 20.6795 15.7954 20.6795 15.626V12.0526H24.0972C24.2259 12.0526 24.3305 12.1573 24.3305 12.286V17.4738C24.1649 17.4559 23.9967 17.4466 23.8263 17.4466C21.2491 17.4466 19.1525 19.5432 19.1525 22.1203C19.1525 22.7356 19.2723 23.3233 19.4892 23.8618H12.7547ZM23.8263 25.7727C21.8123 25.7727 20.1739 24.1342 20.1739 22.1203C20.1739 20.1063 21.8123 18.468 23.8263 18.468C25.8401 18.468 27.4786 20.1063 27.4786 22.1203C27.4786 24.1342 25.8401 25.7727 23.8263 25.7727Z" fill="white"/>
<path d="M25.6855 21.6436H24.3026V20.2608C24.3026 19.9787 24.074 19.75 23.7919 19.75C23.5099 19.75 23.2812 19.9787 23.2812 20.2608V22.1544C23.2812 22.4363 23.5099 22.665 23.7919 22.665H25.6855C25.9676 22.665 26.1963 22.4363 26.1963 22.1544C26.1963 21.8723 25.9676 21.6436 25.6855 21.6436Z" fill="white"/>
</g>
<defs>
<clipPath id="clip0_979_37444">
<rect width="17" height="17" fill="white" transform="translate(11.5 11)"/>
</clipPath>
</defs>
</svg>
