<svg width="17" height="17" viewBox="0 0 17 17" fill="none" xmlns="http://www.w3.org/2000/svg">
<g clip-path="url(#clip0_2671_39957)">
<path d="M13.5916 6.57318V1.25847C13.5916 0.57966 13.0392 0.0273438 12.3604 0.0273438H1.23113C0.552316 0.0273438 0 0.57966 0 1.25847V12.3878C0 13.0667 0.552316 13.6189 1.23113 13.6189H8.39826C9.23373 14.7551 10.5794 15.4938 12.0946 15.4938C14.6233 15.4938 16.6805 13.4367 16.6805 10.908C16.6805 8.90321 15.3873 7.19511 13.5916 6.57318V6.57318ZM5.58679 1.02953H8.00476V3.79582L6.98171 3.38705C6.86233 3.33946 6.72922 3.33946 6.60985 3.38705L5.58679 3.79582V1.02953ZM1.23113 12.6167C1.10489 12.6167 1.00219 12.514 1.00219 12.3878V1.25847C1.00219 1.13223 1.10489 1.02953 1.23113 1.02953H4.58473V4.53572C4.58473 4.70192 4.6672 4.85731 4.80477 4.95059C4.94246 5.04375 5.11732 5.06271 5.27169 5.00099L6.79578 4.39204L8.31999 5.00099C8.37993 5.02491 8.44305 5.03675 8.50579 5.03675C8.60455 5.03675 8.70267 5.00748 8.78691 4.95059C8.92448 4.85731 9.00695 4.70192 9.00695 4.53572V1.02953H12.3604C12.4867 1.02953 12.5894 1.13223 12.5894 1.25847V6.34882C12.4269 6.33125 12.2618 6.32209 12.0946 6.32209C9.56588 6.32209 7.5087 8.37928 7.5087 10.908C7.5087 11.5117 7.62616 12.0883 7.83907 12.6167H1.23113ZM12.0946 14.4917C10.1185 14.4917 8.51088 12.884 8.51088 10.908C8.51088 8.93185 10.1185 7.32428 12.0946 7.32428C14.0706 7.32428 15.6783 8.93185 15.6783 10.908C15.6783 12.884 14.0706 14.4917 12.0946 14.4917Z" fill="white"/>
<path d="M13.9216 10.4401H12.5647V9.08319C12.5647 8.80639 12.3403 8.58203 12.0635 8.58203C11.7869 8.58203 11.5625 8.80639 11.5625 9.08319V10.9412C11.5625 11.2179 11.7869 11.4422 12.0635 11.4422H13.9216C14.1983 11.4422 14.4227 11.2179 14.4227 10.9412C14.4227 10.6644 14.1983 10.4401 13.9216 10.4401Z" fill="white"/>
</g>
<defs>
<clipPath id="clip0_2671_39957">
<rect width="16.6805" height="16.6805" fill="white"/>
</clipPath>
</defs>
</svg>
