<svg width="20" height="20" viewBox="0 0 20 20" fill="none" xmlns="http://www.w3.org/2000/svg">
<path d="M4.66536 16.6465C3.98481 16.6465 3.40495 16.4104 2.92578 15.9382C2.44661 15.4659 2.20703 14.8826 2.20703 14.1882H2.08203C1.73481 14.1882 1.43967 14.0666 1.19661 13.8236C0.953559 13.5805 0.832031 13.2854 0.832031 12.9382V4.58398C0.832031 4.25065 0.957031 3.95898 1.20703 3.70898C1.45703 3.45898 1.7487 3.33398 2.08203 3.33398H12.8945C13.2418 3.33398 13.5369 3.45551 13.7799 3.69857C14.023 3.94162 14.1445 4.23676 14.1445 4.58398V6.81315H16.0195C16.1306 6.81315 16.2279 6.83398 16.3112 6.87565C16.3945 6.91732 16.464 6.97982 16.5195 7.06315L19.0404 10.4173C19.082 10.4729 19.1133 10.5319 19.1341 10.5944C19.1549 10.6569 19.1654 10.7229 19.1654 10.7923V13.5632C19.1654 13.7437 19.1063 13.893 18.9883 14.0111C18.8702 14.1291 18.7209 14.1882 18.5404 14.1882H17.6862C17.6862 14.8826 17.4466 15.4659 16.9674 15.9382C16.4883 16.4104 15.9084 16.6465 15.2279 16.6465C14.5473 16.6465 13.9674 16.4104 13.4883 15.9382C13.0091 15.4659 12.7695 14.8826 12.7695 14.1882H7.1237C7.1237 14.8826 6.88411 15.4659 6.40495 15.9382C5.92578 16.4104 5.34592 16.6465 4.66536 16.6465ZM4.66536 15.3965C4.9987 15.3965 5.28342 15.2784 5.51953 15.0423C5.75564 14.8062 5.8737 14.5215 5.8737 14.1882C5.8737 13.8548 5.75564 13.5701 5.51953 13.334C5.28342 13.0979 4.9987 12.9798 4.66536 12.9798C4.33203 12.9798 4.04731 13.0979 3.8112 13.334C3.57509 13.5701 3.45703 13.8548 3.45703 14.1882C3.45703 14.5215 3.57509 14.8062 3.8112 15.0423C4.04731 15.2784 4.33203 15.3965 4.66536 15.3965ZM2.08203 4.58398V12.9382H2.54036C2.77648 12.5632 3.07509 12.2645 3.4362 12.0423C3.79731 11.8201 4.20009 11.709 4.64453 11.709C5.08898 11.709 5.49523 11.8236 5.86328 12.0527C6.23134 12.2819 6.53342 12.577 6.76953 12.9382H12.8945V4.58398H2.08203ZM15.2279 15.3965C15.5612 15.3965 15.8459 15.2784 16.082 15.0423C16.3181 14.8062 16.4362 14.5215 16.4362 14.1882C16.4362 13.8548 16.3181 13.5701 16.082 13.334C15.8459 13.0979 15.5612 12.9798 15.2279 12.9798C14.8945 12.9798 14.6098 13.0979 14.3737 13.334C14.1376 13.5701 14.0195 13.8548 14.0195 14.1882C14.0195 14.5215 14.1376 14.8062 14.3737 15.0423C14.6098 15.2784 14.8945 15.3965 15.2279 15.3965ZM14.1445 11.1465H18.0195L15.707 8.06315H14.1445V11.1465Z" fill="white"/>
</svg>
