<svg width="20" height="20" viewBox="0 0 20 20" fill="none" xmlns="http://www.w3.org/2000/svg">
<path d="M15.8333 8.33203H4.16667C3.24619 8.33203 2.5 9.07822 2.5 9.9987V16.6654C2.5 17.5858 3.24619 18.332 4.16667 18.332H15.8333C16.7538 18.332 17.5 17.5858 17.5 16.6654V9.9987C17.5 9.07822 16.7538 8.33203 15.8333 8.33203Z" stroke="#F5AB35" stroke-width="2" stroke-linecap="round" stroke-linejoin="round"/>
<path d="M5 5C5 4.33696 5.26339 3.70107 5.73223 3.23223C6.20107 2.76339 6.83696 2.5 7.5 2.5H12.5C13.163 2.5 13.7989 2.76339 14.2678 3.23223C14.7366 3.70107 15 4.33696 15 5V8.33333H5V5Z" stroke="#F5AB35" stroke-width="2" stroke-linecap="round" stroke-linejoin="round"/>
</svg>
