<svg width="16" height="16" viewBox="0 0 16 16" fill="none" xmlns="http://www.w3.org/2000/svg">
<g clip-path="url(#clip0_4115_24866)">
<path d="M12.6667 4.66797H16V6.0013H12.6667V4.66797ZM11.3333 8.0013H16V9.33464H11.3333V8.0013ZM13.3333 11.3346H16V12.668H13.3333V11.3346ZM1.33334 14.668C1.33334 11.7224 3.72116 9.33464 6.66668 9.33464C9.61221 9.33464 12 11.7224 12 14.668H10.6667C10.6667 12.4588 8.87581 10.668 6.66668 10.668C4.45754 10.668 2.66668 12.4588 2.66668 14.668H1.33334ZM6.66668 8.66797C4.45668 8.66797 2.66668 6.87797 2.66668 4.66797C2.66668 2.45797 4.45668 0.667969 6.66668 0.667969C8.87668 0.667969 10.6667 2.45797 10.6667 4.66797C10.6667 6.87797 8.87668 8.66797 6.66668 8.66797ZM6.66668 7.33464C8.14001 7.33464 9.33334 6.1413 9.33334 4.66797C9.33334 3.19464 8.14001 2.0013 6.66668 2.0013C5.19334 2.0013 4.00001 3.19464 4.00001 4.66797C4.00001 6.1413 5.19334 7.33464 6.66668 7.33464Z" fill="#2F80ED"/>
</g>
<defs>
<clipPath id="clip0_4115_24866">
<rect width="16" height="16" fill="white"/>
</clipPath>
</defs>
</svg>
