<svg width="20" height="20" viewBox="0 0 20 20" fill="none" xmlns="http://www.w3.org/2000/svg">
<path d="M10.335 1C9.10911 1 7.89522 1.24146 6.76265 1.71058C5.63008 2.17971 4.60099 2.86732 3.73416 3.73416C1.98351 5.48481 1 7.8592 1 10.335C1 12.8108 1.98351 15.1852 3.73416 16.9358C4.60099 17.8027 5.63008 18.4903 6.76265 18.9594C7.89522 19.4285 9.10911 19.67 10.335 19.67C12.8108 19.67 15.1852 18.6865 16.9358 16.9358C18.6865 15.1852 19.67 12.8108 19.67 10.335C19.67 9.10911 19.4285 7.89522 18.9594 6.76265C18.4903 5.63008 17.8027 4.60099 16.9358 3.73416C16.069 2.86732 15.0399 2.17971 13.9073 1.71058C12.7748 1.24146 11.5609 1 10.335 1ZM5.73285 16.1974C6.13425 15.3572 8.58002 14.5357 10.335 14.5357C12.09 14.5357 14.5358 15.3572 14.9372 16.1974C13.6297 17.2392 12.0068 17.8054 10.335 17.803C8.59869 17.803 7.00241 17.2056 5.73285 16.1974ZM16.2721 14.8438C14.9372 13.2195 11.6979 12.6687 10.335 12.6687C8.97209 12.6687 5.73284 13.2195 4.39794 14.8438C3.40487 13.5506 2.86669 11.9655 2.867 10.335C2.867 6.21827 6.21827 2.867 10.335 2.867C14.4517 2.867 17.803 6.21827 17.803 10.335C17.803 12.034 17.2242 13.6023 16.2721 14.8438ZM10.335 4.734C8.52401 4.734 7.06775 6.19026 7.06775 8.00125C7.06775 9.81224 8.52401 11.2685 10.335 11.2685C12.146 11.2685 13.6023 9.81224 13.6023 8.00125C13.6023 6.19026 12.146 4.734 10.335 4.734ZM10.335 9.4015C9.96363 9.4015 9.60747 9.25397 9.34487 8.99138C9.08228 8.72878 8.93475 8.37262 8.93475 8.00125C8.93475 7.62988 9.08228 7.27372 9.34487 7.01112C9.60747 6.74853 9.96363 6.601 10.335 6.601C10.7064 6.601 11.0625 6.74853 11.3251 7.01112C11.5877 7.27372 11.7352 7.62988 11.7352 8.00125C11.7352 8.37262 11.5877 8.72878 11.3251 8.99138C11.0625 9.25397 10.7064 9.4015 10.335 9.4015Z" fill="#F5AB35"/>
</svg>
