<svg width="20" height="20" viewBox="0 0 20 20" fill="none" xmlns="http://www.w3.org/2000/svg">
<path d="M13.15 13.199C13.15 13.199 15.5333 10.8323 16.3417 9.99896C18.9 7.49896 17.625 2.34896 17.625 2.34896C17.625 2.34896 12.5 1.07396 9.99999 3.63229C8.04999 5.53229 6.78332 6.84896 6.78332 6.84896C6.78332 6.84896 3.58332 6.18229 1.66666 8.09896L11.875 18.3323C13.7917 16.3906 13.15 13.199 13.15 13.199ZM11.9 5.69896C12.0548 5.544 12.2386 5.42107 12.4409 5.33719C12.6433 5.25332 12.8601 5.21015 13.0792 5.21015C13.2982 5.21015 13.5151 5.25332 13.7174 5.33719C13.9197 5.42107 14.1035 5.544 14.2583 5.69896C14.4912 5.93212 14.6498 6.2291 14.7139 6.55235C14.7781 6.8756 14.745 7.21062 14.6188 7.51505C14.4926 7.81949 14.279 8.07967 14.0049 8.26273C13.7309 8.44578 13.4087 8.54348 13.0792 8.54348C12.7496 8.54348 12.4274 8.44578 12.1534 8.26273C11.8794 8.07967 11.6657 7.81949 11.5395 7.51505C11.4133 7.21062 11.3802 6.8756 11.4444 6.55235C11.5085 6.2291 11.6671 5.93212 11.9 5.69896ZM2.49999 17.499C4.04255 17.455 5.51928 16.8643 6.66666 15.8323L4.16666 13.3323C2.49999 14.1656 2.49999 17.499 2.49999 17.499Z" fill="#F5AB35"/>
</svg>
