<svg width="20" height="20" viewBox="0 0 20 20" fill="none" xmlns="http://www.w3.org/2000/svg">
<path d="M15.8333 3.33203H4.16663C3.50358 3.33203 2.8677 3.59542 2.39886 4.06426C1.93002 4.53311 1.66663 5.16899 1.66663 5.83203V14.1654C1.66663 14.8284 1.93002 15.4643 2.39886 15.9331C2.8677 16.402 3.50358 16.6654 4.16663 16.6654H15.8333C16.4963 16.6654 17.1322 16.402 17.6011 15.9331C18.0699 15.4643 18.3333 14.8284 18.3333 14.1654V5.83203C18.3333 5.16899 18.0699 4.53311 17.6011 4.06426C17.1322 3.59542 16.4963 3.33203 15.8333 3.33203ZM15.275 4.9987L9.99996 8.95703L4.72496 4.9987H15.275ZM15.8333 14.9987H4.16663C3.94561 14.9987 3.73365 14.9109 3.57737 14.7546C3.42109 14.5983 3.33329 14.3864 3.33329 14.1654V6.04036L9.49996 10.6654C9.6442 10.7735 9.81965 10.832 9.99996 10.832C10.1803 10.832 10.3557 10.7735 10.5 10.6654L16.6666 6.04036V14.1654C16.6666 14.3864 16.5788 14.5983 16.4225 14.7546C16.2663 14.9109 16.0543 14.9987 15.8333 14.9987Z" fill="#F5AB35"/>
</svg>
