<svg width="236" height="46" viewBox="0 0 236 46" fill="none" xmlns="http://www.w3.org/2000/svg">
<rect x="0.5" y="1.28809" width="235" height="44" rx="3.5" stroke="#565454" stroke-dasharray="5 5"/>
<circle cx="60.5" cy="23.2881" r="10.5" fill="#F5AB35"/>
<path d="M61 19.2881C61 19.1555 60.9473 19.0283 60.8536 18.9345C60.7598 18.8408 60.6326 18.7881 60.5 18.7881C60.3674 18.7881 60.2402 18.8408 60.1464 18.9345C60.0527 19.0283 60 19.1555 60 19.2881V22.7881H56.5C56.3674 22.7881 56.2402 22.8408 56.1464 22.9345C56.0527 23.0283 56 23.1555 56 23.2881C56 23.4207 56.0527 23.5479 56.1464 23.6416C56.2402 23.7354 56.3674 23.7881 56.5 23.7881H60V27.2881C60 27.4207 60.0527 27.5479 60.1464 27.6416C60.2402 27.7354 60.3674 27.7881 60.5 27.7881C60.6326 27.7881 60.7598 27.7354 60.8536 27.6416C60.9473 27.5479 61 27.4207 61 27.2881V23.7881H64.5C64.6326 23.7881 64.7598 23.7354 64.8536 23.6416C64.9473 23.5479 65 23.4207 65 23.2881C65 23.1555 64.9473 23.0283 64.8536 22.9345C64.7598 22.8408 64.6326 22.7881 64.5 22.7881H61V19.2881Z" fill="white"/>
<path d="M86.928 26.0841H83.436L82.836 27.7881H81.408L84.396 19.4361H85.98L88.968 27.7881H87.528L86.928 26.0841ZM86.544 24.9681L85.188 21.0921L83.82 24.9681H86.544ZM89.8112 24.4521C89.8112 23.7881 89.9472 23.2001 90.2192 22.6881C90.4992 22.1761 90.8752 21.7801 91.3472 21.5001C91.8272 21.2121 92.3592 21.0681 92.9432 21.0681C93.3752 21.0681 93.7992 21.1641 94.2152 21.3561C94.6392 21.5401 94.9752 21.7881 95.2232 22.1001V18.9081H96.6032V27.7881H95.2232V26.7921C94.9992 27.1121 94.6872 27.3761 94.2872 27.5841C93.8952 27.7921 93.4432 27.8961 92.9312 27.8961C92.3552 27.8961 91.8272 27.7521 91.3472 27.4641C90.8752 27.1681 90.4992 26.7601 90.2192 26.2401C89.9472 25.7121 89.8112 25.1161 89.8112 24.4521ZM95.2232 24.4761C95.2232 24.0201 95.1272 23.6241 94.9352 23.2881C94.7512 22.9521 94.5072 22.6961 94.2032 22.5201C93.8992 22.3441 93.5712 22.2561 93.2192 22.2561C92.8672 22.2561 92.5392 22.3441 92.2352 22.5201C91.9312 22.6881 91.6832 22.9401 91.4912 23.2761C91.3072 23.6041 91.2152 23.9961 91.2152 24.4521C91.2152 24.9081 91.3072 25.3081 91.4912 25.6521C91.6832 25.9961 91.9312 26.2601 92.2352 26.4441C92.5472 26.6201 92.8752 26.7081 93.2192 26.7081C93.5712 26.7081 93.8992 26.6201 94.2032 26.4441C94.5072 26.2681 94.7512 26.0121 94.9352 25.6761C95.1272 25.3321 95.2232 24.9321 95.2232 24.4761ZM97.944 24.4521C97.944 23.7881 98.08 23.2001 98.352 22.6881C98.632 22.1761 99.008 21.7801 99.48 21.5001C99.96 21.2121 100.492 21.0681 101.076 21.0681C101.508 21.0681 101.932 21.1641 102.348 21.3561C102.772 21.5401 103.108 21.7881 103.356 22.1001V18.9081H104.736V27.7881H103.356V26.7921C103.132 27.1121 102.82 27.3761 102.42 27.5841C102.028 27.7921 101.576 27.8961 101.064 27.8961C100.488 27.8961 99.96 27.7521 99.48 27.4641C99.008 27.1681 98.632 26.7601 98.352 26.2401C98.08 25.7121 97.944 25.1161 97.944 24.4521ZM103.356 24.4761C103.356 24.0201 103.26 23.6241 103.068 23.2881C102.884 22.9521 102.64 22.6961 102.336 22.5201C102.032 22.3441 101.704 22.2561 101.352 22.2561C101 22.2561 100.672 22.3441 100.368 22.5201C100.064 22.6881 99.816 22.9401 99.624 23.2761C99.44 23.6041 99.348 23.9961 99.348 24.4521C99.348 24.9081 99.44 25.3081 99.624 25.6521C99.816 25.9961 100.064 26.2601 100.368 26.4441C100.68 26.6201 101.008 26.7081 101.352 26.7081C101.704 26.7081 102.032 26.6201 102.336 26.4441C102.64 26.2681 102.884 26.0121 103.068 25.6761C103.26 25.3321 103.356 24.9321 103.356 24.4761ZM116.838 19.4481L113.706 27.7881H112.122L108.978 19.4481H110.442L112.914 26.3841L115.398 19.4481H116.838ZM117.526 24.4521C117.526 23.7881 117.662 23.2001 117.934 22.6881C118.214 22.1761 118.59 21.7801 119.062 21.5001C119.542 21.2121 120.07 21.0681 120.646 21.0681C121.166 21.0681 121.618 21.1721 122.002 21.3801C122.394 21.5801 122.706 21.8321 122.938 22.1361V21.1761H124.318V27.7881H122.938V26.8041C122.706 27.1161 122.39 27.3761 121.99 27.5841C121.59 27.7921 121.134 27.8961 120.622 27.8961C120.054 27.8961 119.534 27.7521 119.062 27.4641C118.59 27.1681 118.214 26.7601 117.934 26.2401C117.662 25.7121 117.526 25.1161 117.526 24.4521ZM122.938 24.4761C122.938 24.0201 122.842 23.6241 122.65 23.2881C122.466 22.9521 122.222 22.6961 121.918 22.5201C121.614 22.3441 121.286 22.2561 120.934 22.2561C120.582 22.2561 120.254 22.3441 119.95 22.5201C119.646 22.6881 119.398 22.9401 119.206 23.2761C119.022 23.6041 118.93 23.9961 118.93 24.4521C118.93 24.9081 119.022 25.3081 119.206 25.6521C119.398 25.9961 119.646 26.2601 119.95 26.4441C120.262 26.6201 120.59 26.7081 120.934 26.7081C121.286 26.7081 121.614 26.6201 121.918 26.4441C122.222 26.2681 122.466 26.0121 122.65 25.6761C122.842 25.3321 122.938 24.9321 122.938 24.4761ZM127.483 22.1361C127.683 21.8001 127.947 21.5401 128.275 21.3561C128.611 21.1641 129.007 21.0681 129.463 21.0681V22.4841H129.115C128.579 22.4841 128.171 22.6201 127.891 22.8921C127.619 23.1641 127.483 23.6361 127.483 24.3081V27.7881H126.115V21.1761H127.483V22.1361ZM131.416 20.3001C131.168 20.3001 130.96 20.2161 130.792 20.0481C130.624 19.8801 130.54 19.6721 130.54 19.4241C130.54 19.1761 130.624 18.9681 130.792 18.8001C130.96 18.6321 131.168 18.5481 131.416 18.5481C131.656 18.5481 131.86 18.6321 132.028 18.8001C132.196 18.9681 132.28 19.1761 132.28 19.4241C132.28 19.6721 132.196 19.8801 132.028 20.0481C131.86 20.2161 131.656 20.3001 131.416 20.3001ZM132.088 21.1761V27.7881H130.72V21.1761H132.088ZM133.428 24.4521C133.428 23.7881 133.564 23.2001 133.836 22.6881C134.116 22.1761 134.492 21.7801 134.964 21.5001C135.444 21.2121 135.972 21.0681 136.548 21.0681C137.068 21.0681 137.52 21.1721 137.904 21.3801C138.296 21.5801 138.608 21.8321 138.84 22.1361V21.1761H140.22V27.7881H138.84V26.8041C138.608 27.1161 138.292 27.3761 137.892 27.5841C137.492 27.7921 137.036 27.8961 136.524 27.8961C135.956 27.8961 135.436 27.7521 134.964 27.4641C134.492 27.1681 134.116 26.7601 133.836 26.2401C133.564 25.7121 133.428 25.1161 133.428 24.4521ZM138.84 24.4761C138.84 24.0201 138.744 23.6241 138.552 23.2881C138.368 22.9521 138.124 22.6961 137.82 22.5201C137.516 22.3441 137.188 22.2561 136.836 22.2561C136.484 22.2561 136.156 22.3441 135.852 22.5201C135.548 22.6881 135.3 22.9401 135.108 23.2761C134.924 23.6041 134.832 23.9961 134.832 24.4521C134.832 24.9081 134.924 25.3081 135.108 25.6521C135.3 25.9961 135.548 26.2601 135.852 26.4441C136.164 26.6201 136.492 26.7081 136.836 26.7081C137.188 26.7081 137.516 26.6201 137.82 26.4441C138.124 26.2681 138.368 26.0121 138.552 25.6761C138.744 25.3321 138.84 24.9321 138.84 24.4761ZM143.613 22.2921V25.9521C143.613 26.2001 143.669 26.3801 143.781 26.4921C143.901 26.5961 144.101 26.6481 144.381 26.6481H145.221V27.7881H144.141C143.525 27.7881 143.053 27.6441 142.725 27.3561C142.397 27.0681 142.233 26.6001 142.233 25.9521V22.2921H141.453V21.1761H142.233V19.5321H143.613V21.1761H145.221V22.2921H143.613ZM147.178 20.3001C146.93 20.3001 146.722 20.2161 146.554 20.0481C146.386 19.8801 146.302 19.6721 146.302 19.4241C146.302 19.1761 146.386 18.9681 146.554 18.8001C146.722 18.6321 146.93 18.5481 147.178 18.5481C147.418 18.5481 147.622 18.6321 147.79 18.8001C147.958 18.9681 148.042 19.1761 148.042 19.4241C148.042 19.6721 147.958 19.8801 147.79 20.0481C147.622 20.2161 147.418 20.3001 147.178 20.3001ZM147.85 21.1761V27.7881H146.482V21.1761H147.85ZM152.514 27.8961C151.89 27.8961 151.326 27.7561 150.822 27.4761C150.318 27.1881 149.922 26.7881 149.634 26.2761C149.346 25.7561 149.202 25.1561 149.202 24.4761C149.202 23.8041 149.35 23.2081 149.646 22.6881C149.942 22.1681 150.346 21.7681 150.858 21.4881C151.37 21.2081 151.942 21.0681 152.574 21.0681C153.206 21.0681 153.778 21.2081 154.29 21.4881C154.802 21.7681 155.206 22.1681 155.502 22.6881C155.798 23.2081 155.946 23.8041 155.946 24.4761C155.946 25.1481 155.794 25.7441 155.49 26.2641C155.186 26.7841 154.77 27.1881 154.242 27.4761C153.722 27.7561 153.146 27.8961 152.514 27.8961ZM152.514 26.7081C152.866 26.7081 153.194 26.6241 153.498 26.4561C153.81 26.2881 154.062 26.0361 154.254 25.7001C154.446 25.3641 154.542 24.9561 154.542 24.4761C154.542 23.9961 154.45 23.5921 154.266 23.2641C154.082 22.9281 153.838 22.6761 153.534 22.5081C153.23 22.3401 152.902 22.2561 152.55 22.2561C152.198 22.2561 151.87 22.3401 151.566 22.5081C151.27 22.6761 151.034 22.9281 150.858 23.2641C150.682 23.5921 150.594 23.9961 150.594 24.4761C150.594 25.1881 150.774 25.7401 151.134 26.1321C151.502 26.5161 151.962 26.7081 152.514 26.7081ZM160.634 21.0681C161.154 21.0681 161.618 21.1761 162.026 21.3921C162.442 21.6081 162.766 21.9281 162.998 22.3521C163.23 22.7761 163.346 23.2881 163.346 23.8881V27.7881H161.99V24.0921C161.99 23.5001 161.842 23.0481 161.546 22.7361C161.25 22.4161 160.846 22.2561 160.334 22.2561C159.822 22.2561 159.414 22.4161 159.11 22.7361C158.814 23.0481 158.666 23.5001 158.666 24.0921V27.7881H157.298V21.1761H158.666V21.9321C158.89 21.6601 159.174 21.4481 159.518 21.2961C159.87 21.1441 160.242 21.0681 160.634 21.0681Z" fill="#F5AB35"/>
</svg>
