<svg width="105" height="105" viewBox="0 0 105 105" fill="none" xmlns="http://www.w3.org/2000/svg">
<rect x="0.5" y="0.5" width="104" height="104" rx="3.5" stroke="#565454" stroke-dasharray="5 5"/>
<path d="M27.928 78.296H24.436L23.836 80H22.408L25.396 71.648H26.98L29.968 80H28.528L27.928 78.296ZM27.544 77.18L26.188 73.304L24.82 77.18H27.544ZM30.8112 76.664C30.8112 76 30.9472 75.412 31.2192 74.9C31.4992 74.388 31.8752 73.992 32.3472 73.712C32.8272 73.424 33.3592 73.28 33.9432 73.28C34.3752 73.28 34.7992 73.376 35.2152 73.568C35.6392 73.752 35.9752 74 36.2232 74.312V71.12H37.6032V80H36.2232V79.004C35.9992 79.324 35.6872 79.588 35.2872 79.796C34.8952 80.004 34.4432 80.108 33.9312 80.108C33.3552 80.108 32.8272 79.964 32.3472 79.676C31.8752 79.38 31.4992 78.972 31.2192 78.452C30.9472 77.924 30.8112 77.328 30.8112 76.664ZM36.2232 76.688C36.2232 76.232 36.1272 75.836 35.9352 75.5C35.7512 75.164 35.5072 74.908 35.2032 74.732C34.8992 74.556 34.5712 74.468 34.2192 74.468C33.8672 74.468 33.5392 74.556 33.2352 74.732C32.9312 74.9 32.6832 75.152 32.4912 75.488C32.3072 75.816 32.2152 76.208 32.2152 76.664C32.2152 77.12 32.3072 77.52 32.4912 77.864C32.6832 78.208 32.9312 78.472 33.2352 78.656C33.5472 78.832 33.8752 78.92 34.2192 78.92C34.5712 78.92 34.8992 78.832 35.2032 78.656C35.5072 78.48 35.7512 78.224 35.9352 77.888C36.1272 77.544 36.2232 77.144 36.2232 76.688ZM38.944 76.664C38.944 76 39.08 75.412 39.352 74.9C39.632 74.388 40.008 73.992 40.48 73.712C40.96 73.424 41.492 73.28 42.076 73.28C42.508 73.28 42.932 73.376 43.348 73.568C43.772 73.752 44.108 74 44.356 74.312V71.12H45.736V80H44.356V79.004C44.132 79.324 43.82 79.588 43.42 79.796C43.028 80.004 42.576 80.108 42.064 80.108C41.488 80.108 40.96 79.964 40.48 79.676C40.008 79.38 39.632 78.972 39.352 78.452C39.08 77.924 38.944 77.328 38.944 76.664ZM44.356 76.688C44.356 76.232 44.26 75.836 44.068 75.5C43.884 75.164 43.64 74.908 43.336 74.732C43.032 74.556 42.704 74.468 42.352 74.468C42 74.468 41.672 74.556 41.368 74.732C41.064 74.9 40.816 75.152 40.624 75.488C40.44 75.816 40.348 76.208 40.348 76.664C40.348 77.12 40.44 77.52 40.624 77.864C40.816 78.208 41.064 78.472 41.368 78.656C41.68 78.832 42.008 78.92 42.352 78.92C42.704 78.92 43.032 78.832 43.336 78.656C43.64 78.48 43.884 78.224 44.068 77.888C44.26 77.544 44.356 77.144 44.356 76.688ZM52.018 71.66V80H50.65V71.66H52.018ZM61.8181 73.28C62.3381 73.28 62.8021 73.388 63.2101 73.604C63.6261 73.82 63.9501 74.14 64.1821 74.564C64.4221 74.988 64.5421 75.5 64.5421 76.1V80H63.1861V76.304C63.1861 75.712 63.0381 75.26 62.7421 74.948C62.4461 74.628 62.0421 74.468 61.5301 74.468C61.0181 74.468 60.6101 74.628 60.3061 74.948C60.0101 75.26 59.8621 75.712 59.8621 76.304V80H58.5061V76.304C58.5061 75.712 58.3581 75.26 58.0621 74.948C57.7661 74.628 57.3621 74.468 56.8501 74.468C56.3381 74.468 55.9301 74.628 55.6261 74.948C55.3301 75.26 55.1821 75.712 55.1821 76.304V80H53.8141V73.388H55.1821V74.144C55.4061 73.872 55.6901 73.66 56.0341 73.508C56.3781 73.356 56.7461 73.28 57.1381 73.28C57.6661 73.28 58.1381 73.392 58.5541 73.616C58.9701 73.84 59.2901 74.164 59.5141 74.588C59.7141 74.188 60.0261 73.872 60.4501 73.64C60.8741 73.4 61.3301 73.28 61.8181 73.28ZM65.8268 76.664C65.8268 76 65.9628 75.412 66.2348 74.9C66.5148 74.388 66.8908 73.992 67.3628 73.712C67.8428 73.424 68.3708 73.28 68.9468 73.28C69.4668 73.28 69.9188 73.384 70.3028 73.592C70.6948 73.792 71.0068 74.044 71.2388 74.348V73.388H72.6188V80H71.2388V79.016C71.0068 79.328 70.6908 79.588 70.2908 79.796C69.8908 80.004 69.4348 80.108 68.9228 80.108C68.3548 80.108 67.8348 79.964 67.3628 79.676C66.8908 79.38 66.5148 78.972 66.2348 78.452C65.9628 77.924 65.8268 77.328 65.8268 76.664ZM71.2388 76.688C71.2388 76.232 71.1428 75.836 70.9508 75.5C70.7668 75.164 70.5228 74.908 70.2188 74.732C69.9148 74.556 69.5868 74.468 69.2348 74.468C68.8828 74.468 68.5548 74.556 68.2508 74.732C67.9468 74.9 67.6988 75.152 67.5068 75.488C67.3228 75.816 67.2308 76.208 67.2308 76.664C67.2308 77.12 67.3228 77.52 67.5068 77.864C67.6988 78.208 67.9468 78.472 68.2508 78.656C68.5628 78.832 68.8908 78.92 69.2348 78.92C69.5868 78.92 69.9148 78.832 70.2188 78.656C70.5228 78.48 70.7668 78.224 70.9508 77.888C71.1428 77.544 71.2388 77.144 71.2388 76.688ZM77.0796 73.28C77.5916 73.28 78.0436 73.384 78.4356 73.592C78.8356 73.792 79.1476 74.044 79.3716 74.348V73.388H80.7516V80.108C80.7516 80.716 80.6236 81.256 80.3676 81.728C80.1116 82.208 79.7396 82.584 79.2516 82.856C78.7716 83.128 78.1956 83.264 77.5236 83.264C76.6276 83.264 75.8836 83.052 75.2916 82.628C74.6996 82.212 74.3636 81.644 74.2836 80.924H75.6396C75.7436 81.268 75.9636 81.544 76.2996 81.752C76.6436 81.968 77.0516 82.076 77.5236 82.076C78.0756 82.076 78.5196 81.908 78.8556 81.572C79.1996 81.236 79.3716 80.748 79.3716 80.108V79.004C79.1396 79.316 78.8236 79.58 78.4236 79.796C78.0316 80.004 77.5836 80.108 77.0796 80.108C76.5036 80.108 75.9756 79.964 75.4956 79.676C75.0236 79.38 74.6476 78.972 74.3676 78.452C74.0956 77.924 73.9596 77.328 73.9596 76.664C73.9596 76 74.0956 75.412 74.3676 74.9C74.6476 74.388 75.0236 73.992 75.4956 73.712C75.9756 73.424 76.5036 73.28 77.0796 73.28ZM79.3716 76.688C79.3716 76.232 79.2756 75.836 79.0836 75.5C78.8996 75.164 78.6556 74.908 78.3516 74.732C78.0476 74.556 77.7196 74.468 77.3676 74.468C77.0156 74.468 76.6876 74.556 76.3836 74.732C76.0796 74.9 75.8316 75.152 75.6396 75.488C75.4556 75.816 75.3636 76.208 75.3636 76.664C75.3636 77.12 75.4556 77.52 75.6396 77.864C75.8316 78.208 76.0796 78.472 76.3836 78.656C76.6956 78.832 77.0236 78.92 77.3676 78.92C77.7196 78.92 78.0476 78.832 78.3516 78.656C78.6556 78.48 78.8996 78.224 79.0836 77.888C79.2756 77.544 79.3716 77.144 79.3716 76.688ZM88.6084 76.532C88.6084 76.78 88.5924 77.004 88.5604 77.204H83.5084C83.5484 77.732 83.7444 78.156 84.0964 78.476C84.4484 78.796 84.8804 78.956 85.3924 78.956C86.1284 78.956 86.6484 78.648 86.9524 78.032H88.4284C88.2284 78.64 87.8644 79.14 87.3364 79.532C86.8164 79.916 86.1684 80.108 85.3924 80.108C84.7604 80.108 84.1924 79.968 83.6884 79.688C83.1924 79.4 82.8004 79 82.5124 78.488C82.2324 77.968 82.0924 77.368 82.0924 76.688C82.0924 76.008 82.2284 75.412 82.5004 74.9C82.7804 74.38 83.1684 73.98 83.6644 73.7C84.1684 73.42 84.7444 73.28 85.3924 73.28C86.0164 73.28 86.5724 73.416 87.0604 73.688C87.5484 73.96 87.9284 74.344 88.2004 74.84C88.4724 75.328 88.6084 75.892 88.6084 76.532ZM87.1804 76.1C87.1724 75.596 86.9924 75.192 86.6404 74.888C86.2884 74.584 85.8524 74.432 85.3324 74.432C84.8604 74.432 84.4564 74.584 84.1204 74.888C83.7844 75.184 83.5844 75.588 83.5204 76.1H87.1804Z" fill="#F5AB35"/>
<circle cx="55.5" cy="42.5" r="10.5" fill="#F5AB35"/>
<path d="M56 38.5C56 38.3674 55.9473 38.2402 55.8536 38.1464C55.7598 38.0527 55.6326 38 55.5 38C55.3674 38 55.2402 38.0527 55.1464 38.1464C55.0527 38.2402 55 38.3674 55 38.5V42H51.5C51.3674 42 51.2402 42.0527 51.1464 42.1464C51.0527 42.2402 51 42.3674 51 42.5C51 42.6326 51.0527 42.7598 51.1464 42.8536C51.2402 42.9473 51.3674 43 51.5 43H55V46.5C55 46.6326 55.0527 46.7598 55.1464 46.8536C55.2402 46.9473 55.3674 47 55.5 47C55.6326 47 55.7598 46.9473 55.8536 46.8536C55.9473 46.7598 56 46.6326 56 46.5V43H59.5C59.6326 43 59.7598 42.9473 59.8536 42.8536C59.9473 42.7598 60 42.6326 60 42.5C60 42.3674 59.9473 42.2402 59.8536 42.1464C59.7598 42.0527 59.6326 42 59.5 42H56V38.5Z" fill="white"/>
</svg>
