<svg width="105" height="105" viewBox="0 0 105 105" fill="none" xmlns="http://www.w3.org/2000/svg">
<rect x="0.5" y="0.5" width="104" height="104" rx="3.5" stroke="#828282" stroke-dasharray="5 5"/>
<path d="M66.9583 35.625H36.0417C33.6024 35.625 31.625 37.6024 31.625 40.0417V70.9583C31.625 73.3976 33.6024 75.375 36.0417 75.375H66.9583C69.3976 75.375 71.375 73.3976 71.375 70.9583V40.0417C71.375 37.6024 69.3976 35.625 66.9583 35.625Z" stroke="#9E9E9E" stroke-width="2" stroke-linecap="round" stroke-linejoin="round"/>
<path d="M43.7709 51.083C45.6003 51.083 47.0834 49.6 47.0834 47.7705C47.0834 45.9411 45.6003 44.458 43.7709 44.458C41.9414 44.458 40.4584 45.9411 40.4584 47.7705C40.4584 49.6 41.9414 51.083 43.7709 51.083Z" stroke="#9E9E9E" stroke-width="2" stroke-linecap="round" stroke-linejoin="round"/>
<path d="M71.375 62.1247L60.3333 51.083L36.0416 75.3747" stroke="#9E9E9E" stroke-width="2" stroke-linecap="round" stroke-linejoin="round"/>
<circle cx="69.5" cy="37.5" r="10.5" fill="#F5AB35"/>
<path d="M70 33.5C70 33.3674 69.9473 33.2402 69.8536 33.1464C69.7598 33.0527 69.6326 33 69.5 33C69.3674 33 69.2402 33.0527 69.1464 33.1464C69.0527 33.2402 69 33.3674 69 33.5V37H65.5C65.3674 37 65.2402 37.0527 65.1464 37.1464C65.0527 37.2402 65 37.3674 65 37.5C65 37.6326 65.0527 37.7598 65.1464 37.8536C65.2402 37.9473 65.3674 38 65.5 38H69V41.5C69 41.6326 69.0527 41.7598 69.1464 41.8536C69.2402 41.9473 69.3674 42 69.5 42C69.6326 42 69.7598 41.9473 69.8536 41.8536C69.9473 41.7598 70 41.6326 70 41.5V38H73.5C73.6326 38 73.7598 37.9473 73.8536 37.8536C73.9473 37.7598 74 37.6326 74 37.5C74 37.3674 73.9473 37.2402 73.8536 37.1464C73.7598 37.0527 73.6326 37 73.5 37H70V33.5Z" fill="white"/>
</svg>
