<svg width="37" height="38" viewBox="0 0 37 38" fill="none" xmlns="http://www.w3.org/2000/svg">
<path d="M4.11111 37.7881C2.98056 37.7881 2.01239 37.3859 1.20661 36.5815C0.402203 35.7757 0 34.8075 0 33.677V4.8992C0 3.76864 0.402203 2.80047 1.20661 1.9947C2.01239 1.19029 2.98056 0.788086 4.11111 0.788086H20.5556C21.138 0.788086 21.6265 0.984734 22.0212 1.37803C22.4145 1.7727 22.6111 2.26123 22.6111 2.84364C22.6111 3.42605 22.4145 3.9139 22.0212 4.3072C21.6265 4.70186 21.138 4.8992 20.5556 4.8992H4.11111V33.677H32.8889V17.2325C32.8889 16.6501 33.0862 16.1616 33.4809 15.7669C33.8742 15.3736 34.362 15.177 34.9444 15.177C35.5269 15.177 36.0147 15.3736 36.408 15.7669C36.8027 16.1616 37 16.6501 37 17.2325V33.677C37 34.8075 36.5978 35.7757 35.7934 36.5815C34.9876 37.3859 34.0194 37.7881 32.8889 37.7881H4.11111ZM30.8333 13.1214C30.2509 13.1214 29.7631 12.9241 29.3698 12.5294C28.9751 12.1361 28.7778 11.6483 28.7778 11.0659V9.01031H26.7222C26.1398 9.01031 25.652 8.81366 25.2587 8.42036C24.864 8.0257 24.6667 7.53716 24.6667 6.95475C24.6667 6.37235 24.864 5.88381 25.2587 5.48914C25.652 5.09585 26.1398 4.8992 26.7222 4.8992H28.7778V2.84364C28.7778 2.26123 28.9751 1.7727 29.3698 1.37803C29.7631 0.984734 30.2509 0.788086 30.8333 0.788086C31.4157 0.788086 31.9036 0.984734 32.2969 1.37803C32.6916 1.7727 32.8889 2.26123 32.8889 2.84364V4.8992H34.9444C35.5269 4.8992 36.0147 5.09585 36.408 5.48914C36.8027 5.88381 37 6.37235 37 6.95475C37 7.53716 36.8027 8.0257 36.408 8.42036C36.0147 8.81366 35.5269 9.01031 34.9444 9.01031H32.8889V11.0659C32.8889 11.6483 32.6916 12.1361 32.2969 12.5294C31.9036 12.9241 31.4157 13.1214 30.8333 13.1214ZM8.22222 29.5659H28.7778C29.1889 29.5659 29.4972 29.3774 29.7028 29.0006C29.9083 28.6237 29.8741 28.264 29.6 27.9214L23.9472 20.3673C23.7417 20.0932 23.4676 19.9561 23.125 19.9561C22.7824 19.9561 22.5083 20.0932 22.3028 20.3673L16.9583 27.5103L13.1556 22.4228C12.95 22.1487 12.6759 22.0117 12.3333 22.0117C11.9907 22.0117 11.7167 22.1487 11.5111 22.4228L7.4 27.9214C7.12593 28.264 7.09167 28.6237 7.29722 29.0006C7.50278 29.3774 7.81111 29.5659 8.22222 29.5659ZM4.11111 17.2325V33.677V4.8992V17.2325Z" fill="#D9D9D9"/>
</svg>
