<svg width="27" height="24" viewBox="0 0 27 24" fill="none" xmlns="http://www.w3.org/2000/svg">
<path d="M10.5684 2.66667L7.86838 5.33333H2.7V21.3333H24.3V5.33333H19.1317L16.4317 2.66667H10.5684ZM9.45 0H17.55L20.25 2.66667H25.65C26.3956 2.66667 27 3.26363 27 4V22.6667C27 23.4031 26.3956 24 25.65 24H1.35C0.604422 24 0 23.4031 0 22.6667V4C0 3.26363 0.604422 2.66667 1.35 2.66667H6.75L9.45 0ZM13.5 20C9.39928 20 6.075 16.7168 6.075 12.6667C6.075 8.61657 9.39928 5.33333 13.5 5.33333C17.6008 5.33333 20.925 8.61657 20.925 12.6667C20.925 16.7168 17.6008 20 13.5 20ZM13.5 17.3333C16.1096 17.3333 18.225 15.244 18.225 12.6667C18.225 10.0893 16.1096 8 13.5 8C10.8905 8 8.775 10.0893 8.775 12.6667C8.775 15.244 10.8905 17.3333 13.5 17.3333Z" fill="#F5AB35"/>
</svg>
