<svg width="13" height="13" viewBox="0 0 13 13" fill="none" xmlns="http://www.w3.org/2000/svg">
<path d="M6.5 13C2.91015 13 0 10.0898 0 6.5C0 2.91015 2.91015 0 6.5 0C10.0898 0 13 2.91015 13 6.5C13 10.0898 10.0898 13 6.5 13ZM6.5 11.7C9.3719 11.7 11.7 9.3719 11.7 6.5C11.7 3.62812 9.3719 1.3 6.5 1.3C3.62812 1.3 1.3 3.62812 1.3 6.5C1.3 9.3719 3.62812 11.7 6.5 11.7ZM5.85 8.45H7.15V9.75H5.85V8.45ZM7.15 7.38081V7.8H5.85V6.825C5.85 6.466 6.14101 6.175 6.5 6.175C7.03846 6.175 7.475 5.73846 7.475 5.2C7.475 4.66152 7.03846 4.225 6.5 4.225C6.027 4.225 5.63264 4.56185 5.54372 5.00875L4.26875 4.75375C4.47614 3.71097 5.3963 2.925 6.5 2.925C7.75645 2.925 8.775 3.94355 8.775 5.2C8.775 6.23057 8.0897 7.10112 7.15 7.38081Z" fill="#666666"/>
</svg>
