<svg width="34" height="34" viewBox="0 0 34 34" fill="none" xmlns="http://www.w3.org/2000/svg">
<circle cx="17" cy="17" r="17" fill="#FFF4E3"/>
<rect x="6" y="9" width="20" height="18" rx="2" fill="#FFAD43"/>
<path d="M13 9H19V16.0657C19 16.4651 18.5549 16.7033 18.2227 16.4818L16.2773 15.1849C16.1094 15.0729 15.8906 15.0729 15.7226 15.1849L13.7773 16.4818C13.4451 16.7033 13 16.4651 13 16.0657V9Z" fill="#7096EB"/>
<rect x="8" y="22" width="7" height="3" rx="1" fill="#FFF9F1"/>
<path d="M29 13C29 18.0368 24.0671 21.6642 22.4833 22.699C22.1868 22.8927 21.8132 22.8927 21.5167 22.699C19.9329 21.6642 15 18.0368 15 13C15 9.13401 18.134 6 22 6C25.866 6 29 9.13401 29 13Z" fill="#FD6916"/>
<circle cx="22" cy="13" r="3" fill="#FFF9F1"/>
</svg>
