<svg width="132" height="33" viewBox="0 0 132 33" fill="none" xmlns="http://www.w3.org/2000/svg">
<path d="M28.8243 0.123535V10.5954C28.8243 13.0842 30.8613 15.1091 33.3653 15.1091C35.8691 15.1091 37.9061 13.0842 37.9061 10.5954V0.123535L28.8243 0.123535Z" fill="white"/>
<path d="M39.7121 0.123535V10.4071C39.7121 12.9997 41.8329 15.1091 44.4398 15.1091C47.4659 15.1091 49.7652 12.1852 49.0245 9.25902L46.8016 0.477516C46.7488 0.269177 46.5609 0.123535 46.3446 0.123535L39.7121 0.123535Z" fill="white"/>
<path d="M30.0162 23.1855H36.6294V32.2685H30.0162V23.1855Z" fill="white"/>
<path d="M20.2902 0.123535C20.0739 0.123535 19.886 0.269177 19.8332 0.477656L17.6235 9.20683C16.8757 12.1613 19.1934 15.11 22.2491 15.1091C24.8792 15.1091 27.0189 12.981 27.0189 10.3651V0.123535L20.2902 0.123535Z" fill="white"/>
<path d="M45.0846 16.905C42.6375 16.905 40.4725 15.6812 39.1762 13.8165C37.9206 15.6777 35.7847 16.905 33.3658 16.905C30.9405 16.905 28.7998 15.6713 27.5454 13.8018C26.2412 15.6756 24.0649 16.905 21.6048 16.905C20.5929 16.905 19.6095 16.698 18.7066 16.3048V31.8008C18.7066 32.059 18.918 32.2692 19.1778 32.2692H27.5668V21.9684C27.5668 21.2959 28.1153 20.7507 28.7919 20.7507H37.8552C38.5318 20.7507 39.0803 21.2959 39.0803 21.9684V32.2691H47.4686C47.7284 32.2691 47.9398 32.059 47.9398 31.8007V16.3193C47.0491 16.7031 46.0804 16.905 45.0846 16.905Z" fill="white"/>
<path d="M6.25206 12.088C6.5488 12.0859 8.88827 11.9697 11.4508 11.83C14.0134 11.6902 16.2054 11.5728 16.3219 11.5689C16.8074 11.5691 16.6787 11.4578 16.884 12.1216L17.0418 12.5127C17.0744 12.5933 17.015 12.6813 16.928 12.6813C16.8303 12.6813 15.0542 12.6009 12.9811 12.5026C10.9081 12.4043 8.44292 12.2896 7.50297 12.2476C5.81022 12.172 5.2113 12.0956 6.25206 12.088Z" fill="white"/>
<path d="M4.54275 9.73948C5.72419 9.69522 8.61049 9.58594 10.9567 9.49664C13.303 9.40741 15.4974 9.3309 15.8333 9.32666L16.483 9.30677C16.5844 9.30367 16.6633 9.39396 16.6466 9.49398L16.6341 9.56956L16.6083 9.80635L16.589 10.0495L16.5873 10.1092C16.5847 10.1993 16.5085 10.2698 16.4183 10.2652L15.8204 10.2349C15.3585 10.215 12.2577 10.1199 8.92968 10.0236C5.60166 9.92727 2.76982 9.8421 2.6367 9.83426C2.50358 9.82642 3.3613 9.78374 4.54275 9.73948Z" fill="white"/>
<path d="M8.15357 7.36271C11.6313 7.26481 14.6674 7.17693 14.9004 7.16738C15.1333 7.15777 15.7523 7.1448 16.276 7.13844L17.0099 7.12837C17.1157 7.12691 17.194 7.22617 17.1681 7.3287L17.0263 7.88836C17.0076 7.96217 16.9398 8.01276 16.8637 8.0096L16.1806 7.98118C14.921 7.93815 2.92148 7.66107 1.60461 7.64822L0.666351 7.63903L1.6345 7.58987C2.16698 7.56281 4.6758 7.46061 8.15357 7.36271Z" fill="white"/>
<path d="M4.03586 5.42287C4.31874 5.41521 7.49095 5.29438 11.0852 5.15446C14.6795 5.01447 17.6684 4.89676 17.7273 4.89287C17.8181 4.89289 17.8438 4.87178 17.792 5.04783L17.5928 5.83628H17.0442C16.7287 5.8311 15.6128 5.80098 14.5645 5.76933C13.5162 5.73768 10.7116 5.65787 8.33203 5.59203C3.72678 5.46466 3.22425 5.44485 4.03586 5.42287Z" fill="white"/>
<path d="M12.3241 2.82422C14.454 2.70858 16.5915 2.59099 17.074 2.56293C17.7827 2.52167 18.1076 2.51707 18.2706 2.52221C18.3686 2.5253 18.4333 2.6237 18.4087 2.71863L18.2107 3.48102C18.1918 3.55367 18.1252 3.60362 18.0502 3.60137L17.271 3.57807C11.6601 3.33659 8.42556 3.1936 7.78586 3.15871L6.99924 3.11586L7.72535 3.07513C8.12471 3.05273 10.1941 2.9398 12.3241 2.82422Z" fill="white"/>
<path d="M9.55131 0.904326C9.45128 0.900554 11.4797 0.704811 14.0589 0.469341C16.1482 0.278602 18.1058 0.113891 18.7869 0.0561287C18.9048 0.0461291 19.0022 0.165493 18.9689 0.279045L18.9506 0.341359L18.8605 0.648539L18.7439 1.11223C18.7256 1.18532 18.6589 1.23585 18.5836 1.23381L16.57 1.17935C16.0043 1.15907 15.2282 1.12948 14.8455 1.11374C14.2597 1.08958 10.1238 0.926016 9.55131 0.904326Z" fill="white"/>
<path d="M11.6581 14.1943C13.1999 14.1249 14.8582 14.0479 15.3433 14.0229C15.8284 13.9979 16.4866 13.9735 16.806 13.9686L17.069 13.9684C17.2401 13.9683 17.3966 14.0649 17.4732 14.2179L17.614 14.4991C17.7094 14.6896 17.5602 14.9134 17.3482 14.8937C17.2079 14.8632 9.30965 14.376 8.97691 14.3697C8.34683 14.3579 9.06756 14.3107 11.6581 14.1943Z" fill="white"/>
<path d="M72.5808 25.731C71.2122 24.7167 70.5281 23.2773 70.5281 21.4125C70.5281 21.228 70.5469 20.9514 70.5855 20.5826H75.6959C75.6385 21.3616 75.8107 21.9763 76.2127 22.4268C76.6146 22.8777 77.2269 23.103 78.0501 23.103C78.7965 23.103 79.3851 22.9291 79.8157 22.5805C80.2464 22.2323 80.4617 21.7405 80.4617 21.1051C80.4617 20.4495 80.189 19.917 79.6435 19.5068C79.098 19.0971 78.251 18.6361 77.1027 18.1237C75.9924 17.6319 75.088 17.1661 74.3896 16.7252C73.6906 16.2847 73.0833 15.6854 72.5665 14.9271C72.0497 14.1692 71.7913 13.2164 71.7913 12.0686C71.772 10.6547 72.0973 9.42519 72.7675 8.38017C73.4372 7.33515 74.3653 6.53599 75.5523 5.98271C76.7388 5.42948 78.0976 5.15283 79.6291 5.15283C81.0072 5.15283 82.2319 5.38334 83.304 5.84441C84.3757 6.30549 85.2083 6.97159 85.8018 7.8423C86.3948 8.71349 86.6918 9.74315 86.6918 10.9313C86.6918 11.2387 86.6819 11.4644 86.663 11.6075H81.4379C81.4567 11.5259 81.4666 11.4029 81.4666 11.2387C81.4666 10.6652 81.2799 10.1989 80.9067 9.84019C80.5335 9.48186 80.0212 9.30226 79.3707 9.30226C78.6817 9.30226 78.1218 9.48186 77.6912 9.84019C77.2606 10.1989 77.0452 10.6854 77.0452 11.3001C77.0452 11.9149 77.313 12.4326 77.8491 12.8523C78.3847 13.2726 79.2173 13.7591 80.3469 14.3123C81.476 14.8656 82.3996 15.378 83.1174 15.8492C83.8351 16.3208 84.4524 16.9508 84.9692 17.7395C85.486 18.5285 85.7443 19.4967 85.7443 20.6441C85.7443 21.9148 85.4285 23.0521 84.7969 24.0558C84.1653 25.06 83.256 25.8438 82.0695 26.4072C80.8825 26.971 79.495 27.2524 77.9065 27.2524C75.7246 27.2524 73.9491 26.7453 72.5808 25.731Z" fill="white"/>
<path d="M100.683 14.317C101.457 15.0404 101.845 16.0478 101.845 17.3401C101.845 17.771 101.796 18.2326 101.698 18.7248L100.279 26.2478H96.1169L97.4388 19.2555C97.4878 18.9941 97.5123 18.7633 97.5123 18.5632C97.5123 17.9171 97.3203 17.4173 96.937 17.0632C96.5533 16.7095 96.019 16.5324 95.3335 16.5324C94.5173 16.5324 93.8318 16.7711 93.2772 17.2478C92.7221 17.7249 92.363 18.3941 92.2 19.2555V19.2094L90.8781 26.2478H86.6919L89.8988 9.1709H94.085L92.9834 15.0786C93.522 14.5096 94.1829 14.0596 94.9663 13.7286C95.7497 13.3979 96.5981 13.2324 97.5123 13.2324C98.8503 13.2324 99.9072 13.5941 100.683 14.317V14.317Z" fill="white"/>
<path d="M105.451 25.5881C104.623 25.1483 103.983 24.5266 103.532 23.7225C103.081 22.9188 102.856 21.986 102.856 20.9242C102.856 19.4834 103.188 18.1713 103.854 16.9883C104.52 15.8053 105.436 14.8764 106.605 14.2013C107.773 13.5267 109.075 13.189 110.509 13.189C111.574 13.189 112.524 13.4129 113.36 13.8601C114.195 14.3076 114.842 14.9333 115.301 15.737C115.759 16.5411 115.989 17.4739 115.989 18.5353C115.989 19.9914 115.652 21.3074 114.979 22.4826C114.306 23.6581 113.382 24.5796 112.206 25.2468C111.031 25.9144 109.725 26.2478 108.291 26.2478C107.226 26.2478 106.279 26.0281 105.451 25.5881ZM110.498 22.3233C110.993 21.9366 111.378 21.4361 111.652 20.8218C111.925 20.2075 112.062 19.5669 112.062 18.8994C112.062 18.1411 111.862 17.5571 111.463 17.1476C111.064 16.738 110.561 16.5333 109.955 16.5333C109.319 16.5333 108.76 16.7267 108.28 17.1134C107.799 17.5002 107.426 18.0046 107.159 18.6263C106.893 19.2484 106.76 19.9004 106.76 20.5829C106.76 21.3262 106.952 21.8989 107.337 22.3006C107.721 22.7026 108.217 22.9035 108.823 22.9035C109.444 22.9035 110.002 22.7101 110.498 22.3233Z" fill="white"/>
<path d="M123.926 13.7395C124.682 13.3725 125.52 13.189 126.44 13.189C127.844 13.189 128.978 13.6402 129.844 14.5424C130.709 15.4449 131.142 16.6683 131.142 18.2128C131.142 18.687 131.095 19.1992 131.002 19.7498C130.768 21.0652 130.308 22.2237 129.622 23.2252C128.935 24.227 128.109 24.9994 127.142 25.5421C126.175 26.0851 125.154 26.3564 124.078 26.3564C123.173 26.3564 122.409 26.1729 121.786 25.8059C121.162 25.4389 120.701 24.965 120.405 24.3836L118.978 32.275H114.979L118.37 13.3725H122.37L122.043 15.1847C122.542 14.5883 123.169 14.1066 123.926 13.7395ZM127.025 19.0386C127.025 18.2741 126.803 17.6776 126.359 17.2493C125.914 16.8213 125.349 16.607 124.663 16.607C123.867 16.607 123.142 16.8902 122.487 17.4558C121.832 18.0217 121.411 18.7942 121.224 19.7727C121.177 20.048 121.154 20.3003 121.154 20.5297C121.154 21.2792 121.372 21.8681 121.809 22.2961C122.245 22.7244 122.807 22.9384 123.493 22.9384C124.288 22.9384 125.017 22.6517 125.68 22.0782C126.343 21.5047 126.768 20.7286 126.955 19.7498C127.002 19.4899 127.025 19.253 127.025 19.0386V19.0386Z" fill="white"/>
<path d="M55.5105 20.6235L56.9429 13.189L60.9886 13.189L59.6721 20.1328C59.6214 20.3824 59.5951 20.6241 59.5924 20.8581C59.5845 21.5144 59.7643 22.02 60.1318 22.3762C60.4993 22.7316 61.0163 22.9136 61.6808 22.9214C62.4408 22.9299 63.0882 22.7147 63.6236 22.2761C64.1591 21.8368 64.5187 21.2051 64.703 20.3791L66.0802 13.189L70.1496 13.189L67.6733 26.2006L63.6131 26.1538L63.943 24.3764C63.4136 24.9483 62.7708 25.4058 62.0154 25.7483C61.2593 26.0908 60.4539 26.2572 59.599 26.2474C58.2693 26.2318 57.2294 25.849 56.4786 25.0984C55.7271 24.3478 55.3597 23.3087 55.3755 21.981C55.382 21.4813 55.4262 21.029 55.5105 20.6235Z" fill="white"/>
</svg>
