<svg width="103" height="26" viewBox="0 0 103 26" fill="none" xmlns="http://www.w3.org/2000/svg">
<path d="M22.4114 0.0976562V8.34824C22.4114 10.3091 23.9952 11.9044 25.942 11.9044C27.8888 11.9044 29.4726 10.3091 29.4726 8.34824V0.0976563L22.4114 0.0976562Z" fill="#F5AB35"/>
<path d="M30.8767 0.0976563V8.19982C30.8767 10.2425 32.5257 11.9045 34.5526 11.9045C36.9054 11.9045 38.6931 9.60075 38.1172 7.29531L36.3889 0.37655C36.3479 0.212404 36.2018 0.0976562 36.0336 0.0976562L30.8767 0.0976563Z" fill="#F5AB35"/>
<path d="M23.3381 18.2676H28.4799V25.4238H23.3381V18.2676Z" fill="#F5AB35"/>
<path d="M15.7761 0.0976562C15.6079 0.0976562 15.4618 0.212404 15.4208 0.376661L13.7027 7.25419C13.1212 9.58194 14.9233 11.9052 17.2991 11.9044C19.3441 11.9044 21.0077 10.2278 21.0077 8.16677V0.0976563L15.7761 0.0976562Z" fill="#F5AB35"/>
<path d="M35.0539 13.3195C33.1512 13.3195 31.4679 12.3553 30.46 10.8861C29.4838 12.3525 27.8231 13.3195 25.9424 13.3195C24.0567 13.3195 22.3922 12.3475 21.417 10.8745C20.403 12.3508 18.7108 13.3195 16.798 13.3195C16.0113 13.3195 15.2467 13.1564 14.5447 12.8466V25.0556C14.5447 25.259 14.7091 25.4246 14.911 25.4246H21.4336V17.3088C21.4336 16.779 21.86 16.3494 22.3861 16.3494H29.433C29.959 16.3494 30.3855 16.779 30.3855 17.3088V25.4245H36.9075C37.1095 25.4245 37.2738 25.259 37.2738 25.0555V12.8581C36.5813 13.1604 35.8282 13.3195 35.0539 13.3195Z" fill="#F5AB35"/>
<path d="M4.86118 9.52382C5.09189 9.5221 6.91086 9.43062 8.90329 9.32051C10.8957 9.21041 12.6 9.11785 12.6906 9.11483C13.0681 9.11495 12.968 9.02728 13.1277 9.55029L13.2509 9.85988C13.276 9.92286 13.2296 9.99127 13.1618 9.99127C13.0858 9.99127 11.7049 9.92793 10.0931 9.85047C8.48133 9.77301 6.5646 9.68259 5.83377 9.64953C4.51764 9.58995 4.05197 9.52976 4.86118 9.52382Z" fill="#F5AB35"/>
<path d="M3.53212 7.67328C4.45071 7.6384 6.69484 7.55231 8.51908 7.48195C10.3433 7.41164 12.0495 7.35137 12.3106 7.34803L12.7726 7.3337C12.8739 7.33056 12.9528 7.42063 12.9363 7.52057L12.9333 7.5394L12.9132 7.72596L12.8982 7.91756L12.8979 7.9295C12.8953 8.01975 12.819 8.09022 12.7288 8.08559L12.3006 8.06359C11.9415 8.0479 9.53058 7.97299 6.94301 7.89711C4.35544 7.82123 2.15365 7.75413 2.05014 7.74795C1.94664 7.74178 2.61353 7.70815 3.53212 7.67328Z" fill="#F5AB35"/>
<path d="M6.33947 5.80067C9.04349 5.72354 11.4041 5.6543 11.5852 5.64678C11.7663 5.63921 12.2476 5.62899 12.6547 5.62397L13.1794 5.61668C13.2849 5.61521 13.3633 5.7141 13.3377 5.81652L13.245 6.18737C13.2265 6.26145 13.1585 6.31231 13.0822 6.3091L12.5806 6.28795C11.6012 6.25405 2.27145 6.03574 1.24757 6.02562L0.518066 6.01838L1.27081 5.97964C1.68483 5.95833 3.63546 5.8778 6.33947 5.80067Z" fill="#F5AB35"/>
<path d="M3.13807 4.27268C3.35801 4.26665 5.82444 4.17145 8.61902 4.0612C11.4136 3.95091 13.7375 3.85817 13.7833 3.85511C13.8539 3.85512 13.8739 3.83849 13.8336 3.9772L13.6788 4.5984H13.2522C13.0069 4.59432 12.1393 4.57059 11.3242 4.54565C10.5091 4.52071 8.32851 4.45783 6.47839 4.40596C2.89776 4.30561 2.50703 4.29 3.13807 4.27268Z" fill="#F5AB35"/>
<path d="M9.58226 2.22513C11.2383 2.13402 12.9002 2.04137 13.2754 2.01927C13.7731 1.9899 14.0274 1.9841 14.1653 1.98624C14.2631 1.98775 14.3278 2.08471 14.3035 2.17943L14.1661 2.7157C14.1474 2.78862 14.0806 2.83883 14.0054 2.83655L13.4286 2.81907C9.06601 2.62882 6.55113 2.51616 6.05375 2.48866L5.44214 2.4549L6.0067 2.42282C6.31721 2.40517 7.92621 2.31619 9.58226 2.22513Z" fill="#F5AB35"/>
<path d="M7.42634 0.712426C7.34857 0.709454 8.92568 0.555231 10.931 0.36971C12.439 0.230209 13.8587 0.108379 14.4782 0.0552174L14.5539 0.0487226C14.6704 0.0387215 14.7669 0.156558 14.7344 0.268876L14.6644 0.510896L14.5804 0.849156C14.5622 0.922502 14.4954 0.973293 14.4199 0.971222L12.8835 0.929108C12.4436 0.913133 11.8402 0.889821 11.5427 0.877422C11.0872 0.858382 7.8715 0.729515 7.42634 0.712426Z" fill="#F5AB35"/>
<path d="M9.06446 11.1834C10.2632 11.1288 11.5526 11.0681 11.9298 11.0484C12.3069 11.0287 12.8187 11.0095 13.067 11.0056L13.2674 11.0055C13.4028 11.0054 13.5265 11.0822 13.5865 11.2036L13.697 11.4272C13.7706 11.576 13.6538 11.7501 13.4886 11.7345C13.3795 11.7105 7.23852 11.3266 6.97981 11.3217C6.48992 11.3124 7.05029 11.2752 9.06446 11.1834Z" fill="#F5AB35"/>
<path d="M56.4325 20.2731C55.3683 19.474 54.8364 18.3399 54.8364 16.8707C54.8364 16.7254 54.8511 16.5075 54.8811 16.2168H58.8544C58.8098 16.8306 58.9437 17.3149 59.2563 17.6698C59.5688 18.0251 60.0449 18.2026 60.6849 18.2026C61.2653 18.2026 61.7229 18.0656 62.0577 17.7909C62.3925 17.5166 62.5599 17.1291 62.5599 16.6285C62.5599 16.112 62.3479 15.6924 61.9238 15.3692C61.4996 15.0465 60.8411 14.6832 59.9482 14.2795C59.085 13.892 58.3818 13.525 57.8388 13.1777C57.2954 12.8307 56.8231 12.3584 56.4213 11.761C56.0195 11.1639 55.8186 10.4131 55.8186 9.50884C55.8036 8.39487 56.0565 7.42616 56.5776 6.60281C57.0983 5.77946 57.82 5.14982 58.7428 4.7139C59.6654 4.27802 60.7218 4.06006 61.9126 4.06006C62.9841 4.06006 63.9363 4.24167 64.7699 4.60494C65.6031 4.96821 66.2505 5.49302 66.7119 6.17904C67.173 6.86542 67.4039 7.67667 67.4039 8.61278C67.4039 8.85495 67.3962 9.03281 67.3816 9.14557H63.3189C63.3336 9.08126 63.3412 8.98435 63.3412 8.85495C63.3412 8.40317 63.1961 8.03577 62.9059 7.75313C62.6157 7.47081 62.2174 7.32931 61.7117 7.32931C61.176 7.32931 60.7407 7.47081 60.4058 7.75313C60.071 8.03577 59.9036 8.41907 59.9036 8.9034C59.9036 9.38773 60.1118 9.79565 60.5286 10.1263C60.9451 10.4574 61.5924 10.8407 62.4706 11.2766C63.3486 11.7125 64.0667 12.1163 64.6248 12.4875C65.1828 12.859 65.6628 13.3555 66.0646 13.9768C66.4664 14.5985 66.6673 15.3613 66.6673 16.2653C66.6673 17.2665 66.4217 18.1625 65.9306 18.9533C65.4395 19.7445 64.7325 20.3621 63.81 20.8059C62.8871 21.2501 61.8083 21.4719 60.5733 21.4719C58.8768 21.4719 57.4963 21.0723 56.4325 20.2731Z" fill="#F5AB35"/>
<path d="M78.2819 11.2806C78.8845 11.8505 79.186 12.6442 79.186 13.6624C79.186 14.0019 79.148 14.3656 79.0718 14.7534L77.9679 20.6806H74.7321L75.7599 15.1715C75.798 14.9656 75.817 14.7838 75.817 14.6261C75.817 14.117 75.6677 13.7232 75.3697 13.4443C75.0715 13.1656 74.656 13.0261 74.123 13.0261C73.4884 13.0261 72.9554 13.2141 72.5242 13.5897C72.0926 13.9656 71.8134 14.4928 71.6867 15.1715V15.1352L70.6588 20.6806H67.4041L69.8975 7.22607H73.1523L72.2958 11.8806C72.7145 11.4323 73.2284 11.0778 73.8375 10.817C74.4466 10.5565 75.1062 10.4261 75.817 10.4261C76.8574 10.4261 77.6791 10.711 78.2819 11.2806V11.2806Z" fill="#F5AB35"/>
<path d="M81.9895 20.1606C81.3454 19.8141 80.8481 19.3243 80.4975 18.6908C80.1466 18.0575 79.9714 17.3226 79.9714 16.486C79.9714 15.3509 80.2302 14.3171 80.7476 13.385C81.2651 12.4529 81.9779 11.7211 82.8864 11.1892C83.7946 10.6577 84.8066 10.3916 85.9221 10.3916C86.7501 10.3916 87.4888 10.568 88.1385 10.9204C88.7881 11.273 89.2912 11.7659 89.6478 12.3992C90.0041 13.0327 90.1825 13.7676 90.1825 14.6039C90.1825 15.7511 89.9208 16.7879 89.3977 17.7139C88.8743 18.64 88.1558 19.366 87.2416 19.8917C86.3275 20.4177 85.3125 20.6804 84.1973 20.6804C83.3694 20.6804 82.6333 20.5073 81.9895 20.1606ZM85.9135 17.5884C86.2986 17.2837 86.5975 16.8893 86.8104 16.4054C87.0231 15.9214 87.1295 15.4167 87.1295 14.8907C87.1295 14.2933 86.9743 13.8331 86.6638 13.5105C86.3533 13.1878 85.9623 13.0265 85.4909 13.0265C84.9964 13.0265 84.5622 13.1789 84.1887 13.4836C83.8149 13.7883 83.5246 14.1858 83.3176 14.6756C83.1106 15.1657 83.0072 15.6794 83.0072 16.2171C83.0072 16.8028 83.1565 17.254 83.4556 17.5705C83.7545 17.8872 84.1396 18.0455 84.6113 18.0455C85.0942 18.0455 85.5281 17.8931 85.9135 17.5884Z" fill="#F5AB35"/>
<path d="M96.3539 10.8254C96.9418 10.5362 97.5935 10.3916 98.309 10.3916C99.4003 10.3916 100.282 10.7471 100.955 11.458C101.628 12.169 101.965 13.1329 101.965 14.3498C101.965 14.7234 101.928 15.1269 101.856 15.5607C101.674 16.5972 101.316 17.5099 100.782 18.2989C100.249 19.0882 99.6063 19.6968 98.8546 20.1244C98.1027 20.5522 97.3087 20.766 96.4721 20.766C95.7688 20.766 95.1745 20.6214 94.6897 20.3322C94.2047 20.043 93.8469 19.6697 93.6167 19.2116L92.5073 25.4291H89.3972L92.0344 10.5362H95.1444L94.8898 11.964C95.2777 11.4941 95.7656 11.1145 96.3539 10.8254ZM98.7637 15.0004C98.7637 14.3981 98.5909 13.9281 98.2454 13.5907C97.8998 13.2535 97.4602 13.0846 96.9268 13.0846C96.3084 13.0846 95.7446 13.3077 95.2354 13.7533C94.7261 14.1992 94.3987 14.8078 94.2532 15.5788C94.2169 15.7957 94.1987 15.9945 94.1987 16.1752C94.1987 16.7657 94.3683 17.2297 94.7079 17.5669C95.0472 17.9044 95.4837 18.073 96.0174 18.073C96.6358 18.073 97.2024 17.8471 97.7179 17.3952C98.2332 16.9434 98.5636 16.332 98.7091 15.5607C98.7455 15.356 98.7637 15.1693 98.7637 15.0004V15.0004Z" fill="#F5AB35"/>
<path d="M43.1601 16.2491L44.2738 10.3916L47.4194 10.3916L46.3958 15.8625C46.3563 16.0591 46.3359 16.2496 46.3338 16.4339C46.3277 16.9511 46.4675 17.3494 46.7532 17.63C47.0389 17.9101 47.4409 18.0534 47.9576 18.0596C48.5485 18.0662 49.0518 17.8968 49.4681 17.5511C49.8844 17.205 50.164 16.7073 50.3074 16.0566L51.3781 10.3916L54.5421 10.3916L52.6168 20.6432L49.4599 20.6063L49.7165 19.206C49.3048 19.6566 48.805 20.017 48.2177 20.2868C47.6298 20.5567 47.0036 20.6878 46.3389 20.6801C45.3051 20.6678 44.4965 20.3662 43.9128 19.7748C43.3285 19.1834 43.0428 18.3647 43.0551 17.3187C43.0602 16.9249 43.0945 16.5686 43.1601 16.2491Z" fill="#F5AB35"/>
</svg>
