<svg width="14" height="14" viewBox="0 0 14 14" fill="none" xmlns="http://www.w3.org/2000/svg">
<path d="M0 7.00016C0 3.31826 2.98477 0.333496 6.66667 0.333496C10.3485 0.333496 13.3333 3.31826 13.3333 7.00016C13.3333 10.682 10.3485 13.6668 6.66667 13.6668H0.965692C0.609329 13.6668 0.430863 13.236 0.682851 12.984L1.95262 11.7142C0.746193 10.5078 0 8.8411 0 7.00016ZM3.21895 12.3335H6.66667C9.6122 12.3335 12 9.9457 12 7.00016C12 4.05464 9.6122 1.66683 6.66667 1.66683C3.72115 1.66683 1.33333 4.05464 1.33333 7.00016C1.33333 8.4351 1.90083 9.77676 2.89543 10.7714L3.83824 11.7142L3.21895 12.3335ZM4 7.66683H9.33333C9.33333 9.13956 8.1394 10.3335 6.66667 10.3335C5.19391 10.3335 4 9.13956 4 7.66683Z" fill="white"/>
</svg>
