<svg width="13" height="13" viewBox="0 0 13 13" fill="none" xmlns="http://www.w3.org/2000/svg">
<path d="M0 6.5C0 2.91015 2.91015 0 6.5 0C10.0898 0 13 2.91015 13 6.5C13 10.0898 10.0898 13 6.5 13H0.482846C0.304665 13 0.215432 12.7846 0.341426 12.6586L1.9038 11.0962C0.727538 9.91991 0 8.29491 0 6.5ZM3.13848 11.7H6.5C9.3719 11.7 11.7 9.3719 11.7 6.5C11.7 3.62812 9.3719 1.3 6.5 1.3C3.62812 1.3 1.3 3.62812 1.3 6.5C1.3 7.89906 1.85331 9.20719 2.82305 10.177L3.74228 11.0962L3.13848 11.7ZM3.9 7.15H9.1C9.1 8.58592 7.93591 9.75 6.5 9.75C5.06406 9.75 3.9 8.58592 3.9 7.15Z" fill="#666666"/>
</svg>
