<svg width="24" height="24" viewBox="0 0 24 24" fill="none" xmlns="http://www.w3.org/2000/svg">
<path d="M21.75 12.75H2.25C2.05109 12.75 1.86032 12.671 1.71967 12.5303C1.57902 12.3897 1.5 12.1989 1.5 12C1.5 11.8011 1.57902 11.6103 1.71967 11.4697C1.86032 11.329 2.05109 11.25 2.25 11.25H21.75C21.9489 11.25 22.1397 11.329 22.2803 11.4697C22.421 11.6103 22.5 11.8011 22.5 12C22.5 12.1989 22.421 12.3897 22.2803 12.5303C22.1397 12.671 21.9489 12.75 21.75 12.75ZM22.5 17.25C22.5 17.0511 22.421 16.8603 22.2803 16.7197C22.1397 16.579 21.9489 16.5 21.75 16.5H2.25C2.05109 16.5 1.86032 16.579 1.71967 16.7197C1.57902 16.8603 1.5 17.0511 1.5 17.25C1.5 17.4489 1.57902 17.6397 1.71967 17.7803C1.86032 17.921 2.05109 18 2.25 18H21.75C21.9489 18 22.1397 17.921 22.2803 17.7803C22.421 17.6397 22.5 17.4489 22.5 17.25ZM22.5 6.75C22.5 6.55109 22.421 6.36032 22.2803 6.21967C22.1397 6.07902 21.9489 6 21.75 6H2.25C2.05109 6 1.86032 6.07902 1.71967 6.21967C1.57902 6.36032 1.5 6.55109 1.5 6.75C1.5 6.94891 1.57902 7.13968 1.71967 7.28033C1.86032 7.42098 2.05109 7.5 2.25 7.5H21.75C21.9489 7.5 22.1397 7.42098 22.2803 7.28033C22.421 7.13968 22.5 6.94891 22.5 6.75Z" fill="#828282"/>
</svg>
