<svg width="64" height="46" viewBox="0 0 64 46" fill="none" xmlns="http://www.w3.org/2000/svg">
<path d="M0 0H62C63.1046 0 64 0.895431 64 2V44C64 45.1046 63.1046 46 62 46H0V0Z" fill="#F5AB35"/>
<path d="M38.031 27.6168L42.3137 31.8995L40.8995 33.3137L36.6168 29.031C35.0769 30.263 33.124 31 31 31C26.032 31 22 26.968 22 22C22 17.032 26.032 13 31 13C35.968 13 40 17.032 40 22C40 24.124 39.263 26.0769 38.031 27.6168ZM36.0247 26.8748C37.2475 25.6146 38 23.8956 38 22C38 18.1325 34.8675 15 31 15C27.1325 15 24 18.1325 24 22C24 25.8675 27.1325 29 31 29C32.8956 29 34.6146 28.2475 35.8748 27.0247L36.0247 26.8748Z" fill="#FAFAFA"/>
</svg>
