<svg width="272" height="68" viewBox="0 0 272 68" fill="none" xmlns="http://www.w3.org/2000/svg">
<g opacity="0.3">
<path d="M58.6094 0.189209V22.2759C58.6094 27.5251 62.8492 31.7957 68.0608 31.7957C73.2723 31.7957 77.5121 27.5251 77.5121 22.2759V0.189209L58.6094 0.189209Z" fill="white"/>
<path d="M81.2695 0.188965V21.8783C81.2695 27.3467 85.6839 31.7956 91.1097 31.7956C97.4083 31.7956 102.194 25.6286 100.652 19.457L96.0256 0.935559C95.9157 0.496143 95.5247 0.188965 95.0745 0.188965L81.2695 0.188965Z" fill="white"/>
<path d="M61.0859 48.8318H74.8504V67.989H61.0859V48.8318Z" fill="white"/>
<path d="M40.8446 0.189209C40.3944 0.189209 40.0033 0.496387 39.8935 0.936099L35.2943 19.3471C33.7377 25.5785 38.5618 31.7977 44.9218 31.7957C50.3961 31.7957 54.8497 27.3073 54.8497 21.7901V0.189209L40.8446 0.189209Z" fill="white"/>
<path d="M92.4536 35.582C87.3601 35.582 82.854 33.0008 80.1559 29.0679C77.5425 32.9934 73.097 35.582 68.0622 35.582C63.0142 35.582 58.5585 32.9799 55.9478 29.0369C53.2333 32.989 48.7034 35.582 43.583 35.582C41.477 35.582 39.4301 35.1454 37.5508 34.3162V66.9993C37.5508 67.5439 37.9908 67.9872 38.5315 67.9872H55.9922V46.2614C55.9922 44.843 57.1338 43.6931 58.5421 43.6931H77.4065C78.8148 43.6931 79.9563 44.843 79.9563 46.2614V67.987H97.4156C97.9564 67.987 98.3963 67.5439 98.3963 66.9991V34.3468C96.5424 35.1562 94.5263 35.582 92.4536 35.582Z" fill="white"/>
<path d="M11.6255 25.422C12.2431 25.4174 17.1124 25.1725 22.4461 24.8777C27.7798 24.583 32.3421 24.3352 32.5846 24.3271C33.5951 24.3274 33.3272 24.0927 33.7547 25.4928L34.137 26.4529C34.179 26.5586 34.1012 26.6733 33.9875 26.6733L33.8462 26.6733C33.6428 26.6733 29.9461 26.5037 25.6312 26.2964C21.3165 26.089 16.1855 25.847 14.2291 25.7585C10.7058 25.599 9.45924 25.4379 11.6255 25.422Z" fill="white"/>
<path d="M8.06588 20.4682C10.5249 20.3749 16.5324 20.1444 21.4159 19.9561C26.2993 19.7679 30.8668 19.6065 31.5658 19.5975L33.1303 19.549C33.2315 19.5459 33.3104 19.636 33.294 19.7359L33.2326 20.1099L33.179 20.6093L33.1388 21.1222L33.1301 21.4301C33.1275 21.5203 33.0512 21.5908 32.961 21.5862L31.539 21.5131C30.5776 21.4711 24.1237 21.2706 17.1968 21.0674C10.2699 20.8643 4.37574 20.6847 4.09867 20.6681C3.82159 20.6516 5.60684 20.5616 8.06588 20.4682Z" fill="white"/>
<path d="M15.5838 15.4593C22.8224 15.2528 29.1416 15.0675 29.6265 15.0473C30.1114 15.0271 31.3998 14.9997 32.4897 14.9863L34.2445 14.9619C34.3501 14.9604 34.4284 15.0593 34.4028 15.1617L34.0165 16.7079C33.9979 16.782 33.9299 16.8328 33.8536 16.8296L32.2911 16.7638C29.6694 16.673 4.69379 16.0886 1.95288 16.0615L0 16.0421L2.01509 15.9384C3.1234 15.8814 8.3452 15.6658 15.5838 15.4593Z" fill="white"/>
<path d="M7.01137 11.3656C7.60016 11.3494 14.2027 11.0946 21.6838 10.7995C29.1648 10.5042 35.3859 10.2559 35.5084 10.2477C35.6974 10.2478 35.751 10.2033 35.6432 10.5746L35.2286 12.2375H34.0868C33.43 12.2266 31.1075 12.1631 28.9255 12.0963C26.7436 12.0296 20.9061 11.8612 15.9534 11.7224C6.36805 11.4537 5.32209 11.412 7.01137 11.3656Z" fill="white"/>
<path d="M24.2627 5.88276C28.6959 5.63885 33.1449 5.39084 34.1493 5.33167C35.9999 5.22246 36.5933 5.23502 36.841 5.25711C36.9384 5.26579 37.0027 5.36495 36.9785 5.45967L36.4798 7.40522C36.4611 7.47814 36.3944 7.52835 36.3191 7.52607L34.5592 7.47274C22.8807 6.96342 16.1484 6.66184 14.817 6.58824L13.1797 6.49787L14.691 6.41196C15.5222 6.36472 19.8295 6.12654 24.2627 5.88276Z" fill="white"/>
<path d="M18.4918 1.83526C18.2836 1.8273 22.5054 1.41445 27.8738 0.917815C32.5523 0.484994 36.9137 0.115716 37.9904 0.022531C38.1082 0.0123361 38.2049 0.131152 38.1721 0.244725L38.0554 0.647884L37.8678 1.29577L37.5909 2.41193C37.5727 2.48528 37.5059 2.53607 37.4304 2.534L33.1004 2.41531C31.9229 2.37255 30.3076 2.31014 29.511 2.27695C28.2918 2.22598 19.6834 1.88101 18.4918 1.83526Z" fill="white"/>
<path d="M22.8781 29.8653C26.0871 29.7191 29.5388 29.5566 30.5484 29.5039C31.558 29.4511 32.928 29.3997 33.5928 29.3894L34.2213 29.389C34.5274 29.3888 34.8072 29.5625 34.9429 29.837L35.2794 30.5179C35.4763 30.9163 35.1638 31.3822 34.7213 31.3405C34.4294 31.2762 17.99 30.2487 17.2975 30.2354C15.9861 30.2105 17.4862 30.1109 22.8781 29.8653Z" fill="white"/>
<path d="M149.683 54.199C146.834 52.0597 145.41 49.0239 145.41 45.0907C145.41 44.7017 145.449 44.1183 145.53 43.3403H156.166C156.047 44.9833 156.405 46.2798 157.242 47.23C158.079 48.1811 159.353 48.6562 161.066 48.6562C162.62 48.6562 163.845 48.2896 164.741 47.5542C165.638 46.8198 166.086 45.7825 166.086 44.4424C166.086 43.0597 165.518 41.9364 164.383 41.0713C163.247 40.2073 161.485 39.2349 159.094 38.1542C156.784 37.1169 154.901 36.1344 153.447 35.2045C151.993 34.2756 150.728 33.0115 149.653 31.4121C148.577 29.8137 148.039 27.804 148.039 25.3831C147.999 22.4011 148.676 19.8079 150.071 17.6038C151.465 15.3997 153.397 13.7142 155.868 12.5472C158.337 11.3804 161.165 10.7969 164.353 10.7969C167.221 10.7969 169.77 11.283 172.002 12.2555C174.232 13.228 175.965 14.6329 177.201 16.4693C178.435 18.3068 179.053 20.4785 179.053 22.9844C179.053 23.6327 179.032 24.1088 178.993 24.4107H168.118C168.157 24.2385 168.177 23.9791 168.177 23.6327C168.177 22.4233 167.789 21.4398 167.012 20.6832C166.235 19.9274 165.169 19.5486 163.815 19.5486C162.381 19.5486 161.216 19.9274 160.319 20.6832C159.423 21.4398 158.975 22.4659 158.975 23.7624C158.975 25.059 159.532 26.1509 160.648 27.0362C161.763 27.9225 163.496 28.9486 165.847 30.1155C168.197 31.2824 170.119 32.3632 171.613 33.3569C173.107 34.3516 174.392 35.6805 175.468 37.3438C176.543 39.008 177.081 41.0501 177.081 43.4701C177.081 46.1503 176.424 48.5489 175.109 50.6658C173.794 52.7839 171.902 54.437 169.432 55.6252C166.962 56.8144 164.074 57.4079 160.768 57.4079C156.226 57.4079 152.531 56.3383 149.683 54.199Z" fill="white"/>
<path d="M208.171 30.1254C209.784 31.651 210.591 33.7758 210.591 36.5015C210.591 37.4103 210.489 38.3838 210.285 39.4219L207.33 55.2891H198.668L201.419 40.5414C201.521 39.99 201.572 39.5033 201.572 39.0812C201.572 37.7183 201.173 36.6643 200.375 35.9175C199.576 35.1714 198.464 34.798 197.037 34.798C195.338 34.798 193.912 35.3014 192.757 36.3068C191.602 37.313 190.854 38.7245 190.515 40.5414V40.444L187.764 55.2891H179.051L185.726 19.2715H194.439L192.146 31.7317C193.267 30.5315 194.643 29.5825 196.273 28.8843C197.904 28.1869 199.669 27.8378 201.572 27.8378C204.357 27.8378 206.557 28.6006 208.171 30.1254V30.1254Z" fill="white"/>
<path d="M218.098 53.8956C216.373 52.968 215.042 51.6568 214.104 49.9609C213.164 48.2657 212.695 46.2983 212.695 44.0587C212.695 41.02 213.388 38.2526 214.773 35.7574C216.158 33.2623 218.067 31.3032 220.499 29.8794C222.93 28.4564 225.639 27.7441 228.625 27.7441C230.842 27.7441 232.819 28.2164 234.559 29.1597C236.297 30.1036 237.644 31.4232 238.599 33.1184C239.552 34.8143 240.03 36.7816 240.03 39.0204C240.03 42.0914 239.33 44.867 237.929 47.3457C236.528 49.8251 234.605 51.7685 232.158 53.1758C229.71 54.5838 226.993 55.287 224.008 55.287C221.792 55.287 219.821 54.8237 218.098 53.8956ZM228.602 47.0098C229.633 46.1941 230.433 45.1384 231.003 43.8428C231.572 42.5473 231.857 41.1962 231.857 39.7881C231.857 38.189 231.442 36.9571 230.611 36.0934C229.78 35.2296 228.733 34.7978 227.471 34.7978C226.147 34.7978 224.985 35.2057 223.985 36.0214C222.984 36.8371 222.207 37.901 221.653 39.2123C221.099 40.5244 220.822 41.8994 220.822 43.339C220.822 44.9067 221.222 46.1146 222.022 46.9618C222.822 47.8098 223.853 48.2334 225.116 48.2334C226.409 48.2334 227.57 47.8255 228.602 47.0098Z" fill="white"/>
<path d="M256.553 28.9053C258.126 28.1312 259.871 27.7441 261.786 27.7441C264.708 27.7441 267.069 28.6959 268.87 30.5988C270.672 32.5023 271.573 35.0825 271.573 38.3401C271.573 39.3402 271.475 40.4205 271.28 41.5818C270.794 44.3563 269.836 46.7996 268.408 48.9119C266.979 51.0249 265.259 52.654 263.247 53.7986C261.234 54.944 259.109 55.5162 256.869 55.5162C254.986 55.5162 253.395 55.1291 252.098 54.355C250.799 53.5808 249.841 52.5814 249.225 51.3552L246.255 67.9991H237.93L244.989 28.1312H253.315L252.633 31.9535C253.672 30.6955 254.978 29.6795 256.553 28.9053ZM263.004 40.0819C263.004 38.4694 262.541 37.2114 261.616 36.308C260.691 35.4053 259.514 34.9532 258.086 34.9532C256.431 34.9532 254.922 35.5505 253.558 36.7434C252.195 37.9371 251.319 39.5663 250.929 41.6302C250.832 42.2108 250.783 42.743 250.783 43.2268C250.783 44.8076 251.237 46.0497 252.146 46.9524C253.055 47.8558 254.223 48.3071 255.652 48.3071C257.307 48.3071 258.824 47.7023 260.204 46.4927C261.583 45.2831 262.468 43.6463 262.858 41.5818C262.955 41.0337 263.004 40.534 263.004 40.0819V40.0819Z" fill="white"/>
<path d="M114.149 43.4245L117.131 27.7441L125.551 27.7442L122.811 42.3897C122.706 42.916 122.651 43.4259 122.645 43.9193C122.629 45.3037 123.003 46.3701 123.768 47.1212C124.533 47.871 125.609 48.2547 126.992 48.2712C128.574 48.289 129.921 47.8353 131.036 46.9101C132.15 45.9836 132.899 44.6513 133.283 42.9092L136.149 27.7442L144.619 27.7441L139.465 55.1875L131.014 55.0888L131.701 51.3401C130.599 52.5463 129.261 53.5112 127.688 54.2335C126.115 54.9559 124.438 55.3068 122.659 55.2862C119.891 55.2533 117.727 54.446 116.164 52.8629C114.6 51.2797 113.835 49.0881 113.868 46.2878C113.882 45.2338 113.974 44.2798 114.149 43.4245Z" fill="white"/>
</g>
</svg>
