<svg width="20" height="20" viewBox="0 0 20 20" fill="none" xmlns="http://www.w3.org/2000/svg">
<g clip-path="url(#clip0_579_28842)">
<path d="M16.9133 19.0588H3.08674C1.98534 19.0588 0.959791 18.4646 0.410259 17.5081C-0.138803 16.5527 -0.136616 15.3664 0.416041 14.4123L7.32932 2.48012C7.87959 1.5298 8.90295 0.939453 9.99999 0.939453C11.0971 0.939453 12.1205 1.52988 12.6708 2.48031L19.5839 14.4123C20.1366 15.3664 20.1389 16.5527 19.5897 17.5082C19.0402 18.4646 18.0146 19.0588 16.9133 19.0588Z" fill="#FFB900"/>
<path d="M19.5897 17.5082C20.1388 16.5527 20.1366 15.3664 19.5839 14.4123L12.6708 2.48031C12.1205 1.52988 11.0971 0.939453 10 0.939453V19.0589H16.9133C18.0146 19.0588 19.0402 18.4646 19.5897 17.5082Z" fill="#FF8C00"/>
<path d="M9.99742 11.5273C9.75934 11.5273 9.54492 11.3833 9.45492 11.1629C9.32199 10.8372 8.15625 7.94094 8.15625 6.5482C8.15625 5.53301 8.98223 4.70703 9.99742 4.70703C11.0126 4.70703 11.8386 5.53301 11.8386 6.5482C11.8386 7.9409 10.6729 10.8372 10.5399 11.1629C10.4499 11.3832 10.2355 11.5273 9.99742 11.5273Z" fill="#3C3C37"/>
<path d="M9.99742 16.5476C11.0143 16.5476 11.8386 15.7233 11.8386 14.7064C11.8386 13.6896 11.0143 12.8652 9.99742 12.8652C8.98057 12.8652 8.15625 13.6896 8.15625 14.7064C8.15625 15.7233 8.98057 16.5476 9.99742 16.5476Z" fill="#3C3C37"/>
<path d="M10.5425 11.1629C10.6754 10.8372 11.8412 7.94094 11.8412 6.5482C11.8412 5.53301 11.0152 4.70703 10 4.70703V11.5273C10.2381 11.5273 10.4525 11.3832 10.5425 11.1629Z" fill="#141E14"/>
<path d="M11.8412 14.7084C11.8412 13.6932 11.0152 12.8672 10 12.8672V16.5495C11.0152 16.5495 11.8412 15.7236 11.8412 14.7084Z" fill="#141E14"/>
</g>
<defs>
<clipPath id="clip0_579_28842">
<rect width="20" height="20" fill="white"/>
</clipPath>
</defs>
</svg>
