<svg width="33" height="37" viewBox="0 0 33 37" fill="none" xmlns="http://www.w3.org/2000/svg">
<circle cx="16.2781" cy="20.7303" r="16.2781" fill="#FF9100"/>
<g filter="url(#filter0_b_3869_1175)">
<path d="M15.5407 16.9655C15.9371 17.3982 16.6192 17.3982 17.0155 16.9655L31.0215 1.67539C31.6091 1.03391 31.1541 -7.4264e-05 30.2841 -7.4188e-05L2.27213 -7.17391e-05C1.4022 -7.1663e-05 0.947127 1.03391 1.53474 1.67539L15.5407 16.9655Z" fill="#5E44FF" fill-opacity="0.8"/>
</g>
<path d="M15.9195 12.5779C16.0662 12.2806 16.4901 12.2806 16.6369 12.5779L18.7946 16.9499C18.8528 17.0679 18.9655 17.1497 19.0957 17.1687L23.9205 17.8698C24.2486 17.9174 24.3796 18.3206 24.1422 18.552L20.651 21.9552C20.5567 22.0471 20.5137 22.1795 20.5359 22.3092L21.3601 27.1145C21.4161 27.4413 21.0732 27.6904 20.7797 27.5362L16.4643 25.2674C16.3478 25.2062 16.2086 25.2062 16.092 25.2674L11.7766 27.5362C11.4832 27.6904 11.1402 27.4413 11.1962 27.1145L12.0204 22.3092C12.0427 22.1795 11.9996 22.0471 11.9054 21.9552L8.41412 18.552C8.17671 18.3206 8.30772 17.9174 8.6358 17.8698L13.4606 17.1687C13.5909 17.1497 13.7035 17.0679 13.7618 16.9499L15.9195 12.5779Z" fill="white"/>
<defs>
<filter id="filter0_b_3869_1175" x="-0.729858" y="-2" width="34.0159" height="21.29" filterUnits="userSpaceOnUse" color-interpolation-filters="sRGB">
<feFlood flood-opacity="0" result="BackgroundImageFix"/>
<feGaussianBlur in="BackgroundImageFix" stdDeviation="1"/>
<feComposite in2="SourceAlpha" operator="in" result="effect1_backgroundBlur_3869_1175"/>
<feBlend mode="normal" in="SourceGraphic" in2="effect1_backgroundBlur_3869_1175" result="shape"/>
</filter>
</defs>
</svg>
