<svg width="230" height="26" viewBox="0 0 230 26" fill="none" xmlns="http://www.w3.org/2000/svg">
<path d="M0.0920001 2.592C0.456 2.60933 0.932667 2.62667 1.522 2.644C2.11133 2.66133 2.692 2.67 3.264 2.67C4.07867 2.67 4.85867 2.66133 5.604 2.644C6.34933 2.62667 6.878 2.618 7.19 2.618C9.01 2.618 10.3793 2.99933 11.298 3.762C12.2167 4.52467 12.676 5.504 12.676 6.7C12.676 7.30667 12.546 7.90467 12.286 8.494C12.0433 9.066 11.6273 9.59467 11.038 10.08C10.466 10.548 9.69467 10.9293 8.724 11.224V11.276C10.0933 11.4493 11.1593 11.7787 11.922 12.264C12.702 12.732 13.248 13.2867 13.56 13.928C13.872 14.5693 14.028 15.2453 14.028 15.956C14.028 16.944 13.7767 17.8193 13.274 18.582C12.7887 19.3273 12.078 19.9167 11.142 20.35C10.206 20.7833 9.088 21 7.788 21C7.40667 21 6.83467 20.9913 6.072 20.974C5.30933 20.9393 4.39067 20.922 3.316 20.922C2.70933 20.922 2.11133 20.9307 1.522 20.948C0.932667 20.948 0.456 20.9653 0.0920001 21V20.48C0.681333 20.4453 1.12333 20.376 1.418 20.272C1.73 20.168 1.938 19.96 2.042 19.648C2.146 19.336 2.198 18.868 2.198 18.244V5.348C2.198 4.70667 2.146 4.23867 2.042 3.944C1.938 3.632 1.73 3.424 1.418 3.32C1.12333 3.19867 0.681333 3.12933 0.0920001 3.112V2.592ZM6.54 3.112C5.74267 3.112 5.22267 3.25933 4.98 3.554C4.73733 3.84867 4.616 4.44667 4.616 5.348V18.244C4.616 18.8507 4.668 19.31 4.772 19.622C4.876 19.934 5.06667 20.142 5.344 20.246C5.62133 20.35 6.02867 20.402 6.566 20.402C8.26467 20.402 9.49533 20.012 10.258 19.232C11.038 18.4347 11.428 17.308 11.428 15.852C11.428 14.5173 11.064 13.486 10.336 12.758C9.62533 12.03 8.44667 11.666 6.8 11.666H4.122C4.122 11.666 4.122 11.5967 4.122 11.458C4.122 11.302 4.122 11.224 4.122 11.224H6.358C7.38067 11.224 8.16933 11.0333 8.724 10.652C9.27867 10.2533 9.66 9.73333 9.868 9.092C10.076 8.43333 10.18 7.73133 10.18 6.986C10.18 5.70333 9.894 4.74133 9.322 4.1C8.76733 3.44133 7.84 3.112 6.54 3.112ZM22.2712 7.246C23.7966 7.246 24.9839 7.714 25.8332 8.65C26.6999 9.56867 27.1332 11.0073 27.1332 12.966H17.9552L17.9292 12.472H24.6372C24.6719 11.6227 24.6026 10.8427 24.4292 10.132C24.2559 9.404 23.9786 8.82333 23.5972 8.39C23.2332 7.95667 22.7566 7.74 22.1672 7.74C21.3699 7.74 20.6592 8.13867 20.0352 8.936C19.4286 9.73333 19.0646 10.9987 18.9432 12.732L19.0212 12.836C18.9866 13.096 18.9606 13.382 18.9432 13.694C18.9259 14.006 18.9172 14.318 18.9172 14.63C18.9172 15.8087 19.1079 16.8227 19.4892 17.672C19.8706 18.5213 20.3646 19.1713 20.9712 19.622C21.5952 20.0553 22.2366 20.272 22.8952 20.272C23.4152 20.272 23.9092 20.194 24.3772 20.038C24.8452 19.8647 25.2786 19.5873 25.6772 19.206C26.0759 18.8247 26.4226 18.3133 26.7172 17.672L27.2372 17.88C27.0466 18.452 26.7346 19.0067 26.3012 19.544C25.8679 20.0813 25.3219 20.5233 24.6632 20.87C24.0046 21.1993 23.2419 21.364 22.3752 21.364C21.1272 21.364 20.0526 21.078 19.1512 20.506C18.2672 19.934 17.5826 19.1453 17.0972 18.14C16.6292 17.1173 16.3952 15.9473 16.3952 14.63C16.3952 13.1047 16.6379 11.796 17.1232 10.704C17.6086 9.59467 18.2932 8.74533 19.1772 8.156C20.0612 7.54933 21.0926 7.246 22.2712 7.246ZM32.7976 21.182C32.0869 21.182 31.4716 21.052 30.9516 20.792C30.4316 20.5147 30.0329 20.1333 29.7556 19.648C29.4956 19.1627 29.3656 18.5993 29.3656 17.958C29.3656 17.1953 29.5389 16.5713 29.8856 16.086C30.2496 15.6007 30.7089 15.2107 31.2636 14.916C31.8182 14.6213 32.3989 14.3787 33.0056 14.188C33.6296 13.98 34.2189 13.7893 34.7736 13.616C35.3282 13.4253 35.7789 13.2087 36.1256 12.966C36.4896 12.7233 36.6716 12.4027 36.6716 12.004V10.392C36.6716 9.664 36.5589 9.10933 36.3336 8.728C36.1256 8.34667 35.8396 8.09533 35.4756 7.974C35.1116 7.83533 34.7042 7.766 34.2536 7.766C33.8202 7.766 33.3522 7.82667 32.8496 7.948C32.3642 8.06933 31.9742 8.32067 31.6796 8.702C32.0089 8.77133 32.2949 8.94467 32.5376 9.222C32.7802 9.49933 32.9016 9.85467 32.9016 10.288C32.9016 10.7213 32.7629 11.068 32.4856 11.328C32.2082 11.5707 31.8529 11.692 31.4196 11.692C30.9169 11.692 30.5442 11.536 30.3016 11.224C30.0762 10.8947 29.9636 10.5307 29.9636 10.132C29.9636 9.68133 30.0762 9.31733 30.3016 9.04C30.5269 8.76267 30.8129 8.50267 31.1596 8.26C31.5582 7.98267 32.0696 7.74867 32.6936 7.558C33.3349 7.35 34.0542 7.246 34.8516 7.246C35.5622 7.246 36.1689 7.33267 36.6716 7.506C37.1742 7.662 37.5902 7.896 37.9196 8.208C38.3702 8.624 38.6649 9.13533 38.8036 9.742C38.9422 10.3313 39.0116 11.042 39.0116 11.874V19.102C39.0116 19.5353 39.0722 19.8473 39.1936 20.038C39.3322 20.2287 39.5402 20.324 39.8176 20.324C40.0082 20.324 40.1902 20.2807 40.3636 20.194C40.5369 20.1073 40.7449 19.9687 40.9876 19.778L41.2736 20.22C40.9096 20.4973 40.5629 20.7313 40.2336 20.922C39.9042 21.0953 39.4622 21.182 38.9076 21.182C38.4049 21.182 37.9889 21.0953 37.6596 20.922C37.3302 20.7487 37.0789 20.4973 36.9056 20.168C36.7496 19.8213 36.6716 19.388 36.6716 18.868C36.2036 19.648 35.6402 20.2287 34.9816 20.61C34.3402 20.9913 33.6122 21.182 32.7976 21.182ZM33.7336 20.142C34.3056 20.142 34.8342 19.9773 35.3196 19.648C35.8222 19.3187 36.2729 18.8247 36.6716 18.166V13.07C36.4636 13.3647 36.1602 13.616 35.7616 13.824C35.3629 14.0147 34.9296 14.214 34.4616 14.422C33.9936 14.6127 33.5429 14.8467 33.1096 15.124C32.6936 15.384 32.3469 15.7307 32.0696 16.164C31.7922 16.5973 31.6536 17.1607 31.6536 17.854C31.6536 18.5473 31.8356 19.102 32.1996 19.518C32.5809 19.934 33.0922 20.142 33.7336 20.142ZM53.8588 7.324V18.192C53.8588 18.972 53.9974 19.5527 54.2748 19.934C54.5694 20.298 55.0894 20.48 55.8348 20.48V21.026C55.2974 20.974 54.7601 20.948 54.2228 20.948C53.7201 20.948 53.2348 20.974 52.7668 21.026C52.3161 21.078 51.9001 21.1733 51.5188 21.312V18.244C51.0854 19.3707 50.4701 20.1767 49.6728 20.662C48.8928 21.13 48.0868 21.364 47.2548 21.364C46.6481 21.364 46.1194 21.2773 45.6688 21.104C45.2181 20.9307 44.8454 20.688 44.5508 20.376C44.2214 20.0293 43.9961 19.5787 43.8748 19.024C43.7534 18.4693 43.6928 17.7847 43.6928 16.97V10.444C43.6928 9.664 43.5541 9.092 43.2768 8.728C42.9994 8.34667 42.4794 8.156 41.7168 8.156V7.61C42.2714 7.662 42.8088 7.688 43.3288 7.688C43.8314 7.688 44.3081 7.662 44.7588 7.61C45.2268 7.54067 45.6514 7.44533 46.0328 7.324V17.542C46.0328 18.0793 46.0674 18.5733 46.1368 19.024C46.2061 19.4747 46.3794 19.8387 46.6568 20.116C46.9341 20.3933 47.3848 20.532 48.0088 20.532C48.6848 20.532 49.2828 20.324 49.8028 19.908C50.3401 19.492 50.7561 18.9287 51.0508 18.218C51.3628 17.5073 51.5188 16.71 51.5188 15.826V10.444C51.5188 9.664 51.3801 9.092 51.1028 8.728C50.8254 8.34667 50.3054 8.156 49.5428 8.156V7.61C50.0974 7.662 50.6348 7.688 51.1548 7.688C51.6574 7.688 52.1341 7.662 52.5848 7.61C53.0528 7.54067 53.4774 7.44533 53.8588 7.324ZM61.3482 3.294V7.636H65.1962V8.156H61.3482V18.218C61.3482 19.0327 61.4955 19.6047 61.7902 19.934C62.0849 20.2633 62.4922 20.428 63.0122 20.428C63.5322 20.428 63.9829 20.22 64.3642 19.804C64.7455 19.3707 65.0749 18.6513 65.3522 17.646L65.8722 17.776C65.6989 18.7813 65.3522 19.6307 64.8322 20.324C64.3295 21.0173 63.5495 21.364 62.4922 21.364C61.9029 21.364 61.4175 21.286 61.0362 21.13C60.6549 20.9913 60.3169 20.7833 60.0222 20.506C59.6409 20.1073 59.3722 19.6307 59.2162 19.076C59.0775 18.5213 59.0082 17.7847 59.0082 16.866V8.156H56.5122V7.636H59.0082V3.658C59.4415 3.64067 59.8575 3.606 60.2562 3.554C60.6549 3.502 61.0189 3.41533 61.3482 3.294ZM78.4436 7.61V8.13C78.1143 8.16467 77.8109 8.312 77.5336 8.572C77.2563 8.832 76.9963 9.29133 76.7536 9.95L72.4896 21.13H72.0476L67.2636 9.612C66.9343 8.936 66.6049 8.52867 66.2756 8.39C65.9636 8.234 65.7036 8.156 65.4956 8.156V7.61C65.8769 7.662 66.2756 7.70533 66.6916 7.74C67.1076 7.75733 67.5583 7.766 68.0436 7.766C68.5809 7.766 69.1443 7.74867 69.7336 7.714C70.3403 7.67933 70.9036 7.64467 71.4236 7.61V8.156C70.9903 8.156 70.6003 8.19067 70.2536 8.26C69.9243 8.312 69.7163 8.494 69.6296 8.806C69.5429 9.10067 69.6469 9.612 69.9416 10.34L73.1396 18.27L72.9836 18.322L75.9476 10.574C76.1729 10.002 76.2596 9.55133 76.2076 9.222C76.1729 8.87533 75.9996 8.61533 75.6876 8.442C75.3756 8.26867 74.9076 8.16467 74.2836 8.13V7.61C74.5956 7.62733 74.8643 7.64467 75.0896 7.662C75.3149 7.662 75.5316 7.67067 75.7396 7.688C75.9649 7.688 76.2076 7.688 76.4676 7.688C76.8663 7.688 77.2216 7.67933 77.5336 7.662C77.8629 7.64467 78.1663 7.62733 78.4436 7.61ZM72.4896 21.13L71.6056 23.392C71.4323 23.8253 71.2503 24.1893 71.0596 24.484C70.8863 24.7787 70.6956 25.0213 70.4876 25.212C70.2103 25.472 69.8809 25.6453 69.4996 25.732C69.1183 25.836 68.7716 25.888 68.4596 25.888C68.1303 25.888 67.8269 25.8273 67.5496 25.706C67.2896 25.5847 67.0816 25.4027 66.9256 25.16C66.7696 24.9347 66.6916 24.6573 66.6916 24.328C66.6916 23.912 66.8129 23.574 67.0556 23.314C67.2983 23.0713 67.6363 22.95 68.0696 22.95C68.4336 22.95 68.7456 23.054 69.0056 23.262C69.2656 23.47 69.3956 23.7733 69.3956 24.172C69.3956 24.4667 69.3263 24.7093 69.1876 24.9C69.0489 25.0907 68.8843 25.238 68.6936 25.342C68.7283 25.3593 68.7543 25.368 68.7716 25.368C68.8063 25.368 68.8323 25.368 68.8496 25.368C69.3176 25.368 69.7336 25.2033 70.0976 24.874C70.4616 24.562 70.7823 24.0507 71.0596 23.34L71.9956 20.922L72.4896 21.13ZM92.4722 2.748C93.1309 2.748 93.6769 2.826 94.1102 2.982C94.5436 3.12067 94.8989 3.30267 95.1762 3.528C95.4016 3.70133 95.5836 3.892 95.7222 4.1C95.8609 4.308 95.9649 4.516 96.0342 4.724C96.1036 4.932 96.1382 5.13133 96.1382 5.322C96.1382 5.75533 95.9822 6.09333 95.6702 6.336C95.3756 6.57867 95.0462 6.7 94.6822 6.7C94.3356 6.7 94.0236 6.58733 93.7462 6.362C93.4689 6.13667 93.3302 5.816 93.3302 5.4C93.3302 5.01867 93.4602 4.698 93.7202 4.438C93.9802 4.16067 94.3096 4.00467 94.7082 3.97C94.6389 3.74467 94.4222 3.554 94.0582 3.398C93.7116 3.22467 93.2696 3.138 92.7322 3.138C91.8482 3.138 91.1202 3.40667 90.5482 3.944C89.9936 4.464 89.7162 5.22667 89.7162 6.232C89.7162 6.71733 89.8029 7.21133 89.9762 7.714C90.1669 8.21667 90.5222 8.71067 91.0422 9.196C91.3369 9.144 91.6402 9.10933 91.9522 9.092C92.2642 9.05733 92.4982 9.04 92.6542 9.04C92.9662 9.04 93.2176 9.092 93.4082 9.196C93.5989 9.3 93.6942 9.44733 93.6942 9.638C93.6942 9.794 93.6249 9.91533 93.4862 10.002C93.3649 10.0887 93.1916 10.132 92.9662 10.132C92.6369 10.132 92.2902 10.0627 91.9262 9.924C91.5622 9.768 91.2762 9.64667 91.0682 9.56C90.0629 9.85467 89.2482 10.34 88.6242 11.016C88.0002 11.6747 87.6882 12.6107 87.6882 13.824C87.6882 15.02 88.0002 16.034 88.6242 16.866C89.2482 17.698 90.0802 18.3393 91.1202 18.79C92.1776 19.2233 93.3562 19.44 94.6562 19.44C95.5749 19.44 96.4416 19.336 97.2562 19.128C98.0882 18.9027 98.8162 18.582 99.4402 18.166C100.082 17.75 100.584 17.256 100.948 16.684C101.312 16.0947 101.494 15.4273 101.494 14.682C101.494 14.3527 101.425 13.9367 101.286 13.434C101.148 12.914 100.862 12.4113 100.428 11.926C99.9949 11.4233 99.3276 11.0333 98.4262 10.756L98.7382 10.496C100.004 10.8773 100.905 11.4927 101.442 12.342C101.98 13.174 102.248 14.11 102.248 15.15C102.248 16.19 101.936 17.1867 101.312 18.14C100.688 19.0933 99.7869 19.8733 98.6082 20.48C97.4296 21.0693 95.9996 21.364 94.3182 21.364C93.1916 21.364 92.1169 21.2167 91.0942 20.922C90.0889 20.6273 89.1962 20.2027 88.4162 19.648C87.6362 19.076 87.0209 18.3913 86.5702 17.594C86.1196 16.7967 85.8942 15.8953 85.8942 14.89C85.8942 13.954 86.0762 13.1567 86.4402 12.498C86.8042 11.822 87.2549 11.2673 87.7922 10.834C88.3296 10.4007 88.8669 10.0713 89.4042 9.846C89.9416 9.60333 90.3749 9.43867 90.7042 9.352C90.1322 9.092 89.6469 8.78867 89.2482 8.442C88.8669 8.078 88.5722 7.688 88.3642 7.272C88.1736 6.83867 88.0782 6.414 88.0782 5.998C88.0782 5.582 88.1736 5.18333 88.3642 4.802C88.5549 4.40333 88.8322 4.048 89.1962 3.736C89.5602 3.424 90.0109 3.18133 90.5482 3.008C91.1029 2.83467 91.7442 2.748 92.4722 2.748ZM101.936 2.228C103.011 2.228 103.912 2.54 104.64 3.164C105.368 3.77067 105.732 4.62867 105.732 5.738C105.732 6.32733 105.62 6.856 105.394 7.324C105.186 7.77467 104.892 8.17333 104.51 8.52C104.146 8.86667 103.73 9.15267 103.262 9.378C102.864 9.56867 102.335 9.77667 101.676 10.002C101.035 10.2273 100.342 10.4527 99.5962 10.678C98.8682 10.9033 98.1662 11.1287 97.4902 11.354C96.8316 11.562 96.2942 11.744 95.8782 11.9C95.2369 12.1427 94.6909 12.446 94.2402 12.81C93.8069 13.1567 93.5902 13.6073 93.5902 14.162C93.5902 14.6127 93.7202 14.994 93.9802 15.306C94.2402 15.618 94.5522 15.852 94.9162 16.008C95.2976 16.164 95.6529 16.242 95.9822 16.242C96.1382 16.242 96.3289 16.2247 96.5542 16.19C96.7969 16.138 97.0136 16.0687 97.2042 15.982C97.3949 15.8953 97.5076 15.7913 97.5422 15.67C97.2649 15.618 96.9876 15.4967 96.7102 15.306C96.4502 15.098 96.3202 14.7773 96.3202 14.344C96.3202 13.928 96.4589 13.5987 96.7362 13.356C97.0136 13.1133 97.3516 12.992 97.7502 12.992C98.1662 12.992 98.4956 13.122 98.7382 13.382C98.9982 13.642 99.1282 13.98 99.1282 14.396C99.1282 14.8813 98.9636 15.2973 98.6342 15.644C98.3222 15.9733 97.9236 16.2247 97.4382 16.398C96.9702 16.554 96.5022 16.632 96.0342 16.632C95.5489 16.632 95.0549 16.528 94.5522 16.32C94.0496 16.112 93.6336 15.7913 93.3042 15.358C92.9749 14.9073 92.8102 14.318 92.8102 13.59C92.8102 12.9833 92.9402 12.446 93.2002 11.978C93.4776 11.51 93.8849 11.094 94.4222 10.73C94.9596 10.366 95.6182 10.054 96.3982 9.794C96.9182 9.62067 97.5509 9.43 98.2962 9.222C99.0416 9.014 99.8042 8.78867 100.584 8.546C101.382 8.30333 102.101 8.03467 102.742 7.74C103.609 7.34133 104.198 6.934 104.51 6.518C104.822 6.102 104.978 5.67733 104.978 5.244C104.978 4.74133 104.84 4.29933 104.562 3.918C104.285 3.51933 103.912 3.20733 103.444 2.982C102.994 2.73933 102.5 2.618 101.962 2.618C101.754 2.618 101.581 2.63533 101.442 2.67C101.304 2.70467 101.217 2.76533 101.182 2.852C101.425 2.97333 101.607 3.14667 101.728 3.372C101.85 3.59733 101.91 3.82267 101.91 4.048C101.91 4.412 101.763 4.71533 101.468 4.958C101.191 5.20067 100.853 5.322 100.454 5.322C100.125 5.322 99.8129 5.218 99.5182 5.01C99.2236 4.78467 99.0762 4.45533 99.0762 4.022C99.0762 3.57133 99.2236 3.216 99.5182 2.956C99.8302 2.696 100.203 2.514 100.636 2.41C101.087 2.28867 101.52 2.228 101.936 2.228ZM113.817 2.592C114.181 2.60933 114.657 2.62667 115.247 2.644C115.836 2.66133 116.417 2.67 116.989 2.67C117.803 2.67 118.583 2.66133 119.329 2.644C120.074 2.62667 120.603 2.618 120.915 2.618C123.012 2.618 124.581 3.09467 125.621 4.048C126.661 5.00133 127.181 6.232 127.181 7.74C127.181 8.364 127.077 9.02267 126.869 9.716C126.661 10.392 126.297 11.0247 125.777 11.614C125.274 12.186 124.581 12.654 123.697 13.018C122.813 13.382 121.695 13.564 120.343 13.564H117.847V13.044H120.083C121.313 13.044 122.249 12.81 122.891 12.342C123.549 11.874 123.991 11.2587 124.217 10.496C124.459 9.73333 124.581 8.91 124.581 8.026C124.581 6.37933 124.251 5.14867 123.593 4.334C122.951 3.51933 121.842 3.112 120.265 3.112C119.467 3.112 118.947 3.25933 118.705 3.554C118.462 3.84867 118.341 4.44667 118.341 5.348V18.244C118.341 18.868 118.401 19.336 118.523 19.648C118.661 19.96 118.921 20.168 119.303 20.272C119.684 20.376 120.239 20.4453 120.967 20.48V21C120.516 20.9653 119.944 20.948 119.251 20.948C118.557 20.9307 117.855 20.922 117.145 20.922C116.469 20.922 115.836 20.9307 115.247 20.948C114.657 20.948 114.181 20.9653 113.817 21V20.48C114.406 20.4453 114.848 20.376 115.143 20.272C115.455 20.168 115.663 19.96 115.767 19.648C115.871 19.336 115.923 18.868 115.923 18.244V5.348C115.923 4.70667 115.871 4.23867 115.767 3.944C115.663 3.632 115.455 3.424 115.143 3.32C114.848 3.19867 114.406 3.12933 113.817 3.112V2.592ZM132.541 0.641999V10.366C132.992 9.18733 133.616 8.37267 134.413 7.922C135.228 7.47133 136.077 7.246 136.961 7.246C137.62 7.246 138.166 7.33267 138.599 7.506C139.05 7.67933 139.422 7.922 139.717 8.234C140.046 8.58067 140.28 9.014 140.419 9.534C140.558 10.054 140.627 10.756 140.627 11.64V18.582C140.627 19.31 140.774 19.804 141.069 20.064C141.381 20.324 141.892 20.454 142.603 20.454V21C142.308 20.9827 141.858 20.9653 141.251 20.948C140.644 20.9133 140.055 20.896 139.483 20.896C138.911 20.896 138.348 20.9133 137.793 20.948C137.256 20.9653 136.848 20.9827 136.571 21V20.454C137.195 20.454 137.637 20.324 137.897 20.064C138.157 19.804 138.287 19.31 138.287 18.582V11.068C138.287 10.5307 138.244 10.0367 138.157 9.586C138.07 9.13533 137.871 8.77133 137.559 8.494C137.264 8.21667 136.805 8.078 136.181 8.078C135.47 8.078 134.838 8.27733 134.283 8.676C133.746 9.07467 133.321 9.62933 133.009 10.34C132.697 11.0507 132.541 11.8653 132.541 12.784V18.582C132.541 19.31 132.671 19.804 132.931 20.064C133.191 20.324 133.633 20.454 134.257 20.454V21C133.98 20.9827 133.564 20.9653 133.009 20.948C132.472 20.9133 131.917 20.896 131.345 20.896C130.773 20.896 130.184 20.9133 129.577 20.948C128.97 20.9653 128.52 20.9827 128.225 21V20.454C128.936 20.454 129.438 20.324 129.733 20.064C130.045 19.804 130.201 19.31 130.201 18.582V3.762C130.201 2.982 130.062 2.41 129.785 2.046C129.508 1.66467 128.988 1.474 128.225 1.474V0.928C128.78 0.979999 129.317 1.006 129.837 1.006C130.34 1.006 130.816 0.979999 131.267 0.928C131.735 0.858666 132.16 0.763332 132.541 0.641999ZM147.436 21.182C146.726 21.182 146.11 21.052 145.59 20.792C145.07 20.5147 144.672 20.1333 144.394 19.648C144.134 19.1627 144.004 18.5993 144.004 17.958C144.004 17.1953 144.178 16.5713 144.524 16.086C144.888 15.6007 145.348 15.2107 145.902 14.916C146.457 14.6213 147.038 14.3787 147.644 14.188C148.268 13.98 148.858 13.7893 149.412 13.616C149.967 13.4253 150.418 13.2087 150.764 12.966C151.128 12.7233 151.31 12.4027 151.31 12.004V10.392C151.31 9.664 151.198 9.10933 150.972 8.728C150.764 8.34667 150.478 8.09533 150.114 7.974C149.75 7.83533 149.343 7.766 148.892 7.766C148.459 7.766 147.991 7.82667 147.488 7.948C147.003 8.06933 146.613 8.32067 146.318 8.702C146.648 8.77133 146.934 8.94467 147.176 9.222C147.419 9.49933 147.54 9.85467 147.54 10.288C147.54 10.7213 147.402 11.068 147.124 11.328C146.847 11.5707 146.492 11.692 146.058 11.692C145.556 11.692 145.183 11.536 144.94 11.224C144.715 10.8947 144.602 10.5307 144.602 10.132C144.602 9.68133 144.715 9.31733 144.94 9.04C145.166 8.76267 145.452 8.50267 145.798 8.26C146.197 7.98267 146.708 7.74867 147.332 7.558C147.974 7.35 148.693 7.246 149.49 7.246C150.201 7.246 150.808 7.33267 151.31 7.506C151.813 7.662 152.229 7.896 152.558 8.208C153.009 8.624 153.304 9.13533 153.442 9.742C153.581 10.3313 153.65 11.042 153.65 11.874V19.102C153.65 19.5353 153.711 19.8473 153.832 20.038C153.971 20.2287 154.179 20.324 154.456 20.324C154.647 20.324 154.829 20.2807 155.002 20.194C155.176 20.1073 155.384 19.9687 155.626 19.778L155.912 20.22C155.548 20.4973 155.202 20.7313 154.872 20.922C154.543 21.0953 154.101 21.182 153.546 21.182C153.044 21.182 152.628 21.0953 152.298 20.922C151.969 20.7487 151.718 20.4973 151.544 20.168C151.388 19.8213 151.31 19.388 151.31 18.868C150.842 19.648 150.279 20.2287 149.62 20.61C148.979 20.9913 148.251 21.182 147.436 21.182ZM148.372 20.142C148.944 20.142 149.473 19.9773 149.958 19.648C150.461 19.3187 150.912 18.8247 151.31 18.166V13.07C151.102 13.3647 150.799 13.616 150.4 13.824C150.002 14.0147 149.568 14.214 149.1 14.422C148.632 14.6127 148.182 14.8467 147.748 15.124C147.332 15.384 146.986 15.7307 146.708 16.164C146.431 16.5973 146.292 17.1607 146.292 17.854C146.292 18.5473 146.474 19.102 146.838 19.518C147.22 19.934 147.731 20.142 148.372 20.142ZM164.779 7.246C165.247 7.246 165.655 7.34133 166.001 7.532C166.365 7.72267 166.643 7.974 166.833 8.286C167.041 8.58067 167.145 8.91867 167.145 9.3C167.145 9.73333 167.007 10.1147 166.729 10.444C166.469 10.7733 166.114 10.938 165.663 10.938C165.299 10.938 164.979 10.8253 164.701 10.6C164.424 10.3573 164.285 10.0193 164.285 9.586C164.285 9.25667 164.372 8.97933 164.545 8.754C164.736 8.51133 164.944 8.32067 165.169 8.182C165.048 8.00867 164.866 7.922 164.623 7.922C164.086 7.922 163.592 8.08667 163.141 8.416C162.691 8.728 162.309 9.13533 161.997 9.638C161.685 10.1407 161.443 10.678 161.269 11.25C161.096 11.8047 161.009 12.3247 161.009 12.81V18.322C161.009 19.1713 161.252 19.7433 161.737 20.038C162.24 20.3153 162.916 20.454 163.765 20.454V21C163.367 20.9827 162.803 20.9653 162.075 20.948C161.347 20.9133 160.576 20.896 159.761 20.896C159.172 20.896 158.583 20.9133 157.993 20.948C157.421 20.9653 156.988 20.9827 156.693 21V20.454C157.404 20.454 157.907 20.324 158.201 20.064C158.513 19.804 158.669 19.31 158.669 18.582V10.444C158.669 9.664 158.531 9.092 158.253 8.728C157.976 8.34667 157.456 8.156 156.693 8.156V7.61C157.248 7.662 157.785 7.688 158.305 7.688C158.808 7.688 159.285 7.662 159.735 7.61C160.203 7.54067 160.628 7.44533 161.009 7.324V10.574C161.2 10.0713 161.469 9.56867 161.815 9.066C162.179 8.546 162.613 8.11267 163.115 7.766C163.618 7.41933 164.173 7.246 164.779 7.246ZM176.852 7.246C177.458 7.246 177.987 7.33267 178.438 7.506C178.888 7.67933 179.261 7.922 179.556 8.234C179.885 8.58067 180.11 9.03133 180.232 9.586C180.353 10.1407 180.414 10.8253 180.414 11.64V18.582C180.414 19.31 180.561 19.804 180.856 20.064C181.168 20.324 181.679 20.454 182.39 20.454V21C182.095 20.9827 181.644 20.9653 181.038 20.948C180.431 20.9133 179.842 20.896 179.27 20.896C178.698 20.896 178.134 20.9133 177.58 20.948C177.042 20.9653 176.635 20.9827 176.358 21V20.454C176.982 20.454 177.424 20.324 177.684 20.064C177.944 19.804 178.074 19.31 178.074 18.582V11.068C178.074 10.5307 178.039 10.0367 177.97 9.586C177.9 9.13533 177.727 8.77133 177.45 8.494C177.172 8.21667 176.722 8.078 176.098 8.078C175.422 8.078 174.815 8.286 174.278 8.702C173.758 9.118 173.342 9.69 173.03 10.418C172.735 11.1287 172.588 11.926 172.588 12.81V18.582C172.588 19.31 172.718 19.804 172.978 20.064C173.238 20.324 173.68 20.454 174.304 20.454V21C174.026 20.9827 173.61 20.9653 173.056 20.948C172.518 20.9133 171.964 20.896 171.392 20.896C170.82 20.896 170.23 20.9133 169.624 20.948C169.017 20.9653 168.566 20.9827 168.272 21V20.454C168.982 20.454 169.485 20.324 169.78 20.064C170.092 19.804 170.248 19.31 170.248 18.582V10.444C170.248 9.664 170.109 9.092 169.832 8.728C169.554 8.34667 169.034 8.156 168.272 8.156V7.61C168.826 7.662 169.364 7.688 169.884 7.688C170.386 7.688 170.863 7.662 171.314 7.61C171.782 7.54067 172.206 7.44533 172.588 7.324V10.392C173.038 9.26533 173.654 8.45933 174.434 7.974C175.214 7.48867 176.02 7.246 176.852 7.246ZM184.678 7.246C185.284 7.246 185.813 7.33267 186.264 7.506C186.714 7.67933 187.087 7.922 187.382 8.234C187.711 8.58067 187.936 9.03133 188.058 9.586C188.179 10.1407 188.24 10.8253 188.24 11.64V18.582C188.24 19.31 188.387 19.804 188.682 20.064C188.994 20.324 189.505 20.454 190.216 20.454V21C189.921 20.9827 189.47 20.9653 188.864 20.948C188.257 20.9133 187.668 20.896 187.096 20.896C186.524 20.896 185.96 20.9133 185.406 20.948C184.868 20.9653 184.461 20.9827 184.184 21V20.454C184.808 20.454 185.25 20.324 185.51 20.064C185.77 19.804 185.9 19.31 185.9 18.582V11.068C185.9 10.5307 185.865 10.0367 185.796 9.586C185.726 9.13533 185.553 8.77133 185.276 8.494C184.998 8.21667 184.548 8.078 183.924 8.078C183.248 8.078 182.641 8.286 182.104 8.702C181.584 9.118 181.168 9.68133 180.856 10.392C180.561 11.1027 180.414 11.9 180.414 12.784L180.336 10.366C180.804 9.17 181.436 8.35533 182.234 7.922C183.031 7.47133 183.846 7.246 184.678 7.246ZM195.044 21.182C194.333 21.182 193.718 21.052 193.198 20.792C192.678 20.5147 192.279 20.1333 192.002 19.648C191.742 19.1627 191.612 18.5993 191.612 17.958C191.612 17.1953 191.785 16.5713 192.132 16.086C192.496 15.6007 192.955 15.2107 193.51 14.916C194.064 14.6213 194.645 14.3787 195.252 14.188C195.876 13.98 196.465 13.7893 197.02 13.616C197.574 13.4253 198.025 13.2087 198.372 12.966C198.736 12.7233 198.918 12.4027 198.918 12.004V10.392C198.918 9.664 198.805 9.10933 198.58 8.728C198.372 8.34667 198.086 8.09533 197.722 7.974C197.358 7.83533 196.95 7.766 196.5 7.766C196.066 7.766 195.598 7.82667 195.096 7.948C194.61 8.06933 194.22 8.32067 193.926 8.702C194.255 8.77133 194.541 8.94467 194.784 9.222C195.026 9.49933 195.148 9.85467 195.148 10.288C195.148 10.7213 195.009 11.068 194.732 11.328C194.454 11.5707 194.099 11.692 193.666 11.692C193.163 11.692 192.79 11.536 192.548 11.224C192.322 10.8947 192.21 10.5307 192.21 10.132C192.21 9.68133 192.322 9.31733 192.548 9.04C192.773 8.76267 193.059 8.50267 193.406 8.26C193.804 7.98267 194.316 7.74867 194.94 7.558C195.581 7.35 196.3 7.246 197.098 7.246C197.808 7.246 198.415 7.33267 198.918 7.506C199.42 7.662 199.836 7.896 200.166 8.208C200.616 8.624 200.911 9.13533 201.05 9.742C201.188 10.3313 201.258 11.042 201.258 11.874V19.102C201.258 19.5353 201.318 19.8473 201.44 20.038C201.578 20.2287 201.786 20.324 202.064 20.324C202.254 20.324 202.436 20.2807 202.61 20.194C202.783 20.1073 202.991 19.9687 203.234 19.778L203.52 20.22C203.156 20.4973 202.809 20.7313 202.48 20.922C202.15 21.0953 201.708 21.182 201.154 21.182C200.651 21.182 200.235 21.0953 199.906 20.922C199.576 20.7487 199.325 20.4973 199.152 20.168C198.996 19.8213 198.918 19.388 198.918 18.868C198.45 19.648 197.886 20.2287 197.228 20.61C196.586 20.9913 195.858 21.182 195.044 21.182ZM195.98 20.142C196.552 20.142 197.08 19.9773 197.566 19.648C198.068 19.3187 198.519 18.8247 198.918 18.166V13.07C198.71 13.3647 198.406 13.616 198.008 13.824C197.609 14.0147 197.176 14.214 196.708 14.422C196.24 14.6127 195.789 14.8467 195.356 15.124C194.94 15.384 194.593 15.7307 194.316 16.164C194.038 16.5973 193.9 17.1607 193.9 17.854C193.9 18.5473 194.082 19.102 194.446 19.518C194.827 19.934 195.338 20.142 195.98 20.142ZM210.801 7.246C211.356 7.246 211.893 7.31533 212.413 7.454C212.933 7.59267 213.401 7.80067 213.817 8.078C214.216 8.338 214.519 8.64133 214.727 8.988C214.935 9.31733 215.039 9.68133 215.039 10.08C215.039 10.548 214.909 10.912 214.649 11.172C214.389 11.4147 214.06 11.536 213.661 11.536C213.28 11.536 212.942 11.4233 212.647 11.198C212.37 10.9727 212.231 10.652 212.231 10.236C212.231 9.83733 212.335 9.51667 212.543 9.274C212.768 9.03133 213.028 8.87533 213.323 8.806C213.15 8.494 212.838 8.234 212.387 8.026C211.954 7.818 211.486 7.714 210.983 7.714C210.55 7.714 210.116 7.818 209.683 8.026C209.25 8.234 208.851 8.58067 208.487 9.066C208.123 9.534 207.828 10.184 207.603 11.016C207.378 11.8307 207.265 12.8533 207.265 14.084C207.265 15.6093 207.438 16.8227 207.785 17.724C208.132 18.6253 208.582 19.2753 209.137 19.674C209.709 20.0553 210.333 20.246 211.009 20.246C211.46 20.246 211.919 20.1593 212.387 19.986C212.855 19.8127 213.297 19.5353 213.713 19.154C214.129 18.7553 214.484 18.2267 214.779 17.568L215.273 17.75C215.1 18.3047 214.814 18.868 214.415 19.44C214.016 19.9947 213.496 20.454 212.855 20.818C212.214 21.182 211.425 21.364 210.489 21.364C209.414 21.364 208.444 21.0867 207.577 20.532C206.71 19.9773 206.017 19.1887 205.497 18.166C204.994 17.126 204.743 15.8953 204.743 14.474C204.743 13.0527 204.994 11.8047 205.497 10.73C206.017 9.638 206.736 8.78867 207.655 8.182C208.574 7.558 209.622 7.246 210.801 7.246ZM229.035 7.61V8.13C228.706 8.16467 228.403 8.312 228.125 8.572C227.848 8.832 227.588 9.29133 227.345 9.95L223.081 21.13H222.639L217.855 9.612C217.526 8.936 217.197 8.52867 216.867 8.39C216.555 8.234 216.295 8.156 216.087 8.156V7.61C216.469 7.662 216.867 7.70533 217.283 7.74C217.699 7.75733 218.15 7.766 218.635 7.766C219.173 7.766 219.736 7.74867 220.325 7.714C220.932 7.67933 221.495 7.64467 222.015 7.61V8.156C221.582 8.156 221.192 8.19067 220.845 8.26C220.516 8.312 220.308 8.494 220.221 8.806C220.135 9.10067 220.239 9.612 220.533 10.34L223.731 18.27L223.575 18.322L226.539 10.574C226.765 10.002 226.851 9.55133 226.799 9.222C226.765 8.87533 226.591 8.61533 226.279 8.442C225.967 8.26867 225.499 8.16467 224.875 8.13V7.61C225.187 7.62733 225.456 7.64467 225.681 7.662C225.907 7.662 226.123 7.67067 226.331 7.688C226.557 7.688 226.799 7.688 227.059 7.688C227.458 7.688 227.813 7.67933 228.125 7.662C228.455 7.64467 228.758 7.62733 229.035 7.61ZM223.081 21.13L222.197 23.392C222.024 23.8253 221.842 24.1893 221.651 24.484C221.478 24.7787 221.287 25.0213 221.079 25.212C220.802 25.472 220.473 25.6453 220.091 25.732C219.71 25.836 219.363 25.888 219.051 25.888C218.722 25.888 218.419 25.8273 218.141 25.706C217.881 25.5847 217.673 25.4027 217.517 25.16C217.361 24.9347 217.283 24.6573 217.283 24.328C217.283 23.912 217.405 23.574 217.647 23.314C217.89 23.0713 218.228 22.95 218.661 22.95C219.025 22.95 219.337 23.054 219.597 23.262C219.857 23.47 219.987 23.7733 219.987 24.172C219.987 24.4667 219.918 24.7093 219.779 24.9C219.641 25.0907 219.476 25.238 219.285 25.342C219.32 25.3593 219.346 25.368 219.363 25.368C219.398 25.368 219.424 25.368 219.441 25.368C219.909 25.368 220.325 25.2033 220.689 24.874C221.053 24.562 221.374 24.0507 221.651 23.34L222.587 20.922L223.081 21.13Z" fill="black"/>
</svg>
