<svg width="1440" height="333" viewBox="0 0 1440 333" fill="none" xmlns="http://www.w3.org/2000/svg">
<rect width="1440" height="333" rx="4" fill="#FFE2BE"/>
<g opacity="0.44">
<path d="M1139.41 197.398H1095.82V253.489H1139.41V197.398Z" fill="#EECA9D"/>
<path d="M885.182 197.398H841.586V253.489H885.182V197.398Z" fill="#FCD39F"/>
<path d="M1216.34 172.193H1172.75V234.01H1216.34V172.193Z" fill="#EECA9D"/>
<path d="M1357.94 193.641H1322.41V252.088H1357.94V193.641Z" fill="#EECA9D"/>
<path d="M1409 227.427H772.941V304.109H1409V227.427Z" fill="#FFE2BE"/>
<path d="M1070 92.6022C1071.46 83.6429 1065.38 75.1972 1056.42 73.7381C1047.46 72.2789 1039.02 78.359 1037.56 87.3183C1036.1 96.2776 1042.18 104.723 1051.14 106.182C1060.1 107.642 1068.55 101.561 1070 92.6022Z" fill="#FCDCB5"/>
<path d="M1082.21 86.4829H1025.37V117.141H1082.21V86.4829Z" fill="#F3C186"/>
<path d="M1099.09 105.221H1007V301.253H1099.09V105.221Z" fill="#FFE2BE"/>
<path d="M1028.68 117.142H1020.54V138.904H1028.68V117.142Z" fill="#F4F6FD"/>
<path d="M1057.87 117.142H1049.73V138.904H1057.87V117.142Z" fill="#F4F6FD"/>
<path d="M1087.06 117.142H1078.92V138.904H1087.06V117.142Z" fill="#F4F6FD"/>
<path d="M1028.68 148.659H1020.54V170.421H1028.68V148.659Z" fill="#F4F6FD"/>
<path d="M1057.87 148.659H1049.73V170.421H1057.87V148.659Z" fill="#F4F6FD"/>
<path d="M1087.06 148.659H1078.92V170.421H1087.06V148.659Z" fill="#F4F6FD"/>
<path d="M1028.68 180.188H1020.54V201.95H1028.68V180.188Z" fill="#F4F6FD"/>
<path d="M1057.87 180.188H1049.73V201.95H1057.87V180.188Z" fill="#F4F6FD"/>
<path d="M1087.06 180.188H1078.92V201.95H1087.06V180.188Z" fill="#F4F6FD"/>
<path d="M1028.68 211.703H1020.54V233.465H1028.68V211.703Z" fill="#F4F6FD"/>
<path d="M1057.87 211.703H1049.73V233.465H1057.87V211.703Z" fill="#F4F6FD"/>
<path d="M1087.06 211.703H1078.92V233.465H1087.06V211.703Z" fill="#F4F6FD"/>
<path d="M1102.92 239.808H1002.11V250.732H1102.92V239.808Z" fill="#F3C186"/>
<path d="M1079.27 263.367H1025.72V300.966H1079.27V263.367Z" fill="#EECA9D"/>
<path d="M1174.64 66.6206H1139.41V113.886H1174.64V66.6206Z" fill="#FDD09B"/>
<path d="M1179.36 112.346H1134.7V304.108H1179.36V112.346Z" fill="#EECA9D"/>
<path d="M1183.66 108.26H1130.39V116.428H1183.66V108.26Z" fill="#FCDCB5"/>
<path d="M1139.41 66.6202L1157.04 28.2935L1174.64 66.6202H1139.41Z" fill="#FDD09B"/>
<path d="M1183.66 63.8091H1130.39V69.421H1183.66V63.8091Z" fill="#FCDCB5"/>
<path d="M1159.02 16H1155.04V35.0634H1159.02V16Z" fill="#F8D7B0"/>
<path d="M1274.79 72.9917H1258.05V120.857H1274.79V72.9917Z" fill="#F8D4A9"/>
<path d="M1292.87 103.451H1239.98V113.376H1292.87V103.451Z" fill="#F8D4A9"/>
<path d="M1207.23 136.652L1221.71 109.478H1310.43L1325.59 136.652H1207.23Z" fill="#F8D4A9"/>
<path d="M1325.59 143.649H1207.23V304.11H1325.59V143.649Z" fill="#FFE2BE"/>
<path d="M1330.02 133.237H1202.82V143.647H1330.02V133.237Z" fill="#F3C186"/>
<path d="M1221.03 152.872H1215V269.58H1221.03V152.872Z" fill="#F4F6FD"/>
<path d="M1237.16 152.872H1231.14V269.58H1237.16V152.872Z" fill="#F4F6FD"/>
<path d="M1253.3 152.872H1247.27V269.58H1253.3V152.872Z" fill="#F4F6FD"/>
<path d="M1269.44 152.872H1263.41V269.58H1269.44V152.872Z" fill="#F4F6FD"/>
<path d="M1285.57 152.872H1279.54V269.58H1285.57V152.872Z" fill="#F4F6FD"/>
<path d="M1301.71 152.872H1295.68V269.58H1301.71V152.872Z" fill="#F4F6FD"/>
<path d="M1317.84 152.872H1311.82V269.58H1317.84V152.872Z" fill="#F4F6FD"/>
<path d="M869.441 146.648L883.921 119.474H972.627L987.806 146.648H869.441Z" fill="#FFE2BE"/>
<path d="M987.806 153.645H869.441V314.106H987.806V153.645Z" fill="#FFE2BE"/>
<path d="M992.219 143.236H865.016V153.646H992.219V143.236Z" fill="#FAD4A5"/>
<path d="M883.221 162.872H877.195V279.58H883.221V162.872Z" fill="#F4F6FD"/>
<path d="M899.358 162.872H893.332V279.58H899.358V162.872Z" fill="#F4F6FD"/>
<path d="M915.495 162.872H909.469V279.58H915.495V162.872Z" fill="#F4F6FD"/>
<path d="M931.632 162.872H925.605V279.58H931.632V162.872Z" fill="#F4F6FD"/>
<path d="M947.764 162.872H941.738V279.58H947.764V162.872Z" fill="#F4F6FD"/>
<path d="M963.901 162.872H957.875V279.58H963.901V162.872Z" fill="#F4F6FD"/>
<path d="M980.038 162.872H974.012V279.58H980.038V162.872Z" fill="#F4F6FD"/>
</g>
<g opacity="0.5">
<path d="M977.059 101.122L977.92 112.868L1026.93 118.323L977.059 101.122Z" fill="#FF9019"/>
<path d="M978.35 85.5279L938.719 98.8201L1026.93 118.324L988.716 70.4697L981.249 81.7589L980.256 86.8105L978.35 85.5279Z" fill="#F4A82F"/>
<g style="mix-blend-mode:multiply" opacity="0.5">
<path d="M981.247 81.7588L1026.93 118.324L980.254 86.8104L981.247 81.7588Z" fill="#9197FC"/>
</g>
<path d="M938.719 98.8198C938.719 98.8198 983.12 112.455 1026.93 118.323L938.719 98.8198V98.8198Z" fill="#BA7C21"/>
<path d="M982.129 82.4619C982.129 82.4619 990.756 92.8902 992.232 94.8932C993.708 96.8963 1026.93 118.324 1026.93 118.324L982.129 82.4619V82.4619Z" fill="#FF9019"/>
<path d="M950.664 101.465C950.664 101.465 972.917 86.9775 982.072 90.2896C991.226 93.6017 1025.82 118.403 1025.82 118.403L950.664 101.465Z" fill="#FF9019"/>
<g style="mix-blend-mode:multiply" opacity="0.5">
<path d="M977.629 108.958C977.629 108.958 992.09 114.449 998.134 115.125C1004.18 115.802 1017.71 116.988 1017.71 116.988L977.629 108.958Z" fill="#B389CD"/>
</g>
</g>
<g opacity="0.5">
<path d="M1338.61 276.522L1347.21 284.561L1386.92 255.306L1338.61 276.522Z" fill="#FDD39B"/>
<path d="M1328.97 264.188L1308.89 300.849L1386.91 255.306L1326.36 246.099L1328.55 259.452L1331.24 263.836L1328.97 264.188Z" fill="#FAC577"/>
<g style="mix-blend-mode:multiply" opacity="0.5">
<path d="M1328.55 259.452L1386.91 255.306L1331.24 263.836L1328.55 259.452Z" fill="#9197FC"/>
</g>
<path d="M1308.89 300.849C1308.89 300.849 1350.75 280.722 1386.91 255.306L1308.89 300.849Z" fill="#FDD39B"/>
<path d="M1329.67 259.373C1329.67 259.373 1343.09 261.174 1345.52 261.649C1347.95 262.123 1386.92 255.306 1386.92 255.306L1329.67 259.373V259.373Z" fill="#FDD39B"/>
<path d="M1319.46 294.682C1319.46 294.682 1325.98 268.941 1334.94 265.163C1343.91 261.385 1386.15 256.123 1386.15 256.123L1319.45 294.691L1319.46 294.682Z" fill="#FDD39B"/>
<g style="mix-blend-mode:multiply" opacity="0.5">
<path d="M1344.35 281.882C1344.35 281.882 1358.69 276.101 1363.6 272.49C1368.5 268.879 1379.23 260.577 1379.23 260.577L1344.36 281.882H1344.35Z" fill="#B389CD"/>
</g>
</g>
<path d="M746.776 275.458L737.701 291.676L664 266.778L746.776 275.458Z" fill="#FFB96C"/>
<path d="M755.333 252.643L803.116 298.09L664 267.13L750.562 224.214L753.69 245.334L751.757 253.214L755.333 252.643Z" fill="#FAC577"/>
<g style="mix-blend-mode:multiply" opacity="0.5">
<path d="M753.69 244.982L664 266.778L751.757 252.862L753.69 244.982Z" fill="#FAC577"/>
</g>
<path d="M803.116 297.738C803.116 297.738 730.549 287.608 664 266.778L803.116 297.738Z" fill="#FFB96C"/>
<path d="M751.977 245.403C751.977 245.403 732.684 254.558 729.249 256.438C725.814 258.318 664 266.787 664 266.787L751.977 245.403Z" fill="#FFB96C"/>
<path d="M784.273 293.899C784.273 293.899 762.117 258.353 746.83 256.974C731.544 255.604 665.539 267.982 665.539 267.982L784.282 293.89L784.273 293.899Z" fill="#FAC577"/>
<g style="mix-blend-mode:multiply" opacity="0.5">
<path d="M740.723 286.273C740.723 286.273 716.387 284.481 707.294 281.406C698.202 278.331 678.074 271.013 678.074 271.013L740.723 286.273Z" fill="#C1A0D8"/>
</g>
<path style="mix-blend-mode:screen" d="M1151.15 261.991C1218.84 261.991 1273.71 207.121 1273.71 139.435C1273.71 71.7491 1218.84 16.8789 1151.15 16.8789C1083.46 16.8789 1028.59 71.7491 1028.59 139.435C1028.59 207.121 1083.46 261.991 1151.15 261.991Z" fill="url(#paint0_radial_2608_40242)"/>
<path d="M1251.36 58.6895H1207.37C1207.37 58.6895 1207.59 56.2243 1212.47 54.2542C1217.36 52.2842 1220.86 57.3279 1226.38 54.2542C1231.91 51.1805 1234.84 46.7659 1241.96 49.2208C1249.07 51.6859 1251.35 58.6791 1251.35 58.6791L1251.36 58.6895Z" fill="white"/>
<path d="M1087.81 80.8129H1058.46C1058.46 80.8129 1058.61 79.1728 1061.86 77.8526C1065.12 76.5427 1067.47 79.9052 1071.15 77.8526C1074.83 75.8 1076.79 72.8501 1081.53 74.5004C1086.28 76.1404 1087.81 80.8129 1087.81 80.8129Z" fill="white"/>
<path d="M1020.03 283.721L1020.1 282.696C1021.56 282.767 1023.02 282.87 1024.48 282.915L1028.85 282.941L1028.87 283.934H1024.45C1022.97 283.889 1021.5 283.792 1020.03 283.721H1020.03Z" fill="#DB9238"/>
<path d="M1006.99 281.886L1007.22 280.835C1010.07 281.46 1012.95 281.937 1015.85 282.292L1015.72 283.324C1012.8 282.982 1009.88 282.505 1006.99 281.879L1006.99 281.886Z" fill="#DB9238"/>
<path d="M994.359 278.12L994.766 277.075L996.816 277.83C997.499 278.081 998.176 278.345 998.879 278.552L1000.97 279.203C1001.66 279.428 1002.36 279.641 1003.07 279.809L1002.79 280.86C1002.06 280.692 1001.36 280.473 1000.66 280.254L998.544 279.602C997.834 279.396 997.145 279.132 996.448 278.88L994.366 278.12H994.359Z" fill="#DB9238"/>
<path d="M982.473 272.414L983.066 271.401C984.329 272.123 985.612 272.82 986.889 273.516C988.204 274.148 989.5 274.812 990.822 275.411L990.357 276.449C989.01 275.843 987.695 275.173 986.36 274.541C985.058 273.838 983.762 273.136 982.473 272.407V272.414Z" fill="#DB9238"/>
<path d="M971.66 264.851L972.44 263.91C974.664 265.786 977.024 267.501 979.442 269.132L978.784 270.125C976.328 268.481 973.923 266.753 971.66 264.851V264.851Z" fill="#DB9238"/>
<path d="M962.195 255.665L963.156 254.827C964.123 255.91 965.071 257.019 966.109 258.038L967.637 259.598L969.235 261.087L968.397 261.996L966.773 260.488L965.219 258.908C964.162 257.877 963.195 256.755 962.208 255.659L962.195 255.665Z" fill="#DB9238"/>
<path d="M954.316 245.072L955.438 244.375C956.193 245.62 957.037 246.806 957.83 248.031C958.7 249.198 959.532 250.397 960.428 251.538L959.416 252.331C958.494 251.177 957.65 249.965 956.76 248.779C955.948 247.541 955.09 246.335 954.316 245.078V245.072Z" fill="#DB9238"/>
<path d="M948.245 233.349L949.508 232.82L950.359 234.832C950.656 235.496 950.985 236.147 951.294 236.805C951.617 237.456 951.907 238.126 952.255 238.764L953.286 240.686L952.113 241.33L951.056 239.377C950.701 238.732 950.404 238.049 950.069 237.391C949.753 236.721 949.418 236.063 949.109 235.393L948.238 233.355L948.245 233.349Z" fill="#DB9238"/>
<path d="M944.141 220.79L945.527 220.468C945.849 221.886 946.255 223.285 946.629 224.691C947.087 226.07 947.474 227.476 947.983 228.836L946.674 229.3C946.152 227.914 945.746 226.489 945.282 225.084C944.901 223.653 944.476 222.234 944.147 220.79H944.141Z" fill="#DB9238"/>
<path d="M942.195 207.723L943.665 207.633L943.814 209.805C943.852 210.534 943.975 211.25 944.046 211.972C944.136 212.694 944.2 213.416 944.316 214.138L944.677 216.291L943.266 216.543L942.892 214.351C942.776 213.622 942.705 212.881 942.608 212.146C942.531 211.411 942.408 210.676 942.363 209.941L942.202 207.723H942.195Z" fill="#DB9238"/>
<path d="M942.574 194.5L944.083 194.686L943.934 195.763L943.844 196.846L943.664 199.019C943.593 200.469 943.541 201.92 943.528 203.371H942.039C942.052 201.888 942.091 200.405 942.162 198.929L942.336 196.711L942.426 195.602L942.568 194.5H942.574Z" fill="#DB9238"/>
<path d="M945.393 181.567L946.889 182.05L946.257 184.132L945.947 185.177L945.69 186.234L945.174 188.349C945.013 189.058 944.897 189.774 944.755 190.483L943.246 190.199C943.388 189.471 943.504 188.736 943.665 188.014L944.187 185.847L944.445 184.764L944.761 183.694L945.399 181.56L945.393 181.567Z" fill="#DB9238"/>
<path d="M950.681 169.421L952.093 170.214C950.642 172.728 949.443 175.372 948.328 178.047L946.852 177.46C947.986 174.714 949.205 172 950.681 169.421Z" fill="#DB9238"/>
<path d="M958.215 158.532L959.485 159.615C958.576 160.743 957.602 161.82 956.777 163.012L955.494 164.766C955.062 165.353 954.695 165.978 954.295 166.578L952.922 165.688C953.334 165.069 953.708 164.424 954.147 163.825L955.456 162.026C956.3 160.801 957.293 159.692 958.215 158.532V158.532Z" fill="#DB9238"/>
<path d="M967.655 149.24L968.738 150.568C967.635 151.516 966.533 152.451 965.443 153.412C964.412 154.43 963.335 155.404 962.329 156.448L961.117 155.281C962.142 154.205 963.232 153.199 964.289 152.154C965.398 151.168 966.526 150.201 967.648 149.234L967.655 149.24Z" fill="#DB9238"/>
<path d="M978.558 141.731L979.442 143.259L975.722 145.528L972.124 147.978L971.105 146.579L974.767 144.058L978.558 141.731Z" fill="#DB9238"/>
<path d="M990.46 135.967L991.137 137.65C989.802 138.217 988.442 138.746 987.12 139.352C985.811 139.984 984.49 140.59 983.187 141.235L982.375 139.649C983.703 138.991 985.044 138.359 986.372 137.714C987.713 137.089 989.093 136.554 990.453 135.967H990.46Z" fill="#DB9238"/>
<path d="M1002.98 131.77L1003.47 133.569C1002.77 133.762 1002.06 133.923 1001.36 134.136L999.279 134.781L997.196 135.426C996.5 135.632 995.823 135.909 995.14 136.148L994.527 134.42C995.224 134.175 995.913 133.891 996.616 133.678L998.731 133.014L1000.85 132.35C1001.55 132.131 1002.27 131.964 1002.99 131.764L1002.98 131.77Z" fill="#DB9238"/>
<path d="M1015.88 128.952L1016.19 130.841C1014.76 131.099 1013.32 131.318 1011.89 131.602L1007.61 132.524L1007.18 130.693L1011.51 129.745C1012.96 129.455 1014.42 129.223 1015.87 128.959L1015.88 128.952Z" fill="#DB9238"/>
<path d="M1028.96 127.314L1029.13 129.274L1024.77 129.68C1023.32 129.803 1021.87 130.041 1020.43 130.215L1020.16 128.3C1021.63 128.12 1023.08 127.868 1024.55 127.739L1028.96 127.314H1028.96Z" fill="#DB9238"/>
<path d="M1042.13 126.696L1042.15 128.714C1039.23 128.785 1036.31 128.791 1033.4 129.004L1033.28 127.025C1036.23 126.805 1039.17 126.78 1042.12 126.702L1042.13 126.696Z" fill="#DB9238"/>
<path d="M1055.3 126.967L1055.18 129.03L1050.81 128.824C1049.35 128.753 1047.89 128.773 1046.43 128.74L1046.45 126.709C1047.93 126.735 1049.4 126.709 1050.88 126.78L1055.3 126.974V126.967Z" fill="#DB9238"/>
<path d="M1068.43 128.109L1068.17 130.204L1063.82 129.695C1062.37 129.553 1060.92 129.45 1059.46 129.321L1059.63 127.245C1061.1 127.367 1062.57 127.464 1064.04 127.606L1068.43 128.109H1068.43Z" fill="#DB9238"/>
<path d="M1081.45 130.159L1081.03 132.28L1076.73 131.467C1075.29 131.209 1073.85 131.016 1072.41 130.784L1072.72 128.676C1074.18 128.901 1075.64 129.095 1077.1 129.346L1081.45 130.146V130.159Z" fill="#DB9238"/>
<path d="M1094.29 133.131L1093.71 135.265C1090.89 134.543 1088.07 133.769 1085.22 133.176L1085.69 131.049C1088.58 131.642 1091.43 132.409 1094.29 133.131V133.131Z" fill="#DB9238"/>
<path d="M1106.89 137.032L1106.14 139.166C1104.77 138.657 1103.38 138.237 1102 137.773L1099.92 137.09C1099.22 136.871 1098.52 136.677 1097.82 136.465L1098.46 134.331C1099.17 134.537 1099.88 134.737 1100.58 134.956L1102.69 135.639C1104.09 136.11 1105.51 136.523 1106.9 137.032H1106.89Z" fill="#DB9238"/>
<path d="M1119.19 141.77L1118.28 143.897C1115.62 142.718 1112.89 141.686 1110.17 140.622L1110.97 138.488C1113.72 139.552 1116.49 140.59 1119.19 141.77V141.77Z" fill="#DB9238"/>
<path d="M1131.17 147.257L1130.12 149.371L1126.18 147.444L1122.21 145.619L1123.16 143.492L1127.18 145.329L1131.17 147.257Z" fill="#DB9238"/>
<path d="M1142.82 153.393L1141.64 155.495C1140.38 154.76 1139.08 154.083 1137.81 153.38L1135.88 152.329L1133.94 151.324L1135.03 149.215L1137 150.228L1138.95 151.278C1140.24 151.988 1141.55 152.665 1142.83 153.399L1142.82 153.393Z" fill="#DB9238"/>
<path d="M1154.17 160.04L1152.88 162.135C1150.4 160.588 1147.88 159.105 1145.37 157.615L1146.59 155.514C1149.13 157.003 1151.67 158.492 1154.17 160.033V160.04Z" fill="#DB9238"/>
<path d="M1165.28 167.054L1163.91 169.156C1161.46 167.557 1159.01 165.958 1156.52 164.411L1157.84 162.315C1160.34 163.869 1162.81 165.462 1165.28 167.06L1165.28 167.054Z" fill="#DB9238"/>
<path d="M1176.23 174.301L1174.8 176.422L1167.5 171.523L1168.9 169.421L1176.23 174.301Z" fill="#DB9238"/>
<path d="M1187.11 181.611L1185.65 183.771L1178.36 178.833L1179.81 176.699L1187.11 181.611Z" fill="#DB9238"/>
<path d="M1198.03 188.82L1196.58 191.051C1194.11 189.446 1191.66 187.815 1189.23 186.184L1190.68 183.998C1193.13 185.616 1195.57 187.228 1198.03 188.82Z" fill="#DB9238"/>
<path d="M1209.1 195.745L1207.7 198.066C1206.43 197.312 1205.18 196.538 1203.93 195.751C1202.68 194.971 1201.43 194.198 1200.2 193.392L1201.64 191.135C1202.87 191.928 1204.11 192.695 1205.35 193.463C1206.59 194.236 1207.83 194.997 1209.09 195.745H1209.1Z" fill="#DB9238"/>
<path d="M1220.43 202.177L1219.14 204.608C1216.54 203.202 1213.96 201.771 1211.42 200.276L1212.8 197.922C1215.32 199.392 1217.87 200.798 1220.43 202.177Z" fill="#DB9238"/>
<path d="M1232.13 207.864L1230.99 210.43C1229.65 209.811 1228.3 209.211 1226.96 208.573L1222.98 206.62L1224.24 204.144L1228.16 206.052C1229.48 206.671 1230.81 207.258 1232.13 207.858L1232.13 207.864Z" fill="#DB9238"/>
<path d="M1244.21 212.546L1243.3 215.253C1241.9 214.776 1240.49 214.306 1239.12 213.758C1237.74 213.223 1236.34 212.726 1234.98 212.133L1236.05 209.522C1237.39 210.102 1238.76 210.579 1240.12 211.102C1241.47 211.63 1242.84 212.088 1244.22 212.546H1244.21Z" fill="#DB9238"/>
<path d="M1256.69 216L1256.06 218.837C1254.6 218.56 1253.18 218.141 1251.73 217.786C1250.29 217.444 1248.87 217.006 1247.45 216.581L1248.28 213.828C1249.67 214.24 1251.06 214.659 1252.46 214.988C1253.87 215.323 1255.26 215.73 1256.69 216V216Z" fill="#DB9238"/>
<path d="M1269.44 218.031L1269.15 220.971L1264.72 220.436L1260.33 219.714L1260.85 216.838L1265.14 217.528L1269.44 218.031Z" fill="#DB9238"/>
<path d="M1282.36 218.541L1282.4 221.546L1280.18 221.584L1277.96 221.526C1276.47 221.468 1274.98 221.475 1273.51 221.333L1273.69 218.367C1275.14 218.503 1276.58 218.49 1278.03 218.535L1280.21 218.586L1282.38 218.541H1282.36Z" fill="#DB9238"/>
<path d="M1295.26 217.618L1295.63 220.648L1291.2 221.125C1289.72 221.235 1288.24 221.312 1286.76 221.409L1286.61 218.392C1288.05 218.295 1289.49 218.211 1290.94 218.095L1295.26 217.618V217.618Z" fill="#DB9238"/>
<path d="M1308.01 215.386L1308.68 218.416C1307.24 218.732 1305.78 218.996 1304.33 219.286C1303.6 219.422 1302.88 219.583 1302.14 219.705L1299.94 220.041L1299.46 217.004L1301.61 216.669C1302.33 216.546 1303.04 216.392 1303.75 216.25C1305.16 215.96 1306.6 215.695 1308.01 215.379V215.386Z" fill="#DB9238"/>
<path d="M1320.53 211.998L1321.46 215.009C1320.06 215.479 1318.62 215.834 1317.2 216.253C1315.77 216.646 1314.36 217.085 1312.91 217.401L1312.14 214.377C1313.56 214.061 1314.95 213.629 1316.35 213.236C1317.74 212.823 1319.15 212.469 1320.53 212.005V211.998Z" fill="#DB9238"/>
<path d="M1332.78 207.673L1333.94 210.658C1332.57 211.2 1331.17 211.683 1329.79 212.199C1328.39 212.696 1327.02 213.237 1325.6 213.676L1324.59 210.671C1325.98 210.239 1327.33 209.704 1328.7 209.208C1330.06 208.698 1331.43 208.215 1332.78 207.68L1332.78 207.673Z" fill="#DB9238"/>
<path d="M1344.74 202.547L1346.09 205.506L1342.05 207.305L1340.02 208.194L1337.97 209.026L1336.73 206.054L1338.75 205.229L1340.75 204.339L1344.74 202.547Z" fill="#DB9238"/>
<path d="M1356.4 196.77L1357.93 199.696L1354 201.727L1350.01 203.655L1348.59 200.709L1352.52 198.794L1356.4 196.77Z" fill="#DB9238"/>
<path d="M1367.81 190.485L1369.49 193.386C1366.93 194.85 1364.34 196.255 1361.77 197.693L1360.19 194.772C1362.73 193.341 1365.29 191.935 1367.81 190.485Z" fill="#DB9238"/>
<path d="M1378.97 183.716L1380.78 186.598L1377.03 188.931C1375.77 189.705 1374.49 190.434 1373.22 191.188L1371.5 188.293C1372.75 187.545 1374.01 186.81 1375.26 186.043L1378.97 183.716H1378.97Z" fill="#DB9238"/>
<path d="M1395.46 175.521C1387.12 177.429 1375.99 178.635 1367.87 177.513L1379.31 186.101L1382.61 200.013C1384.83 192.122 1390.38 182.413 1395.46 175.521V175.521Z" fill="#DB9238"/>
<path d="M1020.35 175.56L1020.54 176.282C1019.52 176.572 1018.49 176.843 1017.47 177.153L1014.44 178.158L1014.19 177.475L1017.25 176.443C1018.28 176.127 1019.32 175.85 1020.35 175.554V175.56Z" fill="#DB9238"/>
<path d="M1029.8 173.788L1029.88 174.568C1027.77 174.8 1025.67 175.142 1023.58 175.574L1023.42 174.833C1025.53 174.388 1027.66 174.033 1029.8 173.788Z" fill="#DB9238"/>
<path d="M1039.41 173.44L1039.38 174.258L1037.78 174.213C1037.25 174.2 1036.72 174.175 1036.19 174.2L1034.6 174.239C1034.06 174.246 1033.53 174.258 1033.01 174.31L1032.96 173.517C1033.5 173.465 1034.04 173.453 1034.57 173.44L1036.19 173.395C1036.73 173.369 1037.27 173.395 1037.81 173.401L1039.43 173.44H1039.41Z" fill="#DB9238"/>
<path d="M1048.97 174.607L1048.79 175.446C1047.75 175.246 1046.7 175.059 1045.65 174.878C1044.6 174.749 1043.55 174.588 1042.49 174.485L1042.57 173.66C1043.64 173.763 1044.71 173.918 1045.78 174.046C1046.84 174.227 1047.9 174.414 1048.96 174.614L1048.97 174.607Z" fill="#DB9238"/>
<path d="M1058.21 177.314L1057.88 178.146C1055.91 177.366 1053.87 176.734 1051.82 176.173L1052.04 175.335C1054.13 175.896 1056.19 176.534 1058.2 177.314H1058.21Z" fill="#DB9238"/>
<path d="M1066.9 181.46L1066.43 182.26C1065.51 181.738 1064.59 181.19 1063.64 180.725L1062.22 180.003L1060.77 179.346L1061.14 178.521L1062.61 179.185L1064.06 179.913C1065.03 180.377 1065.96 180.932 1066.9 181.46V181.46Z" fill="#DB9238"/>
<path d="M1074.82 186.94L1074.2 187.688C1073.39 187.004 1072.53 186.379 1071.7 185.721C1070.83 185.115 1069.97 184.483 1069.08 183.903L1069.59 183.117C1070.5 183.703 1071.37 184.342 1072.26 184.954C1073.11 185.618 1073.98 186.25 1074.82 186.946V186.94Z" fill="#DB9238"/>
<path d="M1081.75 193.631L1081 194.295L1079.94 193.103C1079.58 192.716 1079.2 192.342 1078.83 191.955C1078.46 191.581 1078.1 191.181 1077.71 190.827L1076.55 189.737L1077.21 189.015L1078.39 190.118C1078.79 190.485 1079.16 190.885 1079.54 191.265C1079.92 191.652 1080.3 192.032 1080.67 192.426L1081.75 193.631V193.631Z" fill="#DB9238"/>
<path d="M1087.53 201.347L1086.65 201.895C1086.09 200.992 1085.49 200.122 1084.9 199.232C1084.26 198.381 1083.66 197.504 1083 196.679L1083.79 196.054C1084.48 196.892 1085.09 197.782 1085.74 198.645C1086.34 199.548 1086.96 200.431 1087.53 201.347H1087.53Z" fill="#DB9238"/>
<path d="M1091.92 209.935L1090.93 210.341L1090.32 208.871C1090.12 208.381 1089.87 207.911 1089.64 207.427C1089.41 206.95 1089.2 206.466 1088.95 205.996L1088.21 204.59L1089.13 204.087L1089.9 205.512C1090.15 205.989 1090.37 206.486 1090.61 206.969C1090.83 207.459 1091.09 207.936 1091.29 208.439L1091.92 209.935V209.935Z" fill="#DB9238"/>
<path d="M1094.75 219.166L1093.67 219.392L1093.52 218.612L1093.33 217.838L1092.95 216.297C1092.66 215.279 1092.35 214.26 1092.02 213.254L1093.05 212.906C1093.38 213.931 1093.71 214.969 1094 216.007L1094.4 217.58L1094.6 218.367L1094.76 219.16L1094.75 219.166Z" fill="#DB9238"/>
<path d="M1095.83 228.767L1094.68 228.78L1094.63 227.194L1094.6 226.401L1094.53 225.608L1094.39 224.028C1094.34 223.5 1094.25 222.977 1094.19 222.455L1095.3 222.294C1095.37 222.829 1095.46 223.364 1095.52 223.906L1095.66 225.524L1095.73 226.336L1095.76 227.149L1095.82 228.773L1095.83 228.767Z" fill="#DB9238"/>
<path d="M1095 238.4L1093.84 238.181C1094.26 236.105 1094.47 233.997 1094.62 231.889L1095.77 231.947C1095.63 234.106 1095.42 236.273 1095 238.4Z" fill="#DB9238"/>
<path d="M1092.33 247.691L1091.2 247.24C1091.56 246.247 1091.99 245.273 1092.28 244.255L1092.76 242.739C1092.92 242.237 1093.03 241.714 1093.16 241.205L1094.32 241.502C1094.18 242.024 1094.07 242.559 1093.9 243.075L1093.42 244.628C1093.12 245.673 1092.7 246.672 1092.32 247.691H1092.33Z" fill="#DB9238"/>
<path d="M1087.97 256.323L1086.91 255.659C1087.45 254.749 1087.99 253.84 1088.52 252.925C1089 251.984 1089.51 251.055 1089.97 250.095L1091.08 250.617C1090.62 251.597 1090.1 252.551 1089.62 253.518C1089.08 254.459 1088.53 255.388 1087.98 256.323H1087.97Z" fill="#DB9238"/>
<path d="M1082.18 264.058L1081.21 263.207L1083.26 260.77L1085.17 258.236L1086.2 258.965L1084.26 261.569L1082.18 264.058Z" fill="#DB9238"/>
<path d="M1075.31 270.827L1074.44 269.822C1075.23 269.113 1076.05 268.436 1076.82 267.707C1077.58 266.966 1078.35 266.237 1079.1 265.489L1080.04 266.398C1079.28 267.165 1078.5 267.913 1077.72 268.668C1076.94 269.416 1076.11 270.105 1075.31 270.827V270.827Z" fill="#DB9238"/>
<path d="M1067.62 276.651L1066.86 275.516C1067.3 275.219 1067.76 274.942 1068.19 274.633L1069.48 273.698L1070.77 272.763C1071.2 272.454 1071.61 272.106 1072.03 271.783L1072.85 272.834C1072.43 273.169 1072.02 273.524 1071.58 273.833L1070.27 274.788L1068.97 275.742C1068.53 276.058 1068.07 276.341 1067.62 276.644V276.651Z" fill="#DB9238"/>
<path d="M1059.36 281.616L1058.7 280.384C1059.64 279.875 1060.58 279.385 1061.5 278.856L1064.24 277.219L1064.96 278.386L1062.19 280.055C1061.26 280.597 1060.3 281.093 1059.36 281.616V281.616Z" fill="#DB9238"/>
<path d="M1050.7 285.805L1050.13 284.49L1053.05 283.194C1054.03 282.768 1054.96 282.265 1055.92 281.808L1056.56 283.071C1055.59 283.542 1054.64 284.051 1053.65 284.483L1050.7 285.805H1050.7Z" fill="#DB9238"/>
<path d="M1041.74 289.3L1041.26 287.913C1043.26 287.185 1045.27 286.495 1047.24 285.67L1047.78 287.011C1045.8 287.849 1043.77 288.558 1041.75 289.3H1041.74Z" fill="#DB9238"/>
<path d="M1032.57 292.189L1032.17 290.738L1035.24 289.862C1036.27 289.571 1037.27 289.217 1038.29 288.895L1038.75 290.306C1037.73 290.635 1036.71 290.996 1035.68 291.293L1032.57 292.189V292.189Z" fill="#DB9238"/>
<path d="M1023.22 294.471L1022.91 292.962L1026.04 292.298C1027.08 292.059 1028.11 291.789 1029.14 291.537L1029.52 293.007C1028.47 293.265 1027.43 293.542 1026.38 293.787L1023.22 294.471Z" fill="#DB9238"/>
<path d="M1013.75 296.089L1013.54 294.523L1016.7 294.078C1017.75 293.923 1018.79 293.717 1019.84 293.536L1020.12 295.064C1019.06 295.251 1018.01 295.457 1016.94 295.619L1013.74 296.083L1013.75 296.089Z" fill="#DB9238"/>
<path d="M1004.16 297.038L1004.07 295.427C1006.19 295.266 1008.32 295.143 1010.43 294.892L1010.6 296.471C1008.46 296.735 1006.32 296.871 1004.17 297.038H1004.16Z" fill="#DB9238"/>
<path d="M994.547 297.282L994.566 295.631C995.63 295.664 996.694 295.631 997.758 295.631L999.356 295.619C999.891 295.606 1000.42 295.58 1000.95 295.561L1001.01 297.185C1000.47 297.205 999.93 297.237 999.395 297.25L997.777 297.269C996.7 297.269 995.624 297.321 994.547 297.288V297.282Z" fill="#DB9238"/>
<path d="M984.934 296.876L985.063 295.193C987.184 295.387 989.311 295.464 991.439 295.561L991.387 297.224C989.234 297.127 987.08 297.057 984.94 296.876H984.934Z" fill="#DB9238"/>
<path d="M975.375 295.883L975.607 294.175L978.773 294.587L981.951 294.923L981.79 296.612L978.573 296.289L975.375 295.883Z" fill="#DB9238"/>
<path d="M965.884 294.36L966.206 292.632C967.251 292.845 968.302 293.012 969.353 293.199L970.926 293.476L972.505 293.721L972.241 295.436L970.642 295.198L969.049 294.927C967.992 294.74 966.928 294.579 965.871 294.366L965.884 294.36Z" fill="#DB9238"/>
<path d="M956.48 292.412L956.88 290.658C958.956 291.148 961.045 291.587 963.134 292.025L962.786 293.759C960.684 293.321 958.576 292.889 956.48 292.405V292.412Z" fill="#DB9238"/>
<path d="M947.156 290.156L947.614 288.383C949.684 288.911 951.753 289.447 953.829 289.943L953.41 291.703C951.321 291.213 949.239 290.684 947.156 290.162V290.156Z" fill="#DB9238"/>
<path d="M937.898 287.699L938.388 285.9L944.578 287.583L944.107 289.362L937.898 287.699Z" fill="#DB9238"/>
<path d="M928.664 285.188L929.167 283.351L935.363 285.066L934.86 286.877L928.664 285.188Z" fill="#DB9238"/>
<path d="M919.434 282.748L919.917 280.865C921.993 281.4 924.069 281.955 926.139 282.516L925.642 284.366C923.579 283.818 921.51 283.27 919.44 282.748H919.434Z" fill="#DB9238"/>
<path d="M910.164 280.551L910.59 278.623C911.64 278.849 912.685 279.094 913.729 279.345C914.774 279.59 915.818 279.835 916.863 280.106L916.398 282.001C915.36 281.743 914.322 281.498 913.284 281.26C912.246 281.015 911.208 280.776 910.164 280.557V280.551Z" fill="#DB9238"/>
<path d="M900.828 278.746L901.157 276.761C903.278 277.128 905.399 277.515 907.507 277.953L907.108 279.9C905.019 279.469 902.923 279.095 900.828 278.74V278.746Z" fill="#DB9238"/>
<path d="M891.414 277.545L891.601 275.501C892.671 275.617 893.748 275.714 894.818 275.843L898.029 276.268L897.739 278.273L894.58 277.867C893.522 277.745 892.465 277.654 891.414 277.545Z" fill="#DB9238"/>
<path d="M881.967 277.134V275.052C883.044 275.052 884.127 275.052 885.21 275.103C886.293 275.148 887.37 275.168 888.447 275.258L888.318 277.315C887.26 277.224 886.203 277.218 885.139 277.173C884.082 277.121 883.025 277.128 881.961 277.134H881.967Z" fill="#DB9238"/>
<path d="M872.533 277.656L872.301 275.548C873.377 275.4 874.461 275.355 875.537 275.264C876.614 275.168 877.697 275.135 878.78 275.097L878.851 277.192C877.794 277.231 876.736 277.263 875.685 277.366C874.635 277.463 873.577 277.508 872.526 277.656H872.533Z" fill="#DB9238"/>
<path d="M863.227 279.235L862.75 277.127L865.935 276.469L869.139 275.94L869.455 278.055L866.328 278.577L863.227 279.235Z" fill="#DB9238"/>
<path d="M854.184 281.898L853.449 279.829L854.984 279.281L856.537 278.804C857.575 278.494 858.6 278.146 859.658 277.895L860.225 279.99C859.2 280.235 858.201 280.583 857.189 280.886L855.673 281.357L854.184 281.892V281.898Z" fill="#DB9238"/>
<path d="M845.479 285.548L844.512 283.537L847.464 282.176C848.464 281.751 849.47 281.351 850.469 280.938L851.281 282.989C850.308 283.395 849.328 283.788 848.354 284.207L845.479 285.548V285.548Z" fill="#DB9238"/>
<path d="M837.173 290.071L836 288.13C836.928 287.569 837.876 287.047 838.811 286.505C839.282 286.241 839.746 285.964 840.223 285.706L841.667 284.958L842.705 286.944L841.299 287.679C840.835 287.93 840.378 288.207 839.92 288.465C839.004 289 838.082 289.51 837.173 290.064V290.071Z" fill="#DB9238"/>
<path d="M829.311 295.336L827.957 293.473C828.814 292.822 829.73 292.241 830.613 291.616C831.509 291.01 832.386 290.378 833.308 289.817L834.546 291.732C833.643 292.28 832.779 292.906 831.909 293.505C831.045 294.118 830.149 294.691 829.311 295.336Z" fill="#DB9238"/>
<path d="M821.85 301.188L820.348 299.395C821.173 298.699 822.024 298.041 822.862 297.358C823.707 296.687 824.532 295.991 825.409 295.359L826.814 297.197C825.957 297.816 825.144 298.506 824.313 299.17C823.487 299.84 822.656 300.491 821.843 301.181L821.85 301.188Z" fill="#DB9238"/>
<path d="M814.78 307.522L813.148 305.794L815.527 303.609L816.72 302.513L817.945 301.462L819.492 303.228L818.287 304.273L817.12 305.356L814.78 307.522Z" fill="#DB9238"/>
<path d="M808.061 314.246L806.32 312.576L808.564 310.249L810.872 307.992L812.542 309.694L810.266 311.938L808.061 314.246Z" fill="#DB9238"/>
<path d="M90.019 81.814V112H82.666V81.814H90.019ZM109.968 87.748C112.777 87.748 115.013 88.6653 116.676 90.5C118.367 92.306 119.213 94.8 119.213 97.982V112H111.903V98.971C111.903 97.3657 111.487 96.1187 110.656 95.23C109.824 94.3413 108.706 93.897 107.302 93.897C105.897 93.897 104.779 94.3413 103.948 95.23C103.116 96.1187 102.701 97.3657 102.701 98.971V112H95.3476V88.006H102.701V91.188C103.446 90.1273 104.449 89.296 105.711 88.694C106.972 88.0633 108.391 87.748 109.968 87.748ZM137.695 105.765V112H133.954C131.288 112 129.21 111.355 127.719 110.065C126.229 108.746 125.483 106.611 125.483 103.658V94.112H122.559V88.006H125.483V82.158H132.836V88.006H137.652V94.112H132.836V103.744C132.836 104.461 133.008 104.977 133.352 105.292C133.696 105.607 134.27 105.765 135.072 105.765H137.695ZM164.409 99.616C164.409 100.304 164.366 101.021 164.28 101.766H147.639C147.754 103.257 148.227 104.403 149.058 105.206C149.918 105.98 150.964 106.367 152.197 106.367C154.032 106.367 155.307 105.593 156.024 104.045H163.85C163.449 105.622 162.718 107.041 161.657 108.302C160.625 109.563 159.321 110.552 157.744 111.269C156.167 111.986 154.404 112.344 152.455 112.344C150.104 112.344 148.012 111.842 146.177 110.839C144.342 109.836 142.909 108.402 141.877 106.539C140.845 104.676 140.329 102.497 140.329 100.003C140.329 97.509 140.831 95.3303 141.834 93.467C142.866 91.6037 144.299 90.1703 146.134 89.167C147.969 88.1637 150.076 87.662 152.455 87.662C154.777 87.662 156.841 88.1493 158.647 89.124C160.453 90.0987 161.858 91.489 162.861 93.295C163.893 95.101 164.409 97.208 164.409 99.616ZM156.884 97.681C156.884 96.4197 156.454 95.4163 155.594 94.671C154.734 93.9257 153.659 93.553 152.369 93.553C151.136 93.553 150.09 93.9113 149.23 94.628C148.399 95.3447 147.883 96.3623 147.682 97.681H156.884ZM175.641 92.005C176.501 90.6863 177.576 89.6543 178.866 88.909C180.156 88.135 181.589 87.748 183.166 87.748V95.531H181.145C179.31 95.531 177.934 95.9323 177.017 96.735C176.1 97.509 175.641 98.885 175.641 100.863V112H168.288V88.006H175.641V92.005ZM209.299 99.616C209.299 100.304 209.256 101.021 209.17 101.766H192.529C192.643 103.257 193.116 104.403 193.948 105.206C194.808 105.98 195.854 106.367 197.087 106.367C198.921 106.367 200.197 105.593 200.914 104.045H208.74C208.338 105.622 207.607 107.041 206.547 108.302C205.515 109.563 204.21 110.552 202.634 111.269C201.057 111.986 199.294 112.344 197.345 112.344C194.994 112.344 192.901 111.842 191.067 110.839C189.232 109.836 187.799 108.402 186.767 106.539C185.735 104.676 185.219 102.497 185.219 100.003C185.219 97.509 185.72 95.3303 186.724 93.467C187.756 91.6037 189.189 90.1703 191.024 89.167C192.858 88.1637 194.965 87.662 197.345 87.662C199.667 87.662 201.731 88.1493 203.537 89.124C205.343 90.0987 206.747 91.489 207.751 93.295C208.783 95.101 209.299 97.208 209.299 99.616ZM201.774 97.681C201.774 96.4197 201.344 95.4163 200.484 94.671C199.624 93.9257 198.549 93.553 197.259 93.553C196.026 93.553 194.98 93.9113 194.12 94.628C193.288 95.3447 192.772 96.3623 192.572 97.681H201.774ZM222.939 112.344C220.846 112.344 218.983 111.986 217.349 111.269C215.715 110.552 214.425 109.578 213.479 108.345C212.533 107.084 212.002 105.679 211.888 104.131H219.155C219.241 104.962 219.628 105.636 220.316 106.152C221.004 106.668 221.849 106.926 222.853 106.926C223.77 106.926 224.472 106.754 224.96 106.41C225.476 106.037 225.734 105.564 225.734 104.991C225.734 104.303 225.375 103.801 224.659 103.486C223.942 103.142 222.781 102.769 221.176 102.368C219.456 101.967 218.022 101.551 216.876 101.121C215.729 100.662 214.74 99.96 213.909 99.014C213.077 98.0393 212.662 96.735 212.662 95.101C212.662 93.725 213.034 92.478 213.78 91.36C214.554 90.2133 215.672 89.3103 217.134 88.651C218.624 87.9917 220.387 87.662 222.423 87.662C225.433 87.662 227.798 88.4073 229.518 89.898C231.266 91.3887 232.27 93.3667 232.528 95.832H225.734C225.619 95.0007 225.246 94.3413 224.616 93.854C224.014 93.3667 223.211 93.123 222.208 93.123C221.348 93.123 220.688 93.295 220.23 93.639C219.771 93.9543 219.542 94.3987 219.542 94.972C219.542 95.66 219.9 96.176 220.617 96.52C221.362 96.864 222.509 97.208 224.057 97.552C225.834 98.0107 227.282 98.4693 228.4 98.928C229.518 99.358 230.492 100.075 231.324 101.078C232.184 102.053 232.628 103.371 232.657 105.034C232.657 106.439 232.255 107.7 231.453 108.818C230.679 109.907 229.546 110.767 228.056 111.398C226.594 112.029 224.888 112.344 222.939 112.344ZM250.528 105.765V112H246.787C244.121 112 242.043 111.355 240.552 110.065C239.062 108.746 238.316 106.611 238.316 103.658V94.112H235.392V88.006H238.316V82.158H245.669V88.006H250.485V94.112H245.669V103.744C245.669 104.461 245.841 104.977 246.185 105.292C246.529 105.607 247.103 105.765 247.905 105.765H250.528ZM277.242 99.616C277.242 100.304 277.199 101.021 277.113 101.766H260.472C260.587 103.257 261.06 104.403 261.891 105.206C262.751 105.98 263.797 106.367 265.03 106.367C266.865 106.367 268.14 105.593 268.857 104.045H276.683C276.282 105.622 275.551 107.041 274.49 108.302C273.458 109.563 272.154 110.552 270.577 111.269C269 111.986 267.237 112.344 265.288 112.344C262.937 112.344 260.845 111.842 259.01 110.839C257.175 109.836 255.742 108.402 254.71 106.539C253.678 104.676 253.162 102.497 253.162 100.003C253.162 97.509 253.664 95.3303 254.667 93.467C255.699 91.6037 257.132 90.1703 258.967 89.167C260.802 88.1637 262.909 87.662 265.288 87.662C267.61 87.662 269.674 88.1493 271.48 89.124C273.286 90.0987 274.691 91.489 275.694 93.295C276.726 95.101 277.242 97.208 277.242 99.616ZM269.717 97.681C269.717 96.4197 269.287 95.4163 268.427 94.671C267.567 93.9257 266.492 93.553 265.202 93.553C263.969 93.553 262.923 93.9113 262.063 94.628C261.232 95.3447 260.716 96.3623 260.515 97.681H269.717ZM279.659 99.96C279.659 97.4947 280.118 95.3303 281.035 93.467C281.981 91.6037 283.257 90.1703 284.862 89.167C286.467 88.1637 288.259 87.662 290.237 87.662C291.814 87.662 293.247 87.9917 294.537 88.651C295.856 89.3103 296.888 90.199 297.633 91.317V80.18H304.986V112H297.633V108.56C296.945 109.707 295.956 110.624 294.666 111.312C293.405 112 291.928 112.344 290.237 112.344C288.259 112.344 286.467 111.842 284.862 110.839C283.257 109.807 281.981 108.359 281.035 106.496C280.118 104.604 279.659 102.425 279.659 99.96ZM297.633 100.003C297.633 98.1683 297.117 96.7207 296.085 95.66C295.082 94.5993 293.849 94.069 292.387 94.069C290.925 94.069 289.678 94.5993 288.646 95.66C287.643 96.692 287.141 98.1253 287.141 99.96C287.141 101.795 287.643 103.257 288.646 104.346C289.678 105.407 290.925 105.937 292.387 105.937C293.849 105.937 295.082 105.407 296.085 104.346C297.117 103.285 297.633 101.838 297.633 100.003ZM326.771 81.814V112H319.418V81.814H326.771ZM346.72 87.748C349.529 87.748 351.765 88.6653 353.428 90.5C355.119 92.306 355.965 94.8 355.965 97.982V112H348.655V98.971C348.655 97.3657 348.239 96.1187 347.408 95.23C346.576 94.3413 345.458 93.897 344.054 93.897C342.649 93.897 341.531 94.3413 340.7 95.23C339.868 96.1187 339.453 97.3657 339.453 98.971V112H332.1V88.006H339.453V91.188C340.198 90.1273 341.201 89.296 342.463 88.694C343.724 88.0633 345.143 87.748 346.72 87.748ZM381.109 112.301C378.901 112.301 376.923 111.943 375.175 111.226C373.426 110.509 372.021 109.449 370.961 108.044C369.929 106.639 369.384 104.948 369.327 102.97H377.153C377.267 104.088 377.654 104.948 378.314 105.55C378.973 106.123 379.833 106.41 380.894 106.41C381.983 106.41 382.843 106.166 383.474 105.679C384.104 105.163 384.42 104.461 384.42 103.572C384.42 102.827 384.162 102.21 383.646 101.723C383.158 101.236 382.542 100.834 381.797 100.519C381.08 100.204 380.048 99.8453 378.701 99.444C376.751 98.842 375.16 98.24 373.928 97.638C372.695 97.036 371.634 96.1473 370.746 94.972C369.857 93.7967 369.413 92.263 369.413 90.371C369.413 87.5617 370.43 85.3687 372.466 83.792C374.501 82.1867 377.153 81.384 380.421 81.384C383.746 81.384 386.426 82.1867 388.462 83.792C390.497 85.3687 391.586 87.576 391.73 90.414H383.775C383.717 89.4393 383.359 88.6797 382.7 88.135C382.04 87.5617 381.195 87.275 380.163 87.275C379.274 87.275 378.557 87.5187 378.013 88.006C377.468 88.4647 377.196 89.1383 377.196 90.027C377.196 91.0017 377.654 91.7613 378.572 92.306C379.489 92.8507 380.922 93.4383 382.872 94.069C384.821 94.7283 386.398 95.359 387.602 95.961C388.834 96.563 389.895 97.4373 390.784 98.584C391.672 99.7307 392.117 101.207 392.117 103.013C392.117 104.733 391.672 106.295 390.784 107.7C389.924 109.105 388.662 110.223 387 111.054C385.337 111.885 383.373 112.301 381.109 112.301ZM419.26 99.616C419.26 100.304 419.217 101.021 419.131 101.766H402.49C402.604 103.257 403.077 104.403 403.909 105.206C404.769 105.98 405.815 106.367 407.048 106.367C408.882 106.367 410.158 105.593 410.875 104.045H418.701C418.299 105.622 417.568 107.041 416.508 108.302C415.476 109.563 414.171 110.552 412.595 111.269C411.018 111.986 409.255 112.344 407.306 112.344C404.955 112.344 402.862 111.842 401.028 110.839C399.193 109.836 397.76 108.402 396.728 106.539C395.696 104.676 395.18 102.497 395.18 100.003C395.18 97.509 395.681 95.3303 396.685 93.467C397.717 91.6037 399.15 90.1703 400.985 89.167C402.819 88.1637 404.926 87.662 407.306 87.662C409.628 87.662 411.692 88.1493 413.498 89.124C415.304 90.0987 416.708 91.489 417.712 93.295C418.744 95.101 419.26 97.208 419.26 99.616ZM411.735 97.681C411.735 96.4197 411.305 95.4163 410.445 94.671C409.585 93.9257 408.51 93.553 407.22 93.553C405.987 93.553 404.941 93.9113 404.081 94.628C403.249 95.3447 402.733 96.3623 402.533 97.681H411.735ZM430.492 80.18V112H423.139V80.18H430.492ZM443.173 80.18V112H435.82V80.18H443.173ZM452.2 85.512C450.91 85.512 449.849 85.1393 449.018 84.394C448.215 83.62 447.814 82.674 447.814 81.556C447.814 80.4093 448.215 79.4633 449.018 78.718C449.849 77.944 450.91 77.557 452.2 77.557C453.461 77.557 454.493 77.944 455.296 78.718C456.127 79.4633 456.543 80.4093 456.543 81.556C456.543 82.674 456.127 83.62 455.296 84.394C454.493 85.1393 453.461 85.512 452.2 85.512ZM455.855 88.006V112H448.502V88.006H455.855ZM475.804 87.748C478.613 87.748 480.849 88.6653 482.512 90.5C484.203 92.306 485.049 94.8 485.049 97.982V112H477.739V98.971C477.739 97.3657 477.323 96.1187 476.492 95.23C475.66 94.3413 474.542 93.897 473.138 93.897C471.733 93.897 470.615 94.3413 469.784 95.23C468.952 96.1187 468.537 97.3657 468.537 98.971V112H461.184V88.006H468.537V91.188C469.282 90.1273 470.285 89.296 471.547 88.694C472.808 88.0633 474.227 87.748 475.804 87.748ZM499.274 87.662C500.966 87.662 502.442 88.006 503.703 88.694C504.993 89.382 505.982 90.285 506.67 91.403V88.006H514.023V111.957C514.023 114.164 513.579 116.157 512.69 117.934C511.83 119.74 510.497 121.173 508.691 122.234C506.914 123.295 504.692 123.825 502.026 123.825C498.472 123.825 495.591 122.979 493.383 121.288C491.176 119.625 489.915 117.361 489.599 114.494H496.866C497.096 115.411 497.64 116.128 498.5 116.644C499.36 117.189 500.421 117.461 501.682 117.461C503.202 117.461 504.406 117.017 505.294 116.128C506.212 115.268 506.67 113.878 506.67 111.957V108.56C505.954 109.678 504.965 110.595 503.703 111.312C502.442 112 500.966 112.344 499.274 112.344C497.296 112.344 495.505 111.842 493.899 110.839C492.294 109.807 491.018 108.359 490.072 106.496C489.155 104.604 488.696 102.425 488.696 99.96C488.696 97.4947 489.155 95.3303 490.072 93.467C491.018 91.6037 492.294 90.1703 493.899 89.167C495.505 88.1637 497.296 87.662 499.274 87.662ZM506.67 100.003C506.67 98.1683 506.154 96.7207 505.122 95.66C504.119 94.5993 502.886 94.069 501.424 94.069C499.962 94.069 498.715 94.5993 497.683 95.66C496.68 96.692 496.178 98.1253 496.178 99.96C496.178 101.795 496.68 103.257 497.683 104.346C498.715 105.407 499.962 105.937 501.424 105.937C502.886 105.937 504.119 105.407 505.122 104.346C506.154 103.285 506.67 101.838 506.67 100.003ZM96.942 166.301C94.104 166.301 91.4953 165.642 89.116 164.323C86.7653 163.004 84.8877 161.17 83.483 158.819C82.107 156.44 81.419 153.774 81.419 150.821C81.419 147.868 82.107 145.217 83.483 142.866C84.8877 140.515 86.7653 138.681 89.116 137.362C91.4953 136.043 94.104 135.384 96.942 135.384C99.78 135.384 102.374 136.043 104.725 137.362C107.104 138.681 108.968 140.515 110.315 142.866C111.691 145.217 112.379 147.868 112.379 150.821C112.379 153.774 111.691 156.44 110.315 158.819C108.939 161.17 107.076 163.004 104.725 164.323C102.374 165.642 99.78 166.301 96.942 166.301ZM96.942 159.593C99.35 159.593 101.271 158.79 102.704 157.185C104.166 155.58 104.897 153.458 104.897 150.821C104.897 148.155 104.166 146.034 102.704 144.457C101.271 142.852 99.35 142.049 96.942 142.049C94.5053 142.049 92.556 142.837 91.094 144.414C89.6607 145.991 88.944 148.126 88.944 150.821C88.944 153.487 89.6607 155.623 91.094 157.228C92.556 158.805 94.5053 159.593 96.942 159.593ZM131.09 141.748C133.899 141.748 136.135 142.665 137.798 144.5C139.489 146.306 140.335 148.8 140.335 151.982V166H133.025V152.971C133.025 151.366 132.609 150.119 131.778 149.23C130.946 148.341 129.828 147.897 128.424 147.897C127.019 147.897 125.901 148.341 125.07 149.23C124.238 150.119 123.823 151.366 123.823 152.971V166H116.47V142.006H123.823V145.188C124.568 144.127 125.571 143.296 126.833 142.694C128.094 142.063 129.513 141.748 131.09 141.748Z" fill="#333333"/>
<path d="M178.25 142.006V166H170.897V162.732C170.151 163.793 169.134 164.653 167.844 165.312C166.582 165.943 165.178 166.258 163.63 166.258C161.795 166.258 160.175 165.857 158.771 165.054C157.366 164.223 156.277 163.033 155.503 161.485C154.729 159.937 154.342 158.117 154.342 156.024V142.006H161.652V155.035C161.652 156.64 162.067 157.887 162.899 158.776C163.73 159.665 164.848 160.109 166.253 160.109C167.686 160.109 168.818 159.665 169.65 158.776C170.481 157.887 170.897 156.64 170.897 155.035V142.006H178.25ZM194.453 166.301C192.246 166.301 190.268 165.943 188.519 165.226C186.771 164.509 185.366 163.449 184.305 162.044C183.273 160.639 182.729 158.948 182.671 156.97H190.497C190.612 158.088 190.999 158.948 191.658 159.55C192.318 160.123 193.178 160.41 194.238 160.41C195.328 160.41 196.188 160.166 196.818 159.679C197.449 159.163 197.764 158.461 197.764 157.572C197.764 156.827 197.506 156.21 196.99 155.723C196.503 155.236 195.887 154.834 195.141 154.519C194.425 154.204 193.393 153.845 192.045 153.444C190.096 152.842 188.505 152.24 187.272 151.638C186.04 151.036 184.979 150.147 184.09 148.972C183.202 147.797 182.757 146.263 182.757 144.371C182.757 141.562 183.775 139.369 185.81 137.792C187.846 136.187 190.497 135.384 193.765 135.384C197.091 135.384 199.771 136.187 201.806 137.792C203.842 139.369 204.931 141.576 205.074 144.414H197.119C197.062 143.439 196.704 142.68 196.044 142.135C195.385 141.562 194.539 141.275 193.507 141.275C192.619 141.275 191.902 141.519 191.357 142.006C190.813 142.465 190.54 143.138 190.54 144.027C190.54 145.002 190.999 145.761 191.916 146.306C192.834 146.851 194.267 147.438 196.216 148.069C198.166 148.728 199.742 149.359 200.946 149.961C202.179 150.563 203.24 151.437 204.128 152.584C205.017 153.731 205.461 155.207 205.461 157.013C205.461 158.733 205.017 160.295 204.128 161.7C203.268 163.105 202.007 164.223 200.344 165.054C198.682 165.885 196.718 166.301 194.453 166.301ZM224.735 141.748C227.487 141.748 229.695 142.665 231.357 144.5C233.02 146.306 233.851 148.8 233.851 151.982V166H226.541V152.971C226.541 151.366 226.126 150.119 225.294 149.23C224.463 148.341 223.345 147.897 221.94 147.897C220.536 147.897 219.418 148.341 218.586 149.23C217.755 150.119 217.339 151.366 217.339 152.971V166H209.986V134.18H217.339V145.231C218.085 144.17 219.102 143.325 220.392 142.694C221.682 142.063 223.13 141.748 224.735 141.748ZM249.883 166.344C247.532 166.344 245.411 165.842 243.519 164.839C241.656 163.836 240.179 162.402 239.09 160.539C238.029 158.676 237.499 156.497 237.499 154.003C237.499 151.538 238.044 149.373 239.133 147.51C240.222 145.618 241.713 144.17 243.605 143.167C245.497 142.164 247.618 141.662 249.969 141.662C252.32 141.662 254.441 142.164 256.333 143.167C258.225 144.17 259.716 145.618 260.805 147.51C261.894 149.373 262.439 151.538 262.439 154.003C262.439 156.468 261.88 158.647 260.762 160.539C259.673 162.402 258.168 163.836 256.247 164.839C254.355 165.842 252.234 166.344 249.883 166.344ZM249.883 159.98C251.288 159.98 252.477 159.464 253.452 158.432C254.455 157.4 254.957 155.924 254.957 154.003C254.957 152.082 254.47 150.606 253.495 149.574C252.549 148.542 251.374 148.026 249.969 148.026C248.536 148.026 247.346 148.542 246.4 149.574C245.454 150.577 244.981 152.054 244.981 154.003C244.981 155.924 245.44 157.4 246.357 158.432C247.303 159.464 248.478 159.98 249.883 159.98ZM273.693 145.403C274.409 144.285 275.398 143.382 276.66 142.694C277.921 142.006 279.397 141.662 281.089 141.662C283.067 141.662 284.858 142.164 286.464 143.167C288.069 144.17 289.33 145.604 290.248 147.467C291.194 149.33 291.667 151.495 291.667 153.96C291.667 156.425 291.194 158.604 290.248 160.496C289.33 162.359 288.069 163.807 286.464 164.839C284.858 165.842 283.067 166.344 281.089 166.344C279.426 166.344 277.95 166 276.66 165.312C275.398 164.624 274.409 163.735 273.693 162.646V177.438H266.34V142.006H273.693V145.403ZM284.185 153.96C284.185 152.125 283.669 150.692 282.637 149.66C281.633 148.599 280.386 148.069 278.896 148.069C277.434 148.069 276.187 148.599 275.155 149.66C274.151 150.721 273.65 152.168 273.65 154.003C273.65 155.838 274.151 157.285 275.155 158.346C276.187 159.407 277.434 159.937 278.896 159.937C280.358 159.937 281.605 159.407 282.637 158.346C283.669 157.257 284.185 155.795 284.185 153.96ZM304.339 134.137C307.407 134.137 309.858 134.94 311.692 136.545C313.556 138.15 314.487 140.415 314.487 143.339C314.487 146.034 313.599 148.141 311.821 149.66C310.073 151.151 307.751 151.91 304.855 151.939L304.64 155.164H298.19L297.975 147.166H300.555C302.763 147.166 304.44 146.894 305.586 146.349C306.762 145.804 307.349 144.815 307.349 143.382C307.349 142.379 307.077 141.59 306.532 141.017C305.988 140.444 305.228 140.157 304.253 140.157C303.221 140.157 302.419 140.458 301.845 141.06C301.272 141.633 300.985 142.422 300.985 143.425H294.062C294.005 141.676 294.363 140.1 295.137 138.695C295.94 137.29 297.115 136.187 298.663 135.384C300.24 134.553 302.132 134.137 304.339 134.137ZM301.501 166.344C300.211 166.344 299.151 165.971 298.319 165.226C297.517 164.452 297.115 163.506 297.115 162.388C297.115 161.241 297.517 160.281 298.319 159.507C299.151 158.733 300.211 158.346 301.501 158.346C302.763 158.346 303.795 158.733 304.597 159.507C305.429 160.281 305.844 161.241 305.844 162.388C305.844 163.506 305.429 164.452 304.597 165.226C303.795 165.971 302.763 166.344 301.501 166.344Z" fill="#F5AB35"/>
<path d="M1145.04 280.064L1145.45 306.351L1135.01 305.719L1133.3 274.31L1145.04 280.064Z" fill="white"/>
<path d="M1145.45 302.425C1145.45 302.425 1137.95 306.927 1134.39 300.304L1108.66 314.12L1149.3 313.872L1145.45 302.436V302.425Z" fill="#101010"/>
<path d="M1149.3 313.871L1108.66 314.123L1108.68 317.735L1149.32 317.482L1149.3 313.871Z" fill="white"/>
<path d="M1131.66 306.918C1131.55 306.876 1131.46 306.804 1131.37 306.7C1129.8 304.599 1128.21 303.554 1128.19 303.544C1127.87 303.337 1127.79 302.933 1128.01 302.633C1128.21 302.333 1128.65 302.261 1128.95 302.447C1129.02 302.488 1130.74 303.616 1132.48 305.924C1132.71 306.224 1132.64 306.628 1132.33 306.845C1132.13 306.99 1131.87 307.011 1131.66 306.918V306.918Z" fill="white"/>
<path d="M1128.34 308.606C1128.23 308.564 1128.14 308.492 1128.06 308.389C1126.48 306.288 1124.89 305.242 1124.87 305.232C1124.56 305.025 1124.48 304.621 1124.69 304.321C1124.89 304.021 1125.33 303.938 1125.64 304.135C1125.71 304.176 1127.43 305.304 1129.17 307.612C1129.39 307.912 1129.32 308.316 1129.01 308.533C1128.81 308.678 1128.56 308.699 1128.34 308.606V308.606Z" fill="white"/>
<path d="M1125.03 310.301C1124.91 310.26 1124.82 310.187 1124.74 310.084C1123.16 307.983 1121.58 306.938 1121.56 306.927C1121.24 306.72 1121.16 306.317 1121.37 306.017C1121.58 305.716 1122.01 305.634 1122.32 305.83C1122.39 305.872 1124.11 307 1125.85 309.308C1126.07 309.597 1126 310.011 1125.7 310.229C1125.49 310.374 1125.24 310.394 1125.03 310.301V310.301Z" fill="white"/>
<path d="M1174.77 280.064L1176.3 306.351L1165.86 305.719L1163.04 274.31L1174.77 280.064Z" fill="white"/>
<path d="M1176.3 302.425C1176.3 302.425 1168.8 306.927 1165.24 300.304L1139.52 314.12L1180.16 313.872L1176.3 302.436V302.425Z" fill="#101010"/>
<path d="M1180.15 313.863L1139.52 314.115L1139.54 317.727L1180.18 317.475L1180.15 313.863Z" fill="white"/>
<path d="M1162.51 306.918C1162.4 306.876 1162.31 306.804 1162.23 306.7C1160.65 304.599 1159.06 303.554 1159.04 303.544C1158.73 303.337 1158.65 302.933 1158.86 302.633C1159.06 302.333 1159.5 302.261 1159.81 302.447C1159.88 302.488 1161.6 303.616 1163.34 305.924C1163.56 306.224 1163.49 306.628 1163.19 306.845C1162.98 306.99 1162.73 307.011 1162.51 306.918V306.918Z" fill="white"/>
<path d="M1159.2 308.606C1159.09 308.564 1158.99 308.492 1158.91 308.389C1157.34 306.288 1155.75 305.242 1155.73 305.232C1155.41 305.025 1155.33 304.621 1155.54 304.321C1155.75 304.021 1156.19 303.938 1156.49 304.135C1156.56 304.176 1158.28 305.304 1160.02 307.612C1160.25 307.912 1160.17 308.316 1159.87 308.533C1159.67 308.678 1159.41 308.699 1159.2 308.606V308.606Z" fill="white"/>
<path d="M1155.87 310.301C1155.76 310.26 1155.67 310.187 1155.59 310.084C1154.01 307.983 1152.42 306.938 1152.4 306.927C1152.09 306.72 1152.01 306.317 1152.22 306.017C1152.42 305.716 1152.86 305.634 1153.17 305.83C1153.24 305.872 1154.96 307 1156.7 309.308C1156.92 309.597 1156.85 310.011 1156.55 310.229C1156.34 310.374 1156.09 310.394 1155.87 310.301V310.301Z" fill="white"/>
<path d="M1132.15 157.11C1131.15 162.471 1130.72 187.961 1130.68 195.443L1130.02 296.389H1149.94L1152.24 181.979L1159.94 295.975L1180.35 296.058L1174.12 157.182L1132.14 157.11H1132.15Z" fill="#F4A62C"/>
<path d="M1151.94 181.705L1143.02 180.018" stroke="black" stroke-width="0.51" stroke-linecap="round" stroke-linejoin="round"/>
<path d="M1145.19 53.7265C1144.87 62.0473 1150.64 68.5672 1159.19 68.9088C1167.75 69.2503 1168.16 66.4042 1173.91 56.883C1178.84 48.7175 1174.78 35.0424 1160.54 34.4739C1151.98 34.1324 1145.52 45.4058 1145.19 53.7265Z" fill="black"/>
<path d="M1163.12 66.5483L1164.62 90.5998L1152.65 90.1548L1154.18 68.701L1163.12 66.5483Z" fill="#ECB58C"/>
<path d="M1153.34 80.4072L1162.18 72.4487L1154.1 70.2236L1153.34 80.4072Z" fill="black"/>
<path d="M1162.55 43.3573C1159.95 42.519 1157.15 42.2396 1154.45 42.7053C1150.8 43.3366 1146.06 45.4685 1145.21 52.1852C1143.81 63.383 1144.83 71.0724 1150.19 73.8357C1154.3 75.9572 1157.37 75.3259 1162.31 72.6662C1164.14 71.6727 1166 68.6507 1166.57 66.5188L1168.87 60.5991C1168.87 60.5991 1175.02 47.3831 1162.55 43.3677V43.3573Z" fill="#ECB58C"/>
<path d="M1150.81 60.8784L1149.61 63.1656L1151.02 64.5524" stroke="black" stroke-width="0.41" stroke-linecap="round" stroke-linejoin="round"/>
<path d="M1154.62 59.3556C1154.62 59.3556 1156.56 54.7503 1161.24 58.5277C1161.24 58.5277 1158.74 63.0917 1154.62 59.3556Z" fill="white"/>
<path d="M1155.69 58.6101C1155.51 59.7382 1156.24 60.8042 1157.33 60.9801C1158.4 61.156 1159.42 60.3798 1159.6 59.2518C1159.79 58.1237 1159.06 57.0577 1157.97 56.8818C1156.89 56.7059 1155.87 57.4821 1155.69 58.6101Z" fill="black"/>
<path d="M1161.33 58.4345C1160.91 57.9688 1160.39 57.5652 1159.81 57.3064C1159.23 57.0477 1158.61 56.8925 1157.93 56.9028H1157.94C1157.59 56.9028 1157.22 56.9235 1156.87 56.996C1156.51 57.0684 1156.15 57.1926 1155.83 57.3685C1155.5 57.5548 1155.2 57.7929 1154.95 58.0826C1154.7 58.3724 1154.51 58.6932 1154.37 59.0969C1154.33 59.2417 1154.4 59.3866 1154.54 59.428C1154.67 59.4694 1154.82 59.397 1154.86 59.2521V59.2314C1154.94 58.9623 1155.11 58.6518 1155.31 58.4035C1155.51 58.1551 1155.76 57.9377 1156.03 57.7722C1156.32 57.6169 1156.62 57.4824 1156.95 57.4099C1157.27 57.3272 1157.6 57.2961 1157.94 57.2857H1157.96C1158.52 57.2547 1159.14 57.3789 1159.68 57.6066C1160.23 57.8343 1160.73 58.1861 1161.15 58.6208C1161.2 58.6725 1161.28 58.6725 1161.33 58.6208C1161.38 58.5691 1161.38 58.4966 1161.33 58.4449V58.4345Z" fill="black"/>
<path d="M1149.99 59.14C1149.99 59.14 1147.96 54.4312 1145.29 57.8464C1145.29 57.8464 1146.69 62.1103 1149.99 59.14Z" fill="white"/>
<path d="M1148.98 58.2085C1149.1 59.2331 1148.56 60.1438 1147.77 60.2473C1146.97 60.3508 1146.22 59.6057 1146.1 58.5811C1145.98 57.5565 1146.52 56.6458 1147.31 56.5423C1148.1 56.4388 1148.86 57.184 1148.98 58.2085Z" fill="black"/>
<path d="M1145.39 57.8976C1145.62 57.5354 1145.91 57.2249 1146.27 57.0283C1146.61 56.8317 1147.05 56.7592 1147.41 56.842H1147.42C1147.95 56.9662 1148.45 57.2353 1148.82 57.6285C1149.21 58.0115 1149.5 58.5186 1149.69 59.0153V59.036C1149.74 59.1499 1149.86 59.212 1149.97 59.1706C1150.08 59.1292 1150.15 59.005 1150.1 58.8808C1149.87 58.2909 1149.53 57.7838 1149.09 57.3491C1148.65 56.9248 1148.07 56.635 1147.47 56.5315H1147.48C1146.99 56.4384 1146.52 56.5626 1146.13 56.8006C1145.73 57.049 1145.42 57.4009 1145.2 57.7941C1145.17 57.8459 1145.19 57.908 1145.24 57.939C1145.29 57.9701 1145.35 57.9494 1145.38 57.908L1145.39 57.8976Z" fill="black"/>
<path d="M1149.62 52.7538C1149.62 52.7538 1150.04 53.9026 1148.31 54.0992C1146.99 54.2545 1146.16 54.3373 1145.42 54.5753C1145 54.7202 1144.52 54.5857 1144.28 54.2752C1144.08 54.0164 1144.09 53.6956 1144.3 53.4472C1144.73 52.9505 1145.61 52.1743 1147.21 51.9673C1149.25 51.7086 1149.61 52.7435 1149.61 52.7435L1149.62 52.7538Z" fill="black"/>
<path d="M1155.15 53.0239C1155.15 53.0239 1154.58 54.1623 1156.8 54.4003C1158.48 54.5866 1160.48 55.1454 1161.42 55.4042C1161.96 55.5491 1162.57 55.4352 1162.89 55.1247C1163.14 54.8764 1163.14 54.5452 1162.89 54.2968C1162.36 53.7897 1160.3 52.5374 1158.27 52.2891C1155.64 51.9786 1155.16 53.0135 1155.16 53.0135L1155.15 53.0239Z" fill="black"/>
<path d="M1149.99 66.001H1157.02C1157.02 66.001 1156.45 68.3399 1153.38 68.5158C1150.31 68.6918 1150 66.001 1150 66.001H1149.99Z" fill="white"/>
<path d="M1167.02 62.8952C1167.02 62.8952 1163.17 51.2731 1170.54 48.0234C1170.54 48.0234 1175.86 49.5034 1173.32 55.4955C1170.79 61.4877 1167.02 62.8952 1167.02 62.8952Z" fill="black"/>
<path d="M1165.07 66.685C1165.45 65.1637 1166.1 63.7044 1167.03 62.4004C1168.31 60.61 1170.11 58.9852 1172.24 60.4341C1175.85 62.9076 1171.05 68.7548 1166.98 68.6617C1165.78 68.6307 1164.83 67.6371 1165.08 66.685H1165.07Z" fill="#ECB58C"/>
<path d="M1156.59 41.2142C1156.59 41.2142 1158.13 51.2322 1170.07 52.7846L1171.15 46.7096L1162.03 40.2207L1156.59 41.2142V41.2142Z" fill="black"/>
<path d="M1140.01 106.393C1140.01 106.393 1137.39 129.761 1131.99 147.562C1131.34 149.704 1127.3 152.602 1125.1 152.747C1121.78 152.974 1119.08 150.077 1119.46 146.713L1126.05 105.006L1140.01 106.382V106.393Z" fill="#ECB58C"/>
<path d="M1133.74 91.8726C1133.74 91.8726 1123.03 97.1713 1120.41 119.412L1136.35 126.056L1133.75 91.8726H1133.74Z" fill="white"/>
<path d="M1155.06 86.151C1160.55 86.6271 1165.98 87.8586 1171.09 89.9388C1172.34 90.4459 1173.59 91.0048 1174.72 91.6154C1178.28 93.5093 1177.21 97.5972 1176.76 101.778L1173.82 156.919L1131.84 156.846L1128.06 103.641C1127.67 97.8146 1131.05 92.464 1136.29 90.5805C1142.17 88.4796 1149.33 86.12 1152.45 85.9233L1155.05 86.151H1155.06Z" fill="white"/>
<path d="M1129.07 124.496L1129.26 110.897" stroke="#D5E1FD" stroke-width="0.51" stroke-linecap="round" stroke-linejoin="round"/>
<path d="M1142.93 88.3137C1142.93 88.3137 1146.63 86.6268 1152.47 85.923C1152.47 85.923 1158.66 85.7678 1164.87 87.8583C1164.87 87.8583 1160.29 95.7651 1148.26 94.606C1141.44 93.954 1142.93 88.3137 1142.93 88.3137Z" fill="#ECB58C"/>
<path d="M1133.9 170.569H1169.36V122.114H1133.9V170.569Z" fill="#D69E37"/>
<path d="M1148.87 136.231H1156.44V122.115H1148.87V136.231Z" fill="#F4DAA4"/>
<path d="M1181.32 110.373C1181.32 110.373 1176.28 135.079 1174.7 153.642C1174.51 155.879 1178.59 158.193 1180.57 159.17L1180.24 159.948C1183.23 161.426 1186.81 159.777 1187.7 156.511L1197.01 115.349L1181.33 110.364L1181.32 110.373Z" fill="#ECB58C"/>
<path d="M1174.58 91.7529C1174.58 91.7529 1203.63 114.585 1197.03 117.719C1190.43 120.853 1178.54 124.882 1178.54 124.882L1170.13 105.999L1174.58 91.7529Z" fill="white"/>
<path d="M1174.26 126.118L1170.13 111.598" stroke="#D5E1FD" stroke-width="0.51" stroke-linecap="round" stroke-linejoin="round"/>
<path d="M1173.11 57.2917C1172.59 56.1116 1174.93 48.9928 1173.55 44.5529C1172.17 40.1129 1170.11 39.8727 1166.86 38.4905C1166.86 38.4905 1164.14 33.0139 1160.18 31.3513C1156.23 29.6888 1152.27 33.5028 1152.2 34.1939C1152.14 34.885 1154.87 33.5028 1157.82 33.9853C1160.77 34.4678 1162.66 35.7196 1162.66 35.9934C1162.66 36.2672 1156.45 32.3162 1152.62 35.3675C1148.78 38.4188 1147.49 45.6622 1145.46 47.0835C1145.17 47.2922 1147.41 48.6092 1150.6 46.6663C1150.6 46.6663 1150.36 49.1633 1154.15 48.3288C1157.93 47.4943 1159.47 41.0462 1163.72 40.2834C1163.72 40.2834 1161.48 39.8401 1160.44 42.5067C1159.41 45.1732 1160.42 46.3468 1160.83 45.8643C1161.48 45.0885 1162.36 40.9549 1165.97 41.809C1169.39 42.6175 1169.51 48.6744 1169.51 49.6458C1169.51 50.6173 1172.49 52.4167 1172.17 59.4711C1165.65 63.0022 1172.2 58.3954 1172.2 58.3954L1173.11 57.2917Z" fill="#0D0A0B"/>
<g style="mix-blend-mode:multiply">
<path d="M1166.94 42.2396C1166.94 42.2396 1164.8 40.0033 1162.81 40.3227C1160.83 40.6422 1160.86 44.6258 1161.11 45.4082C1161.36 46.1905 1162.71 42.1809 1166.94 42.2461V42.2396Z" fill="#271F22"/>
</g>
<g style="mix-blend-mode:multiply">
<path d="M1160.65 42.0512L1162.05 39.4629C1162.05 39.4629 1156.05 39.5998 1154.13 41.3341C1152.2 43.0683 1152.39 47.9842 1151.79 48.3689C1151.79 48.3689 1153.59 49.3404 1156.04 47.7821C1158.49 46.2239 1160.65 42.0512 1160.65 42.0512Z" fill="#271F22"/>
</g>
<path d="M1166.24 118.09C1165.64 121.978 1161.78 134.16 1158.11 145.156C1158.11 145.184 1158.09 145.202 1158.09 145.22C1156.47 150.075 1154.88 154.701 1153.62 158.269V158.288C1152.23 162.239 1151.25 164.895 1151.09 165.141C1150.39 166.181 1124.71 169.968 1121.37 169.485C1118.03 169.01 1083.2 154.346 1079.85 152.42C1079.4 152.174 1079.52 148.46 1079.92 143.149C1079.93 143.048 1079.94 142.948 1079.95 142.848C1080.52 135.593 1081.63 125.482 1082.65 117.004C1083.08 113.473 1083.48 110.233 1083.84 107.596C1084.32 103.9 1084.68 101.4 1084.8 100.989C1085.36 99.0638 1124.91 102.002 1128.33 102.322C1131.76 102.641 1164.79 115.59 1166.24 116.849C1166.36 116.95 1166.36 117.388 1166.24 118.09V118.09Z" fill="url(#paint1_linear_2608_40242)"/>
<path d="M1166.24 118.09C1166.24 118.09 1162.08 132.344 1158.11 145.156C1158.11 145.174 1158.09 145.201 1158.09 145.22C1157.05 148.578 1156.02 151.826 1155.08 154.71C1155.08 154.71 1155.05 154.81 1155.01 154.911C1153.11 160.751 1151.57 164.976 1151.09 165.14C1149.46 165.715 1126.33 169.694 1121.37 169.484C1121.37 169.484 1121.48 168.991 1121.67 168.115C1123.37 160.185 1131.94 120.554 1132.31 119.796C1132.72 118.957 1166.25 118.09 1166.25 118.09H1166.24Z" fill="url(#paint2_linear_2608_40242)"/>
<path d="M1084.78 101C1084.78 101 1129.74 119.305 1132.29 119.798C1134.83 120.291 1166.23 118.101 1166.23 118.101C1166.23 118.101 1132.8 103.692 1128.31 102.332C1123.83 100.963 1086.25 100.279 1084.78 101V101Z" fill="#F9DA75"/>
<g style="mix-blend-mode:multiply" opacity="0.5">
<path d="M1155 154.91C1153.09 160.751 1151.56 164.976 1151.08 165.14C1150.37 166.18 1124.69 169.967 1121.35 169.484C1118.01 169.009 1083.18 154.345 1079.83 152.419C1079.38 152.155 1079.51 148.313 1079.93 142.847C1079.99 143.157 1081.78 149.216 1084.09 151.616C1092.04 159.911 1121.65 168.106 1121.65 168.106C1122.22 168.042 1146.91 165.587 1149.67 163.908C1151.15 163.014 1152.58 160.468 1153.59 158.278C1153.59 158.278 1153.59 158.278 1153.6 158.269C1154.31 156.745 1154.81 155.403 1154.99 154.91H1155Z" fill="#D07CAD"/>
</g>
<path d="M1123.11 116.165C1123.11 116.165 1132.16 118.647 1134.07 118.976C1135.99 119.305 1142.71 119.542 1142.71 119.542C1142.71 119.542 1132.99 121.157 1132.01 120.838C1131.04 120.527 1123.11 116.156 1123.11 116.156V116.165Z" fill="#FFEEAC"/>
<path d="M1101.35 100.642C1101.35 100.642 1146.92 118.181 1147.13 119.312C1147.23 119.832 1143.39 134.689 1143.39 134.689L1151.41 133.73C1151.41 133.73 1155.98 119.221 1155.89 118.783C1155.76 118.181 1113.66 101.144 1113.66 101.144L1101.34 100.642H1101.35Z" fill="#425462"/>
<g style="mix-blend-mode:multiply" opacity="0.5">
<path d="M1155.89 118.784L1148.08 118.912L1122.94 109.075C1122.94 109.075 1146.69 118.547 1146.85 119.323C1147.01 120.107 1143.4 134.69 1143.4 134.69L1151.54 133.376C1151.54 133.376 1155.92 119.879 1155.9 118.793L1155.89 118.784Z" fill="#D07CAD"/>
</g>
<path d="M1136.75 167.95L1140.85 152.629L1148.12 151.579L1144.52 166.718L1136.75 167.95Z" fill="#425462"/>
<g style="mix-blend-mode:multiply" opacity="0.5">
<path d="M1136.75 167.952C1136.75 167.952 1141.2 154.601 1141.66 153.579C1142.11 152.557 1148.01 152.055 1148.01 152.055L1144.52 166.729L1136.75 167.952V167.952Z" fill="#D07CAD"/>
</g>
<g style="mix-blend-mode:soft-light" opacity="0.5">
<path d="M1139.66 115.608C1139.53 114.686 1149.76 116.575 1151.82 117.178C1153.88 117.78 1154.89 118.793 1154.89 118.793L1148.08 118.902L1139.66 115.608Z" fill="#DDE8FF"/>
</g>
<g style="mix-blend-mode:soft-light">
<path d="M1144.75 117.606C1144.73 117.295 1148.44 117.861 1149.44 118.244C1150.42 118.619 1148.61 119.12 1148.08 118.911C1147.56 118.701 1144.75 117.606 1144.75 117.606V117.606Z" fill="#DDE8FF"/>
</g>
<g style="mix-blend-mode:multiply" opacity="0.3">
<path d="M1089.08 106.172C1084.24 104.42 1088.2 136.276 1103.68 144.763C1119.16 153.25 1128.5 126.759 1129.31 123.355C1130.12 119.942 1089.08 106.181 1089.08 106.181V106.172Z" fill="#F3BDCE"/>
</g>
<g style="mix-blend-mode:soft-light">
<path d="M1140.86 152.63C1140.86 152.63 1141.2 152.767 1142.04 152.831C1142.88 152.894 1148.08 151.863 1148.08 151.863L1148.13 151.571L1140.86 152.63Z" fill="#DDE8FF"/>
</g>
<g style="mix-blend-mode:multiply" opacity="0.5">
<path d="M1085.4 132.983C1084.93 133.12 1083.77 143.541 1084.09 143.979C1084.41 144.417 1099.31 150.832 1099.62 150.696C1099.94 150.568 1101.26 140.183 1101.32 139.471C1101.39 138.75 1085.91 132.837 1085.4 132.983Z" fill="#D07CAD"/>
</g>
<path d="M1084.92 131.422C1084.46 131.559 1083.32 142.72 1083.64 143.158C1083.95 143.596 1098.92 150.139 1099.24 150.011C1099.56 149.883 1100.81 139.371 1100.87 138.65C1100.94 137.929 1085.44 131.276 1084.92 131.431V131.422Z" fill="#EBF0F8"/>
<path style="mix-blend-mode:multiply" opacity="0.5" d="M1086.51 131.943C1084.73 134.571 1084.27 143.423 1079.91 143.149C1079.92 143.049 1079.92 142.948 1079.93 142.848C1080.51 135.593 1081.61 125.482 1082.63 117.005C1083.06 113.473 1082.67 114.532 1083.03 111.895C1090.71 116.22 1093.34 121.878 1086.52 131.943H1086.51Z" fill="url(#paint3_linear_2608_40242)"/>
<path d="M1186.73 154.809C1186.29 155.652 1183.43 163.402 1177.51 160.52C1172.32 157.997 1163.17 154.843 1160.35 152.332C1159.95 151.967 1159.62 151.686 1159.37 151.513C1158.83 151.124 1158.23 150.897 1157.58 150.741C1155.89 150.347 1153.92 150.484 1152.09 149.629C1149.56 148.439 1147.38 145.557 1145.99 144.75C1145.45 144.439 1144.86 144.32 1144.25 144.242C1144.24 144.242 1144.22 144.242 1144.2 144.236C1143.92 144.2 1143.63 144.176 1143.34 144.14C1143.28 144.134 1143.21 144.128 1143.16 144.116C1143.05 144.104 1142.94 144.092 1142.83 144.069C1142.7 144.045 1142.59 144.027 1142.53 144.015C1142.39 143.991 1142.26 143.955 1142.13 143.919H1142.12C1141.84 143.841 1141.56 143.734 1141.29 143.584C1139.77 142.759 1139.67 141.533 1139.99 141.025C1140.29 140.517 1144.6 140.26 1145.56 140.642C1145.75 140.72 1146.01 140.84 1146.29 140.977C1147.41 141.545 1149.05 142.496 1149.57 142.634C1150.23 142.801 1150.92 142.586 1150.83 141.91C1150.75 141.234 1148.4 138.394 1147.17 138.095C1146.63 137.964 1145.67 137.778 1144.67 137.485H1144.66C1143.41 137.121 1142.09 136.588 1141.46 135.763C1140.33 134.28 1141.03 133.18 1141.03 133.18C1138.76 132.247 1139.11 130.047 1139.85 129.748C1140.51 129.479 1144.33 129.981 1145.17 130.101H1145.19C1145.19 130.101 1145.21 130.107 1145.21 130.107H1145.22C1145.26 130.107 1145.28 130.113 1145.3 130.113C1141.67 129.007 1141.91 126.202 1142.95 126.011C1144 125.814 1151.12 126.77 1152.1 127.661C1152.99 128.474 1157.9 139.339 1161.93 144.272C1162.34 144.78 1162.76 145.229 1163.15 145.593C1167.33 149.492 1180.41 145.763 1181.02 148.22C1181.02 148.22 1185.42 156.163 1184.97 157.006L1186.73 154.809Z" fill="#ECB58C"/>
<path d="M1162.73 145.169C1162.73 145.169 1162.99 144.948 1163.27 145.007C1163.55 145.073 1164.58 146.006 1165.03 146.365C1165.03 146.365 1165.24 150.813 1163.2 155.561C1163.2 155.561 1160.85 154.06 1160.37 153.677C1159.89 153.295 1159.65 153.486 1159.53 153.295C1159.4 153.103 1159.89 151.925 1159.89 151.925L1160.4 152.344C1160.4 152.344 1161.55 151.668 1162.49 149.336C1163.42 147.004 1163.1 145.522 1163.1 145.522L1162.73 145.175V145.169Z" fill="url(#paint4_linear_2608_40242)"/>
<path style="mix-blend-mode:multiply" d="M1159.5 150.281C1158.98 150.448 1158.31 150.604 1157.58 150.741C1155.89 150.347 1153.92 150.484 1152.09 149.629C1149.57 148.439 1147.38 145.557 1145.99 144.75C1144.85 144.086 1143.44 144.29 1142.12 143.919C1142.31 143.919 1146.14 143.955 1146.53 142.837C1146.92 141.689 1146.28 140.977 1146.28 140.977C1147.41 141.545 1149.04 142.496 1149.57 142.633C1150.22 142.801 1150.92 142.586 1150.83 141.91C1150.75 141.234 1148.39 138.394 1147.17 138.095C1146.62 137.964 1145.66 137.778 1144.67 137.485C1144.9 137.503 1147.6 137.7 1148.41 137.395C1149.26 137.073 1149.67 135.022 1149.15 134.723C1148.83 134.543 1146 134.023 1143.76 133.634C1145.91 133.975 1148.63 134.37 1149.25 134.316C1150.32 134.208 1151.5 132.086 1150.68 131.518C1150.13 131.129 1147.72 130.597 1146.28 130.31C1147.83 130.591 1150.5 131.057 1150.96 130.968C1151.62 130.842 1152.94 128.971 1152.1 127.661C1153 128.474 1157.9 139.339 1161.93 144.272C1162.27 147.309 1161.45 149.623 1159.49 150.269L1159.5 150.281Z" fill="url(#paint5_linear_2608_40242)"/>
<g style="mix-blend-mode:multiply">
<path d="M1160.62 152.164L1160.39 152.338H1160.34C1159.94 151.967 1159.61 151.686 1159.37 151.513C1158.83 151.124 1158.22 150.897 1157.58 150.741C1155.89 150.347 1153.92 150.484 1152.09 149.629C1149.56 148.439 1147.38 145.557 1145.99 144.75C1145.45 144.439 1144.86 144.319 1144.25 144.242C1144.7 144.284 1145.17 144.301 1145.58 144.266C1146.82 144.17 1149.81 147.949 1152.07 149.252C1154.34 150.562 1158.52 150.275 1159.01 150.281C1159.5 150.281 1160.63 152.164 1160.63 152.164H1160.62Z" fill="#E392AD"/>
</g>
<g style="mix-blend-mode:multiply">
<path d="M1141.02 133.18C1141.02 133.18 1148.37 134.352 1149.15 134.729C1149.92 135.106 1152.86 138.544 1152.86 138.544C1152.86 138.544 1150.25 134.938 1149.67 134.537C1149.08 134.137 1141.02 133.18 1141.02 133.18V133.18Z" fill="#E392AD"/>
</g>
<g style="mix-blend-mode:multiply">
<path d="M1145.2 130.107C1145.2 130.107 1150.48 131.124 1151.02 131.638C1151.57 132.146 1153.29 134.436 1153.29 134.436C1153.29 134.436 1151.79 131.65 1151.31 131.321C1150.83 130.992 1145.2 130.113 1145.2 130.113V130.107Z" fill="#E392AD"/>
</g>
<path d="M1143.61 126.185C1142.5 126.155 1142.64 128.05 1143.45 128.624C1144.26 129.198 1146.16 129.103 1146.72 127.955C1147.27 126.813 1144.56 126.209 1143.61 126.185Z" fill="#FFD8CC"/>
<path d="M1140.61 130.005C1139.96 130.106 1139.76 131.816 1140.92 132.402C1142.07 132.988 1143.57 132.355 1144.01 131.488C1144.45 130.621 1142.2 129.748 1140.61 130.005Z" fill="#FFD8CC"/>
<path d="M1141.85 133.563C1141.17 133.593 1141.25 135.279 1142.12 135.865C1142.99 136.451 1144.25 136.026 1144.8 135.177C1145.36 134.328 1142.84 133.527 1141.85 133.569L1141.85 133.563Z" fill="#FFD8CC"/>
<path d="M1140.39 141.085C1139.91 141.366 1140.44 142.867 1141.39 143.16C1142.35 143.459 1143.53 142.729 1143.57 141.76C1143.61 140.786 1141.33 140.535 1140.39 141.085Z" fill="#FFD8CC"/>
<g style="mix-blend-mode:soft-light" opacity="0.2">
<path d="M1176.89 145.431C1175.32 143.314 1179.58 136.922 1184.35 136.653C1189.11 136.384 1186.86 149.222 1186.09 151.165C1185.32 153.102 1176.9 145.431 1176.9 145.431H1176.89Z" fill="white"/>
</g>
<defs>
<radialGradient id="paint0_radial_2608_40242" cx="0" cy="0" r="1" gradientUnits="userSpaceOnUse" gradientTransform="translate(1151.15 139.435) scale(122.556)">
<stop stop-color="white"/>
<stop offset="1"/>
</radialGradient>
<linearGradient id="paint1_linear_2608_40242" x1="1122.93" y1="169.53" x2="1122.93" y2="100.341" gradientUnits="userSpaceOnUse">
<stop offset="0.02" stop-color="#F5AB45"/>
<stop offset="1" stop-color="#F5C745"/>
</linearGradient>
<linearGradient id="paint2_linear_2608_40242" x1="1138.86" y1="172.57" x2="1148.77" y2="115.144" gradientUnits="userSpaceOnUse">
<stop offset="0.02" stop-color="#DB7A54"/>
<stop offset="1" stop-color="#D2542C"/>
</linearGradient>
<linearGradient id="paint3_linear_2608_40242" x1="1082.21" y1="143.551" x2="1087.54" y2="112.67" gradientUnits="userSpaceOnUse">
<stop offset="0.02" stop-color="#DB7A54"/>
<stop offset="1" stop-color="#D2542C"/>
</linearGradient>
<linearGradient id="paint4_linear_2608_40242" x1="1162.27" y1="155.561" x2="1162.27" y2="144.995" gradientUnits="userSpaceOnUse">
<stop stop-color="#FF6686"/>
<stop offset="1" stop-color="#FF7C89"/>
</linearGradient>
<linearGradient id="paint5_linear_2608_40242" x1="1142.11" y1="139.207" x2="1162.02" y2="139.207" gradientUnits="userSpaceOnUse">
<stop stop-color="#F29DC8"/>
<stop offset="0.98" stop-color="white"/>
</linearGradient>
</defs>
</svg>
