<svg width="171" height="162" viewBox="0 0 171 162" fill="none" xmlns="http://www.w3.org/2000/svg">
<path d="M27.0556 128.374H22.1181V112.374H27.2744C28.8265 112.374 30.1546 112.694 31.2588 113.335C32.3629 113.97 33.2093 114.884 33.7978 116.077C34.3864 117.265 34.6806 118.687 34.6806 120.343C34.6806 122.009 34.3838 123.444 33.79 124.647C33.1963 125.845 32.3317 126.767 31.1963 127.413C30.0608 128.054 28.6806 128.374 27.0556 128.374ZM24.0556 126.655H26.9306C28.2536 126.655 29.3499 126.4 30.2197 125.89C31.0895 125.379 31.7379 124.653 32.165 123.71C32.5921 122.767 32.8056 121.645 32.8056 120.343C32.8056 119.051 32.5947 117.939 32.1728 117.007C31.7509 116.069 31.1207 115.351 30.2822 114.851C29.4437 114.345 28.3994 114.093 27.1494 114.093H24.0556V126.655ZM41.6119 128.624C40.4556 128.624 39.4582 128.369 38.6197 127.858C37.7864 127.343 37.1431 126.624 36.69 125.702C36.2421 124.775 36.0181 123.697 36.0181 122.468C36.0181 121.239 36.2421 120.155 36.69 119.218C37.1431 118.275 37.7733 117.541 38.5806 117.015C39.3931 116.483 40.341 116.218 41.4244 116.218C42.0494 116.218 42.6666 116.322 43.2759 116.53C43.8853 116.739 44.44 117.077 44.94 117.546C45.44 118.009 45.8384 118.624 46.1353 119.39C46.4322 120.155 46.5806 121.098 46.5806 122.218V122.999H37.3306V121.405H44.7056C44.7056 120.728 44.5702 120.124 44.2994 119.593C44.0338 119.062 43.6536 118.642 43.1588 118.335C42.6692 118.028 42.0911 117.874 41.4244 117.874C40.69 117.874 40.0546 118.056 39.5181 118.421C38.9869 118.78 38.578 119.249 38.2916 119.827C38.0051 120.405 37.8619 121.025 37.8619 121.687V122.749C37.8619 123.655 38.0181 124.424 38.3306 125.054C38.6483 125.679 39.0884 126.155 39.6509 126.483C40.2134 126.806 40.8671 126.968 41.6119 126.968C42.0963 126.968 42.5338 126.9 42.9244 126.765C43.3202 126.624 43.6614 126.416 43.9478 126.14C44.2343 125.858 44.4556 125.509 44.6119 125.093L46.3931 125.593C46.2056 126.197 45.8905 126.728 45.4478 127.187C45.0051 127.64 44.4582 127.994 43.8072 128.249C43.1562 128.499 42.4244 128.624 41.6119 128.624ZM53.1603 128.624C52.0353 128.624 51.0666 128.358 50.2541 127.827C49.4416 127.296 48.8166 126.564 48.3791 125.632C47.9416 124.7 47.7228 123.634 47.7228 122.437C47.7228 121.218 47.9468 120.142 48.3947 119.21C48.8478 118.272 49.478 117.541 50.2853 117.015C51.0978 116.483 52.0457 116.218 53.1291 116.218C53.9728 116.218 54.7332 116.374 55.4103 116.687C56.0874 116.999 56.6421 117.437 57.0744 117.999C57.5067 118.562 57.7749 119.218 57.8791 119.968H56.0353C55.8947 119.421 55.5822 118.937 55.0978 118.515C54.6187 118.088 53.9728 117.874 53.1603 117.874C52.4416 117.874 51.8114 118.062 51.2697 118.437C50.7332 118.806 50.314 119.33 50.0119 120.007C49.715 120.679 49.5666 121.468 49.5666 122.374C49.5666 123.301 49.7124 124.108 50.0041 124.796C50.3009 125.483 50.7176 126.017 51.2541 126.397C51.7957 126.778 52.4312 126.968 53.1603 126.968C53.6395 126.968 54.0744 126.884 54.465 126.718C54.8556 126.551 55.1864 126.312 55.4572 125.999C55.728 125.687 55.9207 125.312 56.0353 124.874H57.8791C57.7749 125.582 57.5171 126.22 57.1056 126.788C56.6994 127.351 56.1603 127.799 55.4884 128.132C54.8218 128.46 54.0457 128.624 53.1603 128.624ZM59.4744 128.374V116.374H61.3181V128.374H59.4744ZM60.4119 114.374C60.0525 114.374 59.7426 114.252 59.4822 114.007C59.227 113.762 59.0994 113.468 59.0994 113.124C59.0994 112.78 59.227 112.486 59.4822 112.241C59.7426 111.996 60.0525 111.874 60.4119 111.874C60.7713 111.874 61.0786 111.996 61.3338 112.241C61.5942 112.486 61.7244 112.78 61.7244 113.124C61.7244 113.468 61.5942 113.762 61.3338 114.007C61.0786 114.252 60.7713 114.374 60.4119 114.374ZM68.1263 128.624C67.1263 128.624 66.2435 128.371 65.4779 127.866C64.7123 127.356 64.1133 126.637 63.681 125.71C63.2487 124.778 63.0326 123.676 63.0326 122.405C63.0326 121.145 63.2487 120.051 63.681 119.124C64.1133 118.197 64.7149 117.481 65.4857 116.976C66.2565 116.47 67.1472 116.218 68.1576 116.218C68.9388 116.218 69.556 116.348 70.0091 116.608C70.4675 116.864 70.8164 117.155 71.056 117.483C71.3008 117.806 71.4909 118.072 71.6263 118.28H71.7826V112.374H73.6263V128.374H71.8451V126.53H71.6263C71.4909 126.749 71.2982 127.025 71.0482 127.358C70.7982 127.687 70.4414 127.981 69.9779 128.241C69.5144 128.496 68.8972 128.624 68.1263 128.624ZM68.3763 126.968C69.1159 126.968 69.7409 126.775 70.2513 126.39C70.7618 125.999 71.1498 125.46 71.4154 124.772C71.681 124.08 71.8138 123.28 71.8138 122.374C71.8138 121.478 71.6836 120.694 71.4232 120.022C71.1628 119.345 70.7774 118.819 70.267 118.444C69.7565 118.064 69.1263 117.874 68.3763 117.874C67.5951 117.874 66.944 118.075 66.4232 118.476C65.9076 118.871 65.5196 119.41 65.2591 120.093C65.0039 120.77 64.8763 121.53 64.8763 122.374C64.8763 123.228 65.0065 124.004 65.267 124.702C65.5326 125.395 65.9232 125.947 66.4388 126.358C66.9597 126.765 67.6055 126.968 68.3763 126.968ZM81.1904 128.624C80.0341 128.624 79.0368 128.369 78.1982 127.858C77.3649 127.343 76.7216 126.624 76.2685 125.702C75.8206 124.775 75.5966 123.697 75.5966 122.468C75.5966 121.239 75.8206 120.155 76.2685 119.218C76.7216 118.275 77.3519 117.541 78.1591 117.015C78.9716 116.483 79.9196 116.218 81.0029 116.218C81.6279 116.218 82.2451 116.322 82.8545 116.53C83.4638 116.739 84.0185 117.077 84.5185 117.546C85.0185 118.009 85.417 118.624 85.7138 119.39C86.0107 120.155 86.1591 121.098 86.1591 122.218V122.999H76.9091V121.405H84.2841C84.2841 120.728 84.1487 120.124 83.8779 119.593C83.6123 119.062 83.2321 118.642 82.7373 118.335C82.2477 118.028 81.6696 117.874 81.0029 117.874C80.2685 117.874 79.6331 118.056 79.0966 118.421C78.5654 118.78 78.1565 119.249 77.8701 119.827C77.5836 120.405 77.4404 121.025 77.4404 121.687V122.749C77.4404 123.655 77.5966 124.424 77.9091 125.054C78.2269 125.679 78.667 126.155 79.2295 126.483C79.792 126.806 80.4456 126.968 81.1904 126.968C81.6748 126.968 82.1123 126.9 82.5029 126.765C82.8987 126.624 83.2399 126.416 83.5263 126.14C83.8128 125.858 84.0341 125.509 84.1904 125.093L85.9717 125.593C85.7841 126.197 85.469 126.728 85.0263 127.187C84.5836 127.64 84.0368 127.994 83.3857 128.249C82.7347 128.499 82.0029 128.624 81.1904 128.624ZM95.6701 128.374L92.0138 116.374H93.9513L96.5451 125.562H96.6701L99.2326 116.374H101.201L103.733 125.53H103.858L106.451 116.374H108.389L104.733 128.374H102.92L100.295 119.155H100.108L97.4826 128.374H95.6701ZM111.57 121.155V128.374H109.726V112.374H111.57V118.249H111.726C112.008 117.629 112.429 117.137 112.992 116.772C113.56 116.403 114.315 116.218 115.258 116.218C116.075 116.218 116.791 116.382 117.406 116.71C118.021 117.033 118.497 117.53 118.836 118.202C119.179 118.869 119.351 119.718 119.351 120.749V128.374H117.508V120.874C117.508 119.921 117.26 119.184 116.765 118.663C116.276 118.137 115.596 117.874 114.726 117.874C114.122 117.874 113.581 118.002 113.101 118.257C112.627 118.512 112.252 118.884 111.976 119.374C111.706 119.864 111.57 120.457 111.57 121.155ZM126.656 128.624C125.499 128.624 124.502 128.369 123.663 127.858C122.83 127.343 122.187 126.624 121.734 125.702C121.286 124.775 121.062 123.697 121.062 122.468C121.062 121.239 121.286 120.155 121.734 119.218C122.187 118.275 122.817 117.541 123.624 117.015C124.437 116.483 125.385 116.218 126.468 116.218C127.093 116.218 127.71 116.322 128.32 116.53C128.929 116.739 129.484 117.077 129.984 117.546C130.484 118.009 130.882 118.624 131.179 119.39C131.476 120.155 131.624 121.098 131.624 122.218V122.999H122.374V121.405H129.749C129.749 120.728 129.614 120.124 129.343 119.593C129.078 119.062 128.697 118.642 128.203 118.335C127.713 118.028 127.135 117.874 126.468 117.874C125.734 117.874 125.098 118.056 124.562 118.421C124.031 118.78 123.622 119.249 123.335 119.827C123.049 120.405 122.906 121.025 122.906 121.687V122.749C122.906 123.655 123.062 124.424 123.374 125.054C123.692 125.679 124.132 126.155 124.695 126.483C125.257 126.806 125.911 126.968 126.656 126.968C127.14 126.968 127.578 126.9 127.968 126.765C128.364 126.624 128.705 126.416 128.992 126.14C129.278 125.858 129.499 125.509 129.656 125.093L131.437 125.593C131.249 126.197 130.934 126.728 130.492 127.187C130.049 127.64 129.502 127.994 128.851 128.249C128.2 128.499 127.468 128.624 126.656 128.624ZM135.173 121.155V128.374H133.329V116.374H135.11V118.249H135.267C135.548 117.64 135.975 117.15 136.548 116.78C137.121 116.405 137.86 116.218 138.767 116.218C139.579 116.218 140.29 116.384 140.899 116.718C141.509 117.046 141.983 117.546 142.321 118.218C142.66 118.884 142.829 119.728 142.829 120.749V128.374H140.985V120.874C140.985 119.931 140.741 119.197 140.251 118.671C139.761 118.14 139.089 117.874 138.235 117.874C137.647 117.874 137.121 118.002 136.657 118.257C136.199 118.512 135.837 118.884 135.571 119.374C135.306 119.864 135.173 120.457 135.173 121.155ZM23.0556 154.874C22.7431 154.874 22.4645 154.848 22.2197 154.796C21.9749 154.749 21.8056 154.702 21.7119 154.655L22.1806 153.03C22.6286 153.145 23.0244 153.187 23.3681 153.155C23.7119 153.124 24.0166 152.97 24.2822 152.694C24.553 152.424 24.8004 151.983 25.0244 151.374L25.3681 150.437L20.9306 138.374H22.9306L26.2431 147.937H26.3681L29.6806 138.374H31.6806L26.5869 152.124C26.3577 152.744 26.0739 153.257 25.7353 153.663C25.3968 154.075 25.0036 154.379 24.5556 154.577C24.1129 154.775 23.6129 154.874 23.0556 154.874ZM37.4595 150.624C36.3762 150.624 35.4257 150.366 34.608 149.851C33.7955 149.335 33.1601 148.614 32.7017 147.687C32.2486 146.759 32.022 145.676 32.022 144.437C32.022 143.187 32.2486 142.095 32.7017 141.163C33.1601 140.231 33.7955 139.507 34.608 138.991C35.4257 138.476 36.3762 138.218 37.4595 138.218C38.5429 138.218 39.4908 138.476 40.3033 138.991C41.121 139.507 41.7564 140.231 42.2095 141.163C42.6679 142.095 42.897 143.187 42.897 144.437C42.897 145.676 42.6679 146.759 42.2095 147.687C41.7564 148.614 41.121 149.335 40.3033 149.851C39.4908 150.366 38.5429 150.624 37.4595 150.624ZM37.4595 148.968C38.2825 148.968 38.9595 148.757 39.4908 148.335C40.022 147.913 40.4153 147.358 40.6705 146.671C40.9257 145.983 41.0533 145.239 41.0533 144.437C41.0533 143.634 40.9257 142.887 40.6705 142.194C40.4153 141.502 40.022 140.942 39.4908 140.515C38.9595 140.088 38.2825 139.874 37.4595 139.874C36.6366 139.874 35.9595 140.088 35.4283 140.515C34.897 140.942 34.5038 141.502 34.2486 142.194C33.9934 142.887 33.8658 143.634 33.8658 144.437C33.8658 145.239 33.9934 145.983 34.2486 146.671C34.5038 147.358 34.897 147.913 35.4283 148.335C35.9595 148.757 36.6366 148.968 37.4595 148.968ZM52.174 145.468V138.374H54.0177V150.374H52.174V148.343H52.049C51.7677 148.952 51.3302 149.47 50.7365 149.897C50.1427 150.319 49.3927 150.53 48.4865 150.53C47.7365 150.53 47.0698 150.366 46.4865 150.038C45.9032 149.705 45.4448 149.205 45.1115 148.538C44.7782 147.866 44.6115 147.02 44.6115 145.999V138.374H46.4552V145.874C46.4552 146.749 46.7 147.447 47.1896 147.968C47.6844 148.489 48.3146 148.749 49.0802 148.749C49.5386 148.749 50.0047 148.632 50.4787 148.397C50.9578 148.163 51.3589 147.804 51.6818 147.319C52.0099 146.835 52.174 146.218 52.174 145.468ZM61.3822 150.374V138.374H63.1634V140.187H63.2884C63.5072 139.593 63.903 139.111 64.4759 138.741C65.0489 138.371 65.6947 138.187 66.4134 138.187C66.5489 138.187 66.7181 138.189 66.9213 138.194C67.1244 138.2 67.278 138.207 67.3822 138.218V140.093C67.3197 140.077 67.1765 140.054 66.9525 140.022C66.7338 139.986 66.502 139.968 66.2572 139.968C65.6739 139.968 65.153 140.09 64.6947 140.335C64.2416 140.575 63.8822 140.908 63.6166 141.335C63.3562 141.757 63.2259 142.239 63.2259 142.78V150.374H61.3822ZM73.1338 150.624C71.9775 150.624 70.9801 150.369 70.1416 149.858C69.3082 149.343 68.665 148.624 68.2119 147.702C67.764 146.775 67.54 145.697 67.54 144.468C67.54 143.239 67.764 142.155 68.2119 141.218C68.665 140.275 69.2952 139.541 70.1025 139.015C70.915 138.483 71.8629 138.218 72.9463 138.218C73.5713 138.218 74.1884 138.322 74.7978 138.53C75.4072 138.739 75.9619 139.077 76.4619 139.546C76.9619 140.009 77.3603 140.624 77.6572 141.39C77.9541 142.155 78.1025 143.098 78.1025 144.218V144.999H68.8525V143.405H76.2275C76.2275 142.728 76.0921 142.124 75.8213 141.593C75.5556 141.062 75.1754 140.642 74.6806 140.335C74.1911 140.028 73.6129 139.874 72.9463 139.874C72.2119 139.874 71.5765 140.056 71.04 140.421C70.5088 140.78 70.0999 141.249 69.8134 141.827C69.527 142.405 69.3838 143.025 69.3838 143.687V144.749C69.3838 145.655 69.54 146.424 69.8525 147.054C70.1702 147.679 70.6103 148.155 71.1728 148.483C71.7353 148.806 72.389 148.968 73.1338 148.968C73.6181 148.968 74.0556 148.9 74.4463 148.765C74.8421 148.624 75.1832 148.416 75.4697 148.14C75.7562 147.858 75.9775 147.509 76.1338 147.093L77.915 147.593C77.7275 148.197 77.4124 148.728 76.9697 149.187C76.527 149.64 75.9801 149.994 75.3291 150.249C74.678 150.499 73.9463 150.624 73.1338 150.624ZM84.6822 150.624C83.5572 150.624 82.5884 150.358 81.7759 149.827C80.9634 149.296 80.3384 148.564 79.9009 147.632C79.4634 146.7 79.2447 145.634 79.2447 144.437C79.2447 143.218 79.4687 142.142 79.9166 141.21C80.3697 140.272 80.9999 139.541 81.8072 139.015C82.6197 138.483 83.5676 138.218 84.6509 138.218C85.4947 138.218 86.2551 138.374 86.9322 138.687C87.6093 138.999 88.164 139.437 88.5963 139.999C89.0286 140.562 89.2968 141.218 89.4009 141.968H87.5572C87.4166 141.421 87.1041 140.937 86.6197 140.515C86.1405 140.088 85.4947 139.874 84.6822 139.874C83.9634 139.874 83.3332 140.062 82.7916 140.437C82.2551 140.806 81.8358 141.33 81.5338 142.007C81.2369 142.679 81.0884 143.468 81.0884 144.374C81.0884 145.301 81.2343 146.108 81.5259 146.796C81.8228 147.483 82.2395 148.017 82.7759 148.397C83.3176 148.778 83.953 148.968 84.6822 148.968C85.1614 148.968 85.5963 148.884 85.9869 148.718C86.3775 148.551 86.7082 148.312 86.9791 147.999C87.2499 147.687 87.4426 147.312 87.5572 146.874H89.4009C89.2968 147.582 89.039 148.22 88.6275 148.788C88.2213 149.351 87.6822 149.799 87.0103 150.132C86.3437 150.46 85.5676 150.624 84.6822 150.624ZM96.0275 150.624C94.8713 150.624 93.8739 150.369 93.0353 149.858C92.202 149.343 91.5588 148.624 91.1056 147.702C90.6577 146.775 90.4338 145.697 90.4338 144.468C90.4338 143.239 90.6577 142.155 91.1056 141.218C91.5588 140.275 92.189 139.541 92.9963 139.015C93.8088 138.483 94.7567 138.218 95.84 138.218C96.465 138.218 97.0822 138.322 97.6916 138.53C98.3009 138.739 98.8556 139.077 99.3556 139.546C99.8556 140.009 100.254 140.624 100.551 141.39C100.848 142.155 100.996 143.098 100.996 144.218V144.999H91.7463V143.405H99.1213C99.1213 142.728 98.9858 142.124 98.715 141.593C98.4494 141.062 98.0692 140.642 97.5744 140.335C97.0848 140.028 96.5067 139.874 95.84 139.874C95.1056 139.874 94.4702 140.056 93.9338 140.421C93.4025 140.78 92.9937 141.249 92.7072 141.827C92.4207 142.405 92.2775 143.025 92.2775 143.687V144.749C92.2775 145.655 92.4338 146.424 92.7463 147.054C93.064 147.679 93.5041 148.155 94.0666 148.483C94.6291 148.806 95.2827 148.968 96.0275 148.968C96.5119 148.968 96.9494 148.9 97.34 148.765C97.7358 148.624 98.077 148.416 98.3634 148.14C98.6499 147.858 98.8713 147.509 99.0275 147.093L100.809 147.593C100.621 148.197 100.306 148.728 99.8634 149.187C99.4207 149.64 98.8739 149.994 98.2228 150.249C97.5718 150.499 96.84 150.624 96.0275 150.624ZM102.701 150.374V138.374H104.545V150.374H102.701ZM103.638 136.374C103.279 136.374 102.969 136.252 102.709 136.007C102.454 135.762 102.326 135.468 102.326 135.124C102.326 134.78 102.454 134.486 102.709 134.241C102.969 133.996 103.279 133.874 103.638 133.874C103.998 133.874 104.305 133.996 104.56 134.241C104.821 134.486 104.951 134.78 104.951 135.124C104.951 135.468 104.821 135.762 104.56 136.007C104.305 136.252 103.998 136.374 103.638 136.374ZM116.634 138.374L112.197 150.374H110.322L105.884 138.374H107.884L111.197 147.937H111.322L114.634 138.374H116.634ZM122.569 150.624C121.413 150.624 120.416 150.369 119.577 149.858C118.744 149.343 118.101 148.624 117.647 147.702C117.2 146.775 116.976 145.697 116.976 144.468C116.976 143.239 117.2 142.155 117.647 141.218C118.101 140.275 118.731 139.541 119.538 139.015C120.351 138.483 121.298 138.218 122.382 138.218C123.007 138.218 123.624 138.322 124.233 138.53C124.843 138.739 125.397 139.077 125.897 139.546C126.397 140.009 126.796 140.624 127.093 141.39C127.39 142.155 127.538 143.098 127.538 144.218V144.999H118.288V143.405H125.663C125.663 142.728 125.528 142.124 125.257 141.593C124.991 141.062 124.611 140.642 124.116 140.335C123.627 140.028 123.048 139.874 122.382 139.874C121.647 139.874 121.012 140.056 120.476 140.421C119.944 140.78 119.535 141.249 119.249 141.827C118.963 142.405 118.819 143.025 118.819 143.687V144.749C118.819 145.655 118.976 146.424 119.288 147.054C119.606 147.679 120.046 148.155 120.608 148.483C121.171 148.806 121.825 148.968 122.569 148.968C123.054 148.968 123.491 148.9 123.882 148.765C124.278 148.624 124.619 148.416 124.905 148.14C125.192 147.858 125.413 147.509 125.569 147.093L127.351 147.593C127.163 148.197 126.848 148.728 126.405 149.187C125.963 149.64 125.416 149.994 124.765 150.249C124.114 150.499 123.382 150.624 122.569 150.624Z" fill="#FAFAFA"/>
<path d="M109.414 75.9511C110.195 75.17 110.195 73.9037 109.414 73.1226C108.633 72.3416 107.367 72.3416 106.586 73.1226L109.414 75.9511ZM91.6477 85.3266L92.3934 87.1824L92.3934 87.1824L91.6477 85.3266ZM72.2225 88.9112L72.2524 86.9114L72.2225 88.9112ZM52.6816 84.745L53.4662 82.9053L52.6816 84.745ZM106.586 73.1226C102.12 77.588 96.7916 81.1045 90.9021 83.4708L92.3934 87.1824C98.7813 84.6159 104.565 80.7998 109.414 75.9511L106.586 73.1226ZM90.9021 83.4708C85.0125 85.8371 78.6756 87.0073 72.2524 86.9114L72.1927 90.911C79.141 91.0147 86.0056 89.7488 92.3934 87.1824L90.9021 83.4708ZM72.2524 86.9114C65.8289 86.8156 59.4451 85.4553 53.4662 82.9053L51.897 86.5847C58.3483 89.3362 65.2445 90.8073 72.1927 90.911L72.2524 86.9114ZM53.4662 82.9053C47.4873 80.3553 42.0324 76.6662 37.4142 72.048L34.5857 74.8764C39.5638 79.8545 45.4458 83.8332 51.897 86.5847L53.4662 82.9053Z" fill="#FAFAFA"/>
<path d="M36 73.4627C31.2725 68.7351 27.5084 63.1365 24.9229 56.9867C22.3373 50.8368 20.9809 44.256 20.931 37.6201C20.8811 30.9841 22.1387 24.423 24.6321 18.3113C27.1254 12.1996 30.8057 6.65703 35.4627 2" stroke="#FAFAFA" stroke-width="4" stroke-dasharray="4 11"/>
<path d="M95.2538 40.4084C95.2538 27.1152 84.4776 16.3389 71.1843 16.3389C57.8911 16.3389 47.1148 27.1152 47.1148 40.4084C47.1148 53.7016 57.8911 64.4779 71.1843 64.4779" stroke="white" stroke-width="4" stroke-linecap="round" stroke-linejoin="round"/>
<path d="M70.6722 28.6304V41.4208L62.4783 45.0181" stroke="white" stroke-width="4" stroke-linecap="round" stroke-linejoin="round"/>
<circle cx="82.4509" cy="51.6755" r="7.73023" stroke="white" stroke-width="4"/>
<path d="M88.5963 57.3086L95.2538 62.9419" stroke="white" stroke-width="4" stroke-linecap="round" stroke-linejoin="round"/>
</svg>
