<svg width="1354" height="227" viewBox="0 0 1354 227" fill="none" xmlns="http://www.w3.org/2000/svg">
<g clip-path="url(#clip0_233_5868)">
<rect width="1279.93" height="226" fill="#FFE8CD"/>
<mask id="mask0_233_5868" style="mask-type:alpha" maskUnits="userSpaceOnUse" x="0" y="0" width="88" height="63">
<rect width="87.8184" height="62.3386" fill="#F2994A"/>
</mask>
<g mask="url(#mask0_233_5868)">
<ellipse cx="23.5137" cy="10.2759" rx="52.5527" ry="52.063" fill="#FFCE96"/>
</g>
<mask id="mask1_233_5868" style="mask-type:alpha" maskUnits="userSpaceOnUse" x="1192" y="163" width="88" height="64">
<rect width="87.8184" height="62.3386" transform="matrix(-0.999999 -0.00113206 0.00115346 -0.999999 1279.93 226.438)" fill="#D9D9D9"/>
</mask>
<g mask="url(#mask1_233_5868)">
<ellipse cx="52.5527" cy="52.063" rx="52.5527" ry="52.063" transform="matrix(-0.999999 -0.00113206 0.00115346 -0.999999 1308.93 268.258)" fill="#FFCE96"/>
</g>
<circle cx="115" cy="129" r="15.6285" fill="#FAAC55" stroke="#FAAC55" stroke-width="0.743094"/>
<path d="M143.841 122.248V125.464H148.161V127.504H143.841V130.905H148.712V133H141.268V120.152H148.712V122.248H143.841ZM163.696 122.67C164.946 122.67 165.951 123.056 166.71 123.828C167.482 124.588 167.868 125.654 167.868 127.026V133H165.295V127.376C165.295 126.579 165.093 125.973 164.689 125.556C164.284 125.127 163.733 124.913 163.034 124.913C162.336 124.913 161.778 125.127 161.362 125.556C160.957 125.973 160.755 126.579 160.755 127.376V133H158.182V127.376C158.182 126.579 157.98 125.973 157.575 125.556C157.171 125.127 156.62 124.913 155.921 124.913C155.211 124.913 154.647 125.127 154.23 125.556C153.826 125.973 153.624 126.579 153.624 127.376V133H151.051V122.817H153.624V124.049C153.955 123.62 154.377 123.283 154.892 123.038C155.419 122.793 155.995 122.67 156.62 122.67C157.416 122.67 158.127 122.842 158.752 123.185C159.377 123.516 159.861 123.994 160.204 124.619C160.535 124.031 161.013 123.559 161.637 123.203C162.275 122.848 162.961 122.67 163.696 122.67ZM169.648 127.872C169.648 126.843 169.851 125.93 170.255 125.133C170.672 124.337 171.229 123.724 171.927 123.295C172.638 122.866 173.429 122.652 174.299 122.652C175.058 122.652 175.72 122.805 176.284 123.112C176.859 123.418 177.319 123.804 177.662 124.269V122.817H180.254V133H177.662V131.511C177.331 131.989 176.872 132.387 176.284 132.706C175.708 133.012 175.04 133.165 174.28 133.165C173.422 133.165 172.638 132.945 171.927 132.504C171.229 132.063 170.672 131.444 170.255 130.647C169.851 129.839 169.648 128.914 169.648 127.872ZM177.662 127.909C177.662 127.284 177.54 126.751 177.294 126.31C177.049 125.856 176.719 125.513 176.302 125.28C175.885 125.035 175.438 124.913 174.96 124.913C174.482 124.913 174.041 125.029 173.637 125.262C173.232 125.495 172.902 125.838 172.644 126.291C172.399 126.732 172.277 127.259 172.277 127.872C172.277 128.485 172.399 129.024 172.644 129.489C172.902 129.943 173.232 130.292 173.637 130.537C174.053 130.782 174.495 130.905 174.96 130.905C175.438 130.905 175.885 130.788 176.302 130.555C176.719 130.31 177.049 129.967 177.294 129.526C177.54 129.073 177.662 128.534 177.662 127.909ZM184.072 121.604C183.618 121.604 183.239 121.463 182.932 121.182C182.638 120.888 182.491 120.526 182.491 120.097C182.491 119.668 182.638 119.313 182.932 119.031C183.239 118.737 183.618 118.59 184.072 118.59C184.525 118.59 184.899 118.737 185.193 119.031C185.499 119.313 185.652 119.668 185.652 120.097C185.652 120.526 185.499 120.888 185.193 121.182C184.899 121.463 184.525 121.604 184.072 121.604ZM185.34 122.817V133H182.767V122.817H185.34ZM190.456 119.399V133H187.882V119.399H190.456Z" fill="#4F4F4F"/>
<path d="M147.91 148.242L144.732 154.318V158H143.458V154.318L140.266 148.242H141.68L144.088 153.184L146.496 148.242H147.91ZM152.6 158.126C151.881 158.126 151.228 157.963 150.64 157.636C150.061 157.309 149.604 156.847 149.268 156.25C148.941 155.643 148.778 154.943 148.778 154.15C148.778 153.366 148.946 152.675 149.282 152.078C149.627 151.471 150.094 151.009 150.682 150.692C151.27 150.365 151.928 150.202 152.656 150.202C153.384 150.202 154.042 150.365 154.63 150.692C155.218 151.009 155.68 151.467 156.016 152.064C156.361 152.661 156.534 153.357 156.534 154.15C156.534 154.943 156.356 155.643 156.002 156.25C155.656 156.847 155.185 157.309 154.588 157.636C153.99 157.963 153.328 158.126 152.6 158.126ZM152.6 157.006C153.057 157.006 153.486 156.899 153.888 156.684C154.289 156.469 154.611 156.147 154.854 155.718C155.106 155.289 155.232 154.766 155.232 154.15C155.232 153.534 155.11 153.011 154.868 152.582C154.625 152.153 154.308 151.835 153.916 151.63C153.524 151.415 153.099 151.308 152.642 151.308C152.175 151.308 151.746 151.415 151.354 151.63C150.971 151.835 150.663 152.153 150.43 152.582C150.196 153.011 150.08 153.534 150.08 154.15C150.08 154.775 150.192 155.303 150.416 155.732C150.649 156.161 150.957 156.483 151.34 156.698C151.722 156.903 152.142 157.006 152.6 157.006ZM165.013 150.328V158H163.739V156.866C163.496 157.258 163.156 157.566 162.717 157.79C162.288 158.005 161.812 158.112 161.289 158.112C160.692 158.112 160.155 157.991 159.679 157.748C159.203 157.496 158.825 157.123 158.545 156.628C158.274 156.133 158.139 155.531 158.139 154.822V150.328H159.399V154.654C159.399 155.41 159.59 155.993 159.973 156.404C160.356 156.805 160.878 157.006 161.541 157.006C162.222 157.006 162.759 156.796 163.151 156.376C163.543 155.956 163.739 155.345 163.739 154.542V150.328H165.013ZM181.116 150.328L178.722 158H177.406L175.558 151.91L173.71 158H172.394L169.986 150.328H171.288L173.052 156.768L174.956 150.328H176.258L178.12 156.782L179.856 150.328H181.116ZM183.039 149.082C182.796 149.082 182.591 148.998 182.423 148.83C182.255 148.662 182.171 148.457 182.171 148.214C182.171 147.971 182.255 147.766 182.423 147.598C182.591 147.43 182.796 147.346 183.039 147.346C183.272 147.346 183.468 147.43 183.627 147.598C183.795 147.766 183.879 147.971 183.879 148.214C183.879 148.457 183.795 148.662 183.627 148.83C183.468 148.998 183.272 149.082 183.039 149.082ZM183.655 150.328V158H182.381V150.328H183.655ZM187.1 147.64V158H185.826V147.64H187.1ZM190.545 147.64V158H189.271V147.64H190.545ZM197.723 151.574C197.947 151.135 198.264 150.795 198.675 150.552C199.095 150.309 199.604 150.188 200.201 150.188V151.504H199.865C198.437 151.504 197.723 152.279 197.723 153.828V158H196.449V150.328H197.723V151.574ZM208.672 153.87C208.672 154.113 208.658 154.369 208.63 154.64H202.498C202.544 155.396 202.801 155.989 203.268 156.418C203.744 156.838 204.318 157.048 204.99 157.048C205.54 157.048 205.998 156.922 206.362 156.67C206.735 156.409 206.996 156.063 207.146 155.634H208.518C208.312 156.371 207.902 156.973 207.286 157.44C206.67 157.897 205.904 158.126 204.99 158.126C204.262 158.126 203.608 157.963 203.03 157.636C202.46 157.309 202.012 156.847 201.686 156.25C201.359 155.643 201.196 154.943 201.196 154.15C201.196 153.357 201.354 152.661 201.672 152.064C201.989 151.467 202.432 151.009 203.002 150.692C203.58 150.365 204.243 150.202 204.99 150.202C205.718 150.202 206.362 150.361 206.922 150.678C207.482 150.995 207.911 151.434 208.21 151.994C208.518 152.545 208.672 153.17 208.672 153.87ZM207.356 153.604C207.356 153.119 207.248 152.703 207.034 152.358C206.819 152.003 206.525 151.737 206.152 151.56C205.788 151.373 205.382 151.28 204.934 151.28C204.29 151.28 203.739 151.485 203.282 151.896C202.834 152.307 202.577 152.876 202.512 153.604H207.356ZM209.877 154.15C209.877 153.357 210.036 152.666 210.353 152.078C210.671 151.481 211.109 151.019 211.669 150.692C212.239 150.365 212.887 150.202 213.615 150.202C214.558 150.202 215.333 150.431 215.939 150.888C216.555 151.345 216.961 151.98 217.157 152.792H215.785C215.655 152.325 215.398 151.957 215.015 151.686C214.642 151.415 214.175 151.28 213.615 151.28C212.887 151.28 212.299 151.532 211.851 152.036C211.403 152.531 211.179 153.235 211.179 154.15C211.179 155.074 211.403 155.788 211.851 156.292C212.299 156.796 212.887 157.048 213.615 157.048C214.175 157.048 214.642 156.917 215.015 156.656C215.389 156.395 215.645 156.021 215.785 155.536H217.157C216.952 156.32 216.541 156.95 215.925 157.426C215.309 157.893 214.539 158.126 213.615 158.126C212.887 158.126 212.239 157.963 211.669 157.636C211.109 157.309 210.671 156.847 210.353 156.25C210.036 155.653 209.877 154.953 209.877 154.15ZM225.857 153.87C225.857 154.113 225.843 154.369 225.815 154.64H219.683C219.73 155.396 219.987 155.989 220.453 156.418C220.929 156.838 221.503 157.048 222.175 157.048C222.726 157.048 223.183 156.922 223.547 156.67C223.921 156.409 224.182 156.063 224.331 155.634H225.703C225.498 156.371 225.087 156.973 224.471 157.44C223.855 157.897 223.09 158.126 222.175 158.126C221.447 158.126 220.794 157.963 220.215 157.636C219.646 157.309 219.198 156.847 218.871 156.25C218.545 155.643 218.381 154.943 218.381 154.15C218.381 153.357 218.54 152.661 218.857 152.064C219.175 151.467 219.618 151.009 220.187 150.692C220.766 150.365 221.429 150.202 222.175 150.202C222.903 150.202 223.547 150.361 224.107 150.678C224.667 150.995 225.097 151.434 225.395 151.994C225.703 152.545 225.857 153.17 225.857 153.87ZM224.541 153.604C224.541 153.119 224.434 152.703 224.219 152.358C224.005 152.003 223.711 151.737 223.337 151.56C222.973 151.373 222.567 151.28 222.119 151.28C221.475 151.28 220.925 151.485 220.467 151.896C220.019 152.307 219.763 152.876 219.697 153.604H224.541ZM228.197 149.082C227.954 149.082 227.749 148.998 227.581 148.83C227.413 148.662 227.329 148.457 227.329 148.214C227.329 147.971 227.413 147.766 227.581 147.598C227.749 147.43 227.954 147.346 228.197 147.346C228.43 147.346 228.626 147.43 228.785 147.598C228.953 147.766 229.037 147.971 229.037 148.214C229.037 148.457 228.953 148.662 228.785 148.83C228.626 148.998 228.43 149.082 228.197 149.082ZM228.813 150.328V158H227.539V150.328H228.813ZM233.84 156.824L236.22 150.328H237.578L234.568 158H233.084L230.074 150.328H231.446L233.84 156.824ZM245.832 153.87C245.832 154.113 245.818 154.369 245.79 154.64H239.658C239.705 155.396 239.961 155.989 240.428 156.418C240.904 156.838 241.478 157.048 242.15 157.048C242.701 157.048 243.158 156.922 243.522 156.67C243.895 156.409 244.157 156.063 244.306 155.634H245.678C245.473 156.371 245.062 156.973 244.446 157.44C243.83 157.897 243.065 158.126 242.15 158.126C241.422 158.126 240.769 157.963 240.19 157.636C239.621 157.309 239.173 156.847 238.846 156.25C238.519 155.643 238.356 154.943 238.356 154.15C238.356 153.357 238.515 152.661 238.832 152.064C239.149 151.467 239.593 151.009 240.162 150.692C240.741 150.365 241.403 150.202 242.15 150.202C242.878 150.202 243.522 150.361 244.082 150.678C244.642 150.995 245.071 151.434 245.37 151.994C245.678 152.545 245.832 153.17 245.832 153.87ZM244.516 153.604C244.516 153.119 244.409 152.703 244.194 152.358C243.979 152.003 243.685 151.737 243.312 151.56C242.948 151.373 242.542 151.28 242.094 151.28C241.45 151.28 240.899 151.485 240.442 151.896C239.994 152.307 239.737 152.876 239.672 153.604H244.516ZM250.77 154.136C250.77 153.352 250.929 152.666 251.246 152.078C251.563 151.481 251.997 151.019 252.548 150.692C253.108 150.365 253.729 150.202 254.41 150.202C255.082 150.202 255.665 150.347 256.16 150.636C256.655 150.925 257.023 151.289 257.266 151.728V150.328H258.554V158H257.266V156.572C257.014 157.02 256.636 157.393 256.132 157.692C255.637 157.981 255.059 158.126 254.396 158.126C253.715 158.126 253.099 157.958 252.548 157.622C251.997 157.286 251.563 156.815 251.246 156.208C250.929 155.601 250.77 154.911 250.77 154.136ZM257.266 154.15C257.266 153.571 257.149 153.067 256.916 152.638C256.683 152.209 256.365 151.882 255.964 151.658C255.572 151.425 255.138 151.308 254.662 151.308C254.186 151.308 253.752 151.42 253.36 151.644C252.968 151.868 252.655 152.195 252.422 152.624C252.189 153.053 252.072 153.557 252.072 154.136C252.072 154.724 252.189 155.237 252.422 155.676C252.655 156.105 252.968 156.437 253.36 156.67C253.752 156.894 254.186 157.006 254.662 157.006C255.138 157.006 255.572 156.894 255.964 156.67C256.365 156.437 256.683 156.105 256.916 155.676C257.149 155.237 257.266 154.729 257.266 154.15ZM265.713 151.574C265.937 151.135 266.255 150.795 266.665 150.552C267.085 150.309 267.594 150.188 268.191 150.188V151.504H267.855C266.427 151.504 265.713 152.279 265.713 153.828V158H264.439V150.328H265.713V151.574ZM276.662 153.87C276.662 154.113 276.648 154.369 276.62 154.64H270.488C270.535 155.396 270.791 155.989 271.258 156.418C271.734 156.838 272.308 157.048 272.98 157.048C273.531 157.048 273.988 156.922 274.352 156.67C274.725 156.409 274.987 156.063 275.136 155.634H276.508C276.303 156.371 275.892 156.973 275.276 157.44C274.66 157.897 273.895 158.126 272.98 158.126C272.252 158.126 271.599 157.963 271.02 157.636C270.451 157.309 270.003 156.847 269.676 156.25C269.349 155.643 269.186 154.943 269.186 154.15C269.186 153.357 269.345 152.661 269.662 152.064C269.979 151.467 270.423 151.009 270.992 150.692C271.571 150.365 272.233 150.202 272.98 150.202C273.708 150.202 274.352 150.361 274.912 150.678C275.472 150.995 275.901 151.434 276.2 151.994C276.508 152.545 276.662 153.17 276.662 153.87ZM275.346 153.604C275.346 153.119 275.239 152.703 275.024 152.358C274.809 152.003 274.515 151.737 274.142 151.56C273.778 151.373 273.372 151.28 272.924 151.28C272.28 151.28 271.729 151.485 271.272 151.896C270.824 152.307 270.567 152.876 270.502 153.604H275.346ZM279.618 147.64V158H278.344V147.64H279.618ZM283.063 151.742C283.315 151.303 283.688 150.939 284.183 150.65C284.687 150.351 285.27 150.202 285.933 150.202C286.614 150.202 287.23 150.365 287.781 150.692C288.341 151.019 288.78 151.481 289.097 152.078C289.414 152.666 289.573 153.352 289.573 154.136C289.573 154.911 289.414 155.601 289.097 156.208C288.78 156.815 288.341 157.286 287.781 157.622C287.23 157.958 286.614 158.126 285.933 158.126C285.28 158.126 284.701 157.981 284.197 157.692C283.702 157.393 283.324 157.025 283.063 156.586V161.64H281.789V150.328H283.063V151.742ZM288.271 154.136C288.271 153.557 288.154 153.053 287.921 152.624C287.688 152.195 287.37 151.868 286.969 151.644C286.577 151.42 286.143 151.308 285.667 151.308C285.2 151.308 284.766 151.425 284.365 151.658C283.973 151.882 283.656 152.213 283.413 152.652C283.18 153.081 283.063 153.581 283.063 154.15C283.063 154.729 283.18 155.237 283.413 155.676C283.656 156.105 283.973 156.437 284.365 156.67C284.766 156.894 285.2 157.006 285.667 157.006C286.143 157.006 286.577 156.894 286.969 156.67C287.37 156.437 287.688 156.105 287.921 155.676C288.154 155.237 288.271 154.724 288.271 154.136ZM297.858 150.328L293.238 161.612H291.922L293.434 157.916L290.34 150.328H291.754L294.162 156.544L296.542 150.328H297.858ZM303.529 149.082C303.286 149.082 303.081 148.998 302.913 148.83C302.745 148.662 302.661 148.457 302.661 148.214C302.661 147.971 302.745 147.766 302.913 147.598C303.081 147.43 303.286 147.346 303.529 147.346C303.762 147.346 303.958 147.43 304.117 147.598C304.285 147.766 304.369 147.971 304.369 148.214C304.369 148.457 304.285 148.662 304.117 148.83C303.958 148.998 303.762 149.082 303.529 149.082ZM304.145 150.328V158H302.871V150.328H304.145ZM310.054 150.188C310.988 150.188 311.744 150.473 312.322 151.042C312.901 151.602 313.19 152.414 313.19 153.478V158H311.93V153.66C311.93 152.895 311.739 152.311 311.356 151.91C310.974 151.499 310.451 151.294 309.788 151.294C309.116 151.294 308.58 151.504 308.178 151.924C307.786 152.344 307.59 152.955 307.59 153.758V158H306.316V150.328H307.59V151.42C307.842 151.028 308.183 150.725 308.612 150.51C309.051 150.295 309.532 150.188 310.054 150.188ZM318.64 156.978C319.825 156.026 320.754 155.247 321.426 154.64C322.098 154.024 322.662 153.385 323.12 152.722C323.586 152.05 323.82 151.392 323.82 150.748C323.82 150.141 323.67 149.665 323.372 149.32C323.082 148.965 322.611 148.788 321.958 148.788C321.323 148.788 320.828 148.989 320.474 149.39C320.128 149.782 319.942 150.309 319.914 150.972H318.682C318.719 149.927 319.036 149.119 319.634 148.55C320.231 147.981 321.001 147.696 321.944 147.696C322.905 147.696 323.666 147.962 324.226 148.494C324.795 149.026 325.08 149.759 325.08 150.692C325.08 151.467 324.846 152.223 324.38 152.96C323.922 153.688 323.4 154.332 322.812 154.892C322.224 155.443 321.472 156.087 320.558 156.824H325.374V157.888H318.64V156.978ZM326.539 155.746V154.78L331.453 147.976H332.979V154.64H334.379V155.746H332.979V158H331.719V155.746H326.539ZM331.775 149.306L328.009 154.64H331.775V149.306ZM343.402 150.188C343.98 150.188 344.503 150.314 344.97 150.566C345.436 150.809 345.8 151.177 346.062 151.672C346.332 152.167 346.468 152.769 346.468 153.478V158H345.208V153.66C345.208 152.895 345.016 152.311 344.634 151.91C344.251 151.499 343.728 151.294 343.066 151.294C342.394 151.294 341.857 151.504 341.456 151.924C341.064 152.344 340.868 152.955 340.868 153.758V158H339.594V147.64H340.868V151.42C341.12 151.028 341.465 150.725 341.904 150.51C342.352 150.295 342.851 150.188 343.402 150.188ZM351.895 158.126C351.176 158.126 350.523 157.963 349.935 157.636C349.356 157.309 348.899 156.847 348.563 156.25C348.236 155.643 348.073 154.943 348.073 154.15C348.073 153.366 348.241 152.675 348.577 152.078C348.922 151.471 349.389 151.009 349.977 150.692C350.565 150.365 351.223 150.202 351.951 150.202C352.679 150.202 353.337 150.365 353.925 150.692C354.513 151.009 354.975 151.467 355.311 152.064C355.656 152.661 355.829 153.357 355.829 154.15C355.829 154.943 355.651 155.643 355.297 156.25C354.951 156.847 354.48 157.309 353.883 157.636C353.285 157.963 352.623 158.126 351.895 158.126ZM351.895 157.006C352.352 157.006 352.781 156.899 353.183 156.684C353.584 156.469 353.906 156.147 354.149 155.718C354.401 155.289 354.527 154.766 354.527 154.15C354.527 153.534 354.405 153.011 354.163 152.582C353.92 152.153 353.603 151.835 353.211 151.63C352.819 151.415 352.394 151.308 351.937 151.308C351.47 151.308 351.041 151.415 350.649 151.63C350.266 151.835 349.958 152.153 349.725 152.582C349.491 153.011 349.375 153.534 349.375 154.15C349.375 154.775 349.487 155.303 349.711 155.732C349.944 156.161 350.252 156.483 350.635 156.698C351.017 156.903 351.437 157.006 351.895 157.006ZM364.308 150.328V158H363.034V156.866C362.791 157.258 362.45 157.566 362.012 157.79C361.582 158.005 361.106 158.112 360.584 158.112C359.986 158.112 359.45 157.991 358.974 157.748C358.498 157.496 358.12 157.123 357.84 156.628C357.569 156.133 357.434 155.531 357.434 154.822V150.328H358.694V154.654C358.694 155.41 358.885 155.993 359.268 156.404C359.65 156.805 360.173 157.006 360.836 157.006C361.517 157.006 362.054 156.796 362.446 156.376C362.838 155.956 363.034 155.345 363.034 154.542V150.328H364.308ZM367.733 151.574C367.957 151.135 368.274 150.795 368.685 150.552C369.105 150.309 369.614 150.188 370.211 150.188V151.504H369.875C368.447 151.504 367.733 152.279 367.733 153.828V158H366.459V150.328H367.733V151.574ZM374.398 158.126C373.81 158.126 373.282 158.028 372.816 157.832C372.349 157.627 371.98 157.347 371.71 156.992C371.439 156.628 371.29 156.213 371.262 155.746H372.578C372.615 156.129 372.792 156.441 373.11 156.684C373.436 156.927 373.861 157.048 374.384 157.048C374.869 157.048 375.252 156.941 375.532 156.726C375.812 156.511 375.952 156.241 375.952 155.914C375.952 155.578 375.802 155.331 375.504 155.172C375.205 155.004 374.743 154.841 374.118 154.682C373.548 154.533 373.082 154.383 372.718 154.234C372.363 154.075 372.055 153.847 371.794 153.548C371.542 153.24 371.416 152.839 371.416 152.344C371.416 151.952 371.532 151.593 371.766 151.266C371.999 150.939 372.33 150.683 372.76 150.496C373.189 150.3 373.679 150.202 374.23 150.202C375.079 150.202 375.765 150.417 376.288 150.846C376.81 151.275 377.09 151.863 377.128 152.61H375.854C375.826 152.209 375.662 151.887 375.364 151.644C375.074 151.401 374.682 151.28 374.188 151.28C373.73 151.28 373.366 151.378 373.096 151.574C372.825 151.77 372.69 152.027 372.69 152.344C372.69 152.596 372.769 152.806 372.928 152.974C373.096 153.133 373.301 153.263 373.544 153.366C373.796 153.459 374.141 153.567 374.58 153.688C375.13 153.837 375.578 153.987 375.924 154.136C376.269 154.276 376.563 154.491 376.806 154.78C377.058 155.069 377.188 155.447 377.198 155.914C377.198 156.334 377.081 156.712 376.848 157.048C376.614 157.384 376.283 157.65 375.854 157.846C375.434 158.033 374.948 158.126 374.398 158.126ZM380.648 148.242L380.494 155.242H379.43L379.276 148.242H380.648ZM380.018 158.084C379.775 158.084 379.57 158 379.402 157.832C379.234 157.664 379.15 157.459 379.15 157.216C379.15 156.973 379.234 156.768 379.402 156.6C379.57 156.432 379.775 156.348 380.018 156.348C380.251 156.348 380.447 156.432 380.606 156.6C380.774 156.768 380.858 156.973 380.858 157.216C380.858 157.459 380.774 157.664 380.606 157.832C380.447 158 380.251 158.084 380.018 158.084Z" fill="#4F4F4F"/>
<path d="M108.289 123.904C110.183 125.632 113.506 128.671 114.483 129.618C114.614 129.746 114.755 129.811 114.901 129.811C115.047 129.811 115.187 129.747 115.318 129.62C116.296 128.671 119.619 125.632 121.513 123.904C121.631 123.797 121.649 123.608 121.553 123.477C121.333 123.174 121.003 123 120.651 123H109.151C108.799 123 108.469 123.174 108.249 123.477C108.153 123.608 108.171 123.797 108.289 123.904Z" fill="white"/>
<path d="M121.631 124.841C121.529 124.789 121.409 124.807 121.324 124.885C120.084 126.018 118.45 127.514 117.217 128.655C117.152 128.715 117.116 128.803 117.117 128.896C117.119 128.987 117.158 129.074 117.225 129.132C118.37 130.119 120.096 131.478 121.342 132.444C121.392 132.483 121.451 132.502 121.51 132.502C121.555 132.502 121.6 132.491 121.641 132.468C121.737 132.415 121.798 132.309 121.798 132.193V125.121C121.798 125.001 121.733 124.891 121.631 124.841Z" fill="white"/>
<path d="M108.455 132.444C109.702 131.478 111.428 130.119 112.573 129.131C112.64 129.074 112.679 128.987 112.681 128.895C112.682 128.803 112.646 128.715 112.581 128.655C111.348 127.513 109.714 126.017 108.473 124.885C108.388 124.807 108.268 124.79 108.167 124.84C108.065 124.891 108 125 108 125.121V132.192C108 132.309 108.06 132.415 108.156 132.468C108.198 132.491 108.243 132.502 108.288 132.502C108.347 132.502 108.406 132.482 108.455 132.444Z" fill="white"/>
<path d="M121.449 133.287C120.246 132.36 118.029 130.631 116.705 129.474C116.597 129.379 116.441 129.382 116.335 129.481C116.075 129.725 115.858 129.93 115.704 130.08C115.231 130.54 114.574 130.54 114.099 130.079C113.946 129.93 113.728 129.724 113.469 129.481C113.363 129.382 113.207 129.379 113.099 129.474C111.78 130.627 109.56 132.358 108.355 133.287C108.287 133.339 108.244 133.419 108.236 133.508C108.228 133.596 108.255 133.684 108.311 133.75C108.529 134.002 108.836 134.147 109.152 134.147H120.652C120.968 134.147 121.274 134.002 121.493 133.75C121.549 133.685 121.576 133.597 121.568 133.508C121.56 133.419 121.516 133.339 121.449 133.287Z" fill="white"/>
<circle cx="456" cy="131" r="15.6285" fill="#FAAC55" stroke="#FAAC55" stroke-width="0.743094"/>
<path d="M461.302 133.81L459.597 132.619C459.374 132.463 459.114 132.381 458.844 132.381C458.414 132.381 458.011 132.592 457.765 132.945L457.369 133.512C456.706 133.067 455.966 132.446 455.26 131.741C454.555 131.035 453.934 130.295 453.489 129.632L454.056 129.236C454.345 129.035 454.538 128.733 454.599 128.387C454.66 128.042 454.583 127.692 454.382 127.403L453.191 125.698C452.942 125.342 452.54 125.129 452.116 125.129C451.969 125.129 451.825 125.155 451.688 125.206C451.532 125.264 451.386 125.334 451.244 125.424L451.009 125.589C450.95 125.635 450.895 125.685 450.843 125.738C450.555 126.025 450.352 126.388 450.237 126.818C449.746 128.657 450.962 131.439 453.262 133.739C455.193 135.671 457.514 136.871 459.317 136.871H459.318C459.626 136.871 459.918 136.835 460.183 136.764C460.613 136.649 460.976 136.445 461.263 136.158C461.316 136.106 461.366 136.051 461.419 135.982L461.585 135.745C461.666 135.616 461.736 135.471 461.795 135.313C461.995 134.771 461.793 134.153 461.302 133.81Z" fill="white"/>
<path d="M490.248 125.288C490.248 125.885 490.104 126.445 489.816 126.968C489.539 127.491 489.096 127.912 488.488 128.232C487.891 128.552 487.133 128.712 486.216 128.712H484.344V133H482.104V121.832H486.216C487.08 121.832 487.816 121.981 488.424 122.28C489.032 122.579 489.485 122.989 489.784 123.512C490.093 124.035 490.248 124.627 490.248 125.288ZM486.12 126.904C486.739 126.904 487.197 126.765 487.496 126.488C487.795 126.2 487.944 125.8 487.944 125.288C487.944 124.2 487.336 123.656 486.12 123.656H484.344V126.904H486.12ZM496.83 124.008C497.502 124.008 498.1 124.157 498.622 124.456C499.145 124.744 499.55 125.176 499.838 125.752C500.137 126.317 500.286 127 500.286 127.8V133H498.046V128.104C498.046 127.4 497.87 126.861 497.518 126.488C497.166 126.104 496.686 125.912 496.078 125.912C495.46 125.912 494.969 126.104 494.606 126.488C494.254 126.861 494.078 127.4 494.078 128.104V133H491.838V121.16H494.078V125.24C494.366 124.856 494.75 124.557 495.23 124.344C495.71 124.12 496.244 124.008 496.83 124.008ZM506.353 133.144C505.499 133.144 504.731 132.957 504.049 132.584C503.366 132.2 502.827 131.661 502.433 130.968C502.049 130.275 501.857 129.475 501.857 128.568C501.857 127.661 502.054 126.861 502.449 126.168C502.854 125.475 503.403 124.941 504.097 124.568C504.79 124.184 505.563 123.992 506.417 123.992C507.27 123.992 508.043 124.184 508.737 124.568C509.43 124.941 509.974 125.475 510.369 126.168C510.774 126.861 510.977 127.661 510.977 128.568C510.977 129.475 510.769 130.275 510.352 130.968C509.947 131.661 509.393 132.2 508.689 132.584C507.995 132.957 507.217 133.144 506.353 133.144ZM506.353 131.192C506.758 131.192 507.137 131.096 507.489 130.904C507.851 130.701 508.139 130.403 508.353 130.008C508.566 129.613 508.673 129.133 508.673 128.568C508.673 127.725 508.449 127.08 508.001 126.632C507.563 126.173 507.025 125.944 506.385 125.944C505.745 125.944 505.206 126.173 504.769 126.632C504.342 127.08 504.129 127.725 504.129 128.568C504.129 129.411 504.337 130.061 504.753 130.52C505.179 130.968 505.713 131.192 506.353 131.192ZM517.532 124.008C518.588 124.008 519.441 124.344 520.092 125.016C520.742 125.677 521.068 126.605 521.068 127.8V133H518.828V128.104C518.828 127.4 518.652 126.861 518.3 126.488C517.948 126.104 517.468 125.912 516.86 125.912C516.241 125.912 515.75 126.104 515.388 126.488C515.036 126.861 514.86 127.4 514.86 128.104V133H512.62V124.136H514.86V125.24C515.158 124.856 515.537 124.557 515.996 124.344C516.465 124.12 516.977 124.008 517.532 124.008ZM531.438 128.376C531.438 128.696 531.416 128.984 531.374 129.24H524.894C524.947 129.88 525.171 130.381 525.566 130.744C525.96 131.107 526.446 131.288 527.022 131.288C527.854 131.288 528.446 130.931 528.798 130.216H531.214C530.958 131.069 530.467 131.773 529.742 132.328C529.016 132.872 528.126 133.144 527.07 133.144C526.216 133.144 525.448 132.957 524.766 132.584C524.094 132.2 523.566 131.661 523.182 130.968C522.808 130.275 522.622 129.475 522.622 128.568C522.622 127.651 522.808 126.845 523.182 126.152C523.555 125.459 524.078 124.925 524.75 124.552C525.422 124.179 526.195 123.992 527.07 123.992C527.912 123.992 528.664 124.173 529.326 124.536C529.998 124.899 530.515 125.416 530.878 126.088C531.251 126.749 531.438 127.512 531.438 128.376ZM529.118 127.736C529.107 127.16 528.899 126.701 528.494 126.36C528.088 126.008 527.592 125.832 527.006 125.832C526.451 125.832 525.982 126.003 525.598 126.344C525.224 126.675 524.995 127.139 524.91 127.736H529.118ZM546.437 133H544.197L539.125 125.336V133H536.885V121.816H539.125L544.197 129.496V121.816H546.437V133ZM557.019 124.136V133H554.763V131.88C554.475 132.264 554.096 132.568 553.627 132.792C553.168 133.005 552.667 133.112 552.123 133.112C551.43 133.112 550.816 132.968 550.283 132.68C549.75 132.381 549.328 131.949 549.019 131.384C548.72 130.808 548.571 130.125 548.571 129.336V124.136H550.811V129.016C550.811 129.72 550.987 130.264 551.339 130.648C551.691 131.021 552.171 131.208 552.779 131.208C553.398 131.208 553.883 131.021 554.235 130.648C554.587 130.264 554.763 129.72 554.763 129.016V124.136H557.019ZM570.237 124.008C571.325 124.008 572.2 124.344 572.861 125.016C573.533 125.677 573.869 126.605 573.869 127.8V133H571.629V128.104C571.629 127.411 571.453 126.883 571.101 126.52C570.749 126.147 570.269 125.96 569.661 125.96C569.053 125.96 568.568 126.147 568.205 126.52C567.853 126.883 567.677 127.411 567.677 128.104V133H565.437V128.104C565.437 127.411 565.261 126.883 564.909 126.52C564.557 126.147 564.077 125.96 563.469 125.96C562.85 125.96 562.36 126.147 561.997 126.52C561.645 126.883 561.469 127.411 561.469 128.104V133H559.229V124.136H561.469V125.208C561.757 124.835 562.125 124.541 562.573 124.328C563.032 124.115 563.533 124.008 564.077 124.008C564.77 124.008 565.389 124.157 565.933 124.456C566.477 124.744 566.898 125.16 567.197 125.704C567.485 125.192 567.901 124.781 568.445 124.472C569 124.163 569.597 124.008 570.237 124.008ZM578.235 125.432C578.523 125.005 578.917 124.659 579.419 124.392C579.931 124.125 580.512 123.992 581.163 123.992C581.92 123.992 582.603 124.179 583.211 124.552C583.829 124.925 584.315 125.459 584.667 126.152C585.029 126.835 585.211 127.629 585.211 128.536C585.211 129.443 585.029 130.248 584.667 130.952C584.315 131.645 583.829 132.184 583.211 132.568C582.603 132.952 581.92 133.144 581.163 133.144C580.501 133.144 579.92 133.016 579.419 132.76C578.928 132.493 578.533 132.152 578.235 131.736V133H575.995V121.16H578.235V125.432ZM582.923 128.536C582.923 128.003 582.811 127.544 582.587 127.16C582.373 126.765 582.085 126.467 581.723 126.264C581.371 126.061 580.987 125.96 580.571 125.96C580.165 125.96 579.781 126.067 579.419 126.28C579.067 126.483 578.779 126.781 578.555 127.176C578.341 127.571 578.235 128.035 578.235 128.568C578.235 129.101 578.341 129.565 578.555 129.96C578.779 130.355 579.067 130.659 579.419 130.872C579.781 131.075 580.165 131.176 580.571 131.176C580.987 131.176 581.371 131.069 581.723 130.856C582.085 130.643 582.373 130.339 582.587 129.944C582.811 129.549 582.923 129.08 582.923 128.536ZM595.078 128.376C595.078 128.696 595.057 128.984 595.014 129.24H588.534C588.588 129.88 588.812 130.381 589.206 130.744C589.601 131.107 590.086 131.288 590.662 131.288C591.494 131.288 592.086 130.931 592.438 130.216H594.854C594.598 131.069 594.108 131.773 593.382 132.328C592.657 132.872 591.766 133.144 590.71 133.144C589.857 133.144 589.089 132.957 588.406 132.584C587.734 132.2 587.206 131.661 586.822 130.968C586.449 130.275 586.262 129.475 586.262 128.568C586.262 127.651 586.449 126.845 586.822 126.152C587.196 125.459 587.718 124.925 588.39 124.552C589.062 124.179 589.836 123.992 590.71 123.992C591.553 123.992 592.305 124.173 592.966 124.536C593.638 124.899 594.156 125.416 594.518 126.088C594.892 126.749 595.078 127.512 595.078 128.376ZM592.758 127.736C592.748 127.16 592.54 126.701 592.134 126.36C591.729 126.008 591.233 125.832 590.646 125.832C590.092 125.832 589.622 126.003 589.238 126.344C588.865 126.675 588.636 127.139 588.55 127.736H592.758ZM598.953 125.512C599.241 125.043 599.615 124.675 600.073 124.408C600.543 124.141 601.076 124.008 601.673 124.008V126.36H601.081C600.377 126.36 599.844 126.525 599.481 126.856C599.129 127.187 598.953 127.763 598.953 128.584V133H596.713V124.136H598.953V125.512Z" fill="#4F4F4F"/>
<path d="M491.976 146.312V156H490.702V148.776L487.482 156H486.586L483.352 148.762V156H482.078V146.312H483.45L487.034 154.32L490.618 146.312H491.976ZM497.483 156.126C496.764 156.126 496.111 155.963 495.523 155.636C494.944 155.309 494.487 154.847 494.151 154.25C493.824 153.643 493.661 152.943 493.661 152.15C493.661 151.366 493.829 150.675 494.165 150.078C494.51 149.471 494.977 149.009 495.565 148.692C496.153 148.365 496.811 148.202 497.539 148.202C498.267 148.202 498.925 148.365 499.513 148.692C500.101 149.009 500.563 149.467 500.899 150.064C501.244 150.661 501.417 151.357 501.417 152.15C501.417 152.943 501.239 153.643 500.885 154.25C500.539 154.847 500.068 155.309 499.471 155.636C498.873 155.963 498.211 156.126 497.483 156.126ZM497.483 155.006C497.94 155.006 498.369 154.899 498.771 154.684C499.172 154.469 499.494 154.147 499.737 153.718C499.989 153.289 500.115 152.766 500.115 152.15C500.115 151.534 499.993 151.011 499.751 150.582C499.508 150.153 499.191 149.835 498.799 149.63C498.407 149.415 497.982 149.308 497.525 149.308C497.058 149.308 496.629 149.415 496.237 149.63C495.854 149.835 495.546 150.153 495.313 150.582C495.079 151.011 494.963 151.534 494.963 152.15C494.963 152.775 495.075 153.303 495.299 153.732C495.532 154.161 495.84 154.483 496.223 154.698C496.605 154.903 497.025 155.006 497.483 155.006ZM506.83 148.188C507.763 148.188 508.519 148.473 509.098 149.042C509.676 149.602 509.966 150.414 509.966 151.478V156H508.706V151.66C508.706 150.895 508.514 150.311 508.132 149.91C507.749 149.499 507.226 149.294 506.564 149.294C505.892 149.294 505.355 149.504 504.954 149.924C504.562 150.344 504.366 150.955 504.366 151.758V156H503.092V148.328H504.366V149.42C504.618 149.028 504.958 148.725 505.388 148.51C505.826 148.295 506.307 148.188 506.83 148.188ZM517.367 150.33V151.408H511.781V150.33H517.367ZM526.584 156.098C525.94 156.098 525.361 155.986 524.848 155.762C524.344 155.529 523.947 155.211 523.658 154.81C523.369 154.399 523.219 153.928 523.21 153.396H524.568C524.615 153.853 524.801 154.241 525.128 154.558C525.464 154.866 525.949 155.02 526.584 155.02C527.191 155.02 527.667 154.871 528.012 154.572C528.367 154.264 528.544 153.872 528.544 153.396C528.544 153.023 528.441 152.719 528.236 152.486C528.031 152.253 527.774 152.075 527.466 151.954C527.158 151.833 526.743 151.702 526.22 151.562C525.576 151.394 525.058 151.226 524.666 151.058C524.283 150.89 523.952 150.629 523.672 150.274C523.401 149.91 523.266 149.425 523.266 148.818C523.266 148.286 523.401 147.815 523.672 147.404C523.943 146.993 524.321 146.676 524.806 146.452C525.301 146.228 525.865 146.116 526.5 146.116C527.415 146.116 528.161 146.345 528.74 146.802C529.328 147.259 529.659 147.866 529.734 148.622H528.334C528.287 148.249 528.091 147.922 527.746 147.642C527.401 147.353 526.943 147.208 526.374 147.208C525.842 147.208 525.408 147.348 525.072 147.628C524.736 147.899 524.568 148.281 524.568 148.776C524.568 149.131 524.666 149.42 524.862 149.644C525.067 149.868 525.315 150.041 525.604 150.162C525.903 150.274 526.318 150.405 526.85 150.554C527.494 150.731 528.012 150.909 528.404 151.086C528.796 151.254 529.132 151.52 529.412 151.884C529.692 152.239 529.832 152.724 529.832 153.34C529.832 153.816 529.706 154.264 529.454 154.684C529.202 155.104 528.829 155.445 528.334 155.706C527.839 155.967 527.256 156.098 526.584 156.098ZM538.511 148.328V156H537.237V154.866C536.994 155.258 536.654 155.566 536.215 155.79C535.786 156.005 535.31 156.112 534.787 156.112C534.19 156.112 533.653 155.991 533.177 155.748C532.701 155.496 532.323 155.123 532.043 154.628C531.772 154.133 531.637 153.531 531.637 152.822V148.328H532.897V152.654C532.897 153.41 533.088 153.993 533.471 154.404C533.854 154.805 534.376 155.006 535.039 155.006C535.72 155.006 536.257 154.796 536.649 154.376C537.041 153.956 537.237 153.345 537.237 152.542V148.328H538.511ZM544.4 148.188C545.333 148.188 546.089 148.473 546.668 149.042C547.247 149.602 547.536 150.414 547.536 151.478V156H546.276V151.66C546.276 150.895 546.085 150.311 545.702 149.91C545.319 149.499 544.797 149.294 544.134 149.294C543.462 149.294 542.925 149.504 542.524 149.924C542.132 150.344 541.936 150.955 541.936 151.758V156H540.662V148.328H541.936V149.42C542.188 149.028 542.529 148.725 542.958 148.51C543.397 148.295 543.877 148.188 544.4 148.188ZM554.777 153.284C554.871 153.816 555.085 154.227 555.421 154.516C555.767 154.805 556.229 154.95 556.807 154.95C557.582 154.95 558.151 154.647 558.515 154.04C558.889 153.433 559.066 152.411 559.047 150.974C558.851 151.394 558.525 151.725 558.067 151.968C557.61 152.201 557.101 152.318 556.541 152.318C555.916 152.318 555.356 152.192 554.861 151.94C554.376 151.679 553.993 151.301 553.713 150.806C553.433 150.311 553.293 149.714 553.293 149.014C553.293 148.015 553.583 147.213 554.161 146.606C554.74 145.99 555.561 145.682 556.625 145.682C557.932 145.682 558.847 146.107 559.369 146.956C559.901 147.805 560.167 149.07 560.167 150.75C560.167 151.926 560.06 152.897 559.845 153.662C559.64 154.427 559.285 155.011 558.781 155.412C558.287 155.813 557.605 156.014 556.737 156.014C555.785 156.014 555.043 155.757 554.511 155.244C553.979 154.731 553.676 154.077 553.601 153.284H554.777ZM556.751 151.24C557.377 151.24 557.89 151.049 558.291 150.666C558.693 150.274 558.893 149.747 558.893 149.084C558.893 148.384 558.697 147.819 558.305 147.39C557.913 146.961 557.363 146.746 556.653 146.746C556 146.746 555.477 146.951 555.085 147.362C554.703 147.773 554.511 148.314 554.511 148.986C554.511 149.667 554.703 150.213 555.085 150.624C555.468 151.035 556.023 151.24 556.751 151.24ZM571.668 153.83H567.412L566.628 156H565.284L568.812 146.298H570.282L573.796 156H572.452L571.668 153.83ZM571.304 152.794L569.54 147.866L567.776 152.794H571.304ZM584.56 148.188C585.157 148.188 585.689 148.314 586.156 148.566C586.623 148.809 586.991 149.177 587.262 149.672C587.533 150.167 587.668 150.769 587.668 151.478V156H586.408V151.66C586.408 150.895 586.217 150.311 585.834 149.91C585.461 149.499 584.952 149.294 584.308 149.294C583.645 149.294 583.118 149.509 582.726 149.938C582.334 150.358 582.138 150.969 582.138 151.772V156H580.878V151.66C580.878 150.895 580.687 150.311 580.304 149.91C579.931 149.499 579.422 149.294 578.778 149.294C578.115 149.294 577.588 149.509 577.196 149.938C576.804 150.358 576.608 150.969 576.608 151.772V156H575.334V148.328H576.608V149.434C576.86 149.033 577.196 148.725 577.616 148.51C578.045 148.295 578.517 148.188 579.03 148.188C579.674 148.188 580.243 148.333 580.738 148.622C581.233 148.911 581.601 149.336 581.844 149.896C582.059 149.355 582.413 148.935 582.908 148.636C583.403 148.337 583.953 148.188 584.56 148.188ZM595.078 150.33V151.408H589.492V150.33H595.078ZM606.633 148.286C606.428 147.25 605.788 146.732 604.715 146.732C603.884 146.732 603.264 147.054 602.853 147.698C602.442 148.333 602.242 149.383 602.251 150.848C602.466 150.363 602.82 149.985 603.315 149.714C603.819 149.434 604.379 149.294 604.995 149.294C605.956 149.294 606.722 149.593 607.291 150.19C607.87 150.787 608.159 151.613 608.159 152.668C608.159 153.303 608.033 153.872 607.781 154.376C607.538 154.88 607.165 155.281 606.661 155.58C606.166 155.879 605.564 156.028 604.855 156.028C603.894 156.028 603.142 155.813 602.601 155.384C602.06 154.955 601.682 154.362 601.467 153.606C601.252 152.85 601.145 151.917 601.145 150.806C601.145 147.381 602.34 145.668 604.729 145.668C605.644 145.668 606.362 145.915 606.885 146.41C607.408 146.905 607.716 147.53 607.809 148.286H606.633ZM604.729 150.372C604.328 150.372 603.95 150.456 603.595 150.624C603.24 150.783 602.951 151.03 602.727 151.366C602.512 151.693 602.405 152.094 602.405 152.57C602.405 153.279 602.61 153.858 603.021 154.306C603.432 154.745 604.02 154.964 604.785 154.964C605.438 154.964 605.956 154.763 606.339 154.362C606.731 153.951 606.927 153.401 606.927 152.71C606.927 151.982 606.74 151.413 606.367 151.002C605.994 150.582 605.448 150.372 604.729 150.372ZM620.344 149.098C620.344 149.91 620.064 150.587 619.504 151.128C618.954 151.66 618.109 151.926 616.97 151.926H615.094V156H613.82V146.242H616.97C618.072 146.242 618.907 146.508 619.476 147.04C620.055 147.572 620.344 148.258 620.344 149.098ZM616.97 150.876C617.68 150.876 618.202 150.722 618.538 150.414C618.874 150.106 619.042 149.667 619.042 149.098C619.042 147.894 618.352 147.292 616.97 147.292H615.094V150.876H616.97ZM631.826 146.312V156H630.552V148.776L627.332 156H626.436L623.202 148.762V156H621.928V146.312H623.3L626.884 154.32L630.468 146.312H631.826Z" fill="#4F4F4F"/>
<path d="M108.92 74.224C107.363 74.224 105.955 73.9573 104.696 73.424C103.459 72.8907 102.477 72.1227 101.752 71.12C101.027 70.1173 100.653 68.9333 100.632 67.568H105.432C105.496 68.4853 105.816 69.2107 106.392 69.744C106.989 70.2773 107.8 70.544 108.824 70.544C109.869 70.544 110.691 70.2987 111.288 69.808C111.885 69.296 112.184 68.6347 112.184 67.824C112.184 67.1627 111.981 66.6187 111.576 66.192C111.171 65.7653 110.659 65.4347 110.04 65.2C109.443 64.944 108.611 64.6667 107.544 64.368C106.093 63.9413 104.909 63.5253 103.992 63.12C103.096 62.6933 102.317 62.064 101.656 61.232C101.016 60.3787 100.696 59.248 100.696 57.84C100.696 56.5173 101.027 55.3653 101.688 54.384C102.349 53.4027 103.277 52.656 104.472 52.144C105.667 51.6107 107.032 51.344 108.568 51.344C110.872 51.344 112.739 51.9093 114.168 53.04C115.619 54.1493 116.419 55.7067 116.568 57.712H111.64C111.597 56.944 111.267 56.3147 110.648 55.824C110.051 55.312 109.251 55.056 108.248 55.056C107.373 55.056 106.669 55.28 106.136 55.728C105.624 56.176 105.368 56.8267 105.368 57.68C105.368 58.2773 105.56 58.7787 105.944 59.184C106.349 59.568 106.84 59.888 107.416 60.144C108.013 60.3787 108.845 60.656 109.912 60.976C111.363 61.4027 112.547 61.8293 113.464 62.256C114.381 62.6827 115.171 63.3227 115.832 64.176C116.493 65.0293 116.824 66.1493 116.824 67.536C116.824 68.7307 116.515 69.84 115.896 70.864C115.277 71.888 114.371 72.7093 113.176 73.328C111.981 73.9253 110.563 74.224 108.92 74.224ZM137.188 64.752C137.188 65.392 137.145 65.968 137.06 66.48H124.1C124.207 67.76 124.655 68.7627 125.444 69.488C126.233 70.2133 127.204 70.576 128.356 70.576C130.02 70.576 131.204 69.8613 131.908 68.432H136.74C136.228 70.1387 135.247 71.5467 133.796 72.656C132.345 73.744 130.564 74.288 128.452 74.288C126.745 74.288 125.209 73.9147 123.844 73.168C122.5 72.4 121.444 71.3227 120.676 69.936C119.929 68.5493 119.556 66.9493 119.556 65.136C119.556 63.3013 119.929 61.6907 120.676 60.304C121.423 58.9173 122.468 57.8507 123.812 57.104C125.156 56.3573 126.703 55.984 128.452 55.984C130.137 55.984 131.641 56.3467 132.964 57.072C134.308 57.7973 135.343 58.832 136.068 60.176C136.815 61.4987 137.188 63.024 137.188 64.752ZM132.548 63.472C132.527 62.32 132.111 61.4027 131.3 60.72C130.489 60.016 129.497 59.664 128.324 59.664C127.215 59.664 126.276 60.0053 125.508 60.688C124.761 61.3493 124.303 62.2773 124.132 63.472H132.548ZM150.282 56.016C152.394 56.016 154.101 56.688 155.402 58.032C156.703 59.3547 157.354 61.2107 157.354 63.6V74H152.874V64.208C152.874 62.8 152.522 61.7227 151.818 60.976C151.114 60.208 150.154 59.824 148.938 59.824C147.701 59.824 146.719 60.208 145.994 60.976C145.29 61.7227 144.938 62.8 144.938 64.208V74H140.458V56.272H144.938V58.48C145.535 57.712 146.293 57.1147 147.21 56.688C148.149 56.24 149.173 56.016 150.282 56.016ZM160.462 65.072C160.462 63.28 160.814 61.6907 161.518 60.304C162.244 58.9173 163.225 57.8507 164.462 57.104C165.7 56.3573 167.076 55.984 168.59 55.984C169.742 55.984 170.841 56.24 171.886 56.752C172.932 57.2427 173.764 57.904 174.382 58.736V50.32H178.926V74H174.382V71.376C173.828 72.2507 173.049 72.9547 172.046 73.488C171.044 74.0213 169.881 74.288 168.558 74.288C167.065 74.288 165.7 73.904 164.462 73.136C163.225 72.368 162.244 71.2907 161.518 69.904C160.814 68.496 160.462 66.8853 160.462 65.072ZM174.414 65.136C174.414 64.048 174.201 63.12 173.774 62.352C173.348 61.5627 172.772 60.9653 172.046 60.56C171.321 60.1333 170.542 59.92 169.71 59.92C168.878 59.92 168.11 60.1227 167.406 60.528C166.702 60.9333 166.126 61.5307 165.678 62.32C165.252 63.088 165.038 64.0053 165.038 65.072C165.038 66.1387 165.252 67.0773 165.678 67.888C166.126 68.6773 166.702 69.2853 167.406 69.712C168.132 70.1387 168.9 70.352 169.71 70.352C170.542 70.352 171.321 70.1493 172.046 69.744C172.772 69.3173 173.348 68.72 173.774 67.952C174.201 67.1627 174.414 66.224 174.414 65.136ZM204.623 69.744H195.727L194.255 74H189.551L197.583 51.632H202.799L210.831 74H206.095L204.623 69.744ZM203.407 66.16L200.175 56.816L196.943 66.16H203.407ZM223.657 56.016C225.769 56.016 227.476 56.688 228.777 58.032C230.078 59.3547 230.729 61.2107 230.729 63.6V74H226.249V64.208C226.249 62.8 225.897 61.7227 225.193 60.976C224.489 60.208 223.529 59.824 222.313 59.824C221.076 59.824 220.094 60.208 219.369 60.976C218.665 61.7227 218.313 62.8 218.313 64.208V74H213.833V56.272H218.313V58.48C218.91 57.712 219.668 57.1147 220.585 56.688C221.524 56.24 222.548 56.016 223.657 56.016ZM247.094 55.28V60.88H254.614V64.432H247.094V70.352H255.574V74H242.614V51.632H255.574V55.28H247.094ZM269.47 56.016C271.582 56.016 273.288 56.688 274.59 58.032C275.891 59.3547 276.542 61.2107 276.542 63.6V74H272.062V64.208C272.062 62.8 271.71 61.7227 271.006 60.976C270.302 60.208 269.342 59.824 268.126 59.824C266.888 59.824 265.907 60.208 265.182 60.976C264.478 61.7227 264.126 62.8 264.126 64.208V74H259.646V56.272H264.126V58.48C264.723 57.712 265.48 57.1147 266.398 56.688C267.336 56.24 268.36 56.016 269.47 56.016ZM279.65 65.104C279.65 63.3333 280.012 61.7653 280.738 60.4C281.484 59.0133 282.487 57.936 283.746 57.168C285.004 56.4 286.391 56.016 287.906 56.016C289.164 56.016 290.274 56.2613 291.234 56.752C292.215 57.2213 293.004 57.8293 293.602 58.576V56.272H298.114V82.448H293.602V71.568C293.004 72.336 292.204 72.976 291.202 73.488C290.199 74 289.068 74.256 287.81 74.256C286.316 74.256 284.94 73.872 283.682 73.104C282.444 72.3147 281.463 71.2267 280.738 69.84C280.012 68.4533 279.65 66.8747 279.65 65.104ZM293.602 65.136C293.602 64.048 293.378 63.1093 292.93 62.32C292.482 61.5307 291.895 60.9333 291.17 60.528C290.466 60.1227 289.708 59.92 288.898 59.92C288.108 59.92 287.351 60.1227 286.626 60.528C285.922 60.9333 285.346 61.5307 284.898 62.32C284.45 63.088 284.226 64.016 284.226 65.104C284.226 66.192 284.45 67.1413 284.898 67.952C285.346 68.7413 285.922 69.3387 286.626 69.744C287.351 70.1493 288.108 70.352 288.898 70.352C289.708 70.352 290.466 70.1493 291.17 69.744C291.895 69.3387 292.482 68.7413 292.93 67.952C293.378 67.1627 293.602 66.224 293.602 65.136ZM319.225 56.272V74H314.713V71.76C314.137 72.528 313.38 73.136 312.441 73.584C311.524 74.0107 310.521 74.224 309.433 74.224C308.047 74.224 306.82 73.936 305.753 73.36C304.687 72.7627 303.844 71.8987 303.225 70.768C302.628 69.616 302.329 68.2507 302.329 66.672V56.272H306.809V66.032C306.809 67.44 307.161 68.528 307.865 69.296C308.569 70.0427 309.529 70.416 310.745 70.416C311.983 70.416 312.953 70.0427 313.657 69.296C314.361 68.528 314.713 67.44 314.713 66.032V56.272H319.225ZM325.918 54.16C325.128 54.16 324.467 53.9147 323.934 53.424C323.422 52.912 323.166 52.2827 323.166 51.536C323.166 50.7893 323.422 50.1707 323.934 49.68C324.467 49.168 325.128 48.912 325.918 48.912C326.707 48.912 327.358 49.168 327.87 49.68C328.403 50.1707 328.67 50.7893 328.67 51.536C328.67 52.2827 328.403 52.912 327.87 53.424C327.358 53.9147 326.707 54.16 325.918 54.16ZM328.126 56.272V74H323.646V56.272H328.126ZM337.032 59.024C337.608 58.0853 338.354 57.3493 339.272 56.816C340.21 56.2827 341.277 56.016 342.472 56.016V60.72H341.288C339.88 60.72 338.813 61.0507 338.088 61.712C337.384 62.3733 337.032 63.5253 337.032 65.168V74H332.552V56.272H337.032V59.024ZM362.449 56.272L351.473 82.384H346.705L350.545 73.552L343.441 56.272H348.465L353.041 68.656L357.681 56.272H362.449ZM384.009 74L379.081 65.296H376.969V74H372.489V51.664H380.873C382.601 51.664 384.073 51.9733 385.289 52.592C386.505 53.1893 387.412 54.0107 388.009 55.056C388.628 56.08 388.937 57.232 388.937 58.512C388.937 59.984 388.511 61.3173 387.657 62.512C386.804 63.6853 385.535 64.496 383.849 64.944L389.193 74H384.009ZM376.969 61.936H380.713C381.929 61.936 382.836 61.648 383.433 61.072C384.031 60.4747 384.329 59.6533 384.329 58.608C384.329 57.584 384.031 56.7947 383.433 56.24C382.836 55.664 381.929 55.376 380.713 55.376H376.969V61.936ZM409.469 64.752C409.469 65.392 409.427 65.968 409.341 66.48H396.381C396.488 67.76 396.936 68.7627 397.725 69.488C398.515 70.2133 399.485 70.576 400.637 70.576C402.301 70.576 403.485 69.8613 404.189 68.432H409.021C408.509 70.1387 407.528 71.5467 406.077 72.656C404.627 73.744 402.845 74.288 400.733 74.288C399.027 74.288 397.491 73.9147 396.125 73.168C394.781 72.4 393.725 71.3227 392.957 69.936C392.211 68.5493 391.837 66.9493 391.837 65.136C391.837 63.3013 392.211 61.6907 392.957 60.304C393.704 58.9173 394.749 57.8507 396.093 57.104C397.437 56.3573 398.984 55.984 400.733 55.984C402.419 55.984 403.923 56.3467 405.245 57.072C406.589 57.7973 407.624 58.832 408.349 60.176C409.096 61.4987 409.469 63.024 409.469 64.752ZM404.829 63.472C404.808 62.32 404.392 61.4027 403.581 60.72C402.771 60.016 401.779 59.664 400.605 59.664C399.496 59.664 398.557 60.0053 397.789 60.688C397.043 61.3493 396.584 62.2773 396.413 63.472H404.829ZM417.219 50.32V74H412.739V50.32H417.219ZM420.493 65.072C420.493 63.28 420.845 61.6907 421.549 60.304C422.275 58.9173 423.246 57.8507 424.462 57.104C425.699 56.3573 427.075 55.984 428.59 55.984C429.912 55.984 431.064 56.2507 432.046 56.784C433.048 57.3173 433.848 57.9893 434.446 58.8V56.272H438.958V74H434.446V71.408C433.87 72.24 433.07 72.9333 432.046 73.488C431.043 74.0213 429.88 74.288 428.558 74.288C427.064 74.288 425.699 73.904 424.462 73.136C423.246 72.368 422.275 71.2907 421.549 69.904C420.845 68.496 420.493 66.8853 420.493 65.072ZM434.446 65.136C434.446 64.048 434.232 63.12 433.806 62.352C433.379 61.5627 432.803 60.9653 432.078 60.56C431.352 60.1333 430.574 59.92 429.742 59.92C428.91 59.92 428.142 60.1227 427.438 60.528C426.734 60.9333 426.158 61.5307 425.71 62.32C425.283 63.088 425.07 64.0053 425.07 65.072C425.07 66.1387 425.283 67.0773 425.71 67.888C426.158 68.6773 426.734 69.2853 427.438 69.712C428.163 70.1387 428.931 70.352 429.742 70.352C430.574 70.352 431.352 70.1493 432.078 69.744C432.803 69.3173 433.379 68.72 433.806 67.952C434.232 67.1627 434.446 66.224 434.446 65.136ZM448.549 59.952V68.528C448.549 69.1253 448.688 69.5627 448.965 69.84C449.264 70.096 449.754 70.224 450.437 70.224H452.517V74H449.701C445.925 74 444.037 72.1653 444.037 68.496V59.952H441.925V56.272H444.037V51.888H448.549V56.272H452.517V59.952H448.549ZM472.219 64.752C472.219 65.392 472.177 65.968 472.091 66.48H459.131C459.238 67.76 459.686 68.7627 460.475 69.488C461.265 70.2133 462.235 70.576 463.387 70.576C465.051 70.576 466.235 69.8613 466.939 68.432H471.771C471.259 70.1387 470.278 71.5467 468.827 72.656C467.377 73.744 465.595 74.288 463.483 74.288C461.777 74.288 460.241 73.9147 458.875 73.168C457.531 72.4 456.475 71.3227 455.707 69.936C454.961 68.5493 454.587 66.9493 454.587 65.136C454.587 63.3013 454.961 61.6907 455.707 60.304C456.454 58.9173 457.499 57.8507 458.843 57.104C460.187 56.3573 461.734 55.984 463.483 55.984C465.169 55.984 466.673 56.3467 467.995 57.072C469.339 57.7973 470.374 58.832 471.099 60.176C471.846 61.4987 472.219 63.024 472.219 64.752ZM467.579 63.472C467.558 62.32 467.142 61.4027 466.331 60.72C465.521 60.016 464.529 59.664 463.355 59.664C462.246 59.664 461.307 60.0053 460.539 60.688C459.793 61.3493 459.334 62.2773 459.163 63.472H467.579ZM474.337 65.072C474.337 63.28 474.689 61.6907 475.393 60.304C476.119 58.9173 477.1 57.8507 478.337 57.104C479.575 56.3573 480.951 55.984 482.465 55.984C483.617 55.984 484.716 56.24 485.761 56.752C486.807 57.2427 487.639 57.904 488.257 58.736V50.32H492.801V74H488.257V71.376C487.703 72.2507 486.924 72.9547 485.921 73.488C484.919 74.0213 483.756 74.288 482.433 74.288C480.94 74.288 479.575 73.904 478.337 73.136C477.1 72.368 476.119 71.2907 475.393 69.904C474.689 68.496 474.337 66.8853 474.337 65.072ZM488.289 65.136C488.289 64.048 488.076 63.12 487.649 62.352C487.223 61.5627 486.647 60.9653 485.921 60.56C485.196 60.1333 484.417 59.92 483.585 59.92C482.753 59.92 481.985 60.1227 481.281 60.528C480.577 60.9333 480.001 61.5307 479.553 62.32C479.127 63.088 478.913 64.0053 478.913 65.072C478.913 66.1387 479.127 67.0773 479.553 67.888C480.001 68.6773 480.577 69.2853 481.281 69.712C482.007 70.1387 482.775 70.352 483.585 70.352C484.417 70.352 485.196 70.1493 485.921 69.744C486.647 69.3173 487.223 68.72 487.649 67.952C488.076 67.1627 488.289 66.224 488.289 65.136ZM520.002 51.664V55.28H514.05V74H509.57V55.28H503.618V51.664H520.002ZM531.143 74.288C529.436 74.288 527.9 73.9147 526.535 73.168C525.169 72.4 524.092 71.3227 523.303 69.936C522.535 68.5493 522.151 66.9493 522.151 65.136C522.151 63.3227 522.545 61.7227 523.335 60.336C524.145 58.9493 525.244 57.8827 526.631 57.136C528.017 56.368 529.564 55.984 531.271 55.984C532.977 55.984 534.524 56.368 535.911 57.136C537.297 57.8827 538.385 58.9493 539.175 60.336C539.985 61.7227 540.391 63.3227 540.391 65.136C540.391 66.9493 539.975 68.5493 539.142 69.936C538.332 71.3227 537.223 72.4 535.815 73.168C534.428 73.9147 532.871 74.288 531.143 74.288ZM531.143 70.384C531.953 70.384 532.711 70.192 533.415 69.808C534.14 69.4027 534.716 68.8053 535.143 68.016C535.569 67.2267 535.783 66.2667 535.783 65.136C535.783 63.4507 535.335 62.16 534.439 61.264C533.564 60.3467 532.487 59.888 531.207 59.888C529.927 59.888 528.849 60.3467 527.975 61.264C527.121 62.16 526.695 63.4507 526.695 65.136C526.695 66.8213 527.111 68.1227 527.943 69.04C528.796 69.936 529.863 70.384 531.143 70.384ZM561.67 74.224C559.579 74.224 557.659 73.7333 555.91 72.752C554.16 71.7707 552.774 70.416 551.75 68.688C550.726 66.9387 550.214 64.9653 550.214 62.768C550.214 60.592 550.726 58.64 551.75 56.912C552.774 55.1627 554.16 53.7973 555.91 52.816C557.659 51.8347 559.579 51.344 561.67 51.344C563.782 51.344 565.702 51.8347 567.43 52.816C569.179 53.7973 570.555 55.1627 571.558 56.912C572.582 58.64 573.094 60.592 573.094 62.768C573.094 64.9653 572.582 66.9387 571.558 68.688C570.555 70.416 569.179 71.7707 567.43 72.752C565.68 73.7333 563.76 74.224 561.67 74.224ZM561.67 70.224C563.014 70.224 564.198 69.9253 565.222 69.328C566.246 68.7093 567.046 67.8347 567.622 66.704C568.198 65.5733 568.486 64.2613 568.486 62.768C568.486 61.2747 568.198 59.9733 567.622 58.864C567.046 57.7333 566.246 56.8693 565.222 56.272C564.198 55.6747 563.014 55.376 561.67 55.376C560.326 55.376 559.131 55.6747 558.086 56.272C557.062 56.8693 556.262 57.7333 555.686 58.864C555.11 59.9733 554.822 61.2747 554.822 62.768C554.822 64.2613 555.11 65.5733 555.686 66.704C556.262 67.8347 557.062 68.7093 558.086 69.328C559.131 69.9253 560.326 70.224 561.67 70.224ZM593.163 56.272V74H588.651V71.76C588.075 72.528 587.317 73.136 586.379 73.584C585.461 74.0107 584.459 74.224 583.371 74.224C581.984 74.224 580.757 73.936 579.691 73.36C578.624 72.7627 577.781 71.8987 577.163 70.768C576.565 69.616 576.267 68.2507 576.267 66.672V56.272H580.747V66.032C580.747 67.44 581.099 68.528 581.803 69.296C582.507 70.0427 583.467 70.416 584.683 70.416C585.92 70.416 586.891 70.0427 587.595 69.296C588.299 68.528 588.651 67.44 588.651 66.032V56.272H593.163ZM602.063 59.024C602.639 58.0853 603.386 57.3493 604.303 56.816C605.242 56.2827 606.308 56.016 607.503 56.016V60.72H606.319C604.911 60.72 603.844 61.0507 603.119 61.712C602.415 62.3733 602.063 63.5253 602.063 65.168V74H597.583V56.272H602.063V59.024ZM634.434 58.576C634.434 59.7707 634.146 60.8907 633.569 61.936C633.015 62.9813 632.13 63.824 630.914 64.464C629.719 65.104 628.204 65.424 626.37 65.424H622.626V74H618.146V51.664H626.37C628.098 51.664 629.57 51.9627 630.786 52.56C632.002 53.1573 632.908 53.9787 633.506 55.024C634.124 56.0693 634.434 57.2533 634.434 58.576ZM626.178 61.808C627.415 61.808 628.332 61.5307 628.93 60.976C629.527 60.4 629.826 59.6 629.826 58.576C629.826 56.4 628.61 55.312 626.178 55.312H622.626V61.808H626.178ZM642.094 59.024C642.67 58.0853 643.417 57.3493 644.334 56.816C645.273 56.2827 646.34 56.016 647.534 56.016V60.72H646.35C644.942 60.72 643.876 61.0507 643.15 61.712C642.446 62.3733 642.094 63.5253 642.094 65.168V74H637.614V56.272H642.094V59.024ZM658.424 74.288C656.717 74.288 655.181 73.9147 653.816 73.168C652.45 72.4 651.373 71.3227 650.584 69.936C649.816 68.5493 649.432 66.9493 649.432 65.136C649.432 63.3227 649.826 61.7227 650.616 60.336C651.426 58.9493 652.525 57.8827 653.912 57.136C655.298 56.368 656.845 55.984 658.552 55.984C660.258 55.984 661.805 56.368 663.192 57.136C664.578 57.8827 665.666 58.9493 666.456 60.336C667.266 61.7227 667.672 63.3227 667.672 65.136C667.672 66.9493 667.256 68.5493 666.424 69.936C665.613 71.3227 664.504 72.4 663.096 73.168C661.709 73.9147 660.152 74.288 658.424 74.288ZM658.424 70.384C659.234 70.384 659.992 70.192 660.696 69.808C661.421 69.4027 661.997 68.8053 662.424 68.016C662.85 67.2267 663.064 66.2667 663.064 65.136C663.064 63.4507 662.616 62.16 661.72 61.264C660.845 60.3467 659.768 59.888 658.488 59.888C657.208 59.888 656.13 60.3467 655.256 61.264C654.402 62.16 653.976 63.4507 653.976 65.136C653.976 66.8213 654.392 68.1227 655.224 69.04C656.077 69.936 657.144 70.384 658.424 70.384ZM669.806 65.072C669.806 63.28 670.158 61.6907 670.862 60.304C671.587 58.9173 672.569 57.8507 673.806 57.104C675.043 56.3573 676.419 55.984 677.934 55.984C679.086 55.984 680.185 56.24 681.23 56.752C682.275 57.2427 683.107 57.904 683.726 58.736V50.32H688.27V74H683.726V71.376C683.171 72.2507 682.393 72.9547 681.39 73.488C680.387 74.0213 679.225 74.288 677.902 74.288C676.409 74.288 675.043 73.904 673.806 73.136C672.569 72.368 671.587 71.2907 670.862 69.904C670.158 68.496 669.806 66.8853 669.806 65.072ZM683.758 65.136C683.758 64.048 683.545 63.12 683.118 62.352C682.691 61.5627 682.115 60.9653 681.39 60.56C680.665 60.1333 679.886 59.92 679.054 59.92C678.222 59.92 677.454 60.1227 676.75 60.528C676.046 60.9333 675.47 61.5307 675.022 62.32C674.595 63.088 674.382 64.0053 674.382 65.072C674.382 66.1387 674.595 67.0773 675.022 67.888C675.47 68.6773 676.046 69.2853 676.75 69.712C677.475 70.1387 678.243 70.352 679.054 70.352C679.886 70.352 680.665 70.1493 681.39 69.744C682.115 69.3173 682.691 68.72 683.118 67.952C683.545 67.1627 683.758 66.224 683.758 65.136ZM709.382 56.272V74H704.87V71.76C704.294 72.528 703.536 73.136 702.598 73.584C701.68 74.0107 700.678 74.224 699.59 74.224C698.203 74.224 696.976 73.936 695.91 73.36C694.843 72.7627 694 71.8987 693.382 70.768C692.784 69.616 692.486 68.2507 692.486 66.672V56.272H696.966V66.032C696.966 67.44 697.318 68.528 698.022 69.296C698.726 70.0427 699.686 70.416 700.902 70.416C702.139 70.416 703.11 70.0427 703.814 69.296C704.518 68.528 704.87 67.44 704.87 66.032V56.272H709.382ZM712.65 65.136C712.65 63.3013 713.023 61.7013 713.77 60.336C714.516 58.9493 715.551 57.8827 716.874 57.136C718.196 56.368 719.711 55.984 721.418 55.984C723.615 55.984 725.428 56.5387 726.858 57.648C728.308 58.736 729.279 60.272 729.77 62.256H724.938C724.682 61.488 724.244 60.8907 723.626 60.464C723.028 60.016 722.282 59.792 721.386 59.792C720.106 59.792 719.092 60.2613 718.346 61.2C717.599 62.1173 717.226 63.4293 717.226 65.136C717.226 66.8213 717.599 68.1333 718.346 69.072C719.092 69.9893 720.106 70.448 721.386 70.448C723.199 70.448 724.383 69.6373 724.938 68.016H729.77C729.279 69.936 728.308 71.4613 726.858 72.592C725.407 73.7227 723.594 74.288 721.418 74.288C719.711 74.288 718.196 73.9147 716.874 73.168C715.551 72.4 714.516 71.3333 713.77 69.968C713.023 68.5813 712.65 66.9707 712.65 65.136ZM738.268 59.952V68.528C738.268 69.1253 738.406 69.5627 738.684 69.84C738.982 70.096 739.473 70.224 740.156 70.224H742.236V74H739.42C735.644 74 733.756 72.1653 733.756 68.496V59.952H731.644V56.272H733.756V51.888H738.268V56.272H742.236V59.952H738.268Z" fill="#4F4F4F"/>
<path d="M909.797 66.1464H1169.74" stroke="white" stroke-width="1.96782" stroke-miterlimit="10"/>
<path d="M1166.35 50.1875H913.191C911.317 50.1875 909.797 51.6109 909.797 53.3667V197.633C909.797 199.389 911.317 200.812 913.191 200.812H1166.35C1168.22 200.812 1169.74 199.389 1169.74 197.633V53.3667C1169.74 51.6109 1168.22 50.1875 1166.35 50.1875Z" stroke="white" stroke-width="1.96782" stroke-miterlimit="10"/>
<path d="M926.927 58.3303C926.927 59.5602 925.863 60.5572 924.55 60.5572C923.236 60.5572 922.172 59.5602 922.172 58.3303C922.172 57.1005 923.236 56.1035 924.55 56.1035C925.863 56.1035 926.927 57.1005 926.927 58.3303Z" fill="#FFB1A5"/>
<path d="M936.17 58.3303C936.17 59.5602 935.105 60.5572 933.792 60.5572C932.479 60.5572 931.414 59.5602 931.414 58.3303C931.414 57.1005 932.479 56.1035 933.792 56.1035C935.105 56.1035 936.17 57.1005 936.17 58.3303Z" fill="#EAD254"/>
<path d="M945.408 58.3303C945.408 59.5602 944.343 60.5572 943.03 60.5572C941.717 60.5572 940.652 59.5602 940.652 58.3303C940.652 57.1005 941.717 56.1035 943.03 56.1035C944.343 56.1035 945.408 57.1005 945.408 58.3303Z" fill="#00857B"/>
<path d="M1203.52 61.1426H1142.42C1140.7 61.1426 1139.3 62.4502 1139.3 64.0632V116.979C1139.3 118.592 1140.7 119.899 1142.42 119.899H1203.52C1205.24 119.899 1206.63 118.592 1206.63 116.979V64.0632C1206.63 62.4502 1205.24 61.1426 1203.52 61.1426Z" fill="white"/>
<path d="M1203.52 61.1426H1142.42C1140.7 61.1426 1139.3 62.4502 1139.3 64.0632V116.979C1139.3 118.592 1140.7 119.899 1142.42 119.899H1203.52C1205.24 119.899 1206.63 118.592 1206.63 116.979V64.0632C1206.63 62.4502 1205.24 61.1426 1203.52 61.1426Z" stroke="white" stroke-width="1.96782" stroke-miterlimit="10"/>
<path d="M1157.19 104.614H1188.95C1190.68 104.614 1192.08 103.3 1192.08 101.679V77.3072C1192.08 75.6859 1190.68 74.3716 1188.95 74.3716H1157.19C1155.46 74.3716 1154.06 75.6859 1154.06 77.3072V101.679C1154.06 103.3 1155.46 104.614 1157.19 104.614Z" fill="#F2A546"/>
<path d="M1181.75 94.5215H1166.88H1164.2V83.501H1181.75V86.2561V94.5215Z" stroke="white" stroke-width="1.6466" stroke-linecap="round" stroke-linejoin="round"/>
<path d="M1164.2 83.501L1172.97 89.9761L1181.75 83.501" stroke="white" stroke-width="1.6466" stroke-linecap="round" stroke-linejoin="round"/>
<path d="M934.667 111.063H876.404C874.761 111.063 873.43 112.311 873.43 113.849V161.423C873.43 162.961 874.761 164.208 876.404 164.208H934.667C936.309 164.208 937.641 162.961 937.641 161.423V113.849C937.641 112.311 936.309 111.063 934.667 111.063Z" fill="white"/>
<path d="M934.667 111.063H876.404C874.761 111.063 873.43 112.311 873.43 113.849V161.423C873.43 162.961 874.761 164.208 876.404 164.208H934.667C936.309 164.208 937.641 162.961 937.641 161.423V113.849C937.641 112.311 936.309 111.063 934.667 111.063Z" stroke="white" stroke-width="1.96782" stroke-miterlimit="10"/>
<path d="M920.494 120.166H890.276C888.368 120.166 886.82 121.615 886.82 123.403V150.733C886.82 152.521 888.368 153.97 890.276 153.97H920.494C922.403 153.97 923.95 152.521 923.95 150.733V123.403C923.95 121.615 922.403 120.166 920.494 120.166Z" fill="#F2A546"/>
<path d="M898.19 130.432C894.114 134.25 894.114 140.518 898.19 144.336C902.267 148.154 908.96 148.154 913.036 144.336C917.113 140.518 917.113 134.25 913.036 130.432C908.96 126.614 902.267 126.614 898.19 130.432ZM913.012 131.848H909.667C909.331 130.864 908.899 129.879 908.366 128.895C910.219 129.422 911.832 130.466 913.012 131.848ZM901.759 136.809C901.76 135.538 901.92 134.268 902.256 132.997H908.971C909.307 134.268 909.467 135.538 909.468 136.809H901.759ZM909.427 137.959C909.335 139.229 909.089 140.5 908.706 141.77H902.521C902.138 140.5 901.893 139.229 901.8 137.959H909.427ZM905.614 128.514C906.118 128.514 906.613 128.551 907.097 128.622C907.74 129.698 908.244 130.773 908.619 131.848H902.608C902.983 130.773 903.487 129.698 904.13 128.622C904.614 128.551 905.109 128.514 905.614 128.514ZM902.861 128.895C902.328 129.879 901.896 130.864 901.56 131.848H898.215C899.395 130.466 901.008 129.421 902.861 128.895ZM897.38 132.997H901.212C900.876 134.268 900.7 135.538 900.676 136.809H896.163C896.257 135.429 896.688 134.135 897.38 132.997ZM897.38 141.77C896.688 140.633 896.257 139.339 896.163 137.959H900.694C900.761 139.229 900.976 140.5 901.334 141.77H897.38ZM898.215 142.92H901.696C902.043 143.916 902.475 144.912 902.99 145.908C901.083 145.394 899.422 144.334 898.215 142.92ZM905.614 146.254C905.193 146.254 904.779 146.228 904.373 146.178C903.794 145.092 903.301 144.006 902.905 142.92H908.322C907.926 144.006 907.433 145.092 906.854 146.178C906.448 146.228 906.034 146.254 905.614 146.254ZM908.237 145.908C908.752 144.912 909.184 143.916 909.531 142.92H913.012C911.805 144.334 910.145 145.394 908.237 145.908ZM913.846 141.77H909.893C910.251 140.5 910.466 139.229 910.533 137.959H915.064C914.97 139.339 914.539 140.633 913.846 141.77ZM915.064 136.809H910.551C910.527 135.538 910.35 134.268 910.015 132.997H913.846C914.539 134.135 914.969 135.429 915.064 136.809Z" fill="white"/>
<path d="M931.195 36.2881H878.412C877.321 36.2881 876.438 35.4602 876.438 34.4389C876.438 33.4177 877.321 32.5898 878.412 32.5898H931.195C932.285 32.5898 933.169 33.4177 933.169 34.4389C933.169 35.4602 932.285 36.2881 931.195 36.2881H931.195Z" fill="#C98BD2"/>
<path d="M1205.66 157.038H1180.04C1178.95 157.038 1178.07 156.21 1178.07 155.189C1178.07 154.168 1178.95 153.34 1180.04 153.34H1205.66C1206.75 153.34 1207.64 154.168 1207.64 155.189C1207.64 156.21 1206.75 157.038 1205.66 157.038Z" fill="#56DFED"/>
<path d="M1187.72 172.887H1184.59C1183.77 172.887 1183.1 173.511 1183.1 174.282V177.034C1183.1 177.804 1183.77 178.429 1184.59 178.429H1187.72C1188.54 178.429 1189.21 177.804 1189.21 177.034V174.282C1189.21 173.511 1188.54 172.887 1187.72 172.887Z" fill="#C98BD2"/>
<path d="M890.987 185.697H887.857C887.034 185.697 886.367 186.322 886.367 187.092V189.844C886.367 190.615 887.034 191.239 887.857 191.239H890.987C891.81 191.239 892.477 190.615 892.477 189.844V187.092C892.477 186.322 891.81 185.697 890.987 185.697Z" fill="#FFB1A5"/>
<path d="M1130.58 19.5293H1078.48C1077.62 19.5293 1076.91 20.1867 1076.91 20.9976V32.9105C1076.91 33.7214 1077.62 34.3788 1078.48 34.3788H1130.58C1131.45 34.3788 1132.15 33.7214 1132.15 32.9105V20.9976C1132.15 20.1867 1131.45 19.5293 1130.58 19.5293Z" fill="#EA9021"/>
<path d="M1084.44 24.8203H1121.49" stroke="white" stroke-width="1.18031" stroke-miterlimit="10"/>
<path d="M1084.44 28.3818H1099.53" stroke="white" stroke-width="1.18031" stroke-miterlimit="10"/>
<path d="M1082.93 32.6992V38.4864L1090.7 32.6992H1082.93Z" fill="#EA9021"/>
<path d="M976.288 6H1002.58C1004.44 6 1005.94 7.41111 1005.94 9.1492V32.1124C1005.94 33.8505 1004.44 35.2616 1002.58 35.2616H977.361C974.913 35.2616 972.926 33.4003 972.926 31.1078V9.14919C972.926 7.4111 974.433 6 976.288 6Z" fill="white"/>
<path d="M997.138 22.7944L995.258 21.0336C994.922 20.6878 994.486 20.4991 994.049 20.4991C993.613 20.4991 993.176 20.6878 992.841 21.0022L991.766 22.0083C991.699 21.9769 991.632 21.9455 991.565 21.914C991.43 21.8511 991.33 21.8197 991.229 21.7568C990.222 21.1594 989.315 20.3734 988.443 19.3672C988.04 18.8956 987.738 18.4554 987.57 18.0781C987.838 17.858 988.073 17.6064 988.308 17.3864C988.409 17.292 988.51 17.1977 988.61 17.1034C988.98 16.7575 989.181 16.3488 989.181 15.9401C989.181 15.5313 988.98 15.1226 988.61 14.7767L987.67 13.8963C987.57 13.802 987.469 13.7077 987.368 13.5819L986.73 12.9845C986.395 12.6701 985.958 12.4814 985.522 12.4814C985.085 12.4814 984.682 12.6387 984.313 12.9845L983.138 14.085C982.702 14.4937 982.433 15.0282 982.366 15.6256C982.299 16.5689 982.567 17.4493 982.802 18.0152C983.34 19.4615 984.179 20.7507 985.421 22.1341C986.932 23.8005 988.711 25.1211 990.793 26.0643C991.565 26.4102 992.639 26.8189 993.814 26.9133H994.049C994.855 26.9133 995.526 26.6303 996.063 26.0958L996.097 26.0643C996.265 25.8757 996.466 25.687 996.701 25.4984L997.138 25.0896C997.843 24.3979 997.843 23.4547 997.138 22.7944ZM996.366 24.4293C996.231 24.5551 996.097 24.6809 995.963 24.8066C995.728 24.9953 995.526 25.2154 995.291 25.4355C994.956 25.7499 994.586 25.9071 994.083 25.9071H993.915C992.908 25.8442 991.968 25.4669 991.296 25.1525C989.383 24.2721 987.704 23.0459 986.294 21.4738C985.152 20.1847 984.38 18.9585 983.843 17.6693C983.507 16.9148 983.373 16.3174 983.44 15.72C983.474 15.3741 983.608 15.0597 983.91 14.8082L985.052 13.7391C985.152 13.6448 985.32 13.519 985.522 13.519C985.723 13.519 985.857 13.6134 985.992 13.7391C986.193 13.9278 986.395 14.1164 986.596 14.305C986.697 14.3994 986.797 14.5252 986.932 14.6195L987.872 15.4999C987.973 15.5942 988.107 15.7828 988.107 15.9401C988.107 16.1287 987.973 16.2859 987.872 16.3802L987.57 16.6632L986.73 17.4493L986.697 17.4807C986.361 17.7951 986.428 18.0781 986.495 18.2667V18.2982C986.73 18.8641 987.1 19.3672 987.603 19.996C988.543 21.0965 989.55 21.9455 990.658 22.6057C990.793 22.7 990.96 22.7629 991.095 22.8258C991.229 22.8887 991.33 22.9202 991.431 22.983L991.464 23.0145C991.8 23.1717 992.136 23.1088 992.404 22.8573L993.579 21.7568C993.68 21.6625 993.848 21.5367 994.049 21.5367C994.217 21.5367 994.385 21.6625 994.486 21.7568L996.366 23.5175C996.668 23.8005 996.668 24.115 996.366 24.4293Z" fill="#F2A546"/>
<path d="M1112.28 146.053L1093.28 143.684L1093.43 145.451L1077.19 147.477C1077.19 147.477 1066.71 172.081 1075.94 226.193H1089.16L1093.91 171.324H1095.6L1100.21 226.193H1113.43C1122.65 172.081 1112.28 146.053 1112.28 146.053Z" fill="#8E716C"/>
<path d="M1087.87 171.324H1101.66" stroke="#282828" stroke-width="1.23331" stroke-linecap="round" stroke-linejoin="round"/>
<path d="M1123.38 120.097C1121.75 117.667 1112.62 117.753 1112.14 117.7C1109.67 117.429 1113.72 135.826 1118.86 151.907C1119.84 154.99 1123.47 156.596 1126.63 155.34C1126.66 155.327 1126.7 155.313 1126.73 155.3C1129.24 154.307 1130.66 151.819 1130.16 149.317C1127.71 137.183 1125.26 122.907 1123.38 120.097Z" fill="#FFB1A5"/>
<path d="M1125.56 126.749L1113.9 130.986L1112.8 125.806L1124.88 122.985L1125.56 126.749Z" fill="#F3978E"/>
<path d="M1127.76 137.114C1127.76 137.114 1122.24 144.06 1122.5 143.741C1122.76 143.421 1126.83 132.515 1126.83 132.515L1127.76 137.114Z" fill="#F3978E"/>
<path d="M1135.65 127.776L1119.82 146.986C1117.74 149.508 1118.41 153.155 1121.26 154.89H1121.26C1124.11 156.621 1127.93 155.711 1129.55 152.915L1142.73 130.146L1135.65 127.776Z" fill="#FFB1A5"/>
<path d="M1139.75 132.709C1136.32 131.67 1134.44 128.223 1135.54 125.009C1136.65 121.795 1140.33 120.031 1143.77 121.069C1147.2 122.108 1149.08 125.555 1147.97 128.769C1146.86 131.983 1143.18 133.747 1139.75 132.709Z" fill="#FFB1A5"/>
<path d="M1146.52 123.213C1146.52 123.213 1148.31 121.475 1145.14 120.257C1141.97 119.039 1138.05 119.319 1135.55 125.009L1146.52 123.213Z" fill="#FFB1A5"/>
<path d="M1149.8 111.073L1156.43 113.764C1156.8 113.914 1156.94 114.323 1156.73 114.679L1148.01 129.933C1147.81 130.288 1147.35 130.455 1146.98 130.305L1140.35 127.614C1139.98 127.464 1139.84 127.055 1140.05 126.699L1148.77 111.445C1148.97 111.09 1149.43 110.923 1149.8 111.073H1149.8Z" fill="#372F5F"/>
<path d="M1149.17 110.803L1155.8 113.495C1156.17 113.644 1156.3 114.054 1156.1 114.409L1147.38 129.664C1147.18 130.019 1146.71 130.186 1146.34 130.036L1139.71 127.344C1139.35 127.195 1139.21 126.785 1139.42 126.43L1148.14 111.175C1148.34 110.82 1148.8 110.653 1149.17 110.803Z" fill="#261B43"/>
<path d="M1148.42 112.355L1154.25 114.72L1147.14 127.153L1141.32 124.788L1148.42 112.355Z" fill="#E6E6E6"/>
<path d="M1154.25 114.72L1141.32 124.788L1148.42 112.355L1154.25 114.72Z" fill="white"/>
<path d="M1143.23 119.751C1143.23 119.751 1144.71 120.021 1146.04 120.727C1146.63 121.039 1146.93 121.673 1146.77 122.286C1146.62 122.845 1146.12 123.261 1145.51 123.333L1142.06 123.74C1142.06 123.74 1140.26 126.642 1137.91 126.968L1140.07 121.872L1143.23 119.751Z" fill="#FFB1A5"/>
<path d="M1099.23 95.9063C1098.85 95.9042 1123.66 99.1225 1127.76 125.623L1114.88 127.47L1112.29 147.476H1076.36L1069.23 110.513C1069.23 110.513 1077.19 99.8296 1091.97 95.9063H1099.23Z" fill="#56DFED"/>
<path d="M1114.88 127.471L1116 115.9" stroke="#282828" stroke-width="1.23331" stroke-linecap="round" stroke-linejoin="round"/>
<path d="M1101.59 96.2848V87.0801H1090.07V96.393C1089.48 96.5576 1088.5 96.8903 1086.98 97.5682L1095.96 102.58L1105.14 97.5678C1105.14 97.5678 1103.69 96.7741 1101.59 96.2848Z" fill="#FFB1A5"/>
<path d="M1089.96 88.2052C1089.96 88.2052 1092.03 93.3491 1097.55 92.905C1102.63 92.4969 1101.82 85.3682 1101.82 85.3682L1089.96 88.2052Z" fill="#282828"/>
<path d="M1084.94 81.3639C1083.13 82.8974 1079.1 77.0807 1080.84 75.4476C1082.59 73.8146 1083.92 76.3767 1083.92 76.3767L1084.7 78.1129L1085.28 80.4646L1085.42 81.0804L1084.94 81.3639Z" fill="#F3978E"/>
<path d="M1081.69 77.5082C1081.69 77.5082 1083.05 76.9326 1084.27 78.7879" stroke="#282828" stroke-width="0.99284" stroke-linecap="round" stroke-linejoin="round"/>
<path d="M1106.29 81.187C1107.95 82.858 1112.5 77.3818 1110.91 75.6164C1109.31 73.8511 1107.76 76.2986 1107.76 76.2986L1106.82 77.967L1106.03 80.2636L1105.83 80.8662L1106.29 81.187Z" fill="#F3978E"/>
<path d="M1109.88 77.6032C1109.88 77.6032 1108.57 76.9214 1107.2 78.6739" stroke="#282828" stroke-width="0.99284" stroke-linecap="round" stroke-linejoin="round"/>
<path d="M1081.77 69.8992C1081.77 77.5992 1088.04 81.2503 1095.77 81.2503C1103.51 81.2503 1109.78 77.5992 1109.78 69.8992C1109.78 62.1993 1103.51 56.9609 1095.77 56.9609C1088.04 56.9609 1081.77 62.1992 1081.77 69.8992Z" fill="#282828"/>
<path d="M1083.68 70.4348C1083.68 75.1616 1084.39 79.2407 1085.1 82.1358C1085.8 84.9701 1087.76 86.9508 1090.53 88.5453L1091.04 88.8357C1093.97 90.5226 1097.76 90.5619 1100.73 88.9363C1103.74 87.2967 1105.84 85.1351 1106.49 82.0936C1107.66 76.5616 1107.79 70.4348 1107.79 70.4348C1107.79 70.4348 1108.91 58.5019 1095.91 58.7338C1082.9 58.9656 1083.68 70.4348 1083.68 70.4348Z" fill="#FFB1A5"/>
<path d="M1094.95 77.2441V78.8952C1094.95 78.9931 1094.97 79.0868 1095 79.1728C1095.15 79.5102 1095.56 79.6719 1095.94 79.5785L1096.75 79.3776" stroke="#282828" stroke-width="1.23163" stroke-linecap="round" stroke-linejoin="round"/>
<path d="M1092.88 70.841L1086.41 72.2599C1086.41 72.2599 1086.71 70.7193 1089.35 70.1594C1092 69.5996 1092.88 70.841 1092.88 70.841Z" fill="#282828"/>
<path d="M1098.61 70.8413L1104.85 72.2601C1104.85 72.2601 1104.57 70.7195 1102.01 70.1597C1099.46 69.5998 1098.61 70.8413 1098.61 70.8413Z" fill="#282828"/>
<path d="M1090.42 76.3058C1091.02 76.3058 1091.51 75.8499 1091.51 75.2877C1091.51 74.7254 1091.02 74.2695 1090.42 74.2695C1089.82 74.2695 1089.33 74.7254 1089.33 75.2877C1089.33 75.8499 1089.82 76.3058 1090.42 76.3058Z" fill="#282828"/>
<path d="M1101.84 75.2877C1101.84 75.85 1101.36 76.3058 1100.75 76.3058C1100.15 76.3058 1099.66 75.85 1099.66 75.2877C1099.66 74.7254 1100.15 74.2695 1100.75 74.2695C1101.36 74.2695 1101.84 74.7254 1101.84 75.2877Z" fill="#282828"/>
<path d="M1091.51 81.5H1099.92C1099.92 81.5 1096.19 85.7447 1091.51 81.5Z" fill="white"/>
<path d="M1093.24 78.7531C1095.05 77.0577 1095.05 74.309 1093.24 72.6137C1091.43 70.9183 1088.49 70.9183 1086.68 72.6136C1084.87 74.309 1084.87 77.0577 1086.68 78.7531C1088.49 80.4484 1091.43 80.4484 1093.24 78.7531Z" stroke="#C98BD2" stroke-width="1.3423" stroke-miterlimit="10"/>
<path d="M1104.63 78.7533C1106.44 77.0579 1106.44 74.3092 1104.63 72.6139C1102.82 70.9185 1099.88 70.9185 1098.07 72.6139C1096.26 74.3092 1096.26 77.058 1098.07 78.7533C1099.88 80.4487 1102.82 80.4487 1104.63 78.7533Z" stroke="#C98BD2" stroke-width="1.3423" stroke-miterlimit="10"/>
<path d="M1094.6 75.6833C1094.6 75.6833 1095.7 74.7237 1096.71 75.6833" stroke="#C98BD2" stroke-width="1.3423" stroke-miterlimit="10"/>
<path d="M1085.33 75.6831L1083.87 75.6484" stroke="#C98BD2" stroke-width="1.3423" stroke-miterlimit="10"/>
<path d="M1105.98 75.6831L1107.45 75.6484" stroke="#C98BD2" stroke-width="1.3423" stroke-miterlimit="10"/>
<path d="M1107.63 74.3899C1107.63 74.3899 1102.43 67.8064 1103.62 61.1367C1103.62 61.1367 1107.48 62.9557 1108.49 67.6507C1109.49 72.3456 1107.63 74.3899 1107.63 74.3899Z" fill="#282828"/>
<path d="M1083.67 74.8364C1083.67 74.8364 1089.71 67.359 1088.51 60.6895C1088.51 60.6895 1084.32 62.9562 1083.32 67.6511C1082.31 72.346 1083.67 74.8364 1083.67 74.8364Z" fill="#282828"/>
<path d="M1107.19 63.7636C1107.19 63.7636 1100.51 70.6091 1082.24 69.4374C1082.24 69.4374 1085.04 59.3919 1093.89 58.322C1093.89 58.322 1104.11 57.1789 1107.19 63.7636Z" fill="#282828"/>
<path d="M1115.33 57.0635C1116.1 52.6097 1112.86 48.4164 1108.11 47.6975C1103.35 46.9786 1098.88 50.0063 1098.11 54.4601C1097.34 58.9139 1100.57 63.1072 1105.33 63.8261C1110.09 64.545 1114.56 61.5173 1115.33 57.0635Z" fill="#282828"/>
<path d="M1000.24 146.033L983.995 144.007L984.143 142.24L965.142 144.61C965.142 144.61 954.772 170.638 964.001 224.75H977.216L981.823 169.881H983.512L988.268 224.75H1001.48C1010.71 170.638 1000.24 146.033 1000.24 146.033Z" fill="#282828"/>
<path d="M998.943 72.0068C996.744 69.5841 994.983 66.758 993.487 62.7923C991.881 58.5351 986.622 60.2656 986.622 60.2656C986.622 60.2656 982.239 54.9855 975.644 56.8244C969.049 58.6634 966.758 63.0586 966.624 68.2839C966.489 73.5092 962.101 74.3265 958.721 80.3713C952.755 91.0429 962.8 100.032 981.084 97.5379L981.108 97.3717C982.908 97.8837 985.115 98.1073 987.809 97.9575C1009.77 96.7363 1007.65 81.6056 998.943 72.0068Z" fill="#282828"/>
<path d="M991.749 79.9205C993.554 81.454 997.591 75.6373 995.847 74.0043C994.102 72.3712 992.772 74.9333 992.772 74.9333L991.993 76.6696L991.405 79.0212L991.266 79.637L991.749 79.9205Z" fill="#F3978E"/>
<path d="M995.002 76.0649C995.002 76.0649 993.636 75.4892 992.422 77.3445" stroke="#282828" stroke-width="0.99284" stroke-linecap="round" stroke-linejoin="round"/>
<path d="M970.403 79.7446C968.742 81.4156 964.195 75.9394 965.785 74.174C967.376 72.4087 968.933 74.8562 968.933 74.8562L969.866 76.5245L970.664 78.8212L970.859 79.4238L970.403 79.7446Z" fill="#F3978E"/>
<path d="M966.812 76.1599C966.812 76.1599 968.122 75.478 969.499 77.2305" stroke="#282828" stroke-width="0.99284" stroke-linecap="round" stroke-linejoin="round"/>
<path d="M994.916 68.4558C994.916 76.1558 988.647 79.8069 980.915 79.8069C973.182 79.8069 966.914 76.1558 966.914 68.4558C966.914 60.7559 973.182 55.5176 980.915 55.5176C988.647 55.5176 994.916 60.7559 994.916 68.4558Z" fill="#282828"/>
<path d="M986.623 85.6377H975.105V99.6056H986.623V85.6377Z" fill="#FFB1A5"/>
<path d="M973.422 84.7666C973.422 84.7666 976.628 90.7592 980.572 91.6947C981.626 91.9446 982.751 91.8591 983.767 91.5218C985.252 91.029 987.134 88.9561 987.454 86.6624L987.603 85.3522C987.603 85.3522 980.584 88.931 973.422 84.7666Z" fill="#282828"/>
<path d="M993.015 68.9914C993.015 73.7183 992.302 77.7974 991.59 80.6924C990.893 83.5268 988.932 85.5075 986.161 87.1019L985.656 87.3923C982.723 89.0793 978.935 89.1186 975.957 87.493V87.4929C972.954 85.8534 970.852 83.6917 970.205 80.6503C969.028 75.1183 968.899 68.9914 968.899 68.9914C968.899 68.9914 967.78 57.0586 980.785 57.2904C993.791 57.5223 993.015 68.9914 993.015 68.9914Z" fill="#FFB1A5"/>
<path d="M980.047 76.4482V77.4291C980.047 77.5266 980.067 77.62 980.104 77.7057C980.248 78.0422 980.664 78.2033 981.04 78.1102L981.849 77.91" stroke="#282828" stroke-width="1.22976" stroke-linecap="round" stroke-linejoin="round"/>
<path d="M982.758 69.9795L989.677 71.5132C989.677 71.5132 989.363 69.8479 986.532 69.2427C983.701 68.6376 982.758 69.9795 982.758 69.9795Z" fill="#282828"/>
<path d="M979.126 69.9795L972.117 71.5132C972.117 71.5132 972.436 69.8479 975.303 69.2427C978.17 68.6376 979.126 69.9795 979.126 69.9795Z" fill="#282828"/>
<path d="M976.618 74.0013C976.618 74.5619 976.13 75.0164 975.528 75.0164C974.926 75.0164 974.438 74.5619 974.438 74.0013C974.438 73.4408 974.926 72.9863 975.528 72.9863C976.13 72.9863 976.618 73.4408 976.618 74.0013Z" fill="#282828"/>
<path d="M986.95 74.0013C986.95 74.5619 986.462 75.0164 985.86 75.0164C985.258 75.0164 984.77 74.5619 984.77 74.0013C984.77 73.4408 985.258 72.9863 985.86 72.9863C986.462 72.9863 986.95 73.4408 986.95 74.0013Z" fill="#282828"/>
<path d="M975.898 79.8066H985.466C985.466 79.8066 984.791 82.2686 980.452 82.2686C977.148 82.2686 975.898 79.8066 975.898 79.8066Z" fill="white"/>
<path d="M969.067 72.9476C969.067 72.9476 974.267 66.364 973.068 59.6943C973.068 59.6943 969.208 61.5134 968.203 66.2083C967.198 70.9032 969.067 72.9476 969.067 72.9476Z" fill="#282828"/>
<path d="M993.022 72.7278C993.022 72.7278 986.982 65.9157 988.181 59.2461C988.181 59.2461 992.371 61.5128 993.376 66.2078C994.381 70.9027 993.022 72.7278 993.022 72.7278Z" fill="#282828"/>
<path d="M969.5 62.3212C969.5 62.3212 975.467 69.832 993.734 68.6602C993.734 68.6602 991.647 57.9495 982.794 56.8796C982.794 56.8796 972.572 55.7365 969.5 62.3212Z" fill="#282828"/>
<path d="M952.85 179.071C952.584 179.463 968.054 116.033 963.461 116.992C963.042 117.08 954.998 117.779 953.803 120.056C950.337 126.655 947.852 178.59 947.852 178.59L952.85 179.071Z" fill="#FFB1A5"/>
<path d="M947.853 178.591C947.853 178.591 945.36 189.426 954.786 190.61C955.407 190.688 956.007 190.345 956.211 189.79L956.239 189.716C956.464 189.104 956.136 188.448 955.505 188.183C953.968 187.54 951.585 185.914 952.767 182.221C952.767 182.221 954.13 182.065 954.882 184.445C955.075 185.058 955.809 185.365 956.418 185.078C956.834 184.882 957.068 184.463 957.009 184.031C956.783 182.364 955.888 178.351 952.452 177.274L947.853 178.591Z" fill="#FFB1A5"/>
<path d="M951.023 135.296C951.023 135.296 959.937 147.052 959.984 146.825C960.031 146.597 963.101 130.319 963.101 130.319L952.285 125.932L951.023 135.296Z" fill="#F3978E"/>
<path d="M975.792 97.3061C976.172 97.3041 953.763 97.68 949.668 124.18L962.546 126.028L965.143 146.034H1001.07L1008.2 109.07C1008.2 109.07 1003.13 101.062 988.352 97.1387L975.792 97.3061Z" fill="#00857B"/>
<path d="M964.84 100.509C964.84 100.509 968.007 104.447 980.982 104.447C993.838 104.447 997.125 100.303 997.125 100.303C997.125 100.303 989.547 96.3376 980.753 95.0547C980.753 95.0547 972.901 96.3647 964.84 100.509Z" fill="#FFB1A5"/>
<path d="M1008.93 184.461L1008.96 237.31H1036.88L1039.02 184.461H1008.93Z" fill="#005683"/>
<path d="M1069.55 184.461L1069.51 237.31H1041.6L1039.45 184.461H1069.55Z" fill="#005683"/>
<path d="M1054.3 184.461H1025.43V202.822H1054.3V184.461Z" fill="#005683"/>
<path d="M1029.46 202.821H1049.37" stroke="#282828" stroke-width="1.39681" stroke-linecap="round" stroke-linejoin="round"/>
<path d="M1087.18 138.341C1088.91 156.249 1087.09 169.297 1087.59 202.25L1070.93 202.904L1068.45 141.222L1087.18 138.341Z" fill="#FFB1A5"/>
<path d="M1070.5 152.315C1070.5 152.315 1080.82 151.431 1087.87 147.073L1087.68 143.237L1070.49 145.43L1070.5 152.315Z" fill="#F3978E"/>
<path d="M1053.95 97.1094C1053.95 97.1094 1086.72 104.828 1092.66 143.788C1092.66 143.788 1076.62 150.3 1060.54 147.499L1064.16 134.468L1053.95 97.1094Z" fill="#C98BD2"/>
<path d="M956.052 113.309L980.454 140.298L972.987 159.993C972.987 159.993 954.44 135.843 946.105 117.177L956.052 113.309Z" fill="#FFB1A5"/>
<path d="M956.853 114.281C956.853 114.281 948.284 118.815 946.105 117.175C942.296 114.309 939.148 103.818 939.148 103.818C939.148 103.818 955.172 98.1602 955.022 98.3813C954.871 98.6025 956.853 114.281 956.853 114.281Z" fill="#FFB1A5"/>
<path d="M956.854 114.282C956.703 113.474 960.032 104.759 961.173 101.49C961.448 100.702 960.868 99.8377 959.954 99.6739C959.36 99.5671 958.418 99.6359 957.972 100.435L953.953 106.868L956.854 114.282Z" fill="#FFB1A5"/>
<path d="M956.56 104.861L953.8 92.0032C953.637 91.1478 952.719 90.5582 951.803 90.7202C951.01 90.8605 950.488 91.5218 950.581 92.2661L951.784 101.84L956.56 104.861Z" fill="#FFB1A5"/>
<path d="M951.072 100.118L947.324 90.9366C947.014 90.1327 946.048 89.6872 945.195 89.9548C944.456 90.1868 944.041 90.8848 944.216 91.6017L946.996 102.211L951.072 100.118Z" fill="#FFB1A5"/>
<path d="M947.045 102.825L942.303 93.8041C941.868 92.9669 940.786 92.5782 939.897 92.9401C939.062 93.2802 938.693 94.1659 939.05 94.9709L942.83 103.488L947.045 102.825Z" fill="#FFB1A5"/>
<path d="M939.149 103.818L935.429 98.2917C935.121 97.6414 935.405 96.9125 936.079 96.6241C936.724 96.3481 937.521 96.5652 937.938 97.1307L942.83 103.487L939.149 103.818Z" fill="#FFB1A5"/>
<path d="M955.809 103.895C955.809 103.895 950.222 103.346 949.648 110.319" stroke="#282828" stroke-width="1.53173" stroke-linecap="round" stroke-linejoin="round"/>
<path d="M968.035 150.781C968.035 150.781 972.625 165.657 981.771 163.679C990.916 161.701 1005.17 143.407 1005.17 143.407L1001.98 112.17L976.31 141.759L968.035 150.781Z" fill="#FFB1A5"/>
<path d="M984.273 132.568C984.273 132.568 992.94 144.81 1000.33 149.128L1005.17 143.407L986.504 129.883L984.273 132.568Z" fill="#F3978E"/>
<path d="M1022.19 96.4336C1022.19 96.4336 996.743 101.805 983.184 129.5C983.184 129.5 991.376 141.061 1004.51 146.199L1013.3 136.11L1022.19 96.4336Z" fill="#C98BD2"/>
<path d="M1022.19 96.3483C1012.25 101.123 1006 107.455 1006 107.455L1007.96 188.412H1070.6L1070.4 107.873C1070.4 107.873 1062.5 100.637 1053.95 97.1092C1046.68 94.1129 1029.26 92.954 1022.19 96.3483Z" fill="#C98BD2"/>
<path d="M1043.12 119.478H1060.55V127.637C1060.55 132.14 1056.64 135.796 1051.83 135.796H1051.83C1047.02 135.796 1043.12 132.14 1043.12 127.637V119.478V119.478Z" stroke="#282828" stroke-width="1.39681" stroke-linecap="round" stroke-linejoin="round"/>
<path d="M1070.5 147.8L1071.31 121.316" stroke="#282828" stroke-width="1.39681" stroke-linecap="round" stroke-linejoin="round"/>
<path d="M1006.97 143.386L1005.61 120.43" stroke="#282828" stroke-width="1.39681" stroke-linecap="round" stroke-linejoin="round"/>
<path d="M1022.93 66.7786L1020.32 54.6811C1020.17 53.6956 1019.76 52.1751 1020.26 50.7464C1021.09 48.3824 1024.13 43.8424 1029.33 45.9211L1030.45 50.7108C1030.45 50.7108 1025.05 51.7304 1022.89 58.3403L1022.93 66.7786Z" fill="#282828"/>
<path d="M1028.94 48.418C1028.85 50.0074 1027.35 56.9624 1022.08 59.4963C1022.08 59.4963 1017.47 50.2309 1028.94 48.418Z" fill="#282828"/>
<path d="M1047.42 94.1203V73.5781H1027.19V94.1203L1021.18 96.6901C1021.18 96.6901 1022.59 105.204 1037.52 105.393C1052.45 105.582 1053.95 97.109 1053.95 97.109L1047.42 94.1203Z" fill="#FFB1A5"/>
<path d="M1029.32 45.9213C1029.32 45.9213 1033.03 36.753 1044.47 41.627C1051.4 44.5771 1053.34 48.5324 1054.17 51.335C1054.44 52.2663 1054.55 53.7329 1054.47 54.6039L1051.71 66.7787L1040.9 49.9342L1030.44 50.7109L1029.32 45.9213Z" fill="#282828"/>
<path d="M1051.71 66.7788C1051.71 66.7788 1053.07 64.7482 1055.88 65.747C1058.69 66.7457 1057.42 73.1407 1053.21 73.9557C1053.21 73.9557 1051.69 74.2645 1050.51 73.2951C1050.51 73.2951 1051.54 68.5715 1051.71 66.7788Z" fill="#F3978E"/>
<path d="M1055.32 68.0032C1055.32 68.0032 1052.97 67.2672 1051.3 70.5153" stroke="#282828" stroke-width="1.39681" stroke-linecap="round" stroke-linejoin="round"/>
<path d="M1022.93 66.7788C1022.93 66.7788 1021.56 64.7482 1018.75 65.7469C1015.94 66.7457 1017.21 73.1407 1021.43 73.9557C1021.43 73.9557 1022.94 74.2645 1024.13 73.2951C1024.13 73.2951 1023.09 68.5715 1022.93 66.7788Z" fill="#F3978E"/>
<path d="M1019.31 68.0032C1019.31 68.0032 1021.67 67.2671 1023.34 70.5153" stroke="#282828" stroke-width="1.39681" stroke-linecap="round" stroke-linejoin="round"/>
<path d="M1051.99 60.7101C1051.99 64.5653 1051.59 72.6308 1049.06 77.418C1046.68 81.9128 1042.75 84.3318 1037.6 84.4758C1032.45 84.6198 1028.61 82.7601 1025.53 76.9266C1022.46 71.0931 1022.6 60.7817 1022.6 60.7817C1022.6 60.7817 1022.6 47.0098 1037.14 47.0098C1052.44 47.0098 1051.99 60.7101 1051.99 60.7101Z" fill="#FFB1A5"/>
<path d="M1027.35 79.8018C1027.35 79.8018 1029.04 87.8484 1036.52 88.7728C1045.12 89.8367 1047.42 80.0062 1047.42 80.0062C1047.42 80.0062 1043.61 84.4688 1037.6 84.4757C1030.89 84.4834 1027.35 79.8018 1027.35 79.8018Z" fill="#282828"/>
<path d="M1036.26 66.4277V69.6151C1036.26 69.752 1036.29 69.8831 1036.34 70.0034C1036.54 70.4755 1037.12 70.7016 1037.64 70.5709L1038.77 70.2899" stroke="#282828" stroke-width="1.39681" stroke-linecap="round" stroke-linejoin="round"/>
<path d="M1031.97 64.9051C1031.97 65.5895 1031.38 66.1442 1030.65 66.1442C1029.92 66.1442 1029.32 65.5895 1029.32 64.9051C1029.32 64.2208 1029.92 63.666 1030.65 63.666C1031.38 63.666 1031.97 64.2208 1031.97 64.9051Z" fill="#282828"/>
<path d="M1044.37 64.9051C1044.37 65.5895 1043.78 66.1442 1043.05 66.1442C1042.32 66.1442 1041.73 65.5895 1041.73 64.9051C1041.73 64.2208 1042.32 63.666 1043.05 63.666C1043.78 63.666 1044.37 64.2208 1044.37 64.9051Z" fill="#282828"/>
<path d="M1039.66 58.7412L1048.56 60.8933C1048.56 60.8933 1048.16 58.5565 1044.52 57.7073C1040.88 56.8581 1039.66 58.7412 1039.66 58.7412Z" fill="#282828"/>
<path d="M1034.14 58.7412L1025.24 60.8933C1025.24 60.8933 1025.65 58.5565 1029.29 57.7073C1032.92 56.8581 1034.14 58.7412 1034.14 58.7412Z" fill="#282828"/>
<path d="M1032.37 72.8262C1032.37 72.8262 1033.68 73.7681 1037.13 73.7681C1040.27 73.7681 1042.23 72.8262 1042.23 72.8262" stroke="#282828" stroke-width="1.39681" stroke-linecap="round" stroke-linejoin="round"/>
<path d="M1030.29 70.5326C1033.39 70.5326 1035.91 68.1752 1035.91 65.2673C1035.91 62.3593 1033.39 60.002 1030.29 60.002C1027.18 60.002 1024.66 62.3593 1024.66 65.2673C1024.66 68.1752 1027.18 70.5326 1030.29 70.5326Z" stroke="white" stroke-width="1.95143" stroke-miterlimit="10"/>
<path d="M1044.1 70.5326C1047.2 70.5326 1049.72 68.1752 1049.72 65.2673C1049.72 62.3593 1047.2 60.002 1044.1 60.002C1040.99 60.002 1038.48 62.3593 1038.48 65.2673C1038.48 68.1752 1040.99 70.5326 1044.1 70.5326Z" stroke="white" stroke-width="1.95143" stroke-miterlimit="10"/>
<path d="M1035.91 65.2673C1035.91 65.2673 1037.24 64.1034 1038.48 65.2673" stroke="white" stroke-width="1.95143" stroke-miterlimit="10"/>
<path d="M1024.67 65.2673L1022.78 65.2225" stroke="white" stroke-width="1.95143" stroke-miterlimit="10"/>
<path d="M1049.72 65.2673L1051.83 65.2353" stroke="white" stroke-width="1.95143" stroke-miterlimit="10"/>
<path d="M1027.35 48.7328C1027.35 48.7328 1030.05 55.9166 1042.23 55.6962C1050.51 55.5464 1052.49 61.1568 1052.49 61.1568C1052.49 61.1568 1051.05 48.6146 1050.67 48.7328C1050.29 48.8511 1038.07 45.6797 1038.07 45.6797L1027.35 48.7328Z" fill="#282828"/>
</g>
<defs>
<clipPath id="clip0_233_5868">
<rect width="1354" height="226.438" rx="5" fill="white"/>
</clipPath>
</defs>
</svg>
