<svg width="60" height="44" viewBox="0 0 60 44" fill="none" xmlns="http://www.w3.org/2000/svg">
<rect y="0.837158" width="53.7863" height="40.3397" rx="4" fill="white"/>
<rect x="2.24023" y="3.07812" width="49.3041" height="35.8575" rx="2" fill="#E8E7EC"/>
<path d="M36.3046 11.2957C36.8823 11.2957 37.3505 11.7602 37.3505 12.3332V19.596C37.3505 20.169 36.8823 20.6336 36.3046 20.6336H34.2119L34.2129 28.9339C34.2129 29.5069 33.7447 29.9714 33.1671 29.9714H20.617C20.0394 29.9714 19.5711 29.5069 19.5711 28.9339L19.5701 20.6325L17.4794 20.6336C16.9018 20.6336 16.4336 20.169 16.4336 19.596V12.3332C16.4336 11.7602 16.9018 11.2957 17.4794 11.2957H23.7545C23.7545 13.0147 25.1593 14.4083 26.892 14.4083C28.6249 14.4083 30.0296 13.0147 30.0296 11.2957H36.3046Z" fill="#C2C6C9"/>
<circle cx="50.7822" cy="35" r="9" fill="#F53928"/>
<path d="M50.7822 31V35.5" stroke="white" stroke-width="2" stroke-linecap="round"/>
<path d="M50.7822 38.5L50.7822 39" stroke="white" stroke-width="2" stroke-linecap="round"/>
</svg>
