<svg width="585" height="567" viewBox="0 0 585 567" fill="none" xmlns="http://www.w3.org/2000/svg">
<path d="M227.801 14.6401L90.2344 193.366L460.201 101.394L254.133 8.03561C249.643 5.99804 244.596 5.54176 239.814 6.74118C235.032 7.94061 230.798 10.725 227.801 14.6401V14.6401Z" fill="#EBEBEB"/>
<path d="M88.2852 194.638L227.196 14.1921C230.294 10.1345 234.681 7.25259 239.635 6.02065C244.589 4.78871 249.815 5.28019 254.452 7.41418L462.559 101.683L88.2852 194.638ZM245.088 6.76385C241.856 6.76603 238.669 7.51604 235.776 8.95516C232.882 10.3943 230.361 12.4835 228.41 15.0592V15.0592L92.1727 192.109L457.891 101.192L253.831 8.70039C251.083 7.46158 248.102 6.82589 245.088 6.8361V6.76385Z" fill="#E0E0E0"/>
<path d="M90.2266 193.372L461.496 101.08L511.516 302.296C512.506 306.28 511.873 310.494 509.757 314.011C507.64 317.528 504.213 320.061 500.229 321.051L159.001 405.876C155.017 406.866 150.803 406.233 147.286 404.117C143.769 402 141.237 398.573 140.246 394.589L90.2266 193.372Z" fill="#F0F0F0"/>
<path d="M438.641 112.103L310.019 243.514L115.613 199.754L93.3718 96.6398C92.1409 91.3209 93.0495 85.7313 95.9015 81.0761C98.7536 76.4209 103.321 73.0728 108.619 71.7537L389.851 1.85024C392.503 1.18882 395.258 1.0568 397.961 1.46174C400.663 1.86667 403.259 2.8006 405.6 4.21008C407.941 5.61955 409.982 7.4769 411.604 9.6758C413.226 11.8747 414.399 14.372 415.055 17.0247L438.641 112.103Z" fill="white"/>
<path d="M292.359 233.181L139.617 392.787C140.157 394.957 141.118 397 142.447 398.799C143.777 400.598 145.447 402.117 147.364 403.27C149.28 404.423 151.405 405.187 153.617 405.518C155.829 405.849 158.084 405.742 160.254 405.201L498.861 321.019C503.241 319.93 507.01 317.145 509.338 313.278C511.666 309.411 512.362 304.777 511.275 300.396L510.957 299.124L311.233 228.672C307.987 227.525 304.478 227.34 301.13 228.14C297.781 228.94 294.735 230.69 292.359 233.181V233.181Z" fill="#E0E0E0"/>
<path d="M243.56 86.9768L133.539 114.347L136.334 125.581L246.355 98.2104L243.56 86.9768Z" fill="#E0E0E0"/>
<path d="M384.729 82.1006L140.621 142.828L143.779 155.52L387.887 94.7926L384.729 82.1006Z" fill="#E0E0E0"/>
<path d="M392.452 113.109L148.344 173.836L151.501 186.528L395.609 125.801L392.452 113.109Z" fill="#E0E0E0"/>
<path d="M397.582 154.202L389.937 161.847L185.01 215.419L158.23 209.162L157.219 206.257L400.544 145.733L401.599 149.938L397.582 154.202Z" fill="#E0E0E0"/>
<path d="M345.168 207.601L252.849 230.55L224.625 224.105L362.597 189.782L345.168 207.601Z" fill="#E0E0E0"/>
<path d="M286.781 238.99C286.781 238.99 286.68 239.149 286.434 239.424L285.336 240.623L281.087 245.176L265.349 261.839C252.024 275.871 233.555 295.266 213.105 316.524C192.656 337.783 173.869 356.86 160.168 370.531C153.318 377.367 147.74 382.887 143.867 386.659L139.401 390.995L138.216 392.108C138.092 392.245 137.952 392.367 137.797 392.469C137.904 392.318 138.025 392.178 138.158 392.05L139.285 390.879L143.621 386.442L159.764 370.155C173.363 356.383 192.049 337.263 212.542 315.99C233.034 294.717 251.562 275.525 264.93 261.463L280.827 244.973L285.162 240.522L286.318 239.381C286.636 239.106 286.781 238.99 286.781 238.99Z" fill="#FAFAFA"/>
<path d="M510.956 299.095C510.884 299.298 468.295 284.514 415.835 266.073C363.374 247.633 320.9 232.516 320.973 232.314C321.045 232.111 363.635 246.881 416.095 265.322C468.555 283.762 511.029 298.879 510.956 299.095Z" fill="#FAFAFA"/>
<path d="M444.755 105.773C444.675 105.902 444.583 106.023 444.48 106.135L443.671 107.132L440.246 110.933L427.485 124.792C416.675 136.455 401.616 152.438 384.736 169.882C367.856 187.325 352.277 202.89 340.976 214.075L327.521 227.255L323.822 230.796L322.853 231.707C322.622 231.909 322.507 232.01 322.492 231.996C322.584 231.872 322.685 231.756 322.796 231.649L323.706 230.681L327.305 227.039L340.571 213.685C351.786 202.398 367.206 186.761 384.086 169.333C400.966 151.904 416.082 136.036 427.008 124.474L439.942 110.788L443.483 107.088L444.422 106.135C444.518 106.001 444.629 105.88 444.755 105.773Z" fill="#FAFAFA"/>
<path d="M286.779 238.99C286.608 238.981 286.438 238.952 286.273 238.904L284.828 238.557L279.048 237.112C274.105 235.869 266.922 234.12 258.035 232.039C240.273 227.834 215.633 222.414 188.406 216.518C161.178 210.621 136.552 205.115 118.82 200.765C109.947 198.597 102.779 196.777 97.8505 195.447L92.1709 193.901L90.7257 193.482C90.5551 193.445 90.3899 193.387 90.2344 193.308L90.7402 193.409L92.1854 193.742L97.9661 195.187C102.923 196.43 110.106 198.164 118.994 200.259C136.755 204.465 161.381 209.884 188.622 215.781C215.864 221.677 240.476 227.183 258.208 231.533C267.081 233.701 274.25 235.507 279.178 236.851L284.843 238.398L286.288 238.817L286.779 238.99Z" fill="#FAFAFA"/>
<path d="M438.639 112.103C438.639 112.103 438.495 111.626 438.249 110.658L437.194 106.568C436.269 102.941 434.925 97.637 433.191 90.8013L418.638 32.8205C417.867 29.7568 417.082 26.6207 416.282 23.4124C415.892 21.8227 415.487 20.1896 415.068 18.5566C414.866 17.7328 414.664 16.9091 414.403 16.1142C414.177 15.3027 413.887 14.5102 413.536 13.7441C412.104 10.5019 409.851 7.68916 407 5.58317C404.149 3.47718 400.798 2.15074 397.278 1.73464C395.451 1.48191 393.599 1.48191 391.772 1.73464C389.951 2.05258 388.101 2.5584 386.237 3.00641L374.892 5.89677L351.177 11.7498L245.808 38.0521L140.31 64.2388L116.623 70.1063L110.843 71.5514C108.966 71.9413 107.129 72.4975 105.351 73.2134C101.922 74.6995 98.9644 77.093 96.7955 80.1358C95.7459 81.6146 94.8911 83.2223 94.252 84.9194C93.6561 86.5959 93.2631 88.3377 93.0814 90.1076C92.6623 93.6483 93.645 97.0589 94.3387 100.426C95.7839 107.17 97.1665 113.63 98.4864 119.806C103.761 144.504 108.025 164.477 110.973 178.307C112.418 185.215 113.56 190.562 114.34 194.204C114.701 196.011 114.99 197.398 115.193 198.352C115.395 199.306 115.453 199.797 115.453 199.797C115.453 199.797 115.323 199.32 115.106 198.352C114.889 197.384 114.586 196.025 114.181 194.233C113.372 190.577 112.201 185.23 110.684 178.336C107.663 164.52 103.313 144.548 97.9372 119.893C96.6076 113.722 95.1914 107.262 93.7317 100.513C93.038 97.189 92.0264 93.6627 92.46 90.0064C92.6261 88.1762 93.0243 86.3746 93.645 84.6448C94.3053 82.8937 95.1841 81.233 96.2608 79.7023C97.3557 78.1443 98.6644 76.748 100.148 75.5546C101.634 74.3157 103.295 73.3028 105.076 72.5486C106.885 71.8106 108.757 71.2398 110.669 70.8433L116.45 69.3981L140.18 63.5307L245.678 37.2861L351.177 11.0994L374.863 5.23199L386.208 2.42833C388.072 1.96587 389.893 1.47451 391.801 1.14212C394.586 0.72603 397.427 0.869586 400.157 1.56439C402.886 2.25919 405.45 3.49129 407.698 5.18863C410.558 7.3536 412.816 10.2142 414.259 13.4984C414.621 14.2877 414.921 15.1044 415.155 15.9408C415.415 16.7646 415.617 17.5883 415.82 18.4121C416.224 20.0451 416.615 21.6782 417.019 23.2823C417.814 26.4906 418.58 29.6267 419.346 32.6905L433.653 90.7724C435.315 97.6225 436.616 102.941 437.497 106.568C437.931 108.375 438.263 109.748 438.48 110.687C438.697 111.626 438.639 112.103 438.639 112.103Z" fill="#E0E0E0"/>
<path d="M583.854 565.255C583.854 565.472 453.152 565.645 291.927 565.645C130.702 565.645 0 565.486 0 565.255C0 565.024 130.688 564.85 291.927 564.85C453.166 564.85 583.854 565.053 583.854 565.255Z" fill="#263238"/>
<path d="M277.058 35.8265L262.765 46.7087L263.459 67.4905L250.38 57.0996L243.154 63.285L215.695 29.381L277.058 35.8265Z" fill="#F5AB34"/>
<path d="M257.388 51.131C257.388 51.7669 263.458 67.4905 263.458 67.4905L250.379 57.0996L257.388 51.131Z" fill="#D08D20"/>
<g opacity="0.3">
<path d="M257.009 50.9093C257.009 51.5452 263.079 67.2688 263.079 67.2688L250 56.8779L257.009 50.9093Z" fill="#E29E31"/>
</g>
<path d="M215.695 29.381L257.389 51.131L263.459 67.4905L262.765 46.7087L215.695 29.381Z" fill="#E09D31"/>
<path opacity="0.1" d="M215 28.9093L256.694 50.6593L262.763 67.0188L262.07 46.2371L215 28.9093Z" fill="#F5AB34"/>
<path d="M331.308 309.775C328.739 309.69 326.215 309.075 323.895 307.969C326.464 308.054 328.988 308.669 331.308 309.775Z" fill="#263238"/>
<path d="M343.131 312.666C343.131 312.883 342.047 312.81 340.833 312.521C339.619 312.232 338.665 311.799 338.708 311.582C338.752 311.365 339.792 311.437 341.021 311.741C342.249 312.044 343.189 312.449 343.131 312.666Z" fill="#263238"/>
<path d="M294.34 64.7735C293.058 64.7922 291.782 64.5918 290.568 64.181C289.294 64.0247 288.06 63.6378 286.926 63.0393C288.214 62.87 289.524 62.9986 290.756 63.415C292.042 63.5727 293.272 64.0387 294.34 64.7735V64.7735Z" fill="#263238"/>
<path d="M308.33 70.771C305.906 69.9755 303.612 68.8262 301.523 67.3604C302.814 67.4831 304.057 67.9089 305.151 68.6033C307.044 69.5571 308.446 70.5832 308.33 70.771Z" fill="#263238"/>
<path d="M320.457 79.9624C320.298 80.1213 319.011 79.0375 317.393 77.679C315.774 76.3205 314.502 75.1644 314.69 74.9765C315.923 75.4119 317.036 76.1295 317.942 77.072C319.517 78.4594 320.616 79.8179 320.457 79.9624Z" fill="#263238"/>
<path d="M329.703 92.0297C329.5 92.1309 328.547 90.729 327.39 88.9948C326.581 88.0009 325.946 86.8771 325.512 85.6709C325.671 85.5408 326.885 86.7837 328.055 88.5613C328.871 89.5709 329.436 90.7596 329.703 92.0297V92.0297Z" fill="#263238"/>
<path d="M334.949 106.294C334.329 105.173 333.899 103.957 333.678 102.695C333.195 101.504 332.926 100.237 332.883 98.9521C333.664 99.9924 334.193 101.199 334.429 102.478C334.915 103.688 335.094 104.998 334.949 106.294Z" fill="#263238"/>
<path d="M335.732 121.468C335.474 120.213 335.42 118.925 335.573 117.653C335.464 116.375 335.582 115.089 335.92 113.852C336.361 115.072 336.514 116.378 336.368 117.667C336.459 118.967 336.241 120.269 335.732 121.468Z" fill="#263238"/>
<path d="M331.785 136.122C331.941 134.853 332.302 133.618 332.855 132.466C333.149 131.227 333.637 130.042 334.3 128.954C334.37 130.256 334.107 131.555 333.534 132.726C333.24 133.985 332.639 135.151 331.785 136.122Z" fill="#263238"/>
<path d="M322.954 148.464C322.809 148.291 323.937 147.019 325.31 145.458C326.682 143.897 327.781 142.568 327.969 142.727C327.559 143.964 326.849 145.082 325.902 145.978C324.5 147.597 323.098 148.623 322.954 148.464Z" fill="#263238"/>
<path d="M310.207 156.673C311.183 155.847 312.286 155.183 313.473 154.707C314.541 154 315.717 153.472 316.956 153.146C316.116 154.146 315.045 154.925 313.834 155.415C312.748 156.127 311.501 156.559 310.207 156.673Z" fill="#263238"/>
<path d="M295.379 159.867C296.588 159.422 297.863 159.183 299.151 159.158C300.401 158.871 301.689 158.788 302.966 158.913C301.832 159.556 300.556 159.908 299.252 159.939C297.976 160.244 296.643 160.22 295.379 159.867Z" fill="#263238"/>
<path d="M280.496 157.048C282.967 157.563 285.386 158.303 287.722 159.26C286.427 159.421 285.112 159.242 283.907 158.739C282.641 158.485 281.465 157.902 280.496 157.048Z" fill="#263238"/>
<path d="M269.945 146.585C270.162 146.513 270.827 148.031 272.012 149.736C273.197 151.441 274.339 152.626 274.18 152.843C274.021 153.06 272.604 151.976 271.362 150.198C270.487 149.193 269.987 147.917 269.945 146.585Z" fill="#263238"/>
<path d="M276.361 134.749C276.361 134.981 274.786 135.486 273.139 136.657C271.491 137.828 270.609 139.287 270.407 139.172C270.205 139.056 270.841 137.322 272.676 136.021C273.698 135.143 275.016 134.689 276.361 134.749V134.749Z" fill="#263238"/>
<path d="M289.429 140.169C289.226 140.284 288.301 138.868 286.798 137.481C285.295 136.093 283.763 135.4 283.908 135.183C285.25 135.289 286.502 135.904 287.405 136.903C288.443 137.719 289.16 138.876 289.429 140.169V140.169Z" fill="#263238"/>
<path d="M289.918 154.924C290.025 153.665 290.263 152.42 290.626 151.21C290.734 149.946 290.971 148.697 291.334 147.481C291.722 148.743 291.722 150.093 291.334 151.354C291.235 152.66 290.741 153.905 289.918 154.924V154.924Z" fill="#263238"/>
<path d="M280.017 166.269C279.887 166.081 281.202 164.997 282.777 163.653C284.352 162.309 285.667 161.153 285.769 161.297C285.87 161.442 284.93 162.858 283.297 164.188C281.664 165.517 280.132 166.457 280.017 166.269Z" fill="#263238"/>
<path d="M266.508 173.292C267.464 172.427 268.585 171.764 269.803 171.341C270.914 170.686 272.149 170.268 273.43 170.113C271.369 171.643 269.011 172.726 266.508 173.292V173.292Z" fill="#263238"/>
<path d="M252.905 180.2C252.79 180.012 254.163 178.986 255.983 177.888C257.046 177.147 258.261 176.653 259.539 176.443C259.654 176.66 258.18 177.541 256.374 178.582C255.342 179.355 254.161 179.906 252.905 180.2V180.2Z" fill="#263238"/>
<path d="M241.345 190.143C241.186 189.999 242.183 188.582 243.7 187.094C244.537 186.103 245.59 185.317 246.779 184.796C246.923 184.969 245.753 186.241 244.264 187.686C242.775 189.132 241.576 190.288 241.345 190.143Z" fill="#263238"/>
<path d="M232.676 202.601C232.918 201.325 233.452 200.123 234.237 199.089C235.349 197.282 236.491 195.982 236.664 196.112C236.29 197.339 235.697 198.49 234.916 199.508C233.817 201.286 232.878 202.702 232.676 202.601Z" fill="#263238"/>
<path d="M227.126 216.763C227.053 215.469 227.291 214.175 227.82 212.992C228.092 211.72 228.662 210.532 229.482 209.523C229.059 212.035 228.265 214.47 227.126 216.749V216.763Z" fill="#263238"/>
<path d="M225.13 231.851C224.605 229.317 224.785 226.688 225.65 224.25C225.87 225.512 225.87 226.803 225.65 228.065C225.7 229.348 225.524 230.629 225.13 231.851V231.851Z" fill="#263238"/>
<path d="M227.125 246.924C226.477 245.807 226.068 244.567 225.926 243.283C225.501 242.053 225.392 240.736 225.608 239.453C226.168 240.61 226.539 241.849 226.706 243.124C227.107 244.348 227.25 245.642 227.125 246.924Z" fill="#263238"/>
<path d="M233.007 260.943C232.819 261.058 231.793 259.671 230.853 257.763C230.156 256.666 229.735 255.417 229.625 254.121C230.458 255.099 231.113 256.214 231.562 257.416C232.247 258.498 232.736 259.692 233.007 260.943V260.943Z" fill="#263238"/>
<path d="M242.139 273.126C241.995 273.27 240.694 272.172 239.249 270.553C238.319 269.646 237.607 268.539 237.168 267.316C237.356 267.171 238.498 268.443 239.856 270.033C241.214 271.623 242.298 272.967 242.139 273.126Z" fill="#263238"/>
<path d="M253.875 282.808C252.619 282.471 251.461 281.842 250.493 280.973C248.788 279.73 247.603 278.487 247.719 278.314C248.912 278.794 250.012 279.479 250.97 280.337C252.647 281.565 253.991 282.62 253.875 282.808Z" fill="#263238"/>
<path d="M267.606 289.369C266.306 289.361 265.027 289.039 263.877 288.43C262.624 288.08 261.477 287.424 260.539 286.522C261.805 286.709 263.03 287.105 264.166 287.693C265.395 288.066 266.556 288.632 267.606 289.369Z" fill="#263238"/>
<path d="M275.248 291.32C275.248 291.523 275.118 291.696 275.046 291.682C274.974 291.667 274.945 291.479 275.046 291.263C275.147 291.046 275.176 290.887 275.248 290.901C275.321 290.916 275.292 291.104 275.248 291.32Z" fill="#263238"/>
<path d="M264.198 253.474L248.395 248.284L245.166 258.115L260.97 263.305L264.198 253.474Z" fill="#F1A120"/>
<path d="M264.163 253.5C261.208 254.982 258.145 256.238 255.001 257.257L254.726 257.359L254.553 257.127L254.278 256.781C252.085 254.114 250.109 251.278 248.367 248.297C250.749 250.796 252.938 253.473 254.914 256.304L255.174 256.65L254.726 256.52C257.785 255.261 260.941 254.251 264.163 253.5Z" fill="#DF9011"/>
<g opacity="0.1">
<path d="M263.796 254.112C260.841 255.594 257.778 256.85 254.633 257.869L254.359 257.971L254.185 257.739L253.911 257.393C251.718 254.726 249.742 251.89 248 248.909C250.382 251.408 252.571 254.085 254.547 256.916L254.807 257.262L254.359 257.132C257.418 255.873 260.574 254.863 263.796 254.112Z" fill="#F1A120"/>
</g>
<path d="M252.907 254.324C251.819 255.302 250.56 256.072 249.193 256.593C247.933 257.339 246.555 257.862 245.117 258.139C246.215 257.166 247.477 256.398 248.846 255.87C250.102 255.127 251.475 254.604 252.907 254.324V254.324Z" fill="#DF9011"/>
<g opacity="0.1">
<path d="M253.79 252.936C252.702 253.914 251.443 254.683 250.075 255.205C248.816 255.951 247.437 256.474 246 256.751C247.097 255.778 248.36 255.01 249.729 254.482C250.984 253.739 252.358 253.216 253.79 252.936V252.936Z" fill="#F1A120"/>
</g>
<path d="M261.218 263.414C260.334 262.324 259.649 261.086 259.195 259.758C258.241 257.604 257.605 255.755 257.894 255.783C258.781 256.874 259.471 258.112 259.932 259.44C260.605 260.673 261.042 262.021 261.218 263.414V263.414Z" fill="#DF9011"/>
<g opacity="0.1">
<path d="M262.097 262.027C261.213 260.937 260.528 259.699 260.074 258.37C259.12 256.217 258.484 254.367 258.773 254.396C259.66 255.487 260.35 256.724 260.811 258.052C261.484 259.285 261.921 260.633 262.097 262.027V262.027Z" fill="#F1A120"/>
</g>
<path d="M328.642 291.985L288 278.638L279.694 303.93L320.336 317.277L328.642 291.985Z" fill="#F5AB34"/>
<path d="M328.605 292.014C328.026 292.347 327.416 292.623 326.784 292.838L321.726 294.818C317.391 296.451 311.48 298.676 304.818 301.119L304.543 301.22L304.37 300.989L303.69 300.093C299.268 294.312 295.279 288.921 292.432 285.034L289.036 280.424C288.603 279.872 288.221 279.282 287.895 278.661C288.424 279.139 288.908 279.667 289.34 280.236L292.88 284.701C295.843 288.488 299.89 293.763 304.326 299.616L305.005 300.497L304.557 300.367C311.205 297.939 317.203 295.801 321.538 294.298L326.683 292.549C327.306 292.311 327.949 292.132 328.605 292.014V292.014Z" fill="#F3A21F"/>
<g opacity="0.2">
<path d="M328.711 292.263C328.132 292.595 327.522 292.871 326.89 293.087L321.832 295.066C317.496 296.699 311.585 298.925 304.923 301.367L304.649 301.469L304.475 301.237L303.796 300.341C299.374 294.561 295.385 289.17 292.538 285.283L289.142 280.672C288.708 280.121 288.326 279.53 288 278.909C288.53 279.388 289.014 279.915 289.445 280.485L292.986 284.95C295.949 288.737 299.995 294.011 304.432 299.864L305.111 300.746L304.663 300.616C311.311 298.188 317.308 296.049 321.644 294.546L326.789 292.797C327.411 292.56 328.055 292.381 328.711 292.263V292.263Z" fill="#E89D24"/>
</g>
<path d="M299.701 293.909C296.541 295.884 293.248 297.637 289.845 299.155C286.557 300.9 283.152 302.416 279.656 303.693C282.804 301.702 286.093 299.944 289.498 298.433C292.784 296.677 296.194 295.165 299.701 293.909V293.909Z" fill="#F3A21F"/>
<g opacity="0.2">
<path d="M300.045 293.909C296.885 295.884 293.591 297.637 290.189 299.155C286.9 300.9 283.496 302.416 280 303.693C283.148 301.702 286.437 299.944 289.842 298.433C293.127 296.677 296.538 295.165 300.045 293.909V293.909Z" fill="#E89D24"/>
</g>
<path d="M320 316.909C318.334 313.909 316.882 310.788 315.655 307.57C314.209 304.447 312.987 301.218 312 297.909C313.667 300.913 315.12 304.039 316.345 307.263C317.792 310.38 319.014 313.605 320 316.909V316.909Z" fill="#F3A21F"/>
<g opacity="0.2">
<path d="M320 316.909C318.334 313.909 316.882 310.788 315.655 307.57C314.209 304.447 312.987 301.218 312 297.909C313.667 300.913 315.12 304.039 316.345 307.263C317.792 310.38 319.014 313.605 320 316.909V316.909Z" fill="#E89D24"/>
</g>
<path d="M290.191 284.889C289.18 285.631 287.971 286.057 286.718 286.112C285.464 286.168 284.223 285.85 283.15 285.2C282.077 284.55 281.221 283.596 280.69 282.459C280.159 281.323 279.977 280.054 280.167 278.814C280.357 277.574 280.91 276.418 281.757 275.492C282.603 274.567 283.705 273.913 284.924 273.613C286.142 273.314 287.422 273.382 288.601 273.81C289.78 274.237 290.806 275.005 291.55 276.016C292.043 276.688 292.4 277.45 292.599 278.26C292.798 279.069 292.836 279.91 292.709 280.734C292.583 281.558 292.296 282.349 291.864 283.062C291.432 283.775 290.863 284.396 290.191 284.889V284.889Z" fill="#263238"/>
<path d="M290.482 278.603C289.139 279.601 287.713 280.481 286.218 281.233L285.207 281.797L285.019 281.898L284.918 281.724C284.234 280.639 283.653 279.493 283.184 278.299C283.989 279.3 284.691 280.38 285.279 281.522L285.005 281.435L286.016 280.857C287.436 279.977 288.93 279.223 290.482 278.603Z" fill="white"/>
<path d="M302.538 257.908L281.242 250.915L276.891 264.164L298.187 271.158L302.538 257.908Z" fill="#F1A120"/>
<g opacity="0.2">
<path d="M302.62 257.901L281.328 250.909L276.999 264.091L298.291 271.083L302.62 257.901Z" fill="#F1A120"/>
</g>
<path d="M302.273 258.923C301.976 259.1 301.661 259.246 301.334 259.356L298.675 260.397C296.435 261.249 293.313 262.42 289.816 263.692H289.671L289.584 263.562L289.238 263.099C286.911 260.035 284.902 257.246 283.327 255.208L281.593 252.853C281.369 252.562 281.17 252.253 281 251.928C281.268 252.178 281.51 252.454 281.723 252.752L283.587 255.093C285.133 257.073 287.258 259.833 289.57 262.897L289.931 263.374H289.7C293.183 262.102 296.319 260.975 298.602 260.194L301.29 259.284C301.603 259.127 301.933 259.006 302.273 258.923V258.923Z" fill="#DF9011"/>
<g opacity="0.2">
<path d="M302.273 258.904C301.976 259.082 301.661 259.227 301.334 259.338L298.675 260.378C296.435 261.231 293.313 262.401 289.816 263.673H289.671L289.584 263.543L289.238 263.081C286.911 260.017 284.902 257.228 283.327 255.19L281.593 252.834C281.369 252.544 281.17 252.234 281 251.909C281.268 252.159 281.51 252.435 281.723 252.733L283.587 255.074C285.133 257.054 287.258 259.814 289.57 262.878L289.931 263.355H289.7C293.183 262.083 296.319 260.956 298.602 260.176L301.29 259.265C301.603 259.108 301.933 258.987 302.273 258.904V258.904Z" fill="#EFA021"/>
</g>
<path d="M287.358 259.049C285.702 260.079 283.978 260.997 282.199 261.795C280.473 262.711 278.686 263.507 276.852 264.18C278.501 263.134 280.226 262.212 282.011 261.42C283.734 260.502 285.521 259.71 287.358 259.049V259.049Z" fill="#DF9011"/>
<g opacity="0.2">
<path d="M289.506 259.031C287.85 260.061 286.126 260.978 284.347 261.777C282.621 262.693 280.834 263.489 279 264.162C280.65 263.116 282.374 262.194 284.159 261.401C285.882 260.484 287.669 259.692 289.506 259.031V259.031Z" fill="#EFA021"/>
</g>
<path d="M298.531 271.29C297.599 269.666 296.787 267.975 296.103 266.232C295.3 264.537 294.614 262.789 294.051 261C295.804 264.311 297.302 267.751 298.531 271.29V271.29Z" fill="#DF9011"/>
<g opacity="0.2">
<path d="M298.48 271.199C297.548 269.575 296.736 267.885 296.052 266.141C295.249 264.447 294.563 262.699 294 260.91C295.753 264.22 297.251 267.66 298.48 271.199V271.199Z" fill="#EFA021"/>
</g>
<path d="M131.511 92.0586C130.042 97.8426 126.89 103.061 122.455 107.054C118.02 111.047 112.5 113.635 106.594 114.491C100.688 115.347 94.6604 114.433 89.274 111.863C83.8876 109.294 79.3839 105.185 76.3325 100.057C73.2812 94.9279 71.8191 89.0095 72.1311 83.0498C72.4432 77.0901 74.5154 71.3568 78.0858 66.5748C81.6561 61.7928 86.5643 58.1769 92.1896 56.1842C97.8149 54.1915 103.905 53.9116 109.689 55.3798C117.445 57.3525 124.101 62.3241 128.193 69.202C132.285 76.0798 133.479 84.301 131.511 92.0586V92.0586Z" fill="black"/>
<path d="M113.404 68.2708C113.939 68.4876 110.514 78.5895 105.745 90.8446C105.037 92.6222 104.299 94.3275 103.707 96.0039L103.346 96.9144L102.435 96.5675C92.6513 92.7956 85.4976 89.6885 85.6711 89.2405C85.8445 88.7924 93.2727 91.1336 103.129 94.7032L101.857 95.2813C102.493 93.6049 103.158 91.8851 103.837 90.1076C108.592 77.838 112.884 68.1119 113.404 68.2708Z" fill="white"/>
<path d="M502.42 519.139C507.826 516.6 513.904 515.86 519.762 517.029C522.912 517.549 526.193 518.474 528.346 520.844C530.5 523.215 530.89 527.377 528.433 529.414C526.842 530.479 524.934 530.964 523.028 530.787C518.432 530.787 513.345 529.92 509.675 532.681C507.579 534.256 506.192 536.872 503.692 537.652C502.441 537.937 501.131 537.81 499.959 537.289C498.787 536.768 497.815 535.881 497.188 534.762C495.997 532.462 495.733 529.793 496.451 527.304C496.748 525.575 497.441 523.938 498.477 522.521C499.512 521.104 500.862 519.947 502.42 519.139V519.139Z" fill="#F5AB34"/>
<g opacity="0.2">
<path d="M502.142 520.232C507.549 517.693 513.627 516.953 519.485 518.122C522.635 518.642 525.916 519.567 528.069 521.937C530.222 524.308 530.613 528.47 528.156 530.507C526.565 531.572 524.657 532.057 522.751 531.88C518.155 531.88 513.068 531.013 509.397 533.774C507.302 535.349 505.914 537.965 503.414 538.745C502.163 539.03 500.854 538.903 499.682 538.382C498.509 537.861 497.537 536.974 496.911 535.855C495.72 533.555 495.456 530.886 496.174 528.397C496.47 526.668 497.164 525.031 498.199 523.614C499.235 522.197 500.584 521.04 502.142 520.232V520.232Z" fill="#F5AB34"/>
</g>
<path d="M490.323 495.785C493.56 500.395 499.832 498.863 502.737 496.045C505.642 493.227 506.885 489.152 507.997 485.264C510.555 476.376 513.128 467.055 511.235 458.008C510.767 455.267 509.563 452.704 507.752 450.594C506.83 449.557 505.652 448.78 504.336 448.341C503.019 447.902 501.611 447.817 500.251 448.094C497.086 448.932 495.121 452.039 493.704 454.987C489.519 463.693 487.322 473.22 487.273 482.88C487.273 487.374 487.794 492.085 490.323 495.799" fill="#F5AB34"/>
<path d="M481.461 502.404C484.958 498.242 485.623 492.172 484.062 486.955C482.291 481.779 479.132 477.19 474.929 473.688C470.142 469.461 464.582 466.202 458.555 464.092C456.217 463.147 453.703 462.719 451.185 462.835C449.927 462.91 448.707 463.29 447.629 463.942C446.552 464.594 445.649 465.499 444.999 466.578C443.279 469.858 444.927 473.804 446.719 477.099C449.87 482.834 453.465 488.313 457.471 493.487C460.694 497.635 464.393 501.739 469.307 503.603C474.221 505.468 479.322 505.265 481.924 501.855" fill="#F5AB34"/>
<g opacity="0.1">
<path d="M481.188 503.497C484.685 499.335 485.35 493.265 483.789 488.048C482.018 482.872 478.858 478.283 474.655 474.781C469.869 470.554 464.308 467.295 458.281 465.185C455.944 464.241 453.43 463.812 450.911 463.928C449.654 464.003 448.434 464.383 447.356 465.035C446.278 465.687 445.376 466.592 444.726 467.671C443.006 470.952 444.653 474.897 446.445 478.192C449.597 483.927 453.192 489.406 457.198 494.58C460.42 498.728 464.12 502.832 469.034 504.697C473.947 506.561 479.049 506.359 481.65 502.948" fill="#F5AB34"/>
</g>
<path d="M490.104 565.342C490.272 564.655 490.369 563.953 490.393 563.246C490.552 561.714 490.726 559.807 490.957 557.465C491.24 554.651 491.669 551.853 492.243 549.083C492.99 545.706 494.01 542.396 495.292 539.184C496.547 535.973 498.25 532.957 500.35 530.224C502.056 527.996 504.239 526.179 506.738 524.905C508.432 524.071 510.246 523.506 512.114 523.229C512.816 523.205 513.514 523.108 514.195 522.94C513.495 522.854 512.786 522.854 512.085 522.94C510.141 523.085 508.237 523.575 506.464 524.385C503.838 525.633 501.534 527.467 499.729 529.747C497.54 532.516 495.772 535.594 494.483 538.88C493.186 542.159 492.175 545.544 491.463 548.997C490.919 551.799 490.547 554.632 490.35 557.48C490.162 559.908 490.09 561.815 490.061 563.261C490.005 563.954 490.019 564.651 490.104 565.342V565.342Z" fill="#263238"/>
<path d="M490.496 560.919C490.54 560.598 490.54 560.272 490.496 559.951V557.176C490.496 554.763 490.496 551.266 490.612 546.959C490.828 538.288 491.566 526.423 493.011 513.344C494.456 500.265 496.364 488.487 498.112 480.105C498.517 477.995 498.936 476.087 499.326 474.425C499.716 472.763 500.02 471.304 500.323 470.09C500.627 468.876 500.8 468.095 500.974 467.387C501.072 467.073 501.13 466.748 501.147 466.419C501.001 466.708 500.889 467.014 500.815 467.329L500.005 470.003C499.644 471.159 499.283 472.59 498.864 474.252C498.445 475.914 497.968 477.807 497.505 479.931C495.148 490.928 493.377 502.043 492.201 513.228C490.756 526.336 490.12 538.273 490.062 546.916C490.062 551.251 490.063 554.734 490.207 557.148C490.274 558.275 490.332 559.2 490.38 559.922C490.387 560.258 490.425 560.592 490.496 560.919Z" fill="#263238"/>
<path d="M490.555 537.912C490.633 536.95 490.633 535.984 490.555 535.022C490.392 532.387 490.093 529.763 489.659 527.16C488.222 518.553 485.757 510.149 482.317 502.129C478.996 494.023 474.226 486.589 468.241 480.192C467.206 479.094 466.101 478.066 464.932 477.113C464.426 476.68 463.978 476.261 463.486 475.914L462.215 475.032C461.436 474.446 460.615 473.92 459.758 473.457C462.575 475.676 465.253 478.065 467.779 480.611C473.564 487.061 478.207 494.45 481.508 502.462C483.405 506.831 485.013 511.321 486.32 515.902C487.578 520.107 488.416 523.981 489.052 527.247C489.688 530.513 489.991 533.186 490.208 535.036C490.255 536.002 490.37 536.963 490.555 537.912V537.912Z" fill="#263238"/>
<path d="M270.754 347.394H331.264L355.225 280.453H351.872L328.113 344.127L270.754 344.46V347.394Z" fill="#455A64"/>
<path d="M244.02 355.848L246.26 565.529H252.416L249.916 354.302L244.02 355.848Z" fill="#263238"/>
<path d="M373.538 353.81C372.715 357.813 379.088 566.006 379.088 566.006H384.869L380.172 353.81H373.538Z" fill="#263238"/>
<path d="M444.278 347.394H186.992V358.001H208.222L194.406 564.85L200.447 565.183L214.277 358.001H422.629L432.731 565.269H438.786L428.685 358.001H444.278V347.394Z" fill="#263238"/>
<path d="M299.153 557.639V541.742L269.368 541.438L269.035 564.706L270.885 564.836C279.094 565.385 312.68 567.004 318.186 565.399C324.313 563.607 299.153 557.639 299.153 557.639Z" fill="#F5AB34"/>
<path d="M279.815 564.576C279.405 562.058 278.077 559.782 276.086 558.188C274.133 556.605 271.66 555.807 269.149 555.948L269.062 564.272L279.815 564.576Z" fill="#F5F5F5"/>
<path d="M311.407 560.992C311.407 560.992 320.251 563.651 319.124 565.096C317.997 566.541 284.006 566.18 269.02 564.706V564.041L308.675 564.807C308.675 564.807 309.673 561.049 311.407 560.992Z" fill="#F5F5F5"/>
<path d="M268.617 564.012H269.123L270.568 564.128L275.973 564.417C280.54 564.634 286.855 564.836 293.836 564.923C300.816 565.009 307.146 564.923 311.713 564.821L317.132 564.662L318.577 564.59H319.083C318.915 564.568 318.745 564.568 318.577 564.59H317.132H311.713C307.146 564.59 300.816 564.59 293.85 564.59C286.884 564.59 280.554 564.33 275.988 564.185L270.568 564.012H269.123H268.617Z" fill="#263238"/>
<path d="M308.719 565.255C308.964 564.36 309.313 563.496 309.759 562.683C310.297 561.927 310.923 561.238 311.624 560.63C310.729 561.017 309.974 561.666 309.457 562.492C308.941 563.318 308.689 564.282 308.733 565.255H308.719Z" fill="#263238"/>
<path d="M299.977 560.717C300.063 560.717 300.497 560.255 300.93 559.575C301.364 558.896 301.667 558.304 301.581 558.246C301.494 558.188 301.075 558.708 300.627 559.387C300.316 559.778 300.094 560.232 299.977 560.717V560.717Z" fill="#263238"/>
<path d="M297.576 559.474C297.649 559.546 298.126 559.243 298.646 558.781C299.166 558.318 299.527 557.899 299.455 557.827C299.383 557.754 298.92 558.058 298.4 558.506C297.88 558.954 297.519 559.344 297.576 559.474Z" fill="#263238"/>
<path d="M296.09 556.584C296.581 556.775 297.111 556.849 297.636 556.801C298.161 556.869 298.694 556.82 299.197 556.656C298.705 556.465 298.176 556.391 297.651 556.439C297.126 556.372 296.593 556.422 296.09 556.584V556.584Z" fill="#263238"/>
<path d="M295.582 554.604C296.117 554.895 296.707 555.072 297.313 555.124C297.92 555.176 298.531 555.102 299.108 554.907C297.932 554.816 296.757 554.715 295.582 554.604V554.604Z" fill="#263238"/>
<path d="M301.016 558.13C301.652 558.24 302.302 558.24 302.938 558.13C303.629 558.057 304.311 557.917 304.975 557.711C305.383 557.597 305.775 557.437 306.146 557.234C306.26 557.174 306.361 557.092 306.443 556.993C306.525 556.894 306.586 556.779 306.623 556.656C306.655 556.513 306.646 556.364 306.598 556.226C306.549 556.089 306.463 555.967 306.348 555.876C305.623 555.517 304.796 555.419 304.006 555.598C303.217 555.777 302.513 556.222 302.013 556.858C301.708 557.231 301.487 557.665 301.362 558.13C301.362 558.463 301.362 558.65 301.362 558.65C301.554 558.061 301.853 557.512 302.244 557.032C302.678 556.526 303.251 556.159 303.892 555.977C304.266 555.857 304.66 555.811 305.052 555.844C305.444 555.876 305.825 555.985 306.175 556.165C306.478 556.396 306.348 556.743 306.016 556.945C305.67 557.13 305.307 557.28 304.932 557.393C304.286 557.608 303.624 557.772 302.952 557.884C301.753 558.029 301.016 558.029 301.016 558.13Z" fill="#263238"/>
<path d="M301.507 558.231C301.749 557.833 301.836 557.36 301.753 556.902C301.699 556.387 301.526 555.892 301.247 555.457C301.088 555.169 300.859 554.927 300.581 554.753C300.303 554.578 299.985 554.477 299.657 554.459C299.462 554.498 299.29 554.612 299.179 554.778C299.067 554.943 299.027 555.146 299.065 555.341C299.104 555.644 299.207 555.934 299.368 556.194C299.624 556.615 299.924 557.007 300.264 557.364C300.553 557.713 300.926 557.981 301.348 558.145C301.348 558.145 300.972 557.798 300.452 557.191C300.151 556.835 299.889 556.447 299.672 556.035C299.412 555.63 299.238 554.893 299.672 554.821C300.105 554.748 300.64 555.254 300.929 555.644C301.185 556.019 301.363 556.442 301.449 556.887C301.521 557.332 301.54 557.783 301.507 558.231V558.231Z" fill="#263238"/>
<path d="M269.309 555.876C269.309 555.876 270.161 555.803 271.505 555.977C273.255 556.199 274.91 556.899 276.289 558C277.63 559.155 278.629 560.654 279.179 562.336C279.613 563.607 279.656 564.475 279.714 564.46C279.772 564.446 279.714 564.243 279.714 563.868C279.664 563.32 279.563 562.778 279.41 562.249C278.891 560.495 277.854 558.939 276.436 557.784C275.018 556.629 273.284 555.929 271.462 555.775C270.914 555.713 270.362 555.713 269.814 555.775C269.641 555.776 269.469 555.81 269.309 555.876V555.876Z" fill="#263238"/>
<path d="M272.532 543.577C272.185 547.643 272.089 551.726 272.243 555.803C272.472 553.774 272.578 551.733 272.561 549.69C272.666 547.654 272.656 545.613 272.532 543.577V543.577Z" fill="#263238"/>
<path d="M283.602 561.714C285.019 562.066 286.477 562.226 287.937 562.191C289.389 562.286 290.848 562.183 292.273 561.888C292.273 561.787 290.322 561.888 287.937 561.888C285.553 561.888 283.616 561.613 283.602 561.714Z" fill="#263238"/>
<path d="M277.762 561.642C277.762 561.714 277.921 562.061 278.109 562.509C278.296 562.957 278.412 563.347 278.513 563.347C278.614 563.347 278.672 562.87 278.441 562.365C278.21 561.859 277.834 561.57 277.762 561.642Z" fill="#263238"/>
<path d="M275.594 558.882C275.594 558.954 275.709 559.257 276.013 559.575C276.316 559.893 276.62 560.096 276.692 560.023C276.764 559.951 276.576 559.648 276.273 559.33C275.969 559.012 275.666 558.809 275.594 558.882Z" fill="#263238"/>
<path d="M272.458 557.595C272.458 557.697 272.877 557.697 273.311 557.856C273.745 558.015 274.063 558.26 274.135 558.188C274.207 558.116 273.976 557.711 273.427 557.523C272.877 557.335 272.429 557.509 272.458 557.595Z" fill="#263238"/>
<path d="M270.25 556.988C270.25 557.075 270.38 557.234 270.626 557.335C270.871 557.436 271.103 557.436 271.132 557.335C271.16 557.234 271.002 557.09 270.756 556.988C270.51 556.887 270.25 556.887 270.25 556.988Z" fill="#263238"/>
<path d="M357.709 541.597L351.177 527.073L323.906 539.054L333.17 560.385L334.904 559.749C342.621 556.858 373.924 544.531 378.26 540.802C383.159 536.64 357.709 541.597 357.709 541.597Z" fill="#F5AB34"/>
<path d="M343.013 555.832C341.607 553.688 339.454 552.142 336.972 551.497C334.545 550.866 331.969 551.16 329.746 552.321L333.084 559.937L343.013 555.832Z" fill="#F5F5F5"/>
<path d="M370.326 539.574C370.326 539.574 379.474 538.346 378.997 540.138C378.52 541.93 347.434 555.572 333.17 560.37L332.953 559.749L369.401 544.126C369.401 544.126 368.765 540.34 370.326 539.574Z" fill="#F5F5F5"/>
<path d="M332.551 559.937L333.042 559.778L334.487 559.272L339.546 557.306C343.794 555.616 349.662 553.217 356.035 550.413C362.408 547.609 368.16 544.965 372.279 542.97L377.149 540.6L378.464 539.921C378.623 539.857 378.773 539.775 378.912 539.675L378.435 539.863L377.091 540.47L372.178 542.753C368.03 544.661 362.278 547.291 355.891 550.081C349.503 552.87 343.664 555.327 339.444 557.075L334.444 559.142L333.086 559.705L332.551 559.937Z" fill="#263238"/>
<path d="M369.633 544.574C369.481 543.658 369.442 542.726 369.517 541.8C369.707 540.891 369.993 540.004 370.37 539.155C369.66 539.838 369.228 540.76 369.156 541.742C368.963 542.713 369.133 543.72 369.633 544.574V544.574Z" fill="#263238"/>
<path d="M359.851 544.011C359.952 544.011 360.125 543.389 360.255 542.566C360.385 541.742 360.4 541.12 360.255 541.12C360.111 541.12 359.981 541.742 359.851 542.566C359.732 543.04 359.732 543.536 359.851 544.011V544.011Z" fill="#263238"/>
<path d="M357.075 543.823C357.162 543.823 357.465 543.375 357.755 542.753C358.044 542.132 358.188 541.583 358.101 541.539C358.015 541.496 357.711 541.973 357.422 542.609C357.133 543.245 356.96 543.78 357.075 543.823Z" fill="#263238"/>
<path d="M354.545 541.857C355.052 541.808 355.544 541.656 355.99 541.409C356.785 541.077 357.435 540.73 357.349 540.643C357.262 540.557 356.64 540.745 355.903 541.077C355.166 541.409 354.502 541.756 354.545 541.857Z" fill="#263238"/>
<path d="M353.273 540.253C353.882 540.353 354.506 540.267 355.065 540.008C355.658 539.862 356.192 539.539 356.597 539.083C356.026 539.229 355.47 539.427 354.935 539.675C354.364 539.814 353.808 540.008 353.273 540.253V540.253Z" fill="#263238"/>
<path d="M359.677 541.236C360.299 541.075 360.89 540.811 361.425 540.456C362.02 540.097 362.581 539.686 363.102 539.227C363.427 538.956 363.723 538.651 363.983 538.317C364.135 538.103 364.202 537.84 364.171 537.58C364.145 537.438 364.078 537.308 363.978 537.205C363.877 537.102 363.748 537.031 363.608 537.002C363.085 536.98 362.563 537.075 362.082 537.279C361.6 537.484 361.17 537.793 360.822 538.185C360.475 538.577 360.219 539.041 360.074 539.543C359.928 540.046 359.896 540.575 359.98 541.091C359.997 541.269 360.051 541.442 360.139 541.597C360.087 540.977 360.136 540.352 360.284 539.747C360.473 539.111 360.845 538.543 361.353 538.114C361.943 537.587 362.716 537.312 363.506 537.348C363.882 537.421 363.911 537.796 363.68 538.129C363.442 538.437 363.176 538.723 362.885 538.981C362.379 539.436 361.843 539.856 361.281 540.239C360.313 540.889 359.648 541.178 359.677 541.236Z" fill="#263238"/>
<path d="M360.168 541.12C360.213 540.661 360.095 540.201 359.835 539.82C359.575 539.384 359.219 539.013 358.795 538.736C358.532 538.542 358.225 538.418 357.901 538.375C357.578 538.333 357.249 538.372 356.945 538.49C356.783 538.604 356.672 538.777 356.637 538.972C356.602 539.167 356.645 539.367 356.757 539.531C356.915 539.795 357.133 540.017 357.393 540.181C357.797 540.468 358.233 540.706 358.694 540.889C359.103 541.084 359.555 541.174 360.009 541.149C360.009 541.149 359.517 540.99 358.795 540.643C358.369 540.449 357.966 540.207 357.595 539.921C357.191 539.661 356.743 539.068 357.147 538.794C357.39 538.723 357.646 538.706 357.896 538.746C358.146 538.786 358.384 538.881 358.592 539.025C358.989 539.256 359.33 539.572 359.59 539.95C359.815 540.323 360.008 540.715 360.168 541.12V541.12Z" fill="#263238"/>
<path d="M329.849 552.248C329.849 552.248 330.586 551.829 331.886 551.439C333.57 550.91 335.37 550.87 337.076 551.323C338.782 551.776 340.325 552.703 341.526 553.997C342.451 554.994 342.841 555.76 342.899 555.717C342.843 555.523 342.76 555.338 342.653 555.168C342.389 554.692 342.074 554.246 341.714 553.838C340.524 552.442 338.943 551.435 337.176 550.948C335.406 550.492 333.541 550.567 331.814 551.164C331.309 551.349 330.824 551.586 330.369 551.873C329.993 552.075 329.834 552.248 329.849 552.248Z" fill="#263238"/>
<path d="M327.695 539.632C328.308 541.604 329.047 543.535 329.906 545.413C330.656 547.313 331.51 549.17 332.464 550.977C331.836 549.031 331.093 547.125 330.239 545.268C329.496 543.344 328.647 541.462 327.695 539.632V539.632Z" fill="#263238"/>
<path d="M345.266 551.67C346.705 551.395 348.104 550.939 349.428 550.312C350.798 549.802 352.091 549.106 353.272 548.245C353.272 548.158 351.495 549.04 349.284 549.979C347.072 550.919 345.237 551.569 345.266 551.67Z" fill="#263238"/>
<path d="M339.922 553.997C339.922 554.098 340.24 554.315 340.601 554.647C340.962 554.98 341.223 555.298 341.309 555.24C341.396 555.182 341.309 554.748 340.847 554.373C340.384 553.997 339.951 553.91 339.922 553.997Z" fill="#263238"/>
<path d="M336.812 552.378C336.812 552.48 337.073 552.682 337.477 552.841C337.882 553 338.243 553.058 338.287 552.971C338.33 552.884 338.026 552.667 337.622 552.508C337.217 552.349 336.841 552.248 336.812 552.378Z" fill="#263238"/>
<path d="M333.431 552.494C333.431 552.581 333.85 552.422 334.313 552.393C334.775 552.364 335.151 552.393 335.194 552.393C335.238 552.393 334.847 552.017 334.284 552.075C333.72 552.133 333.359 552.422 333.431 552.494Z" fill="#263238"/>
<path d="M331.133 552.855C331.133 552.956 331.364 553.029 331.624 553.014C331.884 553 332.101 552.913 332.101 552.812C332.101 552.711 331.87 552.639 331.61 552.653C331.35 552.667 331.133 552.754 331.133 552.855Z" fill="#263238"/>
<path d="M87.4472 435.362L65.9429 274.672C65.8088 273.672 65.8998 272.654 66.209 271.694C66.5183 270.733 67.0381 269.854 67.7305 269.12C68.4229 268.386 69.2705 267.816 70.2114 267.451C71.1522 267.087 72.1626 266.937 73.1688 267.012L125.008 271.348C127.32 271.542 129.488 272.551 131.126 274.195C132.765 275.838 133.766 278.01 133.953 280.323L146.584 432.457L87.4472 435.362Z" fill="#E69A20"/>
<g opacity="0.2">
<path d="M100.564 439.278L79.0601 278.588C78.926 277.588 79.0169 276.571 79.3262 275.61C79.6355 274.65 80.1553 273.77 80.8477 273.036C81.5401 272.302 82.3877 271.732 83.3286 271.368C84.2694 271.003 85.2798 270.853 86.286 270.929L138.125 275.264C140.437 275.459 142.605 276.467 144.244 278.111C145.882 279.754 146.883 281.926 147.07 284.239L159.701 436.373L100.564 439.278Z" fill="#F5AB34"/>
</g>
<path d="M137.451 199.204C137.017 193.077 135.413 187.108 134.56 181.039C133.708 174.969 133.534 168.581 135.933 162.93C137.402 159.78 139.478 156.951 142.042 154.605C144.606 152.259 147.608 150.442 150.876 149.259C157.44 146.93 164.449 146.129 171.369 146.918C172.62 146.956 173.852 147.235 174.997 147.742C175.562 148.003 176.049 148.407 176.412 148.914C176.774 149.42 176.998 150.012 177.063 150.632C177.077 150.939 177.028 151.246 176.918 151.534C176.808 151.821 176.64 152.083 176.424 152.303C176.209 152.523 175.95 152.696 175.665 152.811C175.379 152.926 175.073 152.981 174.765 152.973C177.405 153.243 180.007 153.8 182.526 154.635C183.55 154.925 184.439 155.564 185.041 156.442C185.285 156.991 185.381 157.595 185.32 158.193C185.259 158.791 185.043 159.363 184.694 159.852C183.975 160.82 183.089 161.652 182.078 162.309C182.387 162.248 182.706 162.249 183.015 162.311C183.324 162.373 183.618 162.496 183.88 162.671C184.141 162.847 184.366 163.073 184.54 163.336C184.715 163.598 184.836 163.893 184.896 164.202C184.989 164.834 184.948 165.478 184.776 166.093C184.604 166.708 184.305 167.28 183.899 167.772C183.162 168.812 182.208 169.665 181.442 170.662C178.321 174.81 178.928 180.576 179.679 185.721" fill="#DE5753"/>
<path d="M138.015 235.103L167.222 234.583C167.612 231.201 168.176 218.05 168.176 218.05C168.176 218.05 180.388 216.922 181.284 204.841C182.18 192.759 181.804 164.867 181.804 164.867C175.113 161.489 167.643 159.959 160.163 160.434C152.684 160.909 145.467 163.373 139.258 167.569L137.379 168.841L138.015 235.103Z" fill="#E4897B"/>
<path d="M177.755 185.822C177.51 185.575 177.343 185.261 177.275 184.919C177.208 184.577 177.244 184.223 177.377 183.902C177.511 183.58 177.737 183.305 178.027 183.112C178.317 182.919 178.657 182.816 179.005 182.816C179.354 182.816 179.694 182.919 179.984 183.112C180.274 183.305 180.5 183.58 180.633 183.902C180.767 184.223 180.803 184.577 180.735 184.919C180.668 185.261 180.501 185.575 180.255 185.822C180.093 185.989 179.898 186.121 179.683 186.211C179.469 186.301 179.238 186.348 179.005 186.348C178.772 186.348 178.542 186.301 178.327 186.211C178.113 186.121 177.918 185.989 177.755 185.822Z" fill="#263238"/>
<path d="M180.836 182.888C180.634 183.091 179.506 182.108 177.844 181.992C176.182 181.877 174.954 182.672 174.737 182.44C174.52 182.209 174.867 181.978 175.416 181.602C176.163 181.142 177.036 180.929 177.91 180.993C178.785 181.058 179.617 181.398 180.287 181.963C180.778 182.411 180.937 182.802 180.836 182.888Z" fill="#263238"/>
<path d="M161.557 183.163C161.844 183.363 162.065 183.644 162.192 183.97C162.318 184.296 162.345 184.652 162.269 184.993C162.193 185.334 162.017 185.645 161.764 185.886C161.51 186.127 161.191 186.287 160.846 186.347C160.502 186.406 160.147 186.361 159.828 186.218C159.509 186.075 159.24 185.841 159.054 185.545C158.868 185.248 158.775 184.904 158.786 184.554C158.797 184.205 158.911 183.866 159.115 183.582C159.248 183.394 159.416 183.234 159.611 183.111C159.805 182.988 160.022 182.904 160.249 182.865C160.476 182.826 160.708 182.833 160.933 182.884C161.157 182.935 161.37 183.03 161.557 183.163V183.163Z" fill="#263238"/>
<path d="M162.653 183.25C162.451 183.438 161.324 182.455 159.662 182.339C158 182.224 156.771 183.018 156.569 182.802C156.367 182.585 156.685 182.325 157.248 181.963C157.989 181.495 158.862 181.278 159.736 181.343C160.61 181.408 161.44 181.752 162.104 182.325C162.595 182.758 162.754 183.163 162.653 183.25Z" fill="#263238"/>
<path d="M168.494 197.398C169.37 197.109 170.289 196.972 171.211 196.993C171.659 196.993 172.006 196.892 172.049 196.661C172.086 196.224 172.006 195.785 171.818 195.389C171.456 194.262 171.081 193.12 170.705 191.921C169.187 186.993 168.147 182.932 168.407 182.859C168.667 182.787 170.083 186.718 171.615 191.646C171.977 192.846 172.309 194.002 172.656 195.129C172.893 195.712 172.934 196.356 172.772 196.964C172.699 197.127 172.589 197.271 172.451 197.384C172.313 197.497 172.151 197.576 171.977 197.615C171.732 197.641 171.485 197.641 171.24 197.615C170.319 197.699 169.39 197.625 168.494 197.398V197.398Z" fill="#263238"/>
<path d="M162.958 198.901C161.296 197.759 167.583 201.791 170.979 201.791C170.357 202.625 169.471 203.221 168.465 203.484C167.459 203.747 166.394 203.659 165.444 203.237C161.86 201.719 162.958 198.901 162.958 198.901Z" fill="white"/>
<path d="M168.219 217.876C162.628 217.643 157.233 215.746 152.727 212.428C152.727 212.428 155.92 221.359 168.046 221.012L168.219 217.876Z" fill="#D37668"/>
<path d="M136.986 177.946L137.608 193.626C137.608 193.626 143.114 191.95 143.475 191.791C143.837 191.632 143.374 172.584 143.374 172.584C143.374 172.584 142.608 165.358 147.291 163.696C152.219 161.919 154.358 165.488 161.338 166.587C184.36 170.474 182.784 163.407 182.784 163.407C182.784 163.407 185.675 160.3 179.764 156.89C173.853 153.479 159.069 152.323 150.976 155.112C135.079 160.589 134.125 166.038 134.125 170.85C134.125 177.715 136.986 177.946 136.986 177.946Z" fill="#DE5753"/>
<path d="M139.691 179.564C139.431 179.463 130.731 178.336 131.555 188.611C132.379 198.887 142.481 194.667 142.481 194.392C142.481 194.117 139.691 179.564 139.691 179.564Z" fill="#D37668"/>
<path d="M139.042 190.952C139.042 190.952 138.869 191.097 138.58 191.256C138.165 191.471 137.684 191.518 137.236 191.386C136.535 191.026 135.945 190.482 135.53 189.813C135.115 189.143 134.89 188.373 134.88 187.585C134.78 186.703 134.879 185.809 135.169 184.969C135.246 184.647 135.399 184.348 135.615 184.096C135.831 183.845 136.105 183.649 136.412 183.524C136.613 183.455 136.833 183.457 137.033 183.531C137.233 183.604 137.402 183.745 137.51 183.929C137.669 184.203 137.611 184.42 137.669 184.435C137.727 184.449 137.871 184.232 137.756 183.828C137.685 183.574 137.526 183.354 137.308 183.206C137.003 183.027 136.643 182.965 136.296 183.033C135.88 183.148 135.501 183.368 135.195 183.671C134.889 183.975 134.666 184.352 134.548 184.767C134.183 185.684 134.049 186.677 134.157 187.657C134.389 189.724 135.603 191.574 137.048 191.892C137.331 191.949 137.623 191.943 137.903 191.873C138.183 191.803 138.444 191.671 138.666 191.487C139.042 191.27 139.071 191.025 139.042 190.952Z" fill="#A36957"/>
<path d="M254.469 318.129C254.469 318.129 268.921 317.435 271.811 318.75C276.811 320.932 291.697 344.272 290.945 344.272C288.691 344.272 284.052 344.272 284.052 344.272L260.929 335.5L255.48 336.873L254.469 318.129Z" fill="#E4897B"/>
<path d="M316.611 385.142C316.611 385.142 359.851 534.906 359.952 534.169C360.053 533.432 321.192 552.855 321.192 552.855L294.977 444.553L316.611 385.142Z" fill="#263238"/>
<path d="M320.338 553.766L361.294 533.779L359.517 528.302L318.242 548.317L320.338 553.766Z" fill="#455A64"/>
<path d="M314.962 498.675C314.745 498.675 314.297 497.794 313.936 496.594C313.575 495.395 313.459 494.34 313.676 494.282C313.892 494.224 314.34 495.149 314.702 496.363C315.063 497.577 315.164 498.603 314.962 498.675Z" fill="#455A64"/>
<path d="M317.634 507.448C317.417 507.448 316.94 506.581 316.579 505.381C316.218 504.182 316.073 503.141 316.276 503.069C316.478 502.996 316.955 503.936 317.331 505.135C317.706 506.335 317.836 507.346 317.634 507.448Z" fill="#455A64"/>
<path d="M320.425 516.119C320.209 516.191 319.732 515.266 319.342 514.067C318.951 512.867 318.807 511.841 319.009 511.769C319.211 511.696 319.703 512.621 320.093 513.821C320.483 515.02 320.628 516.119 320.425 516.119Z" fill="#455A64"/>
<path d="M323.345 524.79C323.129 524.862 322.637 523.952 322.233 522.752C321.828 521.553 321.655 520.526 321.871 520.454C322.088 520.382 322.58 521.292 322.984 522.492C323.389 523.691 323.548 524.79 323.345 524.79Z" fill="#455A64"/>
<path d="M326.38 533.461C326.178 533.461 325.658 532.623 325.239 531.438C324.82 530.253 324.632 529.226 324.849 529.154C325.065 529.082 325.557 529.978 325.99 531.178C326.424 532.377 326.612 533.345 326.38 533.461Z" fill="#455A64"/>
<path d="M329.499 542.002C329.283 542.002 328.762 541.178 328.329 539.993C327.895 538.808 327.693 537.782 327.895 537.71C328.098 537.637 328.632 538.533 329.066 539.718C329.499 540.904 329.745 541.93 329.499 542.002Z" fill="#455A64"/>
<path d="M327.231 545.6C326.875 545.12 326.584 544.596 326.364 544.04C325.858 542.999 325.165 541.482 324.37 539.588C322.766 535.802 320.786 530.469 318.792 524.53C316.797 518.59 315.121 513.156 313.936 509.225C313.387 507.375 312.924 505.815 312.491 504.557C312.281 503.994 312.145 503.406 312.086 502.809C312.369 503.335 312.601 503.886 312.78 504.456C313.184 505.54 313.733 507.101 314.398 509.052L319.471 524.27C321.451 530.209 323.344 535.556 324.818 539.386L326.581 543.91C326.857 544.448 327.075 545.015 327.231 545.6Z" fill="#455A64"/>
<path d="M114.876 374.736C115.237 366.802 110.728 418.28 150.297 419.638C189.867 420.997 270.71 420.404 270.71 420.404L261.244 550.948H308.718L318.632 412.066C318.632 412.066 323.69 371.832 296.16 366.701C278.933 363.478 171.802 362.452 171.802 362.452L114.876 374.736Z" fill="#263238"/>
<path d="M260.16 551.222H310.149V543.447L260.16 543.519V551.222Z" fill="#455A64"/>
<path d="M181.961 413.511C182.129 413.489 182.299 413.489 182.467 413.511L183.912 413.424L189.693 413.164L211.154 412.34L283.543 409.854H284.005V410.317C283.355 415.635 282.806 421.257 282.343 426.965C281.707 435.131 281.1 443.094 280.508 450.782C279.915 458.47 279.063 465.87 278.326 472.922C276.881 486.998 275.522 499.687 274.395 510.367C273.268 521.047 272.328 529.602 271.678 535.6C271.346 538.49 271.085 540.86 270.897 542.464C270.811 543.216 270.739 543.808 270.681 544.242C270.663 544.447 270.629 544.649 270.58 544.849C270.557 544.647 270.557 544.444 270.58 544.242C270.58 543.794 270.666 543.201 270.724 542.45C270.869 540.831 271.085 538.519 271.36 535.571C271.938 529.573 272.805 520.946 273.831 510.309C274.857 499.673 276.172 486.94 277.589 472.835C278.282 465.783 279.034 458.384 279.713 450.71C280.392 443.036 280.913 435.058 281.534 426.908C281.996 421.127 282.546 415.563 283.21 410.216L283.615 410.664L211.211 412.875L189.75 413.467L183.97 413.583H182.525C182.334 413.588 182.144 413.563 181.961 413.511Z" fill="#455A64"/>
<path d="M186.528 407.86C186.528 408.077 185.516 408.279 184.244 408.308C182.973 408.337 181.961 408.192 181.961 407.976C181.961 407.759 182.973 407.542 184.23 407.513C185.487 407.484 186.528 407.643 186.528 407.86Z" fill="#455A64"/>
<path d="M195.675 407.643C195.675 407.86 194.664 408.062 193.392 408.091C192.12 408.12 191.108 407.976 191.094 407.759C191.079 407.542 192.12 407.34 193.377 407.296C194.635 407.253 195.675 407.426 195.675 407.643Z" fill="#455A64"/>
<path d="M204.824 407.427C204.824 407.658 203.812 407.846 202.54 407.889C201.268 407.932 200.257 407.759 200.242 407.542C200.228 407.325 201.268 407.123 202.526 407.094C203.783 407.065 204.824 407.21 204.824 407.427Z" fill="#455A64"/>
<path d="M213.972 407.21C213.972 407.441 212.96 407.643 211.689 407.672C210.417 407.701 209.405 407.542 209.391 407.325C209.376 407.109 210.417 406.906 211.674 406.877C212.931 406.848 213.972 406.993 213.972 407.21Z" fill="#455A64"/>
<path d="M223.12 407.007C223.12 407.224 222.109 407.426 220.837 407.455C219.565 407.484 218.554 407.325 218.539 407.109C218.525 406.892 219.565 406.689 220.823 406.661C222.08 406.632 223.12 406.776 223.12 407.007Z" fill="#455A64"/>
<path d="M232.269 406.791C232.269 407.007 231.257 407.21 229.985 407.239C228.714 407.267 227.702 407.109 227.688 406.892C227.673 406.675 228.714 406.473 229.971 406.444C231.228 406.415 232.254 406.574 232.269 406.791Z" fill="#455A64"/>
<path d="M241.417 406.574C241.417 406.791 240.406 406.993 239.134 407.022C237.862 407.051 236.851 406.892 236.836 406.675C236.822 406.458 237.848 406.256 239.119 406.227C240.391 406.198 241.345 406.357 241.417 406.574Z" fill="#455A64"/>
<path d="M250.566 406.357C250.566 406.574 249.554 406.776 248.282 406.805C247.011 406.834 245.999 406.689 245.985 406.458C245.97 406.227 246.996 406.039 248.268 406.01C249.54 405.981 250.551 406.14 250.566 406.357Z" fill="#455A64"/>
<path d="M259.714 406.14C259.714 406.357 258.703 406.559 257.431 406.588C256.159 406.617 255.147 406.473 255.133 406.256C255.119 406.039 256.145 405.822 257.416 405.793C258.688 405.765 259.7 405.923 259.714 406.14Z" fill="#455A64"/>
<path d="M268.804 405.923C268.804 406.14 267.778 406.343 266.521 406.371C265.263 406.4 264.237 406.256 264.223 406.039C264.208 405.822 265.234 405.606 266.506 405.577C267.778 405.548 268.804 405.707 268.804 405.923Z" fill="#455A64"/>
<path d="M278.007 405.707C278.007 405.923 276.981 406.126 275.724 406.155C274.466 406.184 273.44 406.039 273.426 405.822C273.411 405.606 274.438 405.403 275.709 405.374C276.981 405.345 277.993 405.49 278.007 405.707Z" fill="#455A64"/>
<path d="M287.155 405.49C287.155 405.721 286.129 405.923 284.872 405.952C283.615 405.981 282.574 405.822 282.574 405.606C282.574 405.389 283.586 405.186 284.858 405.158C286.129 405.129 287.141 405.273 287.155 405.49Z" fill="#455A64"/>
<path d="M287.144 413.785C286.913 413.785 286.84 412.73 286.97 411.473C287.101 410.216 287.361 409.218 287.577 409.233C287.794 409.247 287.881 410.288 287.751 411.545C287.621 412.803 287.361 413.814 287.144 413.785Z" fill="#455A64"/>
<path d="M286.246 422.89C286.029 422.89 285.943 421.835 286.073 420.578C286.203 419.32 286.477 418.323 286.694 418.338C286.911 418.352 286.983 419.393 286.868 420.65C286.752 421.907 286.463 422.919 286.246 422.89Z" fill="#455A64"/>
<path d="M285.352 431.995C285.135 431.995 285.048 430.94 285.178 429.682C285.308 428.425 285.583 427.428 285.8 427.442C286.016 427.457 286.089 428.512 285.973 429.769C285.858 431.026 285.568 432.024 285.352 431.995Z" fill="#455A64"/>
<path d="M284.455 441.099C284.238 441.099 284.166 440.044 284.281 438.787C284.397 437.53 284.686 436.532 284.903 436.547C285.119 436.561 285.192 437.616 285.076 438.874C284.96 440.131 284.7 441.128 284.455 441.099Z" fill="#455A64"/>
<path d="M283.56 450.218C283.343 450.218 283.271 449.149 283.387 447.892C283.502 446.634 283.791 445.637 284.008 445.666C284.225 445.695 284.312 446.721 284.182 447.978C284.052 449.236 283.777 450.233 283.56 450.218Z" fill="#455A64"/>
<path d="M282.661 459.323C282.444 459.323 282.372 458.254 282.502 456.996C282.632 455.739 282.892 454.742 283.109 454.771C283.326 454.8 283.413 455.826 283.283 457.083C283.153 458.34 282.892 459.337 282.661 459.323Z" fill="#455A64"/>
<path d="M281.808 468.428C281.577 468.428 281.504 467.373 281.635 466.115C281.765 464.858 282.025 463.846 282.256 463.875C282.487 463.904 282.545 464.93 282.415 466.188C282.285 467.445 281.996 468.428 281.808 468.428Z" fill="#455A64"/>
<path d="M280.887 477.532C280.67 477.532 280.583 476.477 280.713 475.22C280.844 473.963 281.118 472.951 281.335 472.98C281.552 473.009 281.624 474.035 281.508 475.292C281.393 476.55 281.104 477.547 280.887 477.532Z" fill="#455A64"/>
<path d="M279.99 486.637C279.773 486.637 279.701 485.582 279.816 484.325C279.932 483.067 280.221 482.07 280.438 482.085C280.655 482.099 280.727 483.14 280.611 484.397C280.496 485.654 280.207 486.666 279.99 486.637Z" fill="#455A64"/>
<path d="M279.091 495.742C278.875 495.742 278.802 494.687 278.918 493.429C279.034 492.172 279.323 491.175 279.539 491.189C279.756 491.204 279.828 492.244 279.713 493.502C279.597 494.759 279.308 495.77 279.091 495.742Z" fill="#455A64"/>
<path d="M278.197 504.846C277.98 504.846 277.908 503.791 278.023 502.534C278.139 501.277 278.428 500.279 278.645 500.294C278.862 500.308 278.948 501.349 278.818 502.606C278.688 503.864 278.414 504.875 278.197 504.846Z" fill="#455A64"/>
<path d="M277.316 513.951C277.085 513.951 277.012 512.896 277.142 511.639C277.272 510.381 277.533 509.384 277.749 509.399C277.966 509.413 278.053 510.468 277.923 511.725C277.793 512.983 277.475 513.98 277.316 513.951Z" fill="#455A64"/>
<path d="M276.418 523.056C276.201 523.056 276.115 522.001 276.245 520.743C276.375 519.486 276.635 518.489 276.866 518.503C277.097 518.518 277.155 519.573 277.025 520.83C276.895 522.087 276.635 523.084 276.418 523.056Z" fill="#455A64"/>
<path d="M275.524 532.175C275.307 532.175 275.22 531.105 275.35 529.848C275.48 528.591 275.755 527.593 275.972 527.622C276.188 527.651 276.261 528.677 276.145 529.935C276.029 531.192 275.74 532.189 275.524 532.175Z" fill="#455A64"/>
<path d="M274.584 541.279C274.367 541.279 274.295 540.224 274.41 538.967C274.526 537.71 274.815 536.698 275.032 536.727C275.248 536.756 275.321 537.782 275.205 539.039C275.089 540.297 274.844 541.294 274.584 541.279Z" fill="#455A64"/>
<path d="M274.15 546.106C273.933 546.106 273.76 546.005 273.774 545.933C273.789 545.861 273.962 545.803 274.179 545.832C274.396 545.861 274.569 545.933 274.569 546.005C274.569 546.077 274.367 546.121 274.15 546.106Z" fill="#455A64"/>
<path d="M277.185 414.32C276.355 415.624 275.303 416.773 274.078 417.716C273.024 418.848 271.788 419.796 270.422 420.52C272.305 418.081 274.592 415.984 277.185 414.32V414.32Z" fill="#263238"/>
<path d="M280.465 416.083C278.894 417.217 277.178 418.136 275.364 418.815C273.652 419.724 271.824 420.395 269.93 420.809C271.5 419.675 273.216 418.756 275.031 418.077C276.744 417.17 278.572 416.499 280.465 416.083Z" fill="#263238"/>
<path d="M183.926 312.492C183.926 312.492 179.084 260.625 170.486 237.921L172.191 236.635L169.633 227.689L137.463 223.787L137.955 230.767C133.207 232.906 129.329 236.595 126.957 241.23C115.395 265.712 121.176 294.298 114.976 347.264C114.976 347.264 107.75 372.106 115.207 379.881L185.4 363.522L182.09 347.509C212.728 346.931 263.107 341.295 263.107 341.295L261.662 312.305C261.662 312.305 186.383 312.753 183.926 312.492" fill="#455A64"/>
<path d="M169.576 227.646C170.597 229.465 171.379 231.408 171.903 233.426C172.217 234.215 172.431 235.041 172.539 235.883C172.56 236.32 172.415 236.748 172.134 237.083C171.902 237.356 171.604 237.565 171.267 237.69C170.053 238.065 169.359 237.805 169.359 237.69C169.359 237.574 170.111 237.56 171.021 237.126C171.265 237.017 171.471 236.838 171.613 236.611C171.754 236.385 171.825 236.121 171.816 235.854C171.652 235.092 171.43 234.343 171.151 233.614C170.379 231.698 169.85 229.693 169.576 227.646V227.646Z" fill="#E0E0E0"/>
<path d="M177.253 266.261C177.253 266.492 164.246 266.666 148.349 266.666C132.452 266.666 119.445 266.492 119.445 266.261C119.445 266.03 132.452 265.871 148.349 265.871C164.246 265.871 177.253 266.102 177.253 266.261Z" fill="#263238"/>
<path d="M174.229 251.65C174.229 251.867 162.754 252.055 148.62 252.055C134.486 252.055 123.012 251.867 123.012 251.65C123.012 251.433 134.472 251.26 148.62 251.26C162.769 251.26 174.229 251.433 174.229 251.65Z" fill="#263238"/>
<path d="M170.011 238.802C170.011 239.019 160.53 239.193 148.824 239.193C137.118 239.193 127.652 239.019 127.652 238.802C127.652 238.586 137.133 238.398 148.824 238.398C160.516 238.398 170.011 238.644 170.011 238.802Z" fill="#263238"/>
<path d="M169.592 229.727C164.192 230.135 158.775 230.271 153.362 230.131C147.949 230.271 142.532 230.135 137.133 229.727C137.133 229.51 144.359 229.337 153.362 229.337C162.366 229.337 169.592 229.51 169.592 229.727Z" fill="#263238"/>
<path d="M179.287 280.323C179.287 280.539 165.602 280.713 148.722 280.713C131.842 280.713 118.156 280.539 118.156 280.323C118.156 280.106 131.842 279.918 148.722 279.918C165.602 279.918 179.287 280.091 179.287 280.323Z" fill="#263238"/>
<path d="M181.776 294.442C181.776 294.659 167.541 294.832 149.982 294.832C132.423 294.832 118.188 294.659 118.188 294.442C118.188 294.225 132.423 294.037 149.982 294.037C167.541 294.037 181.776 294.225 181.776 294.442Z" fill="#263238"/>
<path d="M183.334 307.449C183.334 307.68 168.738 307.853 150.745 307.853C132.753 307.853 118.156 307.68 118.156 307.449C118.156 307.217 132.753 307.058 150.745 307.058C168.738 307.058 183.334 307.232 183.334 307.449Z" fill="#263238"/>
<path d="M254.466 321.684C254.466 321.901 223.684 322.074 185.719 322.074C147.754 322.074 116.957 321.901 116.957 321.684C116.957 321.467 147.739 321.279 185.719 321.279C223.698 321.279 254.466 321.467 254.466 321.684Z" fill="#263238"/>
<path d="M255.003 333.072C255.003 333.303 223.989 333.476 185.735 333.476C147.481 333.476 116.453 333.303 116.453 333.072C116.453 332.841 147.467 332.682 185.735 332.682C224.004 332.682 255.003 332.855 255.003 333.072Z" fill="#263238"/>
<path d="M180.993 347.119C180.993 347.35 166.18 347.524 147.898 347.524C129.617 347.524 114.789 347.35 114.789 347.119C114.789 346.888 129.602 346.729 147.898 346.729C166.194 346.729 180.993 346.902 180.993 347.119Z" fill="#263238"/>
<path d="M184.361 360.155C184.361 360.371 168.247 360.559 148.376 360.559C128.504 360.559 112.391 360.371 112.391 360.155C112.391 359.938 128.504 359.764 148.376 359.764C168.247 359.764 184.361 359.938 184.361 360.155Z" fill="#263238"/>
<path d="M123.084 363.609C122.853 363.609 122.68 338.332 122.68 307.16C122.68 275.987 122.853 250.711 123.084 250.711C123.316 250.711 123.475 275.987 123.475 307.16C123.475 338.332 123.301 363.609 123.084 363.609Z" fill="#263238"/>
<path d="M140.441 362.221C140.224 362.221 140.051 331.323 140.051 293.214C140.051 255.104 140.181 224.192 140.441 224.192C140.701 224.192 140.846 255.075 140.846 293.199C140.846 331.323 140.672 362.221 140.441 362.221Z" fill="#263238"/>
<path d="M159.621 360.155C159.404 360.155 159.23 330.369 159.23 293.676C159.23 256.983 159.404 227.198 159.621 227.198C159.837 227.198 160.025 256.983 160.025 293.676C160.025 330.369 159.852 360.155 159.621 360.155Z" fill="#263238"/>
<path d="M175.734 363.565C175.517 363.565 175.344 340.182 175.344 311.351C175.344 282.519 175.517 259.122 175.734 259.122C175.951 259.122 176.139 282.505 176.139 311.351C176.139 340.197 175.951 363.565 175.734 363.565Z" fill="#263238"/>
<path d="M192.802 312.42C192.99 314.109 193.043 315.81 192.961 317.507C192.961 320.643 192.961 324.964 192.787 329.733C192.614 334.503 192.527 338.838 192.383 341.96C192.37 343.658 192.234 345.353 191.978 347.032C191.789 345.348 191.736 343.652 191.819 341.96C191.819 338.824 191.819 334.503 191.993 329.719C192.166 324.935 192.253 320.614 192.397 317.478C192.393 315.784 192.528 314.092 192.802 312.42V312.42Z" fill="#263238"/>
<path d="M210.995 313.027C211.174 314.61 211.227 316.205 211.154 317.796C211.154 320.687 211.154 324.776 211.009 329.242C210.865 333.708 210.749 337.769 210.619 340.702C210.624 342.291 210.489 343.877 210.215 345.443C210.035 343.869 209.982 342.284 210.056 340.702C210.056 337.812 210.056 333.708 210.215 329.228C210.374 324.748 210.46 320.701 210.605 317.767C210.591 316.179 210.722 314.592 210.995 313.027V313.027Z" fill="#263238"/>
<path d="M229.088 312.709C229.285 314.237 229.343 315.781 229.261 317.319C229.261 320.21 229.261 324.097 229.117 328.433C228.972 332.768 228.871 336.699 228.727 339.532C228.741 341.077 228.61 342.621 228.336 344.142C228.155 342.617 228.097 341.08 228.163 339.546C228.163 336.656 228.163 332.768 228.322 328.433C228.481 324.097 228.568 320.152 228.698 317.319C228.702 315.775 228.832 314.233 229.088 312.709V312.709Z" fill="#263238"/>
<path d="M247.254 312.203C247.453 313.683 247.511 315.178 247.427 316.669C247.427 319.429 247.427 323.245 247.283 327.45C247.138 331.656 247.051 335.471 246.907 338.217C246.91 339.713 246.785 341.207 246.531 342.682C246.331 341.203 246.268 339.708 246.343 338.217C246.343 335.456 246.343 331.641 246.488 327.436C246.632 323.23 246.733 319.4 246.864 316.655C246.858 315.162 246.989 313.672 247.254 312.203V312.203Z" fill="#263238"/>
<path d="M177.625 318.952C178.933 315.74 181.312 313.08 184.36 311.423C183.299 312.733 182.155 313.974 180.934 315.137C179.912 316.477 178.807 317.751 177.625 318.952Z" fill="#263238"/>
<path d="M181.776 319.299C181.474 317.847 181.584 316.34 182.095 314.948C182.606 313.556 183.497 312.335 184.666 311.423C184.84 311.582 183.626 313.056 182.846 315.224C182.065 317.392 182.094 319.299 181.776 319.299Z" fill="#263238"/>
<path d="M255.796 341.136C254.986 336.551 254.436 331.924 254.148 327.277C253.599 322.648 253.31 317.992 253.281 313.331C254.11 317.918 254.665 322.551 254.943 327.204C255.493 331.828 255.777 336.48 255.796 341.136V341.136Z" fill="#263238"/>
<path d="M256.706 318.793C256.706 318.895 256.301 319.184 256.243 319.906C256.23 320.097 256.256 320.289 256.318 320.47C256.38 320.651 256.477 320.818 256.604 320.961C256.767 321.107 256.97 321.2 257.187 321.228C257.403 321.257 257.624 321.219 257.818 321.12C258.023 321.042 258.2 320.906 258.328 320.729C258.456 320.552 258.53 320.341 258.541 320.123C258.522 319.932 258.464 319.747 258.373 319.578C258.281 319.409 258.156 319.26 258.006 319.14C257.443 318.692 256.908 318.837 256.879 318.721C256.85 318.606 257.414 318.201 258.324 318.721C258.591 318.864 258.817 319.071 258.984 319.323C259.15 319.575 259.252 319.865 259.278 320.166C259.299 320.541 259.201 320.913 258.999 321.23C258.796 321.546 258.5 321.791 258.151 321.929C257.808 322.091 257.423 322.142 257.05 322.075C256.677 322.007 256.334 321.825 256.07 321.554C255.881 321.326 255.75 321.056 255.687 320.767C255.624 320.478 255.631 320.177 255.708 319.892C255.969 318.837 256.72 318.692 256.706 318.793Z" fill="#263238"/>
<path d="M183.84 312.348H184.201L185.256 312.435C186.196 312.536 187.583 312.622 189.404 312.68C193.046 312.825 198.393 312.897 205.2 312.839C218.799 312.753 238.237 312.247 261.562 311.394H261.894V311.726C262.357 320.73 262.848 330.514 263.34 340.89V341.223H263.036C259.336 341.916 255.593 342.205 251.764 342.596L240.087 343.607C232.153 344.258 223.987 344.864 215.677 345.457L185.126 347.509C176.267 346.946 167.668 343.766 161.656 337.928C158.701 335.111 156.381 331.697 154.85 327.912C153.413 324.34 152.267 320.657 151.425 316.9C147.855 302.448 145.644 289.283 143.837 278.357C142.97 272.894 142.233 267.966 141.612 263.66C140.953 259.995 140.524 256.293 140.326 252.575C140.208 250.214 140.706 247.864 141.771 245.754C142.136 245.033 142.625 244.383 143.216 243.832C142.71 244.455 142.26 245.123 141.872 245.826C140.886 247.933 140.449 250.254 140.6 252.575C140.861 256.276 141.344 259.958 142.045 263.602C142.725 267.937 143.491 272.822 144.387 278.285C146.207 289.182 148.52 302.26 152.118 316.727C152.971 320.448 154.116 324.097 155.543 327.638C157.048 331.328 159.324 334.654 162.22 337.393C168.001 343.072 176.513 346.18 185.213 346.743L215.75 344.662L240.144 342.827L251.821 341.83C255.622 341.439 259.438 341.15 262.978 340.486L262.689 340.876C262.198 330.543 261.735 320.715 261.244 311.698L261.605 312.03C238.295 312.883 218.857 313.287 205.243 313.258C198.436 313.258 193.089 313.128 189.447 312.912C187.626 312.81 186.225 312.695 185.285 312.55L184.23 312.42C184.097 312.414 183.966 312.39 183.84 312.348Z" fill="#263238"/>
<path d="M183.839 312.348C183.521 311.616 183.269 310.856 183.088 310.079C182.669 308.634 182.091 306.466 181.397 303.807C179.952 298.503 178.29 291.118 176.44 282.967C174.59 274.816 172.899 267.432 171.628 262.099L170.182 255.783C169.957 255.02 169.807 254.235 169.734 253.442C170.045 254.177 170.296 254.936 170.486 255.711C170.934 257.156 171.512 259.31 172.22 261.969C173.665 267.258 175.428 274.629 177.278 282.794C179.128 290.959 180.646 298.2 181.946 303.677C182.524 306.249 183.016 308.374 183.391 310.007C183.599 310.775 183.749 311.557 183.839 312.348Z" fill="#263238"/>
<path d="M169.676 228.253C169.689 228.787 169.636 229.321 169.517 229.842C169.373 230.868 169.142 232.328 168.824 234.178C168.685 235.187 168.483 236.186 168.217 237.169C168.129 237.495 167.965 237.796 167.739 238.047C167.513 238.298 167.231 238.493 166.916 238.615C166.281 238.782 165.614 238.782 164.98 238.615C162.595 238.123 159.994 237.487 157.277 236.75C151.857 235.305 147.03 233.701 143.519 232.617L139.371 231.316C138.868 231.189 138.382 231 137.926 230.753C138.46 230.768 138.99 230.856 139.501 231.013C140.513 231.244 141.958 231.591 143.735 232.082C147.291 233.022 152.146 234.496 157.551 235.984C160.254 236.721 162.826 237.43 165.196 237.907C165.705 238.072 166.246 238.107 166.772 238.008C166.987 237.929 167.181 237.8 167.337 237.632C167.492 237.463 167.606 237.26 167.668 237.039C167.986 236.114 168.116 235.045 168.332 234.149C168.708 232.357 169.041 230.912 169.272 229.9C169.326 229.334 169.463 228.779 169.676 228.253V228.253Z" fill="#263238"/>
<path d="M144.387 428.324L154.489 565.428L158.708 564.446L157.133 431.214L144.387 428.324Z" fill="#263238"/>
<path d="M101.58 433.093L70.8984 565.269H76.4479L120.367 433.093H101.58Z" fill="#263238"/>
<path d="M182.727 433.093L224.579 565.269H229.059L195.805 433.093H182.727Z" fill="#263238"/>
<path d="M188.335 441.966L94.543 503.257V506.609L190.951 441.966H188.335Z" fill="#263238"/>
<path d="M108.75 441.966L210.375 510.352V505.121L111.727 438.975L108.75 441.966Z" fill="#263238"/>
<path d="M87.5619 435.362L208.408 433.18C209.491 433.159 210.557 432.912 211.537 432.454C212.518 431.995 213.391 431.336 214.101 430.519C214.811 429.701 215.341 428.744 215.658 427.708C215.974 426.673 216.069 425.583 215.938 424.508C215.719 422.607 214.8 420.855 213.36 419.594C211.92 418.333 210.062 417.653 208.148 417.687L85.582 419.653L87.5619 435.362Z" fill="#F5AB34"/>
<g opacity="0.2">
<path d="M88.9799 434.585L209.826 432.403C210.908 432.383 211.975 432.135 212.955 431.677C213.936 431.219 214.809 430.559 215.519 429.742C216.229 428.925 216.759 427.967 217.075 426.932C217.392 425.897 217.487 424.806 217.356 423.732C217.137 421.83 216.218 420.078 214.778 418.817C213.338 417.556 211.48 416.877 209.566 416.911L87 418.876L88.9799 434.585Z" fill="#F5AB34"/>
</g>
<path d="M75.2481 341.945L87.4454 435.362L182.726 433.093L182.481 376.355C182.514 374.126 182.078 371.914 181.201 369.864C180.325 367.814 179.026 365.971 177.391 364.455C175.755 362.94 173.819 361.785 171.708 361.067C169.597 360.348 167.359 360.082 165.138 360.285L92.4891 366.846L82.922 267.836L73.2682 267.012C72.2599 266.939 71.2478 267.091 70.3058 267.458C69.3639 267.825 68.5157 268.398 67.8234 269.135C67.131 269.872 66.6118 270.754 66.3036 271.717C65.9955 272.679 65.9062 273.699 66.0423 274.701L75.2481 341.945Z" fill="#F5AB34"/>
</svg>
