<svg width="129" height="22" viewBox="0 0 129 22" fill="none" xmlns="http://www.w3.org/2000/svg">
<path d="M13.066 2.592C12.9967 3.25067 12.9447 3.892 12.91 4.516C12.8927 5.12267 12.884 5.59067 12.884 5.92C12.884 6.336 12.8927 6.726 12.91 7.09C12.9273 7.454 12.9447 7.77467 12.962 8.052H12.364C12.2427 6.83867 12.078 5.88533 11.87 5.192C11.662 4.48133 11.298 3.97 10.778 3.658C10.258 3.346 9.452 3.19 8.36 3.19H6.722C6.13267 3.19 5.682 3.242 5.37 3.346C5.07533 3.43267 4.876 3.632 4.772 3.944C4.668 4.23867 4.616 4.70667 4.616 5.348V18.244C4.616 18.868 4.67667 19.336 4.798 19.648C4.93667 19.96 5.19667 20.168 5.578 20.272C5.95933 20.376 6.514 20.4453 7.242 20.48V21C6.79133 20.9653 6.21933 20.948 5.526 20.948C4.83267 20.9307 4.13067 20.922 3.42 20.922C2.744 20.922 2.11133 20.9307 1.522 20.948C0.932667 20.948 0.456 20.9653 0.0920001 21V20.48C0.681333 20.4453 1.12333 20.376 1.418 20.272C1.73 20.168 1.938 19.96 2.042 19.648C2.146 19.336 2.198 18.868 2.198 18.244V5.348C2.198 4.70667 2.146 4.23867 2.042 3.944C1.938 3.632 1.73 3.424 1.418 3.32C1.12333 3.19867 0.681333 3.12933 0.0920001 3.112V2.592C0.733333 2.60933 1.40933 2.62667 2.12 2.644C2.83067 2.644 3.53267 2.65267 4.226 2.67C4.91933 2.67 5.56067 2.67 6.15 2.67C6.75667 2.67 7.25067 2.67 7.632 2.67C8.42933 2.67 9.33067 2.67 10.336 2.67C11.3587 2.65267 12.2687 2.62667 13.066 2.592ZM9.036 11.744C9.036 11.744 9.036 11.8307 9.036 12.004C9.036 12.1773 9.036 12.264 9.036 12.264H3.836C3.836 12.264 3.836 12.1773 3.836 12.004C3.836 11.8307 3.836 11.744 3.836 11.744H9.036ZM9.53 8.312C9.46067 9.3 9.426 10.054 9.426 10.574C9.44333 11.094 9.452 11.5707 9.452 12.004C9.452 12.4373 9.46067 12.914 9.478 13.434C9.49533 13.954 9.53867 14.708 9.608 15.696H9.01C8.94067 15.1413 8.854 14.604 8.75 14.084C8.66333 13.5467 8.45533 13.1133 8.126 12.784C7.814 12.4373 7.27667 12.264 6.514 12.264V11.744C7.086 11.744 7.51933 11.6313 7.814 11.406C8.126 11.1633 8.35133 10.86 8.49 10.496C8.62867 10.132 8.724 9.75933 8.776 9.378C8.828 8.97933 8.88 8.624 8.932 8.312H9.53ZM22.6427 7.246C23.1107 7.246 23.5181 7.34133 23.8647 7.532C24.2287 7.72267 24.5061 7.974 24.6967 8.286C24.9047 8.58067 25.0087 8.91867 25.0087 9.3C25.0087 9.73333 24.8701 10.1147 24.5927 10.444C24.3327 10.7733 23.9774 10.938 23.5267 10.938C23.1627 10.938 22.8421 10.8253 22.5647 10.6C22.2874 10.3573 22.1487 10.0193 22.1487 9.586C22.1487 9.25667 22.2354 8.97933 22.4087 8.754C22.5994 8.51133 22.8074 8.32067 23.0327 8.182C22.9114 8.00867 22.7294 7.922 22.4867 7.922C21.9494 7.922 21.4554 8.08667 21.0047 8.416C20.5541 8.728 20.1727 9.13533 19.8607 9.638C19.5487 10.1407 19.3061 10.678 19.1327 11.25C18.9594 11.8047 18.8727 12.3247 18.8727 12.81V18.322C18.8727 19.1713 19.1154 19.7433 19.6007 20.038C20.1034 20.3153 20.7794 20.454 21.6287 20.454V21C21.2301 20.9827 20.6667 20.9653 19.9387 20.948C19.2107 20.9133 18.4394 20.896 17.6247 20.896C17.0354 20.896 16.4461 20.9133 15.8567 20.948C15.2847 20.9653 14.8514 20.9827 14.5567 21V20.454C15.2674 20.454 15.7701 20.324 16.0647 20.064C16.3767 19.804 16.5327 19.31 16.5327 18.582V10.444C16.5327 9.664 16.3941 9.092 16.1167 8.728C15.8394 8.34667 15.3194 8.156 14.5567 8.156V7.61C15.1114 7.662 15.6487 7.688 16.1687 7.688C16.6714 7.688 17.1481 7.662 17.5987 7.61C18.0667 7.54067 18.4914 7.44533 18.8727 7.324V10.574C19.0634 10.0713 19.3321 9.56867 19.6787 9.066C20.0427 8.546 20.4761 8.11267 20.9787 7.766C21.4814 7.41933 22.0361 7.246 22.6427 7.246ZM31.945 7.246C33.4704 7.246 34.6577 7.714 35.507 8.65C36.3737 9.56867 36.807 11.0073 36.807 12.966H27.629L27.603 12.472H34.311C34.3457 11.6227 34.2764 10.8427 34.103 10.132C33.9297 9.404 33.6524 8.82333 33.271 8.39C32.907 7.95667 32.4304 7.74 31.841 7.74C31.0437 7.74 30.333 8.13867 29.709 8.936C29.1024 9.73333 28.7384 10.9987 28.617 12.732L28.695 12.836C28.6604 13.096 28.6344 13.382 28.617 13.694C28.5997 14.006 28.591 14.318 28.591 14.63C28.591 15.8087 28.7817 16.8227 29.163 17.672C29.5444 18.5213 30.0384 19.1713 30.645 19.622C31.269 20.0553 31.9104 20.272 32.569 20.272C33.089 20.272 33.583 20.194 34.051 20.038C34.519 19.8647 34.9524 19.5873 35.351 19.206C35.7497 18.8247 36.0964 18.3133 36.391 17.672L36.911 17.88C36.7204 18.452 36.4084 19.0067 35.975 19.544C35.5417 20.0813 34.9957 20.5233 34.337 20.87C33.6784 21.1993 32.9157 21.364 32.049 21.364C30.801 21.364 29.7264 21.078 28.825 20.506C27.941 19.934 27.2564 19.1453 26.771 18.14C26.303 17.1173 26.069 15.9473 26.069 14.63C26.069 13.1047 26.3117 11.796 26.797 10.704C27.2824 9.59467 27.967 8.74533 28.851 8.156C29.735 7.54933 30.7664 7.246 31.945 7.246ZM43.4334 7.246C44.1267 7.246 44.7161 7.35867 45.2014 7.584C45.6867 7.80933 46.0421 8.01733 46.2674 8.208C46.8394 8.676 47.1861 8.364 47.3074 7.272H47.9054C47.8707 7.75733 47.8447 8.338 47.8274 9.014C47.8101 9.67267 47.8014 10.5653 47.8014 11.692H47.2034C47.0994 11.0507 46.9174 10.4267 46.6574 9.82C46.4147 9.21333 46.0507 8.71933 45.5654 8.338C45.0801 7.93933 44.4474 7.74 43.6674 7.74C43.0607 7.74 42.5494 7.91333 42.1334 8.26C41.7347 8.58933 41.5354 9.08333 41.5354 9.742C41.5354 10.262 41.6914 10.7127 42.0034 11.094C42.3154 11.458 42.7227 11.8047 43.2254 12.134C43.7281 12.446 44.2741 12.7927 44.8634 13.174C45.5221 13.59 46.1201 14.0147 46.6574 14.448C47.1947 14.8813 47.6194 15.358 47.9314 15.878C48.2607 16.398 48.4254 17.0133 48.4254 17.724C48.4254 18.5213 48.2174 19.1887 47.8014 19.726C47.3854 20.2633 46.8394 20.6707 46.1634 20.948C45.5047 21.2253 44.7767 21.364 43.9794 21.364C43.5981 21.364 43.2341 21.3293 42.8874 21.26C42.5581 21.208 42.2374 21.1213 41.9254 21C41.7521 20.9133 41.5701 20.8093 41.3794 20.688C41.2061 20.5667 41.0327 20.4367 40.8594 20.298C40.6861 20.1593 40.5301 20.168 40.3914 20.324C40.2527 20.4627 40.1487 20.7487 40.0794 21.182H39.4814C39.5161 20.6273 39.5421 19.9513 39.5594 19.154C39.5767 18.3567 39.5854 17.2993 39.5854 15.982H40.1834C40.3047 16.9527 40.4781 17.802 40.7034 18.53C40.9287 19.258 41.2841 19.83 41.7694 20.246C42.2547 20.6447 42.9307 20.844 43.7974 20.844C44.1441 20.844 44.4907 20.766 44.8374 20.61C45.2014 20.454 45.5047 20.194 45.7474 19.83C45.9901 19.466 46.1114 18.9807 46.1114 18.374C46.1114 17.6113 45.8341 16.9873 45.2794 16.502C44.7247 16.0167 44.0227 15.5053 43.1734 14.968C42.5494 14.5693 41.9601 14.1707 41.4054 13.772C40.8681 13.3733 40.4261 12.9227 40.0794 12.42C39.7501 11.9173 39.5854 11.3107 39.5854 10.6C39.5854 9.82 39.7587 9.18733 40.1054 8.702C40.4694 8.19933 40.9461 7.83533 41.5354 7.61C42.1247 7.36733 42.7574 7.246 43.4334 7.246ZM54.4903 0.641999V10.366C54.941 9.18733 55.565 8.37267 56.3623 7.922C57.177 7.47133 58.0263 7.246 58.9103 7.246C59.569 7.246 60.115 7.33267 60.5483 7.506C60.999 7.67933 61.3716 7.922 61.6663 8.234C61.9956 8.58067 62.2296 9.014 62.3683 9.534C62.507 10.054 62.5763 10.756 62.5763 11.64V18.582C62.5763 19.31 62.7236 19.804 63.0183 20.064C63.3303 20.324 63.8416 20.454 64.5523 20.454V21C64.2576 20.9827 63.807 20.9653 63.2003 20.948C62.5936 20.9133 62.0043 20.896 61.4323 20.896C60.8603 20.896 60.297 20.9133 59.7423 20.948C59.205 20.9653 58.7976 20.9827 58.5203 21V20.454C59.1443 20.454 59.5863 20.324 59.8463 20.064C60.1063 19.804 60.2363 19.31 60.2363 18.582V11.068C60.2363 10.5307 60.193 10.0367 60.1063 9.586C60.0196 9.13533 59.8203 8.77133 59.5083 8.494C59.2136 8.21667 58.7543 8.078 58.1303 8.078C57.4196 8.078 56.787 8.27733 56.2323 8.676C55.695 9.07467 55.2703 9.62933 54.9583 10.34C54.6463 11.0507 54.4903 11.8653 54.4903 12.784V18.582C54.4903 19.31 54.6203 19.804 54.8803 20.064C55.1403 20.324 55.5823 20.454 56.2063 20.454V21C55.929 20.9827 55.513 20.9653 54.9583 20.948C54.421 20.9133 53.8663 20.896 53.2943 20.896C52.7223 20.896 52.133 20.9133 51.5263 20.948C50.9196 20.9653 50.469 20.9827 50.1743 21V20.454C50.885 20.454 51.3876 20.324 51.6823 20.064C51.9943 19.804 52.1503 19.31 52.1503 18.582V3.762C52.1503 2.982 52.0116 2.41 51.7343 2.046C51.457 1.66467 50.937 1.474 50.1743 1.474V0.928C50.729 0.979999 51.2663 1.006 51.7863 1.006C52.289 1.006 52.7656 0.979999 53.2163 0.928C53.6843 0.858666 54.109 0.763332 54.4903 0.641999ZM85.4801 2.592C85.4107 3.25067 85.3587 3.892 85.3241 4.516C85.3067 5.12267 85.2981 5.59067 85.2981 5.92C85.2981 6.336 85.3067 6.726 85.3241 7.09C85.3414 7.454 85.3587 7.77467 85.3761 8.052H84.7781C84.6567 6.83867 84.4921 5.88533 84.2841 5.192C84.0761 4.48133 83.7121 3.97 83.1921 3.658C82.6721 3.346 81.8661 3.19 80.7741 3.19H79.1361C78.5467 3.19 78.0961 3.242 77.7841 3.346C77.4894 3.43267 77.2901 3.632 77.1861 3.944C77.0821 4.23867 77.0301 4.70667 77.0301 5.348V18.244C77.0301 18.868 77.0907 19.336 77.2121 19.648C77.3507 19.96 77.6107 20.168 77.9921 20.272C78.3734 20.376 78.9281 20.4453 79.6561 20.48V21C79.2054 20.9653 78.6334 20.948 77.9401 20.948C77.2467 20.9307 76.5447 20.922 75.8341 20.922C75.1581 20.922 74.5254 20.9307 73.9361 20.948C73.3467 20.948 72.8701 20.9653 72.5061 21V20.48C73.0954 20.4453 73.5374 20.376 73.8321 20.272C74.1441 20.168 74.3521 19.96 74.4561 19.648C74.5601 19.336 74.6121 18.868 74.6121 18.244V5.348C74.6121 4.70667 74.5601 4.23867 74.4561 3.944C74.3521 3.632 74.1441 3.424 73.8321 3.32C73.5374 3.19867 73.0954 3.12933 72.5061 3.112V2.592C73.1474 2.60933 73.8234 2.62667 74.5341 2.644C75.2447 2.644 75.9467 2.65267 76.6401 2.67C77.3334 2.67 77.9747 2.67 78.5641 2.67C79.1707 2.67 79.6647 2.67 80.0461 2.67C80.8434 2.67 81.7447 2.67 82.7501 2.67C83.7727 2.65267 84.6827 2.62667 85.4801 2.592ZM81.4501 11.744C81.4501 11.744 81.4501 11.8307 81.4501 12.004C81.4501 12.1773 81.4501 12.264 81.4501 12.264H76.2501C76.2501 12.264 76.2501 12.1773 76.2501 12.004C76.2501 11.8307 76.2501 11.744 76.2501 11.744H81.4501ZM81.9441 8.312C81.8747 9.3 81.8401 10.054 81.8401 10.574C81.8574 11.094 81.8661 11.5707 81.8661 12.004C81.8661 12.4373 81.8747 12.914 81.8921 13.434C81.9094 13.954 81.9527 14.708 82.0221 15.696H81.4241C81.3547 15.1413 81.2681 14.604 81.1641 14.084C81.0774 13.5467 80.8694 13.1133 80.5401 12.784C80.2281 12.4373 79.6907 12.264 78.9281 12.264V11.744C79.5001 11.744 79.9334 11.6313 80.2281 11.406C80.5401 11.1633 80.7654 10.86 80.9041 10.496C81.0427 10.132 81.1381 9.75933 81.1901 9.378C81.2421 8.97933 81.2941 8.624 81.3461 8.312H81.9441ZM92.706 7.246C93.8154 7.246 94.812 7.48867 95.696 7.974C96.58 8.45933 97.282 9.222 97.802 10.262C98.3394 11.302 98.608 12.654 98.608 14.318C98.608 15.982 98.3394 17.334 97.802 18.374C97.282 19.3967 96.58 20.1507 95.696 20.636C94.812 21.1213 93.8154 21.364 92.706 21.364C91.614 21.364 90.6174 21.1213 89.716 20.636C88.832 20.1507 88.1214 19.3967 87.584 18.374C87.064 17.334 86.804 15.982 86.804 14.318C86.804 12.654 87.064 11.302 87.584 10.262C88.1214 9.222 88.832 8.45933 89.716 7.974C90.6174 7.48867 91.614 7.246 92.706 7.246ZM92.706 7.766C91.718 7.766 90.9034 8.27733 90.262 9.3C89.638 10.3227 89.326 11.9953 89.326 14.318C89.326 16.6407 89.638 18.3133 90.262 19.336C90.9034 20.3413 91.718 20.844 92.706 20.844C93.694 20.844 94.5 20.3413 95.124 19.336C95.7654 18.3133 96.086 16.6407 96.086 14.318C96.086 11.9953 95.7654 10.3227 95.124 9.3C94.5 8.27733 93.694 7.766 92.706 7.766ZM106.95 7.246C108.06 7.246 109.056 7.48867 109.94 7.974C110.824 8.45933 111.526 9.222 112.046 10.262C112.584 11.302 112.852 12.654 112.852 14.318C112.852 15.982 112.584 17.334 112.046 18.374C111.526 19.3967 110.824 20.1507 109.94 20.636C109.056 21.1213 108.06 21.364 106.95 21.364C105.858 21.364 104.862 21.1213 103.96 20.636C103.076 20.1507 102.366 19.3967 101.828 18.374C101.308 17.334 101.048 15.982 101.048 14.318C101.048 12.654 101.308 11.302 101.828 10.262C102.366 9.222 103.076 8.45933 103.96 7.974C104.862 7.48867 105.858 7.246 106.95 7.246ZM106.95 7.766C105.962 7.766 105.148 8.27733 104.506 9.3C103.882 10.3227 103.57 11.9953 103.57 14.318C103.57 16.6407 103.882 18.3133 104.506 19.336C105.148 20.3413 105.962 20.844 106.95 20.844C107.938 20.844 108.744 20.3413 109.368 19.336C110.01 18.3133 110.33 16.6407 110.33 14.318C110.33 11.9953 110.01 10.3227 109.368 9.3C108.744 8.27733 107.938 7.766 106.95 7.766ZM126.654 0.615999V18.166C126.654 18.946 126.793 19.5267 127.07 19.908C127.365 20.272 127.885 20.454 128.63 20.454V21C128.093 20.948 127.556 20.922 127.018 20.922C126.516 20.922 126.03 20.948 125.562 21C125.112 21.052 124.696 21.1473 124.314 21.286V3.736C124.314 2.956 124.176 2.384 123.898 2.02C123.621 1.63867 123.101 1.448 122.338 1.448V0.901998C122.893 0.953999 123.43 0.979999 123.95 0.979999C124.453 0.979999 124.93 0.953999 125.38 0.901998C125.848 0.832666 126.273 0.737333 126.654 0.615999ZM121.194 7.246C121.957 7.246 122.668 7.428 123.326 7.792C124.002 8.156 124.453 8.78 124.678 9.664L124.34 9.924C124.098 9.196 123.716 8.66733 123.196 8.338C122.694 8.00867 122.096 7.844 121.402 7.844C120.38 7.844 119.522 8.37267 118.828 9.43C118.152 10.4873 117.823 12.1167 117.84 14.318C117.84 15.722 117.97 16.892 118.23 17.828C118.508 18.7467 118.906 19.44 119.426 19.908C119.964 20.3587 120.614 20.584 121.376 20.584C122.104 20.584 122.763 20.272 123.352 19.648C123.942 19.024 124.297 18.1053 124.418 16.892L124.73 17.256C124.592 18.5733 124.167 19.5873 123.456 20.298C122.763 21.0087 121.818 21.364 120.622 21.364C119.548 21.364 118.603 21.104 117.788 20.584C116.991 20.064 116.376 19.284 115.942 18.244C115.526 17.204 115.318 15.8953 115.318 14.318C115.318 12.7407 115.587 11.432 116.124 10.392C116.679 9.33467 117.398 8.546 118.282 8.026C119.184 7.506 120.154 7.246 121.194 7.246Z" fill="black"/>
</svg>
