<svg width="34" height="34" viewBox="0 0 34 34" fill="none" xmlns="http://www.w3.org/2000/svg">
<path d="M7.08398 31.1693C5.90343 31.1693 4.89996 30.7561 4.07357 29.9297C3.24718 29.1033 2.83398 28.0998 2.83398 26.9193V7.08594C2.83398 5.90538 3.24718 4.90191 4.07357 4.07552C4.89996 3.24913 5.90343 2.83594 7.08398 2.83594H26.9173C28.0979 2.83594 29.1013 3.24913 29.9277 4.07552C30.7541 4.90191 31.1673 5.90538 31.1673 7.08594V26.9193C31.1673 28.0998 30.7541 29.1033 29.9277 29.9297C29.1013 30.7561 28.0979 31.1693 26.9173 31.1693H7.08398ZM7.08398 29.0443H26.9173C27.5312 29.0443 28.0388 28.8377 28.4402 28.4245C28.8416 28.0113 29.0423 27.5095 29.0423 26.9193V7.08594C29.0423 6.47205 28.8416 5.96441 28.4402 5.56302C28.0388 5.16163 27.5312 4.96094 26.9173 4.96094H7.08398C6.49371 4.96094 5.99197 5.16163 5.57878 5.56302C5.16558 5.96441 4.95898 6.47205 4.95898 7.08594V26.9193C4.95898 27.5095 5.16558 28.0113 5.57878 28.4245C5.99197 28.8377 6.49371 29.0443 7.08398 29.0443ZM9.35065 25.1484L14.1673 20.3318L16.7527 22.8818L19.834 18.9859L24.7569 25.1484H9.35065ZM11.334 13.8151C10.6493 13.8151 10.0649 13.5731 9.58086 13.0891C9.09683 12.605 8.85482 12.0207 8.85482 11.3359C8.85482 10.6512 9.09683 10.0668 9.58086 9.58281C10.0649 9.09878 10.6493 8.85677 11.334 8.85677C12.0187 8.85677 12.6031 9.09878 13.0871 9.58281C13.5711 10.0668 13.8132 10.6512 13.8132 11.3359C13.8132 12.0207 13.5711 12.605 13.0871 13.0891C12.6031 13.5731 12.0187 13.8151 11.334 13.8151Z" fill="#444444"/>
</svg>
