<svg width="16" height="19" viewBox="0 0 16 19" fill="none" xmlns="http://www.w3.org/2000/svg">
<path d="M3.0065 4.49495C4.3751 3.38062 6.1111 2.71429 8 2.71429C9.88889 2.71429 11.6249 3.38062 12.9935 4.49495L14.2854 3.17998L15.5425 4.45951L14.2506 5.77447C15.3453 7.16751 16 8.93452 16 10.8571C16 15.3544 12.4183 19 8 19C3.58172 19 0 15.3544 0 10.8571C0 8.93452 0.65464 7.16751 1.74942 5.77447L0.457529 4.45951L1.7146 3.17998L3.0065 4.49495ZM8.88889 9.95238V5.87661L4.44444 11.7619H7.11111V15.8333L11.5556 9.95238H8.88889ZM4.44444 0H11.5556V1.80952H4.44444V0Z" fill="#F38E00"/>
</svg>
