<svg width="73" height="57" viewBox="0 0 73 57" fill="none" xmlns="http://www.w3.org/2000/svg">
<rect y="18.0347" width="53.7863" height="40.3397" rx="4" transform="rotate(-15 0 18.0347)" fill="white"/>
<rect x="2.74463" y="19.6189" width="49.3041" height="35.8575" rx="2" transform="rotate(-15 2.74463 19.6189)" fill="#E8E7EC"/>
<path d="M37.7745 18.7401C38.3325 18.5906 38.905 18.9181 39.0533 19.4716L40.933 26.4869C41.0813 27.0404 40.7493 27.6103 40.1913 27.7598L38.1699 28.3014L40.3192 36.3187C40.4675 36.8722 40.1355 37.442 39.5775 37.5915L27.4551 40.8397C26.8971 40.9892 26.3246 40.6618 26.1763 40.1082L24.0267 32.09L22.0076 32.6321C21.4497 32.7816 20.8772 32.4541 20.7289 31.9006L18.8491 24.8852C18.7008 24.3318 19.0328 23.7619 19.5908 23.6124L25.652 21.9883C26.097 23.6487 27.8145 24.6313 29.4882 24.1828C31.1621 23.7343 32.1582 22.0246 31.7133 20.3642L37.7745 18.7401Z" fill="#C2C6C9"/>
<rect x="8.21777" y="10.8372" width="53.7863" height="40.3397" rx="4" fill="white"/>
<rect x="10.4585" y="13.0781" width="49.3041" height="35.8575" rx="2" fill="#E8E7EC"/>
<path d="M44.5229 21.2957C45.1005 21.2957 45.5687 21.7602 45.5687 22.3332V29.596C45.5687 30.169 45.1005 30.6336 44.5229 30.6336H42.4302L42.4312 38.9339C42.4312 39.5069 41.963 39.9714 41.3854 39.9714H28.8352C28.2576 39.9714 27.7894 39.5069 27.7894 38.9339L27.7884 30.6325L25.6977 30.6336C25.1201 30.6336 24.6519 30.169 24.6519 29.596V22.3332C24.6519 21.7602 25.1201 21.2957 25.6977 21.2957H31.9728C31.9728 23.0147 33.3775 24.4083 35.1103 24.4083C36.8431 24.4083 38.2478 23.0147 38.2478 21.2957H44.5229Z" fill="#C2C6C9"/>
<circle cx="61.7087" cy="10.9704" r="10.9704" fill="#F5A028"/>
<path d="M59.6518 6.1709H57.9092C57.3569 6.1709 56.9092 6.61861 56.9092 7.1709V8.9135M63.7657 6.1709H65.5083C66.0606 6.1709 66.5083 6.61861 66.5083 7.1709V8.9135M66.5083 13.0274V14.77C66.5083 15.3223 66.0606 15.77 65.5083 15.77H63.7657M59.6518 15.77H57.9092C57.3569 15.77 56.9092 15.3223 56.9092 14.77V13.0274" stroke="white" stroke-linecap="round" stroke-linejoin="round"/>
<path d="M58.2803 10.9705H65.1368" stroke="white" stroke-linecap="round" stroke-linejoin="round"/>
</svg>
