<svg width="14" height="14" viewBox="0 0 14 14" fill="none" xmlns="http://www.w3.org/2000/svg">
<path d="M3.72301 3.48137C4.62116 2.76292 5.76041 2.33331 7 2.33331C8.23958 2.33331 9.37883 2.76292 10.277 3.48137L11.1248 2.63357L11.9498 3.45852L11.1019 4.30633C11.8204 5.20447 12.25 6.34373 12.25 7.58331C12.25 10.4828 9.89952 12.8333 7 12.8333C4.10051 12.8333 1.75 10.4828 1.75 7.58331C1.75 6.34373 2.17961 5.20447 2.89806 4.30633L2.05025 3.45852L2.87521 2.63357L3.72301 3.48137ZM7.58333 6.99998V4.37218L4.66667 8.16665H6.41667V10.7916L9.33333 6.99998H7.58333ZM4.66667 0.583313H9.33333V1.74998H4.66667V0.583313Z" fill="#FF9100"/>
</svg>
