<svg width="170" height="160" viewBox="0 0 170 160" fill="none" xmlns="http://www.w3.org/2000/svg">
<path d="M26.4298 110V126H24.4923V110H26.4298ZM37.4646 116.687L35.8083 117.156C35.7042 116.88 35.5505 116.612 35.3474 116.352C35.1495 116.086 34.8786 115.867 34.5349 115.695C34.1911 115.523 33.751 115.437 33.2146 115.437C32.4802 115.437 31.8682 115.607 31.3786 115.945C30.8943 116.279 30.6521 116.703 30.6521 117.219C30.6521 117.677 30.8187 118.039 31.1521 118.305C31.4854 118.57 32.0062 118.792 32.7146 118.969L34.4958 119.406C35.5687 119.667 36.3682 120.065 36.8943 120.602C37.4203 121.133 37.6833 121.818 37.6833 122.656C37.6833 123.344 37.4854 123.958 37.0896 124.5C36.699 125.042 36.1521 125.469 35.449 125.781C34.7458 126.094 33.9281 126.25 32.9958 126.25C31.7719 126.25 30.7588 125.984 29.9568 125.453C29.1547 124.922 28.6469 124.146 28.4333 123.125L30.1833 122.687C30.35 123.333 30.6651 123.818 31.1286 124.141C31.5974 124.464 32.2094 124.625 32.9646 124.625C33.824 124.625 34.5062 124.443 35.0115 124.078C35.5219 123.708 35.7771 123.266 35.7771 122.75C35.7771 122.333 35.6312 121.984 35.3396 121.703C35.0479 121.417 34.6 121.203 33.9958 121.062L31.9958 120.594C30.8969 120.333 30.0896 119.93 29.574 119.383C29.0635 118.831 28.8083 118.141 28.8083 117.312C28.8083 116.635 28.9984 116.036 29.3786 115.516C29.7641 114.995 30.2875 114.586 30.949 114.289C31.6156 113.992 32.3708 113.844 33.2146 113.844C34.4021 113.844 35.3344 114.104 36.0115 114.625C36.6937 115.146 37.1781 115.833 37.4646 116.687ZM41.2025 110V126H39.3587V110H41.2025ZM47.0107 126.281C46.2503 126.281 45.5601 126.138 44.9404 125.852C44.3206 125.56 43.8284 125.141 43.4638 124.594C43.0992 124.042 42.9169 123.375 42.9169 122.594C42.9169 121.906 43.0523 121.349 43.3232 120.922C43.594 120.49 43.956 120.151 44.4091 119.906C44.8622 119.661 45.3622 119.479 45.9091 119.359C46.4612 119.234 47.0159 119.135 47.5732 119.063C48.3023 118.969 48.8935 118.898 49.3466 118.852C49.8049 118.799 50.1383 118.714 50.3466 118.594C50.5601 118.474 50.6669 118.266 50.6669 117.969V117.906C50.6669 117.135 50.456 116.536 50.0341 116.109C49.6174 115.682 48.9846 115.469 48.1357 115.469C47.2555 115.469 46.5654 115.661 46.0654 116.047C45.5654 116.432 45.2138 116.844 45.0107 117.281L43.2607 116.656C43.5732 115.927 43.9898 115.359 44.5107 114.953C45.0367 114.542 45.6096 114.255 46.2294 114.094C46.8544 113.927 47.469 113.844 48.0732 113.844C48.4586 113.844 48.9013 113.891 49.4013 113.984C49.9065 114.073 50.3935 114.258 50.8622 114.539C51.3362 114.82 51.7294 115.245 52.0419 115.812C52.3544 116.38 52.5107 117.141 52.5107 118.094V126H50.6669V124.375H50.5732C50.4482 124.635 50.2398 124.914 49.9482 125.211C49.6565 125.508 49.2685 125.76 48.7841 125.969C48.2997 126.177 47.7086 126.281 47.0107 126.281ZM47.2919 124.625C48.0211 124.625 48.6357 124.482 49.1357 124.195C49.6409 123.909 50.0211 123.539 50.2763 123.086C50.5367 122.633 50.6669 122.156 50.6669 121.656V119.969C50.5888 120.062 50.4169 120.148 50.1513 120.227C49.8909 120.299 49.5888 120.365 49.245 120.422C48.9065 120.474 48.5758 120.521 48.2529 120.562C47.9351 120.599 47.6773 120.63 47.4794 120.656C47.0003 120.719 46.5523 120.82 46.1357 120.961C45.7242 121.096 45.3909 121.302 45.1357 121.578C44.8857 121.849 44.7607 122.219 44.7607 122.687C44.7607 123.328 44.9976 123.812 45.4716 124.141C45.9508 124.464 46.5575 124.625 47.2919 124.625ZM56.6197 118.781V126H54.7759V114H56.5572V115.875H56.7134C56.9947 115.266 57.4217 114.776 57.9947 114.406C58.5676 114.031 59.3072 113.844 60.2134 113.844C61.0259 113.844 61.7368 114.01 62.3462 114.344C62.9556 114.672 63.4295 115.172 63.7681 115.844C64.1066 116.51 64.2759 117.354 64.2759 118.375V126H62.4322V118.5C62.4322 117.557 62.1874 116.823 61.6978 116.297C61.2082 115.766 60.5363 115.5 59.6822 115.5C59.0936 115.5 58.5676 115.628 58.104 115.883C57.6457 116.138 57.2837 116.51 57.0181 117C56.7525 117.49 56.6197 118.083 56.6197 118.781ZM71.0763 126.25C70.0763 126.25 69.1935 125.997 68.4279 125.492C67.6622 124.982 67.0633 124.263 66.631 123.336C66.1987 122.404 65.9825 121.302 65.9825 120.031C65.9825 118.771 66.1987 117.677 66.631 116.75C67.0633 115.823 67.6648 115.107 68.4357 114.602C69.2065 114.096 70.0971 113.844 71.1075 113.844C71.8888 113.844 72.506 113.974 72.9591 114.234C73.4174 114.49 73.7664 114.781 74.006 115.109C74.2508 115.432 74.4409 115.698 74.5763 115.906H74.7325V110H76.5763V126H74.795V124.156H74.5763C74.4409 124.375 74.2482 124.651 73.9982 124.984C73.7482 125.312 73.3914 125.607 72.9279 125.867C72.4643 126.122 71.8471 126.25 71.0763 126.25ZM71.3263 124.594C72.0659 124.594 72.6909 124.401 73.2013 124.016C73.7117 123.625 74.0997 123.086 74.3654 122.398C74.631 121.706 74.7638 120.906 74.7638 120C74.7638 119.104 74.6336 118.32 74.3732 117.648C74.1128 116.971 73.7273 116.445 73.2169 116.07C72.7065 115.69 72.0763 115.5 71.3263 115.5C70.545 115.5 69.894 115.701 69.3732 116.102C68.8575 116.497 68.4695 117.036 68.2091 117.719C67.9539 118.396 67.8263 119.156 67.8263 120C67.8263 120.854 67.9565 121.63 68.2169 122.328C68.4825 123.021 68.8732 123.573 69.3888 123.984C69.9096 124.391 70.5555 124.594 71.3263 124.594ZM85.9841 118.281V120H78.9841V118.281H85.9841ZM90.847 126L87.1907 114H89.1282L91.722 123.188H91.847L94.4095 114H96.3782L98.9095 123.156H99.0345L101.628 114H103.566L99.9095 126H98.097L95.472 116.781H95.2845L92.6595 126H90.847ZM104.903 126V114H106.747V126H104.903ZM105.841 112C105.481 112 105.171 111.878 104.911 111.633C104.656 111.388 104.528 111.094 104.528 110.75C104.528 110.406 104.656 110.112 104.911 109.867C105.171 109.622 105.481 109.5 105.841 109.5C106.2 109.5 106.507 109.622 106.763 109.867C107.023 110.112 107.153 110.406 107.153 110.75C107.153 111.094 107.023 111.388 106.763 111.633C106.507 111.878 106.2 112 105.841 112ZM113.555 126.25C112.555 126.25 111.672 125.997 110.907 125.492C110.141 124.982 109.542 124.263 109.11 123.336C108.678 122.404 108.461 121.302 108.461 120.031C108.461 118.771 108.678 117.677 109.11 116.75C109.542 115.823 110.144 115.107 110.915 114.602C111.685 114.096 112.576 113.844 113.586 113.844C114.368 113.844 114.985 113.974 115.438 114.234C115.896 114.49 116.245 114.781 116.485 115.109C116.73 115.432 116.92 115.698 117.055 115.906H117.211V110H119.055V126H117.274V124.156H117.055C116.92 124.375 116.727 124.651 116.477 124.984C116.227 125.312 115.87 125.607 115.407 125.867C114.943 126.122 114.326 126.25 113.555 126.25ZM113.805 124.594C114.545 124.594 115.17 124.401 115.68 124.016C116.191 123.625 116.579 123.086 116.844 122.398C117.11 121.706 117.243 120.906 117.243 120C117.243 119.104 117.112 118.32 116.852 117.648C116.592 116.971 116.206 116.445 115.696 116.07C115.185 115.69 114.555 115.5 113.805 115.5C113.024 115.5 112.373 115.701 111.852 116.102C111.336 116.497 110.948 117.036 110.688 117.719C110.433 118.396 110.305 119.156 110.305 120C110.305 120.854 110.435 121.63 110.696 122.328C110.961 123.021 111.352 123.573 111.868 123.984C112.389 124.391 113.034 124.594 113.805 124.594ZM126.619 126.25C125.463 126.25 124.466 125.995 123.627 125.484C122.794 124.969 122.151 124.25 121.697 123.328C121.249 122.401 121.026 121.323 121.026 120.094C121.026 118.865 121.249 117.781 121.697 116.844C122.151 115.901 122.781 115.167 123.588 114.641C124.401 114.109 125.348 113.844 126.432 113.844C127.057 113.844 127.674 113.948 128.283 114.156C128.893 114.365 129.447 114.703 129.947 115.172C130.447 115.635 130.846 116.25 131.143 117.016C131.44 117.781 131.588 118.724 131.588 119.844V120.625H122.338V119.031H129.713C129.713 118.354 129.578 117.75 129.307 117.219C129.041 116.687 128.661 116.268 128.166 115.961C127.677 115.654 127.098 115.5 126.432 115.5C125.697 115.5 125.062 115.682 124.526 116.047C123.994 116.406 123.585 116.875 123.299 117.453C123.012 118.031 122.869 118.651 122.869 119.312V120.375C122.869 121.281 123.026 122.049 123.338 122.68C123.656 123.305 124.096 123.781 124.658 124.109C125.221 124.432 125.874 124.594 126.619 124.594C127.104 124.594 127.541 124.526 127.932 124.391C128.328 124.25 128.669 124.042 128.955 123.766C129.242 123.484 129.463 123.135 129.619 122.719L131.401 123.219C131.213 123.823 130.898 124.354 130.455 124.812C130.012 125.266 129.466 125.62 128.815 125.875C128.164 126.125 127.432 126.25 126.619 126.25ZM28.7736 148.25C27.7736 148.25 26.8907 147.997 26.1251 147.492C25.3595 146.982 24.7605 146.263 24.3282 145.336C23.896 144.404 23.6798 143.302 23.6798 142.031C23.6798 140.771 23.896 139.677 24.3282 138.75C24.7605 137.823 25.3621 137.107 26.1329 136.602C26.9038 136.096 27.7944 135.844 28.8048 135.844C29.5861 135.844 30.2032 135.974 30.6564 136.234C31.1147 136.49 31.4637 136.781 31.7032 137.109C31.948 137.432 32.1381 137.698 32.2736 137.906H32.4298V132H34.2736V148H32.4923V146.156H32.2736C32.1381 146.375 31.9454 146.651 31.6954 146.984C31.4454 147.312 31.0887 147.607 30.6251 147.867C30.1616 148.122 29.5444 148.25 28.7736 148.25ZM29.0236 146.594C29.7631 146.594 30.3881 146.401 30.8986 146.016C31.409 145.625 31.797 145.086 32.0626 144.398C32.3282 143.706 32.4611 142.906 32.4611 142C32.4611 141.104 32.3309 140.32 32.0704 139.648C31.81 138.971 31.4246 138.445 30.9142 138.07C30.4038 137.69 29.7736 137.5 29.0236 137.5C28.2423 137.5 27.5913 137.701 27.0704 138.102C26.5548 138.497 26.1668 139.036 25.9064 139.719C25.6512 140.396 25.5236 141.156 25.5236 142C25.5236 142.854 25.6538 143.63 25.9142 144.328C26.1798 145.021 26.5704 145.573 27.0861 145.984C27.6069 146.391 28.2527 146.594 29.0236 146.594ZM41.8376 148.25C40.6814 148.25 39.684 147.995 38.8454 147.484C38.0121 146.969 37.3689 146.25 36.9157 145.328C36.4678 144.401 36.2439 143.323 36.2439 142.094C36.2439 140.865 36.4678 139.781 36.9157 138.844C37.3689 137.901 37.9991 137.167 38.8064 136.641C39.6189 136.109 40.5668 135.844 41.6501 135.844C42.2751 135.844 42.8923 135.948 43.5017 136.156C44.1111 136.365 44.6657 136.703 45.1657 137.172C45.6657 137.635 46.0642 138.25 46.3611 139.016C46.6579 139.781 46.8064 140.724 46.8064 141.844V142.625H37.5564V141.031H44.9314C44.9314 140.354 44.796 139.75 44.5251 139.219C44.2595 138.687 43.8793 138.268 43.3845 137.961C42.8949 137.654 42.3168 137.5 41.6501 137.5C40.9157 137.5 40.2803 137.682 39.7439 138.047C39.2126 138.406 38.8038 138.875 38.5173 139.453C38.2309 140.031 38.0876 140.651 38.0876 141.312V142.375C38.0876 143.281 38.2439 144.049 38.5564 144.68C38.8741 145.305 39.3142 145.781 39.8767 146.109C40.4392 146.432 41.0928 146.594 41.8376 146.594C42.322 146.594 42.7595 146.526 43.1501 146.391C43.546 146.25 43.8871 146.042 44.1736 145.766C44.46 145.484 44.6814 145.135 44.8376 144.719L46.6189 145.219C46.4314 145.823 46.1163 146.354 45.6736 146.812C45.2309 147.266 44.684 147.62 44.0329 147.875C43.3819 148.125 42.6501 148.25 41.8376 148.25ZM50.3548 132V148H48.5111V132H50.3548ZM52.6318 148V136H54.4755V148H52.6318ZM53.5693 134C53.2099 134 52.9 133.878 52.6396 133.633C52.3844 133.388 52.2568 133.094 52.2568 132.75C52.2568 132.406 52.3844 132.112 52.6396 131.867C52.9 131.622 53.2099 131.5 53.5693 131.5C53.9286 131.5 54.2359 131.622 54.4911 131.867C54.7516 132.112 54.8818 132.406 54.8818 132.75C54.8818 133.094 54.7516 133.388 54.4911 133.633C54.2359 133.878 53.9286 134 53.5693 134ZM66.565 136L62.1275 148H60.2525L55.815 136H57.815L61.1275 145.562H61.2525L64.565 136H66.565ZM72.5001 148.25C71.3439 148.25 70.3465 147.995 69.5079 147.484C68.6746 146.969 68.0314 146.25 67.5782 145.328C67.1303 144.401 66.9064 143.323 66.9064 142.094C66.9064 140.865 67.1303 139.781 67.5782 138.844C68.0314 137.901 68.6616 137.167 69.4689 136.641C70.2814 136.109 71.2293 135.844 72.3126 135.844C72.9376 135.844 73.5548 135.948 74.1642 136.156C74.7736 136.365 75.3282 136.703 75.8282 137.172C76.3282 137.635 76.7267 138.25 77.0236 139.016C77.3204 139.781 77.4689 140.724 77.4689 141.844V142.625H68.2189V141.031H75.5939C75.5939 140.354 75.4585 139.75 75.1876 139.219C74.922 138.687 74.5418 138.268 74.047 137.961C73.5574 137.654 72.9793 137.5 72.3126 137.5C71.5782 137.5 70.9428 137.682 70.4064 138.047C69.8751 138.406 69.4663 138.875 69.1798 139.453C68.8934 140.031 68.7501 140.651 68.7501 141.312V142.375C68.7501 143.281 68.9064 144.049 69.2189 144.68C69.5366 145.305 69.9767 145.781 70.5392 146.109C71.1017 146.432 71.7553 146.594 72.5001 146.594C72.9845 146.594 73.422 146.526 73.8126 146.391C74.2085 146.25 74.5496 146.042 74.8361 145.766C75.1225 145.484 75.3439 145.135 75.5001 144.719L77.2814 145.219C77.0939 145.823 76.7788 146.354 76.3361 146.812C75.8934 147.266 75.3465 147.62 74.6954 147.875C74.0444 148.125 73.3126 148.25 72.5001 148.25ZM79.1736 148V136H80.9548V137.812H81.0798C81.2986 137.219 81.6944 136.737 82.2673 136.367C82.8402 135.997 83.4861 135.812 84.2048 135.812C84.3402 135.812 84.5095 135.815 84.7126 135.82C84.9157 135.826 85.0694 135.833 85.1736 135.844V137.719C85.1111 137.703 84.9678 137.68 84.7439 137.648C84.5251 137.612 84.2934 137.594 84.0486 137.594C83.4652 137.594 82.9444 137.716 82.4861 137.961C82.0329 138.201 81.6736 138.534 81.4079 138.961C81.1475 139.383 81.0173 139.865 81.0173 140.406V148H79.1736ZM87.8118 152.5C87.4993 152.5 87.2207 152.474 86.9759 152.422C86.7311 152.375 86.5618 152.328 86.4681 152.281L86.9368 150.656C87.3848 150.771 87.7806 150.813 88.1243 150.781C88.4681 150.75 88.7728 150.596 89.0384 150.32C89.3092 150.049 89.5566 149.609 89.7806 149L90.1243 148.063L85.6868 136H87.6868L90.9993 145.562H91.1243L94.4368 136H96.4368L91.3431 149.75C91.1139 150.37 90.8301 150.883 90.4915 151.289C90.153 151.701 89.7598 152.005 89.3118 152.203C88.8691 152.401 88.3691 152.5 87.8118 152.5Z" fill="#FAFAFA"/>
<path d="M109.414 75.9515C110.195 75.1705 110.195 73.9042 109.414 73.1231C108.633 72.3421 107.367 72.3421 106.586 73.1231L109.414 75.9515ZM91.6476 85.3271L92.3932 87.1829L92.3932 87.1829L91.6476 85.3271ZM72.2224 88.9117L72.2522 86.9119L72.2224 88.9117ZM52.6815 84.7455L53.4661 82.9058L52.6815 84.7455ZM106.586 73.1231C102.12 77.5885 96.7915 81.105 90.902 83.4713L92.3932 87.1829C98.7811 84.6164 104.565 80.8002 109.414 75.9515L106.586 73.1231ZM90.902 83.4713C85.0124 85.8375 78.6755 87.0078 72.2522 86.9119L72.1925 90.9115C79.1409 91.0152 86.0055 89.7493 92.3932 87.1829L90.902 83.4713ZM72.2522 86.9119C65.8288 86.8161 59.4449 85.4558 53.4661 82.9058L51.8969 86.5851C58.3482 89.3367 65.2443 90.8078 72.1925 90.9115L72.2522 86.9119ZM53.4661 82.9058C47.4872 80.3558 42.0322 76.6667 37.414 72.0485L34.5856 74.8769C39.5637 79.855 45.4456 83.8337 51.8969 86.5851L53.4661 82.9058Z" fill="#FAFAFA"/>
<path d="M35.9998 73.4627C31.2722 68.7351 27.5082 63.1365 24.9227 56.9867C22.3371 50.8368 20.9807 44.256 20.9308 37.6201C20.8809 30.9841 22.1385 24.423 24.6319 18.3113C27.1252 12.1996 30.8055 6.65703 35.4625 2" stroke="#FAFAFA" stroke-width="4" stroke-dasharray="4 11"/>
<path d="M89.1569 34.7453C89.1569 39.6215 86.7019 44.1928 83.3849 48.1176C80.0854 52.0217 76.107 55.0777 73.4693 56.8839C72.3995 57.6165 71.0383 57.6076 69.9713 56.8574C67.3337 55.0028 63.3408 51.8743 60.0267 47.9448C56.6884 43.9866 54.236 39.4508 54.236 34.7453C54.236 24.4582 62.146 16.291 71.6964 16.291C81.2469 16.291 89.1569 24.4582 89.1569 34.7453Z" stroke="white" stroke-width="4"/>
<path d="M64.5528 35.8257L70.16 41.4329L79.7723 31.8205" stroke="white" stroke-width="4" stroke-linecap="round" stroke-linejoin="round"/>
<path d="M56.3329 56.2842C53.1457 57.2772 51.2117 58.5817 51.2117 60.0104C51.2117 63.1215 60.383 65.6436 71.6964 65.6436C83.0098 65.6436 92.1811 63.1215 92.1811 60.0104C92.1811 58.6599 90.4532 57.4204 87.5721 56.4501" stroke="white" stroke-width="4" stroke-linecap="round" stroke-linejoin="round"/>
</svg>
