<svg width="197" height="22" viewBox="0 0 197 22" fill="none" xmlns="http://www.w3.org/2000/svg">
<path d="M20.554 2.592V3.112C19.9647 3.12933 19.514 3.19867 19.202 3.32C18.9073 3.424 18.708 3.632 18.604 3.944C18.5 4.23867 18.448 4.70667 18.448 5.348V18.244C18.448 18.868 18.5 19.336 18.604 19.648C18.708 19.96 18.9073 20.168 19.202 20.272C19.514 20.376 19.9647 20.4453 20.554 20.48V21C20.1553 20.9653 19.6527 20.948 19.046 20.948C18.4567 20.9307 17.8587 20.922 17.252 20.922C16.576 20.922 15.9433 20.9307 15.354 20.948C14.7647 20.948 14.288 20.9653 13.924 21V20.48C14.5133 20.4453 14.9553 20.376 15.25 20.272C15.562 20.168 15.77 19.96 15.874 19.648C15.978 19.336 16.03 18.868 16.03 18.244V3.944L16.134 4.022L9.764 21.13H9.348L2.796 4.256V17.984C2.796 18.608 2.848 19.102 2.952 19.466C3.07333 19.8127 3.29867 20.064 3.628 20.22C3.97467 20.3587 4.486 20.4453 5.162 20.48V21C4.85 20.9653 4.44267 20.948 3.94 20.948C3.43733 20.9307 2.96067 20.922 2.51 20.922C2.07667 20.922 1.63467 20.9307 1.184 20.948C0.750667 20.948 0.386667 20.9653 0.0920001 21V20.48C0.681333 20.4453 1.12333 20.3587 1.418 20.22C1.73 20.064 1.938 19.8127 2.042 19.466C2.146 19.102 2.198 18.608 2.198 17.984V5.348C2.198 4.70667 2.146 4.23867 2.042 3.944C1.938 3.632 1.73 3.424 1.418 3.32C1.12333 3.19867 0.681333 3.12933 0.0920001 3.112V2.592C0.386667 2.60933 0.750667 2.62667 1.184 2.644C1.63467 2.66133 2.07667 2.67 2.51 2.67C2.89133 2.67 3.28133 2.66133 3.68 2.644C4.096 2.62667 4.44267 2.60933 4.72 2.592L10.622 18.14L10.18 18.348L16.03 2.67C16.238 2.67 16.4373 2.67 16.628 2.67C16.836 2.67 17.044 2.67 17.252 2.67C17.8587 2.67 18.4567 2.66133 19.046 2.644C19.6527 2.62667 20.1553 2.60933 20.554 2.592ZM33.9271 7.324V18.192C33.9271 18.972 34.0658 19.5527 34.3431 19.934C34.6378 20.298 35.1578 20.48 35.9031 20.48V21.026C35.3658 20.974 34.8285 20.948 34.2911 20.948C33.7885 20.948 33.3031 20.974 32.8351 21.026C32.3845 21.078 31.9685 21.1733 31.5871 21.312V18.244C31.1538 19.3707 30.5385 20.1767 29.7411 20.662C28.9611 21.13 28.1551 21.364 27.3231 21.364C26.7165 21.364 26.1878 21.2773 25.7371 21.104C25.2865 20.9307 24.9138 20.688 24.6191 20.376C24.2898 20.0293 24.0645 19.5787 23.9431 19.024C23.8218 18.4693 23.7611 17.7847 23.7611 16.97V10.444C23.7611 9.664 23.6225 9.092 23.3451 8.728C23.0678 8.34667 22.5478 8.156 21.7851 8.156V7.61C22.3398 7.662 22.8771 7.688 23.3971 7.688C23.8998 7.688 24.3765 7.662 24.8271 7.61C25.2951 7.54067 25.7198 7.44533 26.1011 7.324V17.542C26.1011 18.0793 26.1358 18.5733 26.2051 19.024C26.2745 19.4747 26.4478 19.8387 26.7251 20.116C27.0025 20.3933 27.4531 20.532 28.0771 20.532C28.7531 20.532 29.3511 20.324 29.8711 19.908C30.4085 19.492 30.8245 18.9287 31.1191 18.218C31.4311 17.5073 31.5871 16.71 31.5871 15.826V10.444C31.5871 9.664 31.4485 9.092 31.1711 8.728C30.8938 8.34667 30.3738 8.156 29.6111 8.156V7.61C30.1658 7.662 30.7031 7.688 31.2231 7.688C31.7258 7.688 32.2025 7.662 32.6531 7.61C33.1211 7.54067 33.5458 7.44533 33.9271 7.324ZM45.8106 7.246C46.4172 7.246 46.9459 7.33267 47.3966 7.506C47.8472 7.67933 48.2199 7.922 48.5146 8.234C48.8439 8.58067 49.0692 9.03133 49.1906 9.586C49.3119 10.1407 49.3726 10.8253 49.3726 11.64V18.582C49.3726 19.31 49.5199 19.804 49.8146 20.064C50.1266 20.324 50.6379 20.454 51.3486 20.454V21C51.0539 20.9827 50.6032 20.9653 49.9966 20.948C49.3899 20.9133 48.8006 20.896 48.2286 20.896C47.6566 20.896 47.0932 20.9133 46.5386 20.948C46.0012 20.9653 45.5939 20.9827 45.3166 21V20.454C45.9406 20.454 46.3826 20.324 46.6426 20.064C46.9026 19.804 47.0326 19.31 47.0326 18.582V11.068C47.0326 10.5307 46.9979 10.0367 46.9286 9.586C46.8592 9.13533 46.6859 8.77133 46.4086 8.494C46.1312 8.21667 45.6806 8.078 45.0566 8.078C44.3806 8.078 43.7739 8.286 43.2366 8.702C42.7166 9.118 42.3006 9.69 41.9886 10.418C41.6939 11.1287 41.5466 11.926 41.5466 12.81V18.582C41.5466 19.31 41.6766 19.804 41.9366 20.064C42.1966 20.324 42.6386 20.454 43.2626 20.454V21C42.9852 20.9827 42.5692 20.9653 42.0146 20.948C41.4772 20.9133 40.9226 20.896 40.3506 20.896C39.7786 20.896 39.1892 20.9133 38.5826 20.948C37.9759 20.9653 37.5252 20.9827 37.2306 21V20.454C37.9412 20.454 38.4439 20.324 38.7386 20.064C39.0506 19.804 39.2066 19.31 39.2066 18.582V10.444C39.2066 9.664 39.0679 9.092 38.7906 8.728C38.5132 8.34667 37.9932 8.156 37.2306 8.156V7.61C37.7852 7.662 38.3226 7.688 38.8426 7.688C39.3452 7.688 39.8219 7.662 40.2726 7.61C40.7406 7.54067 41.1652 7.44533 41.5466 7.324V10.392C41.9972 9.26533 42.6126 8.45933 43.3926 7.974C44.1726 7.48867 44.9786 7.246 45.8106 7.246ZM53.6366 7.246C54.2432 7.246 54.7719 7.33267 55.2226 7.506C55.6732 7.67933 56.0459 7.922 56.3406 8.234C56.6699 8.58067 56.8952 9.03133 57.0166 9.586C57.1379 10.1407 57.1986 10.8253 57.1986 11.64V18.582C57.1986 19.31 57.3459 19.804 57.6406 20.064C57.9526 20.324 58.4639 20.454 59.1746 20.454V21C58.8799 20.9827 58.4292 20.9653 57.8226 20.948C57.2159 20.9133 56.6266 20.896 56.0546 20.896C55.4826 20.896 54.9192 20.9133 54.3646 20.948C53.8272 20.9653 53.4199 20.9827 53.1426 21V20.454C53.7666 20.454 54.2086 20.324 54.4686 20.064C54.7286 19.804 54.8586 19.31 54.8586 18.582V11.068C54.8586 10.5307 54.8239 10.0367 54.7546 9.586C54.6852 9.13533 54.5119 8.77133 54.2346 8.494C53.9572 8.21667 53.5066 8.078 52.8826 8.078C52.2066 8.078 51.5999 8.286 51.0626 8.702C50.5426 9.118 50.1266 9.68133 49.8146 10.392C49.5199 11.1027 49.3726 11.9 49.3726 12.784L49.2946 10.366C49.7626 9.17 50.3952 8.35533 51.1926 7.922C51.9899 7.47133 52.8046 7.246 53.6366 7.246ZM68.8906 7.246C69.4973 7.246 70.026 7.33267 70.4766 7.506C70.9273 7.67933 71.3 7.922 71.5946 8.234C71.924 8.58067 72.1493 9.03133 72.2706 9.586C72.392 10.1407 72.4526 10.8253 72.4526 11.64V18.582C72.4526 19.31 72.6 19.804 72.8946 20.064C73.2066 20.324 73.718 20.454 74.4286 20.454V21C74.134 20.9827 73.6833 20.9653 73.0766 20.948C72.47 20.9133 71.8806 20.896 71.3086 20.896C70.7366 20.896 70.1733 20.9133 69.6186 20.948C69.0813 20.9653 68.674 20.9827 68.3966 21V20.454C69.0206 20.454 69.4626 20.324 69.7226 20.064C69.9826 19.804 70.1126 19.31 70.1126 18.582V11.068C70.1126 10.5307 70.078 10.0367 70.0086 9.586C69.9393 9.13533 69.766 8.77133 69.4886 8.494C69.2113 8.21667 68.7606 8.078 68.1366 8.078C67.4606 8.078 66.854 8.286 66.3166 8.702C65.7966 9.118 65.3806 9.69 65.0686 10.418C64.774 11.1287 64.6266 11.926 64.6266 12.81V18.582C64.6266 19.31 64.7566 19.804 65.0166 20.064C65.2766 20.324 65.7186 20.454 66.3426 20.454V21C66.0653 20.9827 65.6493 20.9653 65.0946 20.948C64.5573 20.9133 64.0026 20.896 63.4306 20.896C62.8586 20.896 62.2693 20.9133 61.6626 20.948C61.056 20.9653 60.6053 20.9827 60.3106 21V20.454C61.0213 20.454 61.524 20.324 61.8186 20.064C62.1306 19.804 62.2866 19.31 62.2866 18.582V10.444C62.2866 9.664 62.148 9.092 61.8706 8.728C61.5933 8.34667 61.0733 8.156 60.3106 8.156V7.61C60.8653 7.662 61.4026 7.688 61.9226 7.688C62.4253 7.688 62.902 7.662 63.3526 7.61C63.8206 7.54067 64.2453 7.44533 64.6266 7.324V10.392C65.0773 9.26533 65.6926 8.45933 66.4726 7.974C67.2526 7.48867 68.0586 7.246 68.8906 7.246ZM76.7166 7.246C77.3233 7.246 77.852 7.33267 78.3026 7.506C78.7533 7.67933 79.126 7.922 79.4206 8.234C79.75 8.58067 79.9753 9.03133 80.0966 9.586C80.218 10.1407 80.2786 10.8253 80.2786 11.64V18.582C80.2786 19.31 80.426 19.804 80.7206 20.064C81.0326 20.324 81.544 20.454 82.2546 20.454V21C81.96 20.9827 81.5093 20.9653 80.9026 20.948C80.296 20.9133 79.7066 20.896 79.1346 20.896C78.5626 20.896 77.9993 20.9133 77.4446 20.948C76.9073 20.9653 76.5 20.9827 76.2226 21V20.454C76.8466 20.454 77.2886 20.324 77.5486 20.064C77.8086 19.804 77.9386 19.31 77.9386 18.582V11.068C77.9386 10.5307 77.904 10.0367 77.8346 9.586C77.7653 9.13533 77.592 8.77133 77.3146 8.494C77.0373 8.21667 76.5866 8.078 75.9626 8.078C75.2866 8.078 74.68 8.286 74.1426 8.702C73.6226 9.118 73.2066 9.68133 72.8946 10.392C72.6 11.1027 72.4526 11.9 72.4526 12.784L72.3746 10.366C72.8426 9.17 73.4753 8.35533 74.2726 7.922C75.07 7.47133 75.8846 7.246 76.7166 7.246ZM86.3547 1.11C86.8054 1.11 87.1954 1.27467 87.5247 1.604C87.8541 1.93333 88.0187 2.32333 88.0187 2.774C88.0187 3.22467 87.8541 3.61467 87.5247 3.944C87.1954 4.27333 86.8054 4.438 86.3547 4.438C85.9041 4.438 85.5141 4.27333 85.1847 3.944C84.8554 3.61467 84.6907 3.22467 84.6907 2.774C84.6907 2.32333 84.8554 1.93333 85.1847 1.604C85.5141 1.27467 85.9041 1.11 86.3547 1.11ZM87.7067 7.324V18.582C87.7067 19.31 87.8541 19.804 88.1487 20.064C88.4607 20.324 88.9721 20.454 89.6827 20.454V21C89.3881 20.9827 88.9374 20.9653 88.3307 20.948C87.7414 20.9133 87.1434 20.896 86.5367 20.896C85.9474 20.896 85.3494 20.9133 84.7427 20.948C84.1361 20.9653 83.6854 20.9827 83.3907 21V20.454C84.1014 20.454 84.6041 20.324 84.8987 20.064C85.2107 19.804 85.3667 19.31 85.3667 18.582V10.444C85.3667 9.664 85.2281 9.092 84.9507 8.728C84.6734 8.34667 84.1534 8.156 83.3907 8.156V7.61C83.9454 7.662 84.4827 7.688 85.0027 7.688C85.5054 7.688 85.9821 7.662 86.4327 7.61C86.9007 7.54067 87.3254 7.44533 87.7067 7.324ZM97.3259 7.246C98.8512 7.246 100.039 7.714 100.888 8.65C101.755 9.56867 102.188 11.0073 102.188 12.966H93.0099L92.9839 12.472H99.6919C99.7266 11.6227 99.6572 10.8427 99.4839 10.132C99.3106 9.404 99.0332 8.82333 98.6519 8.39C98.2879 7.95667 97.8112 7.74 97.2219 7.74C96.4246 7.74 95.7139 8.13867 95.0899 8.936C94.4832 9.73333 94.1192 10.9987 93.9979 12.732L94.0759 12.836C94.0412 13.096 94.0152 13.382 93.9979 13.694C93.9806 14.006 93.9719 14.318 93.9719 14.63C93.9719 15.8087 94.1626 16.8227 94.5439 17.672C94.9252 18.5213 95.4192 19.1713 96.0259 19.622C96.6499 20.0553 97.2912 20.272 97.9499 20.272C98.4699 20.272 98.9639 20.194 99.4319 20.038C99.8999 19.8647 100.333 19.5873 100.732 19.206C101.131 18.8247 101.477 18.3133 101.772 17.672L102.292 17.88C102.101 18.452 101.789 19.0067 101.356 19.544C100.923 20.0813 100.377 20.5233 99.7179 20.87C99.0592 21.1993 98.2966 21.364 97.4299 21.364C96.1819 21.364 95.1072 21.078 94.2059 20.506C93.3219 19.934 92.6372 19.1453 92.1519 18.14C91.6839 17.1173 91.4499 15.9473 91.4499 14.63C91.4499 13.1047 91.6926 11.796 92.1779 10.704C92.6632 9.59467 93.3479 8.74533 94.2319 8.156C95.1159 7.54933 96.1472 7.246 97.3259 7.246ZM108.814 7.246C109.508 7.246 110.097 7.35867 110.582 7.584C111.068 7.80933 111.423 8.01733 111.648 8.208C112.22 8.676 112.567 8.364 112.688 7.272H113.286C113.252 7.75733 113.226 8.338 113.208 9.014C113.191 9.67267 113.182 10.5653 113.182 11.692H112.584C112.48 11.0507 112.298 10.4267 112.038 9.82C111.796 9.21333 111.432 8.71933 110.946 8.338C110.461 7.93933 109.828 7.74 109.048 7.74C108.442 7.74 107.93 7.91333 107.514 8.26C107.116 8.58933 106.916 9.08333 106.916 9.742C106.916 10.262 107.072 10.7127 107.384 11.094C107.696 11.458 108.104 11.8047 108.606 12.134C109.109 12.446 109.655 12.7927 110.244 13.174C110.903 13.59 111.501 14.0147 112.038 14.448C112.576 14.8813 113 15.358 113.312 15.878C113.642 16.398 113.806 17.0133 113.806 17.724C113.806 18.5213 113.598 19.1887 113.182 19.726C112.766 20.2633 112.22 20.6707 111.544 20.948C110.886 21.2253 110.158 21.364 109.36 21.364C108.979 21.364 108.615 21.3293 108.268 21.26C107.939 21.208 107.618 21.1213 107.306 21C107.133 20.9133 106.951 20.8093 106.76 20.688C106.587 20.5667 106.414 20.4367 106.24 20.298C106.067 20.1593 105.911 20.168 105.772 20.324C105.634 20.4627 105.53 20.7487 105.46 21.182H104.862C104.897 20.6273 104.923 19.9513 104.94 19.154C104.958 18.3567 104.966 17.2993 104.966 15.982H105.564C105.686 16.9527 105.859 17.802 106.084 18.53C106.31 19.258 106.665 19.83 107.15 20.246C107.636 20.6447 108.312 20.844 109.178 20.844C109.525 20.844 109.872 20.766 110.218 20.61C110.582 20.454 110.886 20.194 111.128 19.83C111.371 19.466 111.492 18.9807 111.492 18.374C111.492 17.6113 111.215 16.9873 110.66 16.502C110.106 16.0167 109.404 15.5053 108.554 14.968C107.93 14.5693 107.341 14.1707 106.786 13.772C106.249 13.3733 105.807 12.9227 105.46 12.42C105.131 11.9173 104.966 11.3107 104.966 10.6C104.966 9.82 105.14 9.18733 105.486 8.702C105.85 8.19933 106.327 7.83533 106.916 7.61C107.506 7.36733 108.138 7.246 108.814 7.246ZM122.602 2.592C122.966 2.60933 123.442 2.62667 124.032 2.644C124.621 2.66133 125.202 2.67 125.774 2.67C126.588 2.67 127.368 2.66133 128.114 2.644C128.859 2.62667 129.388 2.618 129.7 2.618C131.52 2.618 132.889 2.99933 133.808 3.762C134.726 4.52467 135.186 5.504 135.186 6.7C135.186 7.30667 135.056 7.90467 134.796 8.494C134.553 9.066 134.137 9.59467 133.548 10.08C132.976 10.548 132.204 10.9293 131.234 11.224V11.276C132.603 11.4493 133.669 11.7787 134.432 12.264C135.212 12.732 135.758 13.2867 136.07 13.928C136.382 14.5693 136.538 15.2453 136.538 15.956C136.538 16.944 136.286 17.8193 135.784 18.582C135.298 19.3273 134.588 19.9167 133.652 20.35C132.716 20.7833 131.598 21 130.298 21C129.916 21 129.344 20.9913 128.582 20.974C127.819 20.9393 126.9 20.922 125.826 20.922C125.219 20.922 124.621 20.9307 124.032 20.948C123.442 20.948 122.966 20.9653 122.602 21V20.48C123.191 20.4453 123.633 20.376 123.928 20.272C124.24 20.168 124.448 19.96 124.552 19.648C124.656 19.336 124.708 18.868 124.708 18.244V5.348C124.708 4.70667 124.656 4.23867 124.552 3.944C124.448 3.632 124.24 3.424 123.928 3.32C123.633 3.19867 123.191 3.12933 122.602 3.112V2.592ZM129.05 3.112C128.252 3.112 127.732 3.25933 127.49 3.554C127.247 3.84867 127.126 4.44667 127.126 5.348V18.244C127.126 18.8507 127.178 19.31 127.282 19.622C127.386 19.934 127.576 20.142 127.854 20.246C128.131 20.35 128.538 20.402 129.076 20.402C130.774 20.402 132.005 20.012 132.768 19.232C133.548 18.4347 133.938 17.308 133.938 15.852C133.938 14.5173 133.574 13.486 132.846 12.758C132.135 12.03 130.956 11.666 129.31 11.666H126.632C126.632 11.666 126.632 11.5967 126.632 11.458C126.632 11.302 126.632 11.224 126.632 11.224H128.868C129.89 11.224 130.679 11.0333 131.234 10.652C131.788 10.2533 132.17 9.73333 132.378 9.092C132.586 8.43333 132.69 7.73133 132.69 6.986C132.69 5.70333 132.404 4.74133 131.832 4.1C131.277 3.44133 130.35 3.112 129.05 3.112ZM142.155 21.182C141.444 21.182 140.829 21.052 140.309 20.792C139.789 20.5147 139.39 20.1333 139.113 19.648C138.853 19.1627 138.723 18.5993 138.723 17.958C138.723 17.1953 138.896 16.5713 139.243 16.086C139.607 15.6007 140.066 15.2107 140.621 14.916C141.176 14.6213 141.756 14.3787 142.363 14.188C142.987 13.98 143.576 13.7893 144.131 13.616C144.686 13.4253 145.136 13.2087 145.483 12.966C145.847 12.7233 146.029 12.4027 146.029 12.004V10.392C146.029 9.664 145.916 9.10933 145.691 8.728C145.483 8.34667 145.197 8.09533 144.833 7.974C144.469 7.83533 144.062 7.766 143.611 7.766C143.178 7.766 142.71 7.82667 142.207 7.948C141.722 8.06933 141.332 8.32067 141.037 8.702C141.366 8.77133 141.652 8.94467 141.895 9.222C142.138 9.49933 142.259 9.85467 142.259 10.288C142.259 10.7213 142.12 11.068 141.843 11.328C141.566 11.5707 141.21 11.692 140.777 11.692C140.274 11.692 139.902 11.536 139.659 11.224C139.434 10.8947 139.321 10.5307 139.321 10.132C139.321 9.68133 139.434 9.31733 139.659 9.04C139.884 8.76267 140.17 8.50267 140.517 8.26C140.916 7.98267 141.427 7.74867 142.051 7.558C142.692 7.35 143.412 7.246 144.209 7.246C144.92 7.246 145.526 7.33267 146.029 7.506C146.532 7.662 146.948 7.896 147.277 8.208C147.728 8.624 148.022 9.13533 148.161 9.742C148.3 10.3313 148.369 11.042 148.369 11.874V19.102C148.369 19.5353 148.43 19.8473 148.551 20.038C148.69 20.2287 148.898 20.324 149.175 20.324C149.366 20.324 149.548 20.2807 149.721 20.194C149.894 20.1073 150.102 19.9687 150.345 19.778L150.631 20.22C150.267 20.4973 149.92 20.7313 149.591 20.922C149.262 21.0953 148.82 21.182 148.265 21.182C147.762 21.182 147.346 21.0953 147.017 20.922C146.688 20.7487 146.436 20.4973 146.263 20.168C146.107 19.8213 146.029 19.388 146.029 18.868C145.561 19.648 144.998 20.2287 144.339 20.61C143.698 20.9913 142.97 21.182 142.155 21.182ZM143.091 20.142C143.663 20.142 144.192 19.9773 144.677 19.648C145.18 19.3187 145.63 18.8247 146.029 18.166V13.07C145.821 13.3647 145.518 13.616 145.119 13.824C144.72 14.0147 144.287 14.214 143.819 14.422C143.351 14.6127 142.9 14.8467 142.467 15.124C142.051 15.384 141.704 15.7307 141.427 16.164C141.15 16.5973 141.011 17.1607 141.011 17.854C141.011 18.5473 141.193 19.102 141.557 19.518C141.938 19.934 142.45 20.142 143.091 20.142ZM159.134 7.246C160.556 7.246 161.734 7.83533 162.67 9.014C163.606 10.1753 164.074 11.9433 164.074 14.318C164.074 15.878 163.806 17.1867 163.268 18.244C162.748 19.284 162.046 20.064 161.162 20.584C160.278 21.104 159.316 21.364 158.276 21.364C157.41 21.364 156.569 21.1213 155.754 20.636C154.957 20.1333 154.359 19.3967 153.96 18.426L154.48 18.712C154.914 19.4053 155.451 19.9253 156.092 20.272C156.734 20.6013 157.392 20.766 158.068 20.766C159.23 20.766 160.096 20.246 160.668 19.206C161.258 18.1487 161.552 16.5193 161.552 14.318C161.552 12.914 161.44 11.744 161.214 10.808C160.989 9.872 160.642 9.17867 160.174 8.728C159.706 8.26 159.108 8.026 158.38 8.026C157.583 8.026 156.838 8.39 156.144 9.118C155.468 9.82867 155.052 10.8773 154.896 12.264L154.584 11.9C154.775 10.4267 155.286 9.28267 156.118 8.468C156.968 7.65333 157.973 7.246 159.134 7.246ZM155.078 0.641999V19.648C154.853 19.8387 154.619 20.038 154.376 20.246C154.151 20.4367 153.926 20.6273 153.7 20.818C153.475 21.0087 153.241 21.208 152.998 21.416L152.556 21.234C152.626 20.9913 152.669 20.7487 152.686 20.506C152.721 20.246 152.738 19.986 152.738 19.726V3.762C152.738 2.982 152.6 2.41 152.322 2.046C152.045 1.66467 151.525 1.474 150.762 1.474V0.928C151.317 0.979999 151.854 1.006 152.374 1.006C152.877 1.006 153.354 0.979999 153.804 0.928C154.272 0.858666 154.697 0.763332 155.078 0.641999ZM169.027 1.11C169.477 1.11 169.867 1.27467 170.197 1.604C170.526 1.93333 170.691 2.32333 170.691 2.774C170.691 3.22467 170.526 3.61467 170.197 3.944C169.867 4.27333 169.477 4.438 169.027 4.438C168.576 4.438 168.186 4.27333 167.857 3.944C167.527 3.61467 167.363 3.22467 167.363 2.774C167.363 2.32333 167.527 1.93333 167.857 1.604C168.186 1.27467 168.576 1.11 169.027 1.11ZM170.379 7.324V18.582C170.379 19.31 170.526 19.804 170.821 20.064C171.133 20.324 171.644 20.454 172.355 20.454V21C172.06 20.9827 171.609 20.9653 171.003 20.948C170.413 20.9133 169.815 20.896 169.209 20.896C168.619 20.896 168.021 20.9133 167.415 20.948C166.808 20.9653 166.357 20.9827 166.063 21V20.454C166.773 20.454 167.276 20.324 167.571 20.064C167.883 19.804 168.039 19.31 168.039 18.582V10.444C168.039 9.664 167.9 9.092 167.623 8.728C167.345 8.34667 166.825 8.156 166.063 8.156V7.61C166.617 7.662 167.155 7.688 167.675 7.688C168.177 7.688 168.654 7.662 169.105 7.61C169.573 7.54067 169.997 7.44533 170.379 7.324ZM179.998 7.246C181.523 7.246 182.71 7.714 183.56 8.65C184.426 9.56867 184.86 11.0073 184.86 12.966H175.682L175.656 12.472H182.364C182.398 11.6227 182.329 10.8427 182.156 10.132C181.982 9.404 181.705 8.82333 181.324 8.39C180.96 7.95667 180.483 7.74 179.894 7.74C179.096 7.74 178.386 8.13867 177.762 8.936C177.155 9.73333 176.791 10.9987 176.67 12.732L176.748 12.836C176.713 13.096 176.687 13.382 176.67 13.694C176.652 14.006 176.644 14.318 176.644 14.63C176.644 15.8087 176.834 16.8227 177.216 17.672C177.597 18.5213 178.091 19.1713 178.698 19.622C179.322 20.0553 179.963 20.272 180.622 20.272C181.142 20.272 181.636 20.194 182.104 20.038C182.572 19.8647 183.005 19.5873 183.404 19.206C183.802 18.8247 184.149 18.3133 184.444 17.672L184.964 17.88C184.773 18.452 184.461 19.0067 184.028 19.544C183.594 20.0813 183.048 20.5233 182.39 20.87C181.731 21.1993 180.968 21.364 180.102 21.364C178.854 21.364 177.779 21.078 176.878 20.506C175.994 19.934 175.309 19.1453 174.824 18.14C174.356 17.1173 174.122 15.9473 174.122 14.63C174.122 13.1047 174.364 11.796 174.85 10.704C175.335 9.59467 176.02 8.74533 176.904 8.156C177.788 7.54933 178.819 7.246 179.998 7.246ZM191.486 7.246C192.179 7.246 192.769 7.35867 193.254 7.584C193.739 7.80933 194.095 8.01733 194.32 8.208C194.892 8.676 195.239 8.364 195.36 7.272H195.958C195.923 7.75733 195.897 8.338 195.88 9.014C195.863 9.67267 195.854 10.5653 195.854 11.692H195.256C195.152 11.0507 194.97 10.4267 194.71 9.82C194.467 9.21333 194.103 8.71933 193.618 8.338C193.133 7.93933 192.5 7.74 191.72 7.74C191.113 7.74 190.602 7.91333 190.186 8.26C189.787 8.58933 189.588 9.08333 189.588 9.742C189.588 10.262 189.744 10.7127 190.056 11.094C190.368 11.458 190.775 11.8047 191.278 12.134C191.781 12.446 192.327 12.7927 192.916 13.174C193.575 13.59 194.173 14.0147 194.71 14.448C195.247 14.8813 195.672 15.358 195.984 15.878C196.313 16.398 196.478 17.0133 196.478 17.724C196.478 18.5213 196.27 19.1887 195.854 19.726C195.438 20.2633 194.892 20.6707 194.216 20.948C193.557 21.2253 192.829 21.364 192.032 21.364C191.651 21.364 191.287 21.3293 190.94 21.26C190.611 21.208 190.29 21.1213 189.978 21C189.805 20.9133 189.623 20.8093 189.432 20.688C189.259 20.5667 189.085 20.4367 188.912 20.298C188.739 20.1593 188.583 20.168 188.444 20.324C188.305 20.4627 188.201 20.7487 188.132 21.182H187.534C187.569 20.6273 187.595 19.9513 187.612 19.154C187.629 18.3567 187.638 17.2993 187.638 15.982H188.236C188.357 16.9527 188.531 17.802 188.756 18.53C188.981 19.258 189.337 19.83 189.822 20.246C190.307 20.6447 190.983 20.844 191.85 20.844C192.197 20.844 192.543 20.766 192.89 20.61C193.254 20.454 193.557 20.194 193.8 19.83C194.043 19.466 194.164 18.9807 194.164 18.374C194.164 17.6113 193.887 16.9873 193.332 16.502C192.777 16.0167 192.075 15.5053 191.226 14.968C190.602 14.5693 190.013 14.1707 189.458 13.772C188.921 13.3733 188.479 12.9227 188.132 12.42C187.803 11.9173 187.638 11.3107 187.638 10.6C187.638 9.82 187.811 9.18733 188.158 8.702C188.522 8.19933 188.999 7.83533 189.588 7.61C190.177 7.36733 190.81 7.246 191.486 7.246Z" fill="black"/>
</svg>
