<svg width="94" height="87" viewBox="0 0 94 87" fill="none" xmlns="http://www.w3.org/2000/svg">
<g clip-path="url(#clip0_2728_40356)">
<path d="M45.5 87C70.3528 87 90.5 84.3137 90.5 81C90.5 77.6863 70.3528 75 45.5 75C20.6472 75 0.5 77.6863 0.5 81C0.5 84.3137 20.6472 87 45.5 87Z" fill="#F2F2F2"/>
<path fill-rule="evenodd" clip-rule="evenodd" d="M77 13.4859L64.1371 1.5H14.5C13.6716 1.5 13 2.17157 13 3V79C13 79.8284 13.6716 80.5 14.5 80.5H75.5C76.3284 80.5 77 79.8284 77 79V13.4859Z" fill="white" stroke="#D8D8D8"/>
<path d="M63.5 2H64.6293V12.4295C64.6293 13.1939 65.2192 13.8136 65.9469 13.8136H76.5V15H65.9469C64.5955 15 63.5 13.8491 63.5 12.4295V2Z" fill="#DBDBDB"/>
<path opacity="0.5" d="M88.3008 13.2812C89.9576 13.2812 91.3008 11.9381 91.3008 10.2812C91.3008 8.6244 89.9576 7.28125 88.3008 7.28125C86.6439 7.28125 85.3008 8.6244 85.3008 10.2812C85.3008 11.9381 86.6439 13.2812 88.3008 13.2812Z" fill="#D8D8D8"/>
<path opacity="0.3" d="M82.5 5C83.6046 5 84.5 4.10457 84.5 3C84.5 1.89543 83.6046 1 82.5 1C81.3954 1 80.5 1.89543 80.5 3C80.5 4.10457 81.3954 5 82.5 5Z" fill="#D8D8D8"/>
<path opacity="0.3" d="M91 1C90.1716 1 89.5 1.67157 89.5 2.5C89.5 3.32843 90.1716 4 91 4C91.8284 4 92.5 3.32843 92.5 2.5C92.5 1.67157 91.8284 1 91 1ZM91 0C92.3807 0 93.5 1.11929 93.5 2.5C93.5 3.88071 92.3807 5 91 5C89.6193 5 88.5 3.88071 88.5 2.5C88.5 1.11929 89.6193 0 91 0Z" fill="#D8D8D8"/>
<path fill-rule="evenodd" clip-rule="evenodd" d="M64.6953 2.66797V12.3194C64.7577 13.3152 65.1746 13.8131 65.9459 13.8131C66.7172 13.8131 70.2349 13.8131 76.499 13.8131L64.6953 2.66797Z" fill="#FAFAFA"/>
<path d="M84.5 28H43.5C42.3954 28 41.5 28.8954 41.5 30V59C41.5 60.1046 42.3954 61 43.5 61H84.5C85.6046 61 86.5 60.1046 86.5 59V30C86.5 28.8954 85.6046 28 84.5 28Z" fill="white" stroke="#D8D8D8" stroke-width="2" stroke-dasharray="3 3"/>
<path d="M52.5 42.5C52.5 42.2239 52.2761 42 52 42C51.7239 42 51.5 42.2239 51.5 42.5V53.5C51.5 53.7761 51.7239 54 52 54C52.2761 54 52.5 53.7761 52.5 53.5V42.5Z" fill="#D8D8D8"/>
<path d="M60.5 36.5C60.5 36.2239 60.2761 36 60 36C59.7239 36 59.5 36.2239 59.5 36.5V52.5C59.5 52.7761 59.7239 53 60 53C60.2761 53 60.5 52.7761 60.5 52.5V36.5Z" fill="#D8D8D8"/>
<path d="M68.5 44.5C68.5 44.2239 68.2761 44 68 44C67.7239 44 67.5 44.2239 67.5 44.5V53.5C67.5 53.7761 67.7239 54 68 54C68.2761 54 68.5 53.7761 68.5 53.5V44.5Z" fill="#D8D8D8"/>
<path d="M76.5 39.5C76.5 39.2239 76.2761 39 76 39C75.7239 39 75.5 39.2239 75.5 39.5V52.5C75.5 52.7761 75.7239 53 76 53C76.2761 53 76.5 52.7761 76.5 52.5V39.5Z" fill="#D8D8D8"/>
</g>
<defs>
<clipPath id="clip0_2728_40356">
<rect width="93" height="87" fill="white" transform="translate(0.5)"/>
</clipPath>
</defs>
</svg>
