<svg width="44" height="35" viewBox="0 0 44 35" fill="none" xmlns="http://www.w3.org/2000/svg">
<g clip-path="url(#clip0_3869_1167)">
<path d="M34.2222 13.0368H39.1111L44 19.5553V29.2516H40.7408C40.547 30.6112 39.8692 31.8552 38.8319 32.7552C37.7946 33.6552 36.4674 34.1507 35.0941 34.1507C33.7208 34.1507 32.3936 33.6552 31.3562 32.7552C30.3189 31.8552 29.6412 30.6112 29.4474 29.2516H21.1363C20.9426 30.6112 20.2648 31.8552 19.2275 32.7552C18.1902 33.6552 16.863 34.1507 15.4896 34.1507C14.1163 34.1507 12.7891 33.6552 11.7518 32.7552C10.7145 31.8552 10.0367 30.6112 9.84298 29.2516H8.21335V9.69604C8.21335 9.26383 8.38504 8.84933 8.69066 8.54371C8.99627 8.2381 9.41077 8.06641 9.84298 8.06641H32.6578C33.09 8.06641 33.5045 8.2381 33.8101 8.54371C34.1157 8.84933 34.2874 9.26383 34.2874 9.69604L34.2222 13.0368ZM34.2222 16.296V21.1849H40.7408V20.7938L37.4815 16.3775L34.2222 16.296Z" fill="#FF9100"/>
</g>
<g filter="url(#filter0_b_3869_1167)">
<circle cx="13.8519" cy="13.8519" r="13.8519" fill="#5E44FF" fill-opacity="0.8"/>
</g>
<g clip-path="url(#clip1_3869_1167)">
<path d="M14.6993 4.97035L8.18075 15.5141C8.14692 15.5726 8.12883 15.6389 8.12825 15.7065C8.12767 15.7741 8.14462 15.8407 8.17745 15.8998C8.21028 15.9588 8.25787 16.0084 8.31557 16.0436C8.37327 16.0789 8.43911 16.0985 8.50668 16.1007L13.2326 16.0192L12.0756 23.7274C12.0626 23.7641 12.0648 23.8045 12.0816 23.8397C12.0984 23.8748 12.1285 23.9018 12.1652 23.9148C12.2019 23.9278 12.2423 23.9256 12.2775 23.9088C12.3126 23.892 12.3396 23.8619 12.3526 23.8252L19.2296 13.1511C19.2691 13.0936 19.2918 13.0263 19.2951 12.9566C19.2984 12.887 19.2822 12.8178 19.2484 12.7568C19.2145 12.6959 19.1643 12.6456 19.1034 12.6116C19.0425 12.5776 18.9734 12.5613 18.9037 12.5644H14.0148L14.9437 5.06812C14.9416 5.04079 14.9319 5.01459 14.9157 4.99249C14.8995 4.9704 14.8774 4.95329 14.8519 4.94311C14.8265 4.93293 14.7987 4.93008 14.7717 4.9349C14.7447 4.93971 14.7196 4.95199 14.6993 4.97035Z" fill="white"/>
</g>
<defs>
<filter id="filter0_b_3869_1167" x="-2" y="-2" width="31.7037" height="31.7036" filterUnits="userSpaceOnUse" color-interpolation-filters="sRGB">
<feFlood flood-opacity="0" result="BackgroundImageFix"/>
<feGaussianBlur in="BackgroundImageFix" stdDeviation="1"/>
<feComposite in2="SourceAlpha" operator="in" result="effect1_backgroundBlur_3869_1167"/>
<feBlend mode="normal" in="SourceGraphic" in2="effect1_backgroundBlur_3869_1167" result="shape"/>
</filter>
<clipPath id="clip0_3869_1167">
<rect width="35.8518" height="26.0741" fill="white" transform="translate(8.14816 8.14795)"/>
</clipPath>
<clipPath id="clip1_3869_1167">
<rect width="11.1304" height="19.0015" fill="white" transform="translate(8.14816 4.88867)"/>
</clipPath>
</defs>
</svg>
