<svg width="42" height="42" viewBox="0 0 42 42" fill="none" xmlns="http://www.w3.org/2000/svg">
<circle cx="19.5" cy="19" r="19" fill="#49A387"/>
<path d="M17.625 17.725L19.125 16.975C19.25 16.9125 19.375 16.8813 19.5 16.8813C19.625 16.8813 19.75 16.9125 19.875 16.975L21.375 17.725V13.375H17.625V17.725ZM16.5 22.75C16.2875 22.75 16.1094 22.6781 15.9656 22.5344C15.8219 22.3906 15.75 22.2125 15.75 22C15.75 21.7875 15.8219 21.6094 15.9656 21.4656C16.1094 21.3219 16.2875 21.25 16.5 21.25H18.75C18.9625 21.25 19.1406 21.3219 19.2844 21.4656C19.4281 21.6094 19.5 21.7875 19.5 22C19.5 22.2125 19.4281 22.3906 19.2844 22.5344C19.1406 22.6781 18.9625 22.75 18.75 22.75H16.5ZM13.875 25.75C13.575 25.75 13.3125 25.6375 13.0875 25.4125C12.8625 25.1875 12.75 24.925 12.75 24.625V13.375C12.75 13.075 12.8625 12.8125 13.0875 12.5875C13.3125 12.3625 13.575 12.25 13.875 12.25H25.125C25.425 12.25 25.6875 12.3625 25.9125 12.5875C26.1375 12.8125 26.25 13.075 26.25 13.375V24.625C26.25 24.925 26.1375 25.1875 25.9125 25.4125C25.6875 25.6375 25.425 25.75 25.125 25.75H13.875ZM13.875 13.375V24.625V13.375ZM13.875 24.625H25.125V13.375H22.5V18.625C22.5 18.8375 22.4125 19 22.2375 19.1125C22.0625 19.225 21.8813 19.2313 21.6938 19.1313L19.5 18.0438L17.3062 19.1313C17.1187 19.2313 16.9375 19.225 16.7625 19.1125C16.5875 19 16.5 18.8375 16.5 18.625V13.375H13.875V24.625Z" fill="#FAFAFA"/>
<path d="M40.5959 32.3819C40.5959 36.9162 36.9202 40.592 32.3859 40.592C27.8516 40.592 24.1758 36.9162 24.1758 32.3819C24.1758 27.8476 27.8516 24.1719 32.3859 24.1719C36.9202 24.1719 40.5959 27.8476 40.5959 32.3819Z" fill="#49A387" stroke="white" stroke-width="2"/>
<path d="M30.1939 36.9877C30.0194 36.9877 29.8521 36.9184 29.7288 36.795L27.9743 35.0405C27.9114 34.9798 27.8613 34.9072 27.8268 34.8269C27.7924 34.7467 27.7742 34.6603 27.7735 34.573C27.7727 34.4856 27.7893 34.399 27.8224 34.3182C27.8555 34.2373 27.9044 34.1639 27.9661 34.1021C28.0279 34.0403 28.1013 33.9915 28.1822 33.9584C28.263 33.9253 28.3497 33.9087 28.437 33.9094C28.5244 33.9102 28.6107 33.9283 28.691 33.9628C28.7712 33.9973 28.8438 34.0474 28.9045 34.1102L30.1321 35.3378L35.8147 28.0316C35.9233 27.8982 36.0797 27.8127 36.2506 27.7933C36.4215 27.7739 36.5932 27.8221 36.7289 27.9277C36.8646 28.0334 36.9536 28.1879 36.9767 28.3583C36.9999 28.5287 36.9554 28.7014 36.8528 28.8394L30.713 36.7338C30.6557 36.8074 30.5834 36.868 30.501 36.9115C30.4185 36.9551 30.3278 36.9806 30.2347 36.9864L30.1939 36.9877Z" fill="white"/>
</svg>
