<svg width="29" height="29" viewBox="0 0 29 29" fill="none" xmlns="http://www.w3.org/2000/svg">
<path d="M14.5 29C22.5081 29 29 22.5081 29 14.5C29 6.49187 22.5081 0 14.5 0C6.49187 0 0 6.49187 0 14.5C0 22.5081 6.49187 29 14.5 29Z" fill="#158ED2"/>
<path d="M12.9167 13.5833L14.5833 12.75C14.7222 12.6806 14.8611 12.6458 15 12.6458C15.1389 12.6458 15.2778 12.6806 15.4167 12.75L17.0833 13.5833V8.75H12.9167V13.5833ZM11.6667 19.1667C11.4306 19.1667 11.2326 19.0868 11.0729 18.9271C10.9132 18.7674 10.8333 18.5694 10.8333 18.3333C10.8333 18.0972 10.9132 17.8993 11.0729 17.7396C11.2326 17.5799 11.4306 17.5 11.6667 17.5H14.1667C14.4028 17.5 14.6007 17.5799 14.7604 17.7396C14.9201 17.8993 15 18.0972 15 18.3333C15 18.5694 14.9201 18.7674 14.7604 18.9271C14.6007 19.0868 14.4028 19.1667 14.1667 19.1667H11.6667ZM8.75 22.5C8.41667 22.5 8.125 22.375 7.875 22.125C7.625 21.875 7.5 21.5833 7.5 21.25V8.75C7.5 8.41667 7.625 8.125 7.875 7.875C8.125 7.625 8.41667 7.5 8.75 7.5H21.25C21.5833 7.5 21.875 7.625 22.125 7.875C22.375 8.125 22.5 8.41667 22.5 8.75V21.25C22.5 21.5833 22.375 21.875 22.125 22.125C21.875 22.375 21.5833 22.5 21.25 22.5H8.75ZM8.75 8.75V21.25V8.75ZM8.75 21.25H21.25V8.75H18.3333V14.5833C18.3333 14.8194 18.2361 15 18.0417 15.125C17.8472 15.25 17.6458 15.2569 17.4375 15.1458L15 13.9375L12.5625 15.1458C12.3542 15.2569 12.1528 15.25 11.9583 15.125C11.7639 15 11.6667 14.8194 11.6667 14.5833V8.75H8.75V21.25Z" fill="white"/>
</svg>
