<svg width="42" height="42" viewBox="0 0 42 42" fill="none" xmlns="http://www.w3.org/2000/svg">
<circle cx="19.5" cy="19.5" r="19" fill="#4F4F4F"/>
<path d="M23.5266 20.0391C23.4141 19.9266 23.3578 19.7953 23.3578 19.6453C23.3578 19.4953 23.4141 19.3641 23.5266 19.2516L25.3641 17.4141H13.7578C13.5953 17.4141 13.4609 17.3609 13.3547 17.2547C13.2484 17.1484 13.1953 17.0141 13.1953 16.8516C13.1953 16.6891 13.2484 16.5547 13.3547 16.4484C13.4609 16.3422 13.5953 16.2891 13.7578 16.2891H25.3641L23.4891 14.4141C23.3891 14.3141 23.3391 14.1891 23.3391 14.0391C23.3391 13.8891 23.3953 13.7578 23.5078 13.6453C23.6203 13.5328 23.7516 13.4766 23.9016 13.4766C24.0516 13.4766 24.1828 13.5328 24.2953 13.6453L27.1078 16.4578C27.1703 16.5203 27.2141 16.5828 27.2391 16.6453C27.2641 16.7078 27.2766 16.7766 27.2766 16.8516C27.2766 16.9266 27.2641 16.9953 27.2391 17.0578C27.2141 17.1203 27.1703 17.1828 27.1078 17.2453L24.2953 20.0578C24.1953 20.1578 24.0703 20.2078 23.9203 20.2078C23.7703 20.2078 23.6391 20.1516 23.5266 20.0391ZM15.6891 26.3578L12.8953 23.5641C12.8328 23.5016 12.7891 23.4391 12.7641 23.3766C12.7391 23.3141 12.7266 23.2453 12.7266 23.1703C12.7266 23.0953 12.7391 23.0266 12.7641 22.9641C12.7891 22.9016 12.8328 22.8391 12.8953 22.7766L15.7266 19.9453C15.8266 19.8453 15.9516 19.7953 16.1016 19.7953C16.2516 19.7953 16.3828 19.8516 16.4953 19.9641C16.6078 20.0766 16.6641 20.2078 16.6641 20.3578C16.6641 20.5078 16.6078 20.6391 16.4953 20.7516L14.6391 22.6078H26.2453C26.4078 22.6078 26.5422 22.6609 26.6484 22.7672C26.7547 22.8734 26.8078 23.0078 26.8078 23.1703C26.8078 23.3328 26.7547 23.4672 26.6484 23.5734C26.5422 23.6797 26.4078 23.7328 26.2453 23.7328H14.6391L16.4953 25.5891C16.5953 25.6891 16.6453 25.8141 16.6453 25.9641C16.6453 26.1141 16.5891 26.2453 16.4766 26.3578C16.3641 26.4703 16.2328 26.5266 16.0828 26.5266C15.9328 26.5266 15.8016 26.4703 15.6891 26.3578Z" fill="white"/>
</svg>
