<svg width="200" height="24" viewBox="0 0 200 24" fill="none" xmlns="http://www.w3.org/2000/svg">
<path d="M0.0920001 0.592C0.456 0.609333 0.932667 0.626666 1.522 0.643999C2.11133 0.661332 2.692 0.669999 3.264 0.669999C4.07867 0.669999 4.85867 0.661332 5.604 0.643999C6.34933 0.626666 6.878 0.618 7.19 0.618C9.28733 0.618 10.856 1.09467 11.896 2.048C12.936 3.00133 13.456 4.232 13.456 5.74C13.456 6.364 13.352 7.02267 13.144 7.716C12.936 8.392 12.572 9.02467 12.052 9.614C11.5493 10.186 10.856 10.654 9.972 11.018C9.088 11.382 7.97 11.564 6.618 11.564H4.122V11.044H6.358C7.58867 11.044 8.52467 10.81 9.166 10.342C9.82467 9.874 10.2667 9.25867 10.492 8.496C10.7347 7.73333 10.856 6.91 10.856 6.026C10.856 4.37933 10.5267 3.14867 9.868 2.334C9.22667 1.51933 8.11733 1.112 6.54 1.112C5.74267 1.112 5.22267 1.25933 4.98 1.554C4.73733 1.84867 4.616 2.44667 4.616 3.348V16.244C4.616 16.868 4.67667 17.336 4.798 17.648C4.93667 17.96 5.19667 18.168 5.578 18.272C5.95933 18.376 6.514 18.4453 7.242 18.48V19C6.79133 18.9653 6.21933 18.948 5.526 18.948C4.83267 18.9307 4.13067 18.922 3.42 18.922C2.744 18.922 2.11133 18.9307 1.522 18.948C0.932667 18.948 0.456 18.9653 0.0920001 19V18.48C0.681333 18.4453 1.12333 18.376 1.418 18.272C1.73 18.168 1.938 17.96 2.042 17.648C2.146 17.336 2.198 16.868 2.198 16.244V3.348C2.198 2.70667 2.146 2.23867 2.042 1.944C1.938 1.632 1.73 1.424 1.418 1.32C1.12333 1.19867 0.681333 1.12933 0.0920001 1.112V0.592ZM18.4773 19.182C17.7666 19.182 17.1513 19.052 16.6313 18.792C16.1113 18.5147 15.7126 18.1333 15.4353 17.648C15.1753 17.1627 15.0453 16.5993 15.0453 15.958C15.0453 15.1953 15.2186 14.5713 15.5653 14.086C15.9293 13.6007 16.3886 13.2107 16.9433 12.916C17.4979 12.6213 18.0786 12.3787 18.6853 12.188C19.3093 11.98 19.8986 11.7893 20.4533 11.616C21.0079 11.4253 21.4586 11.2087 21.8053 10.966C22.1693 10.7233 22.3513 10.4027 22.3513 10.004V8.392C22.3513 7.664 22.2386 7.10933 22.0133 6.728C21.8053 6.34667 21.5193 6.09533 21.1553 5.974C20.7913 5.83533 20.3839 5.766 19.9333 5.766C19.4999 5.766 19.0319 5.82667 18.5293 5.948C18.0439 6.06933 17.6539 6.32067 17.3593 6.702C17.6886 6.77133 17.9746 6.94467 18.2173 7.222C18.4599 7.49933 18.5813 7.85467 18.5813 8.288C18.5813 8.72133 18.4426 9.068 18.1653 9.328C17.8879 9.57067 17.5326 9.692 17.0993 9.692C16.5966 9.692 16.2239 9.536 15.9813 9.224C15.7559 8.89467 15.6433 8.53067 15.6433 8.132C15.6433 7.68133 15.7559 7.31733 15.9813 7.04C16.2066 6.76267 16.4926 6.50267 16.8393 6.26C17.2379 5.98267 17.7493 5.74867 18.3733 5.558C19.0146 5.35 19.7339 5.246 20.5312 5.246C21.2419 5.246 21.8486 5.33267 22.3513 5.506C22.8539 5.662 23.2699 5.896 23.5993 6.208C24.0499 6.624 24.3446 7.13533 24.4833 7.742C24.6219 8.33133 24.6913 9.042 24.6913 9.874V17.102C24.6913 17.5353 24.7519 17.8473 24.8733 18.038C25.0119 18.2287 25.2199 18.324 25.4973 18.324C25.6879 18.324 25.8699 18.2807 26.0433 18.194C26.2166 18.1073 26.4246 17.9687 26.6673 17.778L26.9533 18.22C26.5893 18.4973 26.2426 18.7313 25.9133 18.922C25.5839 19.0953 25.1419 19.182 24.5873 19.182C24.0846 19.182 23.6686 19.0953 23.3393 18.922C23.0099 18.7487 22.7586 18.4973 22.5853 18.168C22.4293 17.8213 22.3513 17.388 22.3513 16.868C21.8833 17.648 21.3199 18.2287 20.6613 18.61C20.0199 18.9913 19.2919 19.182 18.4773 19.182ZM19.4133 18.142C19.9853 18.142 20.5139 17.9773 20.9993 17.648C21.5019 17.3187 21.9526 16.8247 22.3513 16.166V11.07C22.1433 11.3647 21.8399 11.616 21.4413 11.824C21.0426 12.0147 20.6093 12.214 20.1413 12.422C19.6733 12.6127 19.2226 12.8467 18.7893 13.124C18.3733 13.384 18.0266 13.7307 17.7493 14.164C17.4719 14.5973 17.3333 15.1607 17.3333 15.854C17.3333 16.5473 17.5153 17.102 17.8793 17.518C18.2606 17.934 18.7719 18.142 19.4133 18.142ZM35.8205 5.246C36.2885 5.246 36.6958 5.34133 37.0425 5.532C37.4065 5.72267 37.6838 5.974 37.8745 6.286C38.0825 6.58067 38.1865 6.91867 38.1865 7.3C38.1865 7.73333 38.0478 8.11467 37.7705 8.444C37.5105 8.77333 37.1551 8.938 36.7045 8.938C36.3405 8.938 36.0198 8.82533 35.7425 8.6C35.4651 8.35733 35.3265 8.01933 35.3265 7.586C35.3265 7.25667 35.4131 6.97933 35.5865 6.754C35.7771 6.51133 35.9851 6.32067 36.2105 6.182C36.0891 6.00867 35.9071 5.922 35.6645 5.922C35.1271 5.922 34.6331 6.08667 34.1825 6.416C33.7318 6.728 33.3505 7.13533 33.0385 7.638C32.7265 8.14067 32.4838 8.678 32.3105 9.25C32.1371 9.80467 32.0505 10.3247 32.0505 10.81V16.322C32.0505 17.1713 32.2931 17.7433 32.7785 18.038C33.2811 18.3153 33.9571 18.454 34.8065 18.454V19C34.4078 18.9827 33.8445 18.9653 33.1165 18.948C32.3885 18.9133 31.6171 18.896 30.8025 18.896C30.2131 18.896 29.6238 18.9133 29.0345 18.948C28.4625 18.9653 28.0291 18.9827 27.7345 19V18.454C28.4451 18.454 28.9478 18.324 29.2425 18.064C29.5545 17.804 29.7105 17.31 29.7105 16.582V8.444C29.7105 7.664 29.5718 7.092 29.2945 6.728C29.0171 6.34667 28.4971 6.156 27.7345 6.156V5.61C28.2891 5.662 28.8265 5.688 29.3465 5.688C29.8491 5.688 30.3258 5.662 30.7765 5.61C31.2445 5.54067 31.6691 5.44533 32.0505 5.324V8.574C32.2411 8.07133 32.5098 7.56867 32.8565 7.066C33.2205 6.546 33.6538 6.11267 34.1565 5.766C34.6591 5.41933 35.2138 5.246 35.8205 5.246ZM43.4986 1.294V5.636H47.3466V6.156H43.4986V16.218C43.4986 17.0327 43.6459 17.6047 43.9406 17.934C44.2353 18.2633 44.6426 18.428 45.1626 18.428C45.6826 18.428 46.1333 18.22 46.5146 17.804C46.8959 17.3707 47.2253 16.6513 47.5026 15.646L48.0226 15.776C47.8493 16.7813 47.5026 17.6307 46.9826 18.324C46.4799 19.0173 45.6999 19.364 44.6426 19.364C44.0533 19.364 43.5679 19.286 43.1866 19.13C42.8053 18.9913 42.4673 18.7833 42.1726 18.506C41.7913 18.1073 41.5226 17.6307 41.3666 17.076C41.2279 16.5213 41.1586 15.7847 41.1586 14.866V6.156H38.6626V5.636H41.1586V1.658C41.5919 1.64067 42.0079 1.606 42.4066 1.554C42.8053 1.502 43.1693 1.41533 43.4986 1.294ZM60.594 5.61V6.13C60.2647 6.16467 59.9613 6.312 59.684 6.572C59.4067 6.832 59.1467 7.29133 58.904 7.95L54.64 19.13H54.198L49.414 7.612C49.0847 6.936 48.7553 6.52867 48.426 6.39C48.114 6.234 47.854 6.156 47.646 6.156V5.61C48.0273 5.662 48.426 5.70533 48.842 5.74C49.258 5.75733 49.7087 5.766 50.194 5.766C50.7313 5.766 51.2947 5.74867 51.884 5.714C52.4907 5.67933 53.054 5.64467 53.574 5.61V6.156C53.1407 6.156 52.7507 6.19067 52.404 6.26C52.0747 6.312 51.8667 6.494 51.78 6.806C51.6933 7.10067 51.7973 7.612 52.092 8.34L55.29 16.27L55.134 16.322L58.098 8.574C58.3233 8.002 58.41 7.55133 58.358 7.222C58.3233 6.87533 58.15 6.61533 57.838 6.442C57.526 6.26867 57.058 6.16467 56.434 6.13V5.61C56.746 5.62733 57.0147 5.64467 57.24 5.662C57.4653 5.662 57.682 5.67067 57.89 5.688C58.1153 5.688 58.358 5.688 58.618 5.688C59.0167 5.688 59.372 5.67933 59.684 5.662C60.0133 5.64467 60.3167 5.62733 60.594 5.61ZM54.64 19.13L53.756 21.392C53.5827 21.8253 53.4007 22.1893 53.21 22.484C53.0367 22.7787 52.846 23.0213 52.638 23.212C52.3607 23.472 52.0313 23.6453 51.65 23.732C51.2687 23.836 50.922 23.888 50.61 23.888C50.2807 23.888 49.9773 23.8273 49.7 23.706C49.44 23.5847 49.232 23.4027 49.076 23.16C48.92 22.9347 48.842 22.6573 48.842 22.328C48.842 21.912 48.9633 21.574 49.206 21.314C49.4487 21.0713 49.7867 20.95 50.22 20.95C50.584 20.95 50.896 21.054 51.156 21.262C51.416 21.47 51.546 21.7733 51.546 22.172C51.546 22.4667 51.4767 22.7093 51.338 22.9C51.1993 23.0907 51.0347 23.238 50.844 23.342C50.8787 23.3593 50.9047 23.368 50.922 23.368C50.9567 23.368 50.9827 23.368 51 23.368C51.468 23.368 51.884 23.2033 52.248 22.874C52.612 22.562 52.9327 22.0507 53.21 21.34L54.146 18.922L54.64 19.13ZM74.6226 0.747999C75.2813 0.747999 75.8273 0.825999 76.2606 0.982C76.694 1.12067 77.0493 1.30267 77.3266 1.528C77.552 1.70133 77.734 1.892 77.8726 2.1C78.0113 2.308 78.1153 2.516 78.1846 2.724C78.254 2.932 78.2886 3.13133 78.2886 3.322C78.2886 3.75533 78.1326 4.09333 77.8206 4.336C77.526 4.57867 77.1966 4.7 76.8326 4.7C76.486 4.7 76.174 4.58733 75.8966 4.362C75.6193 4.13667 75.4806 3.816 75.4806 3.4C75.4806 3.01867 75.6106 2.698 75.8706 2.438C76.1306 2.16067 76.46 2.00467 76.8586 1.97C76.7893 1.74467 76.5726 1.554 76.2086 1.398C75.862 1.22467 75.42 1.138 74.8826 1.138C73.9986 1.138 73.2706 1.40667 72.6986 1.944C72.144 2.464 71.8666 3.22667 71.8666 4.232C71.8666 4.71733 71.9533 5.21133 72.1266 5.714C72.3173 6.21667 72.6726 6.71067 73.1926 7.196C73.4873 7.144 73.7906 7.10933 74.1026 7.092C74.4146 7.05733 74.6486 7.04 74.8046 7.04C75.1166 7.04 75.368 7.092 75.5586 7.196C75.7493 7.3 75.8446 7.44733 75.8446 7.638C75.8446 7.794 75.7753 7.91533 75.6366 8.002C75.5153 8.08867 75.342 8.132 75.1166 8.132C74.7873 8.132 74.4406 8.06267 74.0766 7.924C73.7126 7.768 73.4266 7.64667 73.2186 7.56C72.2133 7.85467 71.3986 8.34 70.7746 9.016C70.1506 9.67467 69.8386 10.6107 69.8386 11.824C69.8386 13.02 70.1506 14.034 70.7746 14.866C71.3986 15.698 72.2306 16.3393 73.2706 16.79C74.328 17.2233 75.5066 17.44 76.8066 17.44C77.7253 17.44 78.592 17.336 79.4066 17.128C80.2386 16.9027 80.9666 16.582 81.5906 16.166C82.232 15.75 82.7346 15.256 83.0986 14.684C83.4626 14.0947 83.6446 13.4273 83.6446 12.682C83.6446 12.3527 83.5753 11.9367 83.4366 11.434C83.298 10.914 83.012 10.4113 82.5786 9.926C82.1453 9.42333 81.478 9.03333 80.5766 8.756L80.8886 8.496C82.154 8.87733 83.0553 9.49267 83.5926 10.342C84.13 11.174 84.3986 12.11 84.3986 13.15C84.3986 14.19 84.0866 15.1867 83.4626 16.14C82.8386 17.0933 81.9373 17.8733 80.7586 18.48C79.58 19.0693 78.15 19.364 76.4686 19.364C75.342 19.364 74.2673 19.2167 73.2446 18.922C72.2393 18.6273 71.3466 18.2027 70.5666 17.648C69.7866 17.076 69.1713 16.3913 68.7206 15.594C68.27 14.7967 68.0446 13.8953 68.0446 12.89C68.0446 11.954 68.2266 11.1567 68.5906 10.498C68.9546 9.822 69.4053 9.26733 69.9426 8.834C70.48 8.40067 71.0173 8.07133 71.5546 7.846C72.092 7.60333 72.5253 7.43867 72.8546 7.352C72.2826 7.092 71.7973 6.78867 71.3986 6.442C71.0173 6.078 70.7226 5.688 70.5146 5.272C70.324 4.83867 70.2286 4.414 70.2286 3.998C70.2286 3.582 70.324 3.18333 70.5146 2.802C70.7053 2.40333 70.9826 2.048 71.3466 1.736C71.7106 1.424 72.1613 1.18133 72.6986 1.008C73.2533 0.834666 73.8946 0.747999 74.6226 0.747999ZM84.0866 0.227998C85.1613 0.227998 86.0626 0.539998 86.7906 1.164C87.5186 1.77067 87.8826 2.62867 87.8826 3.738C87.8826 4.32733 87.77 4.856 87.5446 5.324C87.3366 5.77467 87.042 6.17333 86.6606 6.52C86.2966 6.86667 85.8806 7.15267 85.4126 7.378C85.014 7.56867 84.4853 7.77667 83.8266 8.002C83.1853 8.22733 82.492 8.45267 81.7466 8.678C81.0186 8.90333 80.3166 9.12867 79.6406 9.354C78.982 9.562 78.4446 9.744 78.0286 9.9C77.3873 10.1427 76.8413 10.446 76.3906 10.81C75.9573 11.1567 75.7406 11.6073 75.7406 12.162C75.7406 12.6127 75.8706 12.994 76.1306 13.306C76.3906 13.618 76.7026 13.852 77.0666 14.008C77.448 14.164 77.8033 14.242 78.1326 14.242C78.2886 14.242 78.4793 14.2247 78.7046 14.19C78.9473 14.138 79.164 14.0687 79.3546 13.982C79.5453 13.8953 79.658 13.7913 79.6926 13.67C79.4153 13.618 79.138 13.4967 78.8606 13.306C78.6006 13.098 78.4706 12.7773 78.4706 12.344C78.4706 11.928 78.6093 11.5987 78.8866 11.356C79.164 11.1133 79.502 10.992 79.9006 10.992C80.3166 10.992 80.646 11.122 80.8886 11.382C81.1486 11.642 81.2786 11.98 81.2786 12.396C81.2786 12.8813 81.114 13.2973 80.7846 13.644C80.4726 13.9733 80.074 14.2247 79.5886 14.398C79.1206 14.554 78.6526 14.632 78.1846 14.632C77.6993 14.632 77.2053 14.528 76.7026 14.32C76.2 14.112 75.784 13.7913 75.4546 13.358C75.1253 12.9073 74.9606 12.318 74.9606 11.59C74.9606 10.9833 75.0906 10.446 75.3506 9.978C75.628 9.51 76.0353 9.094 76.5726 8.73C77.11 8.366 77.7686 8.054 78.5486 7.794C79.0686 7.62067 79.7013 7.43 80.4466 7.222C81.192 7.014 81.9546 6.78867 82.7346 6.546C83.532 6.30333 84.2513 6.03467 84.8926 5.74C85.7593 5.34133 86.3486 4.934 86.6606 4.518C86.9726 4.102 87.1286 3.67733 87.1286 3.244C87.1286 2.74133 86.99 2.29933 86.7126 1.918C86.4353 1.51933 86.0626 1.20733 85.5946 0.982C85.144 0.739333 84.65 0.618 84.1126 0.618C83.9046 0.618 83.7313 0.635333 83.5926 0.669999C83.454 0.704666 83.3673 0.765333 83.3326 0.852C83.5753 0.973332 83.7573 1.14667 83.8786 1.372C84 1.59733 84.0606 1.82267 84.0606 2.048C84.0606 2.412 83.9133 2.71533 83.6186 2.958C83.3413 3.20067 83.0033 3.322 82.6046 3.322C82.2753 3.322 81.9633 3.218 81.6686 3.01C81.374 2.78467 81.2266 2.45533 81.2266 2.022C81.2266 1.57133 81.374 1.216 81.6686 0.956C81.9806 0.695999 82.3533 0.513999 82.7866 0.409999C83.2373 0.288665 83.6706 0.227998 84.0866 0.227998ZM95.967 0.592C96.331 0.609333 96.8077 0.626666 97.397 0.643999C97.9863 0.661332 98.567 0.669999 99.139 0.669999C99.9537 0.669999 100.734 0.661332 101.479 0.643999C102.224 0.626666 102.753 0.618 103.065 0.618C104.885 0.618 106.254 0.999333 107.173 1.762C108.092 2.52467 108.551 3.504 108.551 4.7C108.551 5.30667 108.421 5.90467 108.161 6.494C107.918 7.066 107.502 7.59467 106.913 8.08C106.341 8.548 105.57 8.92933 104.599 9.224V9.276C105.968 9.44933 107.034 9.77867 107.797 10.264C108.577 10.732 109.123 11.2867 109.435 11.928C109.747 12.5693 109.903 13.2453 109.903 13.956C109.903 14.944 109.652 15.8193 109.149 16.582C108.664 17.3273 107.953 17.9167 107.017 18.35C106.081 18.7833 104.963 19 103.663 19C103.282 19 102.71 18.9913 101.947 18.974C101.184 18.9393 100.266 18.922 99.191 18.922C98.5843 18.922 97.9863 18.9307 97.397 18.948C96.8077 18.948 96.331 18.9653 95.967 19V18.48C96.5563 18.4453 96.9983 18.376 97.293 18.272C97.605 18.168 97.813 17.96 97.917 17.648C98.021 17.336 98.073 16.868 98.073 16.244V3.348C98.073 2.70667 98.021 2.23867 97.917 1.944C97.813 1.632 97.605 1.424 97.293 1.32C96.9983 1.19867 96.5563 1.12933 95.967 1.112V0.592ZM102.415 1.112C101.618 1.112 101.098 1.25933 100.855 1.554C100.612 1.84867 100.491 2.44667 100.491 3.348V16.244C100.491 16.8507 100.543 17.31 100.647 17.622C100.751 17.934 100.942 18.142 101.219 18.246C101.496 18.35 101.904 18.402 102.441 18.402C104.14 18.402 105.37 18.012 106.133 17.232C106.913 16.4347 107.303 15.308 107.303 13.852C107.303 12.5173 106.939 11.486 106.211 10.758C105.5 10.03 104.322 9.666 102.675 9.666H99.997C99.997 9.666 99.997 9.59667 99.997 9.458C99.997 9.302 99.997 9.224 99.997 9.224H102.233C103.256 9.224 104.044 9.03333 104.599 8.652C105.154 8.25333 105.535 7.73333 105.743 7.092C105.951 6.43333 106.055 5.73133 106.055 4.986C106.055 3.70333 105.769 2.74133 105.197 2.1C104.642 1.44133 103.715 1.112 102.415 1.112ZM118.146 5.246C119.672 5.246 120.859 5.714 121.708 6.65C122.575 7.56867 123.008 9.00733 123.008 10.966H113.83L113.804 10.472H120.512C120.547 9.62267 120.478 8.84267 120.304 8.132C120.131 7.404 119.854 6.82333 119.472 6.39C119.108 5.95667 118.632 5.74 118.042 5.74C117.245 5.74 116.534 6.13867 115.91 6.936C115.304 7.73333 114.94 8.99867 114.818 10.732L114.896 10.836C114.862 11.096 114.836 11.382 114.818 11.694C114.801 12.006 114.792 12.318 114.792 12.63C114.792 13.8087 114.983 14.8227 115.364 15.672C115.746 16.5213 116.24 17.1713 116.846 17.622C117.47 18.0553 118.112 18.272 118.77 18.272C119.29 18.272 119.784 18.194 120.252 18.038C120.72 17.8647 121.154 17.5873 121.552 17.206C121.951 16.8247 122.298 16.3133 122.592 15.672L123.112 15.88C122.922 16.452 122.61 17.0067 122.176 17.544C121.743 18.0813 121.197 18.5233 120.538 18.87C119.88 19.1993 119.117 19.364 118.25 19.364C117.002 19.364 115.928 19.078 115.026 18.506C114.142 17.934 113.458 17.1453 112.972 16.14C112.504 15.1173 112.27 13.9473 112.27 12.63C112.27 11.1047 112.513 9.796 112.998 8.704C113.484 7.59467 114.168 6.74533 115.052 6.156C115.936 5.54933 116.968 5.246 118.146 5.246ZM136.761 5.61V6.13C136.432 6.16467 136.128 6.312 135.851 6.572C135.574 6.832 135.314 7.29133 135.071 7.95L130.807 19.13C130.738 19.13 130.668 19.13 130.599 19.13C130.53 19.13 130.452 19.13 130.365 19.13L125.581 7.612C125.304 6.936 125.026 6.52867 124.749 6.39C124.489 6.234 124.264 6.156 124.073 6.156V5.61C124.42 5.62733 124.775 5.65333 125.139 5.688C125.52 5.70533 125.928 5.714 126.361 5.714C126.898 5.714 127.462 5.70533 128.051 5.688C128.658 5.67067 129.221 5.64467 129.741 5.61V6.156C129.308 6.156 128.918 6.19067 128.571 6.26C128.242 6.312 128.025 6.47667 127.921 6.754C127.834 7.03133 127.921 7.508 128.181 8.184L131.431 16.218L131.275 16.348L134.239 8.574C134.464 8.002 134.551 7.55133 134.499 7.222C134.464 6.87533 134.291 6.61533 133.979 6.442C133.684 6.26867 133.225 6.16467 132.601 6.13V5.61C132.913 5.62733 133.182 5.64467 133.407 5.662C133.632 5.662 133.849 5.67067 134.057 5.688C134.282 5.688 134.525 5.688 134.785 5.688C135.184 5.688 135.539 5.67933 135.851 5.662C136.18 5.64467 136.484 5.62733 136.761 5.61ZM143.689 5.246C145.215 5.246 146.402 5.714 147.251 6.65C148.118 7.56867 148.551 9.00733 148.551 10.966H139.373L139.347 10.472H146.055C146.09 9.62267 146.021 8.84267 145.847 8.132C145.674 7.404 145.397 6.82333 145.015 6.39C144.651 5.95667 144.175 5.74 143.585 5.74C142.788 5.74 142.077 6.13867 141.453 6.936C140.847 7.73333 140.483 8.99867 140.361 10.732L140.439 10.836C140.405 11.096 140.379 11.382 140.361 11.694C140.344 12.006 140.335 12.318 140.335 12.63C140.335 13.8087 140.526 14.8227 140.907 15.672C141.289 16.5213 141.783 17.1713 142.389 17.622C143.013 18.0553 143.655 18.272 144.313 18.272C144.833 18.272 145.327 18.194 145.795 18.038C146.263 17.8647 146.697 17.5873 147.095 17.206C147.494 16.8247 147.841 16.3133 148.135 15.672L148.655 15.88C148.465 16.452 148.153 17.0067 147.719 17.544C147.286 18.0813 146.74 18.5233 146.081 18.87C145.423 19.1993 144.66 19.364 143.793 19.364C142.545 19.364 141.471 19.078 140.569 18.506C139.685 17.934 139.001 17.1453 138.515 16.14C138.047 15.1173 137.813 13.9473 137.813 12.63C137.813 11.1047 138.056 9.796 138.541 8.704C139.027 7.59467 139.711 6.74533 140.595 6.156C141.479 5.54933 142.511 5.246 143.689 5.246ZM158.61 5.246C159.078 5.246 159.485 5.34133 159.832 5.532C160.196 5.72267 160.473 5.974 160.664 6.286C160.872 6.58067 160.976 6.91867 160.976 7.3C160.976 7.73333 160.837 8.11467 160.56 8.444C160.3 8.77333 159.944 8.938 159.494 8.938C159.13 8.938 158.809 8.82533 158.532 8.6C158.254 8.35733 158.116 8.01933 158.116 7.586C158.116 7.25667 158.202 6.97933 158.376 6.754C158.566 6.51133 158.774 6.32067 159 6.182C158.878 6.00867 158.696 5.922 158.454 5.922C157.916 5.922 157.422 6.08667 156.972 6.416C156.521 6.728 156.14 7.13533 155.828 7.638C155.516 8.14067 155.273 8.678 155.1 9.25C154.926 9.80467 154.84 10.3247 154.84 10.81V16.322C154.84 17.1713 155.082 17.7433 155.568 18.038C156.07 18.3153 156.746 18.454 157.596 18.454V19C157.197 18.9827 156.634 18.9653 155.906 18.948C155.178 18.9133 154.406 18.896 153.592 18.896C153.002 18.896 152.413 18.9133 151.824 18.948C151.252 18.9653 150.818 18.9827 150.524 19V18.454C151.234 18.454 151.737 18.324 152.032 18.064C152.344 17.804 152.5 17.31 152.5 16.582V8.444C152.5 7.664 152.361 7.092 152.084 6.728C151.806 6.34667 151.286 6.156 150.524 6.156V5.61C151.078 5.662 151.616 5.688 152.136 5.688C152.638 5.688 153.115 5.662 153.566 5.61C154.034 5.54067 154.458 5.44533 154.84 5.324V8.574C155.03 8.07133 155.299 7.56867 155.646 7.066C156.01 6.546 156.443 6.11267 156.946 5.766C157.448 5.41933 158.003 5.246 158.61 5.246ZM165.794 19.182C165.083 19.182 164.468 19.052 163.948 18.792C163.428 18.5147 163.029 18.1333 162.752 17.648C162.492 17.1627 162.362 16.5993 162.362 15.958C162.362 15.1953 162.535 14.5713 162.882 14.086C163.246 13.6007 163.705 13.2107 164.26 12.916C164.814 12.6213 165.395 12.3787 166.002 12.188C166.626 11.98 167.215 11.7893 167.77 11.616C168.324 11.4253 168.775 11.2087 169.122 10.966C169.486 10.7233 169.668 10.4027 169.668 10.004V8.392C169.668 7.664 169.555 7.10933 169.33 6.728C169.122 6.34667 168.836 6.09533 168.472 5.974C168.108 5.83533 167.7 5.766 167.25 5.766C166.816 5.766 166.348 5.82667 165.846 5.948C165.36 6.06933 164.97 6.32067 164.676 6.702C165.005 6.77133 165.291 6.94467 165.534 7.222C165.776 7.49933 165.898 7.85467 165.898 8.288C165.898 8.72133 165.759 9.068 165.482 9.328C165.204 9.57067 164.849 9.692 164.416 9.692C163.913 9.692 163.54 9.536 163.298 9.224C163.072 8.89467 162.96 8.53067 162.96 8.132C162.96 7.68133 163.072 7.31733 163.298 7.04C163.523 6.76267 163.809 6.50267 164.156 6.26C164.554 5.98267 165.066 5.74867 165.69 5.558C166.331 5.35 167.05 5.246 167.848 5.246C168.558 5.246 169.165 5.33267 169.668 5.506C170.17 5.662 170.586 5.896 170.916 6.208C171.366 6.624 171.661 7.13533 171.8 7.742C171.938 8.33133 172.008 9.042 172.008 9.874V17.102C172.008 17.5353 172.068 17.8473 172.19 18.038C172.328 18.2287 172.536 18.324 172.814 18.324C173.004 18.324 173.186 18.2807 173.36 18.194C173.533 18.1073 173.741 17.9687 173.984 17.778L174.27 18.22C173.906 18.4973 173.559 18.7313 173.23 18.922C172.9 19.0953 172.458 19.182 171.904 19.182C171.401 19.182 170.985 19.0953 170.656 18.922C170.326 18.7487 170.075 18.4973 169.902 18.168C169.746 17.8213 169.668 17.388 169.668 16.868C169.2 17.648 168.636 18.2287 167.978 18.61C167.336 18.9913 166.608 19.182 165.794 19.182ZM166.73 18.142C167.302 18.142 167.83 17.9773 168.316 17.648C168.818 17.3187 169.269 16.8247 169.668 16.166V11.07C169.46 11.3647 169.156 11.616 168.758 11.824C168.359 12.0147 167.926 12.214 167.458 12.422C166.99 12.6127 166.539 12.8467 166.106 13.124C165.69 13.384 165.343 13.7307 165.066 14.164C164.788 14.5973 164.65 15.1607 164.65 15.854C164.65 16.5473 164.832 17.102 165.196 17.518C165.577 17.934 166.088 18.142 166.73 18.142ZM179.835 23.888C178.916 23.888 178.05 23.7927 177.235 23.602C176.42 23.4113 175.762 23.108 175.259 22.692C174.774 22.2933 174.531 21.782 174.531 21.158C174.531 20.5513 174.774 20.0313 175.259 19.598C175.744 19.1647 176.403 18.8353 177.235 18.61L177.391 19.026C177.01 19.1473 176.706 19.39 176.481 19.754C176.256 20.118 176.143 20.5253 176.143 20.976C176.143 21.7733 176.507 22.38 177.235 22.796C177.98 23.2293 178.942 23.446 180.121 23.446C180.901 23.446 181.664 23.342 182.409 23.134C183.154 22.9433 183.77 22.614 184.255 22.146C184.74 21.678 184.983 21.0627 184.983 20.3C184.983 19.728 184.775 19.26 184.359 18.896C183.96 18.5147 183.163 18.324 181.967 18.324H180.043C179.488 18.324 178.951 18.2807 178.431 18.194C177.911 18.1073 177.486 17.9253 177.157 17.648C176.828 17.3707 176.663 16.946 176.663 16.374C176.663 15.7847 176.906 15.2213 177.391 14.684C177.876 14.1293 178.769 13.566 180.069 12.994L180.381 13.228C179.792 13.54 179.28 13.8607 178.847 14.19C178.414 14.502 178.197 14.8747 178.197 15.308C178.197 15.8627 178.613 16.14 179.445 16.14H182.695C183.423 16.14 184.09 16.244 184.697 16.452C185.321 16.66 185.824 16.9893 186.205 17.44C186.586 17.8907 186.777 18.48 186.777 19.208C186.777 20.0227 186.517 20.7853 185.997 21.496C185.477 22.2067 184.697 22.7787 183.657 23.212C182.634 23.6627 181.36 23.888 179.835 23.888ZM179.965 13.462C179.116 13.462 178.344 13.3233 177.651 13.046C176.958 12.7513 176.412 12.3007 176.013 11.694C175.614 11.0873 175.415 10.3073 175.415 9.354C175.415 8.40067 175.614 7.62067 176.013 7.014C176.412 6.40733 176.958 5.96533 177.651 5.688C178.344 5.39333 179.116 5.246 179.965 5.246C180.832 5.246 181.603 5.39333 182.279 5.688C182.972 5.96533 183.518 6.40733 183.917 7.014C184.316 7.62067 184.515 8.40067 184.515 9.354C184.515 10.3073 184.316 11.0873 183.917 11.694C183.518 12.3007 182.972 12.7513 182.279 13.046C181.603 13.3233 180.832 13.462 179.965 13.462ZM179.965 12.994C180.624 12.994 181.135 12.734 181.499 12.214C181.88 11.694 182.071 10.7407 182.071 9.354C182.071 7.96733 181.88 7.014 181.499 6.494C181.135 5.974 180.624 5.714 179.965 5.714C179.324 5.714 178.812 5.974 178.431 6.494C178.05 7.014 177.859 7.96733 177.859 9.354C177.859 10.7407 178.05 11.694 178.431 12.214C178.812 12.734 179.324 12.994 179.965 12.994ZM183.709 7.404L183.241 7.222C183.484 6.63267 183.9 6.11267 184.489 5.662C185.078 5.21133 185.694 4.986 186.335 4.986C186.786 4.986 187.15 5.116 187.427 5.376C187.704 5.61867 187.843 5.99133 187.843 6.494C187.843 7.03133 187.696 7.41267 187.401 7.638C187.124 7.846 186.838 7.95 186.543 7.95C186.283 7.95 186.04 7.86333 185.815 7.69C185.59 7.49933 185.46 7.20467 185.425 6.806C185.39 6.40733 185.512 5.896 185.789 5.272L186.127 5.35C185.399 5.62733 184.879 5.922 184.567 6.234C184.255 6.52867 183.969 6.91867 183.709 7.404ZM194.851 5.246C196.377 5.246 197.564 5.714 198.413 6.65C199.28 7.56867 199.713 9.00733 199.713 10.966H190.535L190.509 10.472H197.217C197.252 9.62267 197.183 8.84267 197.009 8.132C196.836 7.404 196.559 6.82333 196.177 6.39C195.813 5.95667 195.337 5.74 194.747 5.74C193.95 5.74 193.239 6.13867 192.615 6.936C192.009 7.73333 191.645 8.99867 191.523 10.732L191.601 10.836C191.567 11.096 191.541 11.382 191.523 11.694C191.506 12.006 191.497 12.318 191.497 12.63C191.497 13.8087 191.688 14.8227 192.069 15.672C192.451 16.5213 192.945 17.1713 193.551 17.622C194.175 18.0553 194.817 18.272 195.475 18.272C195.995 18.272 196.489 18.194 196.957 18.038C197.425 17.8647 197.859 17.5873 198.257 17.206C198.656 16.8247 199.003 16.3133 199.297 15.672L199.817 15.88C199.627 16.452 199.315 17.0067 198.881 17.544C198.448 18.0813 197.902 18.5233 197.243 18.87C196.585 19.1993 195.822 19.364 194.955 19.364C193.707 19.364 192.633 19.078 191.731 18.506C190.847 17.934 190.163 17.1453 189.677 16.14C189.209 15.1173 188.975 13.9473 188.975 12.63C188.975 11.1047 189.218 9.796 189.703 8.704C190.189 7.59467 190.873 6.74533 191.757 6.156C192.641 5.54933 193.673 5.246 194.851 5.246Z" fill="black"/>
</svg>
