<svg width="315" height="64" viewBox="0 0 315 64" fill="none" xmlns="http://www.w3.org/2000/svg">
<rect y="5" width="315" height="54" rx="27" fill="white"/>
<path d="M31.4432 23.5455L36.3011 37.7614H36.4972L41.3551 23.5455H44.2017L37.9205 41H34.8778L28.5966 23.5455H31.4432ZM45.3178 41V27.9091H47.8661V41H45.3178ZM46.6047 25.8892C46.1615 25.8892 45.7808 25.7415 45.4626 25.446C45.1501 25.1449 44.9939 24.7869 44.9939 24.3722C44.9939 23.9517 45.1501 23.5937 45.4626 23.2983C45.7808 22.9972 46.1615 22.8466 46.6047 22.8466C47.0479 22.8466 47.4257 22.9972 47.7382 23.2983C48.0564 23.5937 48.2155 23.9517 48.2155 24.3722C48.2155 24.7869 48.0564 25.1449 47.7382 25.446C47.4257 25.7415 47.0479 25.8892 46.6047 25.8892ZM55.7364 41.2642C54.4466 41.2642 53.3358 40.9886 52.404 40.4375C51.4778 39.8807 50.7619 39.0994 50.2563 38.0938C49.7563 37.0824 49.5063 35.8977 49.5063 34.5398C49.5063 33.1989 49.7563 32.017 50.2563 30.9943C50.7619 29.9716 51.4665 29.1733 52.3699 28.5994C53.279 28.0256 54.3415 27.7386 55.5574 27.7386C56.296 27.7386 57.0119 27.8608 57.7051 28.1051C58.3983 28.3494 59.0205 28.733 59.5716 29.2557C60.1227 29.7784 60.5574 30.4574 60.8756 31.2926C61.1938 32.1222 61.3528 33.1307 61.3528 34.3182V35.2216H50.9466V33.3125H58.8557C58.8557 32.642 58.7193 32.0483 58.4466 31.5312C58.1739 31.0085 57.7903 30.5966 57.296 30.2955C56.8074 29.9943 56.2335 29.8438 55.5744 29.8438C54.8585 29.8438 54.2335 30.0199 53.6994 30.3722C53.171 30.7187 52.7619 31.1733 52.4722 31.7358C52.1881 32.2926 52.046 32.8977 52.046 33.5511V35.0426C52.046 35.9176 52.1994 36.6619 52.5063 37.2756C52.8188 37.8892 53.2534 38.358 53.8102 38.6818C54.367 39 55.0176 39.1591 55.7619 39.1591C56.2449 39.1591 56.6852 39.0909 57.083 38.9545C57.4807 38.8125 57.8244 38.6023 58.1142 38.3239C58.404 38.0455 58.6256 37.7017 58.779 37.2926L61.1909 37.7273C60.9977 38.4375 60.6511 39.0597 60.1511 39.5938C59.6568 40.1222 59.0347 40.5341 58.2847 40.8295C57.5403 41.1193 56.6909 41.2642 55.7364 41.2642ZM65.7949 41L61.9426 27.9091H64.5761L67.1415 37.5227H67.2693L69.8432 27.9091H72.4767L75.0335 37.4801H75.1614L77.7097 27.9091H80.3432L76.4994 41H73.9L71.2409 31.5483H71.0449L68.3858 41H65.7949ZM96.4375 28.1307C96.3466 27.3239 95.9716 26.6989 95.3125 26.2557C94.6534 25.8068 93.8239 25.5824 92.8239 25.5824C92.108 25.5824 91.4886 25.696 90.9659 25.9233C90.4432 26.1449 90.0369 26.4517 89.7472 26.8438C89.4631 27.2301 89.321 27.6705 89.321 28.1648C89.321 28.5795 89.4176 28.9375 89.6108 29.2386C89.8097 29.5398 90.0682 29.7926 90.3864 29.9972C90.7102 30.196 91.0568 30.3636 91.4261 30.5C91.7955 30.6307 92.1506 30.7386 92.4915 30.8239L94.196 31.267C94.7528 31.4034 95.3239 31.5881 95.9091 31.821C96.4943 32.054 97.0369 32.3608 97.5369 32.7415C98.0369 33.1222 98.4403 33.5938 98.7472 34.1562C99.0597 34.7188 99.2159 35.392 99.2159 36.1761C99.2159 37.1648 98.9602 38.0426 98.4489 38.8097C97.9432 39.5767 97.2074 40.1818 96.2415 40.625C95.2813 41.0682 94.1193 41.2898 92.7557 41.2898C91.4489 41.2898 90.3182 41.0824 89.3636 40.6676C88.4091 40.2528 87.6619 39.6648 87.1222 38.9034C86.5824 38.1364 86.2841 37.2273 86.2273 36.1761H88.8693C88.9205 36.8068 89.125 37.3324 89.483 37.7528C89.8466 38.1676 90.3097 38.4773 90.8722 38.6818C91.4403 38.8807 92.0625 38.9801 92.7386 38.9801C93.483 38.9801 94.1449 38.8636 94.7244 38.6307C95.3097 38.392 95.7699 38.0625 96.1051 37.642C96.4403 37.2159 96.608 36.7187 96.608 36.1506C96.608 35.6335 96.4602 35.2102 96.1648 34.8807C95.875 34.5511 95.4801 34.2784 94.9801 34.0625C94.4858 33.8466 93.9261 33.6562 93.3011 33.4915L91.2386 32.929C89.8409 32.5483 88.733 31.9886 87.9148 31.25C87.1023 30.5114 86.696 29.5341 86.696 28.3182C86.696 27.3125 86.9688 26.4347 87.5142 25.6847C88.0597 24.9347 88.7983 24.3523 89.7301 23.9375C90.6619 23.517 91.7131 23.3068 92.8835 23.3068C94.0653 23.3068 95.108 23.5142 96.0114 23.929C96.9205 24.3438 97.6364 24.9148 98.1591 25.642C98.6818 26.3636 98.9545 27.1932 98.9773 28.1307H96.4375ZM104.768 41.2898C103.938 41.2898 103.188 41.1364 102.518 40.8295C101.848 40.517 101.316 40.0653 100.924 39.4744C100.538 38.8835 100.345 38.1591 100.345 37.3011C100.345 36.5625 100.487 35.9545 100.771 35.4773C101.055 35 101.438 34.6222 101.921 34.3438C102.404 34.0653 102.944 33.8551 103.541 33.7131C104.137 33.571 104.745 33.4631 105.365 33.3892C106.149 33.2983 106.785 33.2244 107.274 33.1676C107.762 33.1051 108.117 33.0057 108.339 32.8693C108.561 32.733 108.671 32.5114 108.671 32.2045V32.1449C108.671 31.4006 108.461 30.8239 108.041 30.4148C107.626 30.0057 107.007 29.8011 106.183 29.8011C105.325 29.8011 104.649 29.9915 104.154 30.3722C103.666 30.7472 103.328 31.1648 103.14 31.625L100.745 31.0795C101.029 30.2841 101.444 29.642 101.99 29.1534C102.541 28.6591 103.174 28.3011 103.89 28.0795C104.606 27.8523 105.359 27.7386 106.149 27.7386C106.671 27.7386 107.225 27.8011 107.811 27.9261C108.402 28.0455 108.953 28.267 109.464 28.5909C109.981 28.9148 110.404 29.3778 110.734 29.9801C111.063 30.5767 111.228 31.3523 111.228 32.3068V41H108.74V39.2102H108.637C108.473 39.5398 108.225 39.8636 107.896 40.1818C107.566 40.5 107.143 40.7642 106.626 40.9744C106.109 41.1847 105.49 41.2898 104.768 41.2898ZM105.322 39.2443C106.027 39.2443 106.629 39.1051 107.129 38.8267C107.635 38.5483 108.018 38.1847 108.279 37.7358C108.546 37.2812 108.68 36.7955 108.68 36.2784V34.5909C108.589 34.6818 108.413 34.767 108.152 34.8466C107.896 34.9205 107.603 34.9858 107.274 35.0426C106.944 35.0937 106.623 35.142 106.311 35.1875C105.998 35.2273 105.737 35.2614 105.527 35.2898C105.032 35.3523 104.581 35.4574 104.171 35.6051C103.768 35.7528 103.444 35.9659 103.2 36.2443C102.961 36.517 102.842 36.8807 102.842 37.3352C102.842 37.9659 103.075 38.4432 103.541 38.767C104.007 39.0852 104.6 39.2443 105.322 39.2443ZM113.422 41V27.9091H115.868V30.0398H116.03C116.303 29.3182 116.749 28.7557 117.368 28.3523C117.988 27.9432 118.729 27.7386 119.593 27.7386C120.468 27.7386 121.201 27.9432 121.792 28.3523C122.388 28.7614 122.829 29.3239 123.113 30.0398H123.249C123.562 29.3409 124.059 28.7841 124.741 28.3693C125.422 27.9489 126.235 27.7386 127.178 27.7386C128.366 27.7386 129.334 28.1108 130.084 28.8551C130.84 29.5994 131.218 30.7216 131.218 32.2216V41H128.67V32.4602C128.67 31.5739 128.428 30.9318 127.945 30.5341C127.462 30.1364 126.886 29.9375 126.215 29.9375C125.386 29.9375 124.741 30.1932 124.28 30.7045C123.82 31.2102 123.59 31.8608 123.59 32.6562V41H121.05V32.2983C121.05 31.5881 120.829 31.017 120.386 30.5852C119.942 30.1534 119.366 29.9375 118.655 29.9375C118.172 29.9375 117.726 30.0653 117.317 30.321C116.914 30.571 116.587 30.9205 116.337 31.3693C116.093 31.8182 115.971 32.3381 115.971 32.929V41H113.422ZM139.075 41.2642C137.786 41.2642 136.675 40.9886 135.743 40.4375C134.817 39.8807 134.101 39.0994 133.595 38.0938C133.095 37.0824 132.845 35.8977 132.845 34.5398C132.845 33.1989 133.095 32.017 133.595 30.9943C134.101 29.9716 134.806 29.1733 135.709 28.5994C136.618 28.0256 137.681 27.7386 138.896 27.7386C139.635 27.7386 140.351 27.8608 141.044 28.1051C141.737 28.3494 142.36 28.733 142.911 29.2557C143.462 29.7784 143.896 30.4574 144.215 31.2926C144.533 32.1222 144.692 33.1307 144.692 34.3182V35.2216H134.286V33.3125H142.195C142.195 32.642 142.058 32.0483 141.786 31.5312C141.513 31.0085 141.129 30.5966 140.635 30.2955C140.146 29.9943 139.573 29.8438 138.913 29.8438C138.198 29.8438 137.573 30.0199 137.038 30.3722C136.51 30.7187 136.101 31.1733 135.811 31.7358C135.527 32.2926 135.385 32.8977 135.385 33.5511V35.0426C135.385 35.9176 135.538 36.6619 135.845 37.2756C136.158 37.8892 136.592 38.358 137.149 38.6818C137.706 39 138.357 39.1591 139.101 39.1591C139.584 39.1591 140.024 39.0909 140.422 38.9545C140.82 38.8125 141.163 38.6023 141.453 38.3239C141.743 38.0455 141.965 37.7017 142.118 37.2926L144.53 37.7273C144.337 38.4375 143.99 39.0597 143.49 39.5938C142.996 40.1222 142.374 40.5341 141.624 40.8295C140.879 41.1193 140.03 41.2642 139.075 41.2642ZM157.326 41H151.675V23.5455H157.505C159.215 23.5455 160.684 23.8949 161.911 24.5938C163.138 25.2869 164.079 26.2841 164.732 27.5852C165.391 28.8807 165.721 30.4347 165.721 32.2472C165.721 34.0653 165.388 35.6278 164.724 36.9347C164.065 38.2415 163.11 39.2472 161.86 39.9517C160.61 40.6506 159.099 41 157.326 41ZM154.309 38.6989H157.181C158.511 38.6989 159.616 38.4489 160.496 37.9489C161.377 37.4432 162.036 36.7131 162.474 35.7585C162.911 34.7983 163.13 33.6278 163.13 32.2472C163.13 30.8778 162.911 29.7159 162.474 28.7614C162.042 27.8068 161.397 27.0824 160.539 26.5881C159.681 26.0937 158.616 25.8466 157.343 25.8466H154.309V38.6989ZM171.401 41.2898C170.571 41.2898 169.821 41.1364 169.151 40.8295C168.48 40.517 167.949 40.0653 167.557 39.4744C167.171 38.8835 166.978 38.1591 166.978 37.3011C166.978 36.5625 167.12 35.9545 167.404 35.4773C167.688 35 168.071 34.6222 168.554 34.3438C169.037 34.0653 169.577 33.8551 170.174 33.7131C170.77 33.571 171.378 33.4631 171.997 33.3892C172.782 33.2983 173.418 33.2244 173.907 33.1676C174.395 33.1051 174.75 33.0057 174.972 32.8693C175.193 32.733 175.304 32.5114 175.304 32.2045V32.1449C175.304 31.4006 175.094 30.8239 174.674 30.4148C174.259 30.0057 173.639 29.8011 172.816 29.8011C171.958 29.8011 171.282 29.9915 170.787 30.3722C170.299 30.7472 169.961 31.1648 169.773 31.625L167.378 31.0795C167.662 30.2841 168.077 29.642 168.622 29.1534C169.174 28.6591 169.807 28.3011 170.523 28.0795C171.239 27.8523 171.992 27.7386 172.782 27.7386C173.304 27.7386 173.858 27.8011 174.443 27.9261C175.034 28.0455 175.586 28.267 176.097 28.5909C176.614 28.9148 177.037 29.3778 177.367 29.9801C177.696 30.5767 177.861 31.3523 177.861 32.3068V41H175.372V39.2102H175.27C175.105 39.5398 174.858 39.8636 174.529 40.1818C174.199 40.5 173.776 40.7642 173.259 40.9744C172.742 41.1847 172.122 41.2898 171.401 41.2898ZM171.955 39.2443C172.659 39.2443 173.262 39.1051 173.762 38.8267C174.267 38.5483 174.651 38.1847 174.912 37.7358C175.179 37.2812 175.313 36.7955 175.313 36.2784V34.5909C175.222 34.6818 175.046 34.767 174.784 34.8466C174.529 34.9205 174.236 34.9858 173.907 35.0426C173.577 35.0937 173.256 35.142 172.943 35.1875C172.631 35.2273 172.37 35.2614 172.159 35.2898C171.665 35.3523 171.213 35.4574 170.804 35.6051C170.401 35.7528 170.077 35.9659 169.833 36.2443C169.594 36.517 169.475 36.8807 169.475 37.3352C169.475 37.9659 169.708 38.4432 170.174 38.767C170.639 39.0852 171.233 39.2443 171.955 39.2443ZM181.197 45.9091C180.817 45.9091 180.47 45.8778 180.158 45.8153C179.845 45.7585 179.612 45.696 179.459 45.6278L180.072 43.5398C180.538 43.6648 180.953 43.7188 181.317 43.7017C181.68 43.6847 182.001 43.5483 182.28 43.2926C182.564 43.0369 182.814 42.6193 183.03 42.0398L183.345 41.1705L178.555 27.9091H181.283L184.598 38.0682H184.734L188.05 27.9091H190.785L185.39 42.7472C185.14 43.429 184.822 44.0057 184.436 44.4773C184.05 44.9545 183.589 45.3125 183.055 45.5511C182.521 45.7898 181.902 45.9091 181.197 45.9091ZM197.336 41V23.5455H203.558C204.916 23.5455 206.041 23.7926 206.933 24.2869C207.825 24.7812 208.493 25.4574 208.936 26.3153C209.379 27.1676 209.601 28.1278 209.601 29.196C209.601 30.2699 209.376 31.2358 208.927 32.0938C208.484 32.946 207.814 33.6222 206.916 34.1222C206.024 34.6165 204.902 34.8636 203.549 34.8636H199.271V32.6307H203.311C204.169 32.6307 204.865 32.483 205.399 32.1875C205.933 31.8864 206.325 31.4773 206.575 30.9602C206.825 30.4432 206.95 29.8551 206.95 29.196C206.95 28.5369 206.825 27.9517 206.575 27.4403C206.325 26.929 205.93 26.5284 205.39 26.2386C204.856 25.9489 204.152 25.804 203.277 25.804H199.97V41H197.336ZM211.283 41V27.9091H213.746V29.9886H213.883C214.121 29.2841 214.542 28.7301 215.144 28.3267C215.752 27.9176 216.44 27.7131 217.207 27.7131C217.366 27.7131 217.553 27.7187 217.769 27.7301C217.991 27.7415 218.164 27.7557 218.289 27.7727V30.2102C218.187 30.1818 218.005 30.1506 217.744 30.1165C217.482 30.0767 217.221 30.0568 216.96 30.0568C216.357 30.0568 215.82 30.1847 215.349 30.4403C214.883 30.6903 214.513 31.0398 214.241 31.4886C213.968 31.9318 213.832 32.4375 213.832 33.0057V41H211.283ZM224.34 41.2642C223.113 41.2642 222.041 40.983 221.127 40.4205C220.212 39.858 219.502 39.071 218.996 38.0597C218.49 37.0483 218.238 35.8665 218.238 34.5142C218.238 33.1562 218.49 31.9687 218.996 30.9517C219.502 29.9347 220.212 29.1449 221.127 28.5824C222.041 28.0199 223.113 27.7386 224.34 27.7386C225.567 27.7386 226.638 28.0199 227.553 28.5824C228.468 29.1449 229.178 29.9347 229.684 30.9517C230.189 31.9687 230.442 33.1562 230.442 34.5142C230.442 35.8665 230.189 37.0483 229.684 38.0597C229.178 39.071 228.468 39.858 227.553 40.4205C226.638 40.983 225.567 41.2642 224.34 41.2642ZM224.348 39.125C225.144 39.125 225.803 38.9148 226.326 38.4943C226.848 38.0739 227.235 37.5142 227.485 36.8153C227.74 36.1165 227.868 35.3466 227.868 34.5057C227.868 33.6705 227.74 32.9034 227.485 32.2045C227.235 31.5 226.848 30.9347 226.326 30.5085C225.803 30.0824 225.144 29.8693 224.348 29.8693C223.547 29.8693 222.882 30.0824 222.354 30.5085C221.831 30.9347 221.442 31.5 221.186 32.2045C220.936 32.9034 220.811 33.6705 220.811 34.5057C220.811 35.3466 220.936 36.1165 221.186 36.8153C221.442 37.5142 221.831 38.0739 222.354 38.4943C222.882 38.9148 223.547 39.125 224.348 39.125ZM236.987 41.2557C235.93 41.2557 234.987 40.9858 234.158 40.446C233.334 39.9006 232.686 39.125 232.214 38.1193C231.748 37.108 231.515 35.8949 231.515 34.4801C231.515 33.0653 231.751 31.8551 232.223 30.8494C232.7 29.8437 233.354 29.0739 234.183 28.5398C235.013 28.0057 235.953 27.7386 237.004 27.7386C237.817 27.7386 238.47 27.875 238.964 28.1477C239.464 28.4148 239.851 28.7273 240.123 29.0852C240.402 29.4432 240.618 29.7585 240.771 30.0312H240.925V23.5455H243.473V41H240.984V38.9631H240.771C240.618 39.2415 240.396 39.5597 240.106 39.9176C239.822 40.2756 239.43 40.5881 238.93 40.8551C238.43 41.1222 237.783 41.2557 236.987 41.2557ZM237.55 39.0824C238.283 39.0824 238.902 38.8892 239.408 38.5028C239.919 38.1108 240.305 37.5682 240.567 36.875C240.834 36.1818 240.967 35.375 240.967 34.4545C240.967 33.5455 240.837 32.75 240.575 32.0682C240.314 31.3864 239.93 30.8551 239.425 30.4744C238.919 30.0937 238.294 29.9034 237.55 29.9034C236.783 29.9034 236.143 30.1023 235.632 30.5C235.121 30.8977 234.734 31.4403 234.473 32.1278C234.217 32.8153 234.089 33.5909 234.089 34.4545C234.089 35.3295 234.22 36.1165 234.481 36.8153C234.743 37.5142 235.129 38.0682 235.64 38.4773C236.158 38.8807 236.794 39.0824 237.55 39.0824ZM254.203 35.571V27.9091H256.759V41H254.254V38.733H254.117C253.816 39.4318 253.333 40.0142 252.668 40.4801C252.009 40.9403 251.188 41.1705 250.205 41.1705C249.364 41.1705 248.62 40.9858 247.972 40.6165C247.33 40.2415 246.825 39.6875 246.455 38.9545C246.092 38.2216 245.91 37.3153 245.91 36.2358V27.9091H248.458V35.929C248.458 36.821 248.705 37.5312 249.2 38.0597C249.694 38.5881 250.336 38.8523 251.126 38.8523C251.603 38.8523 252.078 38.733 252.549 38.4943C253.026 38.2557 253.421 37.8949 253.734 37.4119C254.052 36.929 254.208 36.3153 254.203 35.571ZM264.498 41.2642C263.231 41.2642 262.14 40.9773 261.225 40.4034C260.316 39.8239 259.617 39.0256 259.128 38.0085C258.64 36.9915 258.395 35.8267 258.395 34.5142C258.395 33.1847 258.645 32.0114 259.145 30.9943C259.645 29.9716 260.35 29.1733 261.259 28.5994C262.168 28.0256 263.239 27.7386 264.472 27.7386C265.466 27.7386 266.353 27.9233 267.131 28.2926C267.91 28.6562 268.537 29.1676 269.015 29.8267C269.498 30.4858 269.785 31.2557 269.875 32.1364H267.395C267.259 31.5227 266.946 30.9943 266.458 30.5511C265.975 30.108 265.327 29.8864 264.515 29.8864C263.804 29.8864 263.182 30.0739 262.648 30.4489C262.12 30.8182 261.708 31.3466 261.412 32.0341C261.117 32.7159 260.969 33.5227 260.969 34.4545C260.969 35.4091 261.114 36.233 261.404 36.9261C261.694 37.6193 262.103 38.1562 262.631 38.5369C263.165 38.9176 263.793 39.108 264.515 39.108C264.998 39.108 265.435 39.0199 265.827 38.8438C266.225 38.6619 266.557 38.4034 266.824 38.0682C267.097 37.733 267.287 37.3295 267.395 36.858H269.875C269.785 37.7045 269.509 38.4602 269.049 39.125C268.588 39.7898 267.972 40.3125 267.199 40.6932C266.432 41.0739 265.532 41.2642 264.498 41.2642ZM277.511 27.9091V29.9545H270.361V27.9091H277.511ZM272.278 24.7727H274.827V37.1562C274.827 37.6506 274.901 38.0227 275.048 38.2727C275.196 38.517 275.386 38.6847 275.619 38.7756C275.858 38.8608 276.116 38.9034 276.395 38.9034C276.599 38.9034 276.778 38.8892 276.932 38.8608C277.085 38.8324 277.205 38.8097 277.29 38.7926L277.75 40.8977C277.602 40.9545 277.392 41.0114 277.119 41.0682C276.847 41.1307 276.506 41.1648 276.097 41.1705C275.426 41.1818 274.801 41.0625 274.222 40.8125C273.642 40.5625 273.173 40.1761 272.815 39.6534C272.457 39.1307 272.278 38.4744 272.278 37.6847V24.7727ZM288.729 31.1051L286.419 31.5142C286.323 31.2187 286.169 30.9375 285.959 30.6705C285.755 30.4034 285.476 30.1847 285.124 30.0142C284.772 29.8437 284.331 29.7585 283.803 29.7585C283.081 29.7585 282.479 29.9205 281.996 30.2443C281.513 30.5625 281.272 30.9744 281.272 31.4801C281.272 31.9176 281.434 32.2699 281.757 32.5369C282.081 32.804 282.604 33.0227 283.326 33.1932L285.405 33.6705C286.61 33.9489 287.507 34.3778 288.098 34.9574C288.689 35.5369 288.985 36.2898 288.985 37.2159C288.985 38 288.757 38.6989 288.303 39.3125C287.854 39.9205 287.226 40.3977 286.419 40.7443C285.618 41.0909 284.689 41.2642 283.632 41.2642C282.166 41.2642 280.97 40.9517 280.044 40.3267C279.118 39.696 278.55 38.8011 278.34 37.642L280.803 37.267C280.956 37.9091 281.272 38.3949 281.749 38.7244C282.226 39.0483 282.848 39.2102 283.615 39.2102C284.451 39.2102 285.118 39.0369 285.618 38.6903C286.118 38.3381 286.368 37.9091 286.368 37.4034C286.368 36.9943 286.215 36.6506 285.908 36.3722C285.607 36.0937 285.144 35.8835 284.519 35.7415L282.303 35.2557C281.081 34.9773 280.178 34.5341 279.593 33.9261C279.013 33.3182 278.723 32.5483 278.723 31.6165C278.723 30.8437 278.939 30.1676 279.371 29.5881C279.803 29.0085 280.399 28.5568 281.161 28.233C281.922 27.9034 282.794 27.7386 283.777 27.7386C285.192 27.7386 286.306 28.0455 287.118 28.6591C287.931 29.267 288.468 30.0824 288.729 31.1051Z" fill="#F5AB35"/>
</svg>
