<svg width="14" height="14" viewBox="0 0 14 14" fill="none" xmlns="http://www.w3.org/2000/svg">
<circle cx="7" cy="7" r="6" fill="#FF9100"/>
<path d="M6.4728 7C7.12819 7 7.65953 7.5117 7.65953 8.14286C7.65953 8.46632 7.51997 8.75844 7.29568 8.96636L6.54009 9.66651L7.65953 9.66667V10.4286H5.28606L5.28571 9.77166L6.74709 8.41737C6.8219 8.34792 6.86838 8.25063 6.86838 8.14286C6.86838 7.93246 6.69128 7.7619 6.4728 7.7619C6.25432 7.7619 6.07722 7.93246 6.07722 8.14286H5.28606C5.28606 7.5117 5.81737 7 6.4728 7ZM8.84626 7V8.52381H9.63741V7H10.4286V10.4286H9.63741V9.28571H8.0551V7H8.84626Z" fill="white"/>
<path fill-rule="evenodd" clip-rule="evenodd" d="M4.42857 8.24354C4.24659 7.86763 4.14455 7.4458 4.14455 7.00014H3.43027C3.43027 7.96184 3.81038 8.83475 4.42857 9.47685V8.24354ZM10.4696 6.14286H9.72799C9.36386 4.98375 8.28096 4.143 7.0017 4.143C6.12175 4.143 5.33471 4.54079 4.8106 5.16636L5.57312 5.92871H3.43027V3.78585L4.30404 4.6596C4.95885 3.90553 5.92459 3.42871 7.0017 3.42871C8.67863 3.42871 10.0856 4.58446 10.4696 6.14286Z" fill="white"/>
</svg>
