<svg width="175" height="160" viewBox="0 0 175 160" fill="none" xmlns="http://www.w3.org/2000/svg">
<path d="M26.8665 129.562V113.562H36.5228V115.28H28.804V120.687H36.0228V122.405H28.804V127.843H36.6478V129.562H26.8665ZM48.4775 117.562L44.04 129.562H42.165L37.7275 117.562H39.7275L43.04 127.124H43.165L46.4775 117.562H48.4775ZM54.4126 129.812C53.2564 129.812 52.259 129.556 51.4204 129.046C50.5871 128.53 49.9439 127.812 49.4907 126.89C49.0428 125.963 48.8189 124.884 48.8189 123.655C48.8189 122.426 49.0428 121.343 49.4907 120.405C49.9439 119.463 50.5741 118.728 51.3814 118.202C52.1939 117.671 53.1418 117.405 54.2251 117.405C54.8501 117.405 55.4673 117.509 56.0767 117.718C56.686 117.926 57.2407 118.265 57.7407 118.733C58.2407 119.197 58.6392 119.812 58.936 120.577C59.2329 121.343 59.3814 122.285 59.3814 123.405V124.187H50.1314V122.593H57.5064C57.5064 121.916 57.3709 121.312 57.1001 120.78C56.8345 120.249 56.4543 119.83 55.9595 119.522C55.4699 119.215 54.8918 119.062 54.2251 119.062C53.4907 119.062 52.8553 119.244 52.3189 119.608C51.7876 119.968 51.3788 120.437 51.0923 121.015C50.8058 121.593 50.6626 122.213 50.6626 122.874V123.937C50.6626 124.843 50.8189 125.611 51.1314 126.241C51.4491 126.866 51.8892 127.343 52.4517 127.671C53.0142 127.994 53.6678 128.155 54.4126 128.155C54.897 128.155 55.3345 128.088 55.7251 127.952C56.1209 127.812 56.4621 127.603 56.7485 127.327C57.035 127.046 57.2564 126.697 57.4126 126.28L59.1939 126.78C59.0064 127.384 58.6913 127.916 58.2485 128.374C57.8058 128.827 57.259 129.181 56.6079 129.437C55.9569 129.687 55.2251 129.812 54.4126 129.812ZM62.9298 122.343V129.562H61.086V117.562H62.8673V119.437H63.0235C63.3048 118.827 63.7319 118.338 64.3048 117.968C64.8777 117.593 65.6173 117.405 66.5235 117.405C67.336 117.405 68.047 117.572 68.6564 117.905C69.2657 118.233 69.7397 118.733 70.0782 119.405C70.4168 120.072 70.586 120.916 70.586 121.937V129.562H68.7423V122.062C68.7423 121.119 68.4975 120.384 68.0079 119.858C67.5183 119.327 66.8465 119.062 65.9923 119.062C65.4038 119.062 64.8777 119.189 64.4142 119.444C63.9558 119.7 63.5939 120.072 63.3282 120.562C63.0626 121.051 62.9298 121.645 62.9298 122.343ZM82.8177 129.812C81.7344 129.812 80.7838 129.554 79.9661 129.038C79.1536 128.522 78.5182 127.801 78.0599 126.874C77.6068 125.947 77.3802 124.864 77.3802 123.624C77.3802 122.374 77.6068 121.283 78.0599 120.351C78.5182 119.418 79.1536 118.694 79.9661 118.179C80.7838 117.663 81.7344 117.405 82.8177 117.405C83.901 117.405 84.8489 117.663 85.6614 118.179C86.4791 118.694 87.1146 119.418 87.5677 120.351C88.026 121.283 88.2552 122.374 88.2552 123.624C88.2552 124.864 88.026 125.947 87.5677 126.874C87.1146 127.801 86.4791 128.522 85.6614 129.038C84.8489 129.554 83.901 129.812 82.8177 129.812ZM82.8177 128.155C83.6406 128.155 84.3177 127.944 84.8489 127.522C85.3802 127.101 85.7734 126.546 86.0286 125.858C86.2838 125.171 86.4114 124.426 86.4114 123.624C86.4114 122.822 86.2838 122.075 86.0286 121.382C85.7734 120.689 85.3802 120.129 84.8489 119.702C84.3177 119.275 83.6406 119.062 82.8177 119.062C81.9948 119.062 81.3177 119.275 80.7864 119.702C80.2552 120.129 79.862 120.689 79.6068 121.382C79.3515 122.075 79.2239 122.822 79.2239 123.624C79.2239 124.426 79.3515 125.171 79.6068 125.858C79.862 126.546 80.2552 127.101 80.7864 127.522C81.3177 127.944 81.9948 128.155 82.8177 128.155ZM91.8134 122.343V129.562H89.9696V117.562H91.7509V119.437H91.9071C92.1884 118.827 92.6155 118.338 93.1884 117.968C93.7613 117.593 94.5009 117.405 95.4071 117.405C96.2196 117.405 96.9306 117.572 97.54 117.905C98.1493 118.233 98.6233 118.733 98.9618 119.405C99.3004 120.072 99.4696 120.916 99.4696 121.937V129.562H97.6259V122.062C97.6259 121.119 97.3811 120.384 96.8915 119.858C96.4019 119.327 95.7301 119.062 94.8759 119.062C94.2874 119.062 93.7613 119.189 93.2978 119.444C92.8394 119.7 92.4775 120.072 92.2118 120.562C91.9462 121.051 91.8134 121.645 91.8134 122.343ZM115.326 120.249L113.67 120.718C113.566 120.442 113.412 120.174 113.209 119.913C113.011 119.647 112.74 119.429 112.397 119.257C112.053 119.085 111.613 118.999 111.076 118.999C110.342 118.999 109.73 119.168 109.24 119.507C108.756 119.84 108.514 120.265 108.514 120.78C108.514 121.239 108.68 121.601 109.014 121.866C109.347 122.132 109.868 122.353 110.576 122.53L112.358 122.968C113.43 123.228 114.23 123.627 114.756 124.163C115.282 124.694 115.545 125.379 115.545 126.218C115.545 126.905 115.347 127.52 114.951 128.062C114.561 128.603 114.014 129.03 113.311 129.343C112.608 129.655 111.79 129.812 110.858 129.812C109.634 129.812 108.621 129.546 107.818 129.015C107.016 128.483 106.509 127.707 106.295 126.687L108.045 126.249C108.212 126.895 108.527 127.379 108.99 127.702C109.459 128.025 110.071 128.187 110.826 128.187C111.686 128.187 112.368 128.004 112.873 127.64C113.384 127.27 113.639 126.827 113.639 126.312C113.639 125.895 113.493 125.546 113.201 125.265C112.91 124.978 112.462 124.765 111.858 124.624L109.858 124.155C108.759 123.895 107.951 123.491 107.436 122.944C106.925 122.392 106.67 121.702 106.67 120.874C106.67 120.197 106.86 119.598 107.24 119.077C107.626 118.556 108.149 118.147 108.811 117.851C109.477 117.554 110.233 117.405 111.076 117.405C112.264 117.405 113.196 117.666 113.873 118.187C114.555 118.707 115.04 119.395 115.326 120.249ZM120.752 129.843C119.991 129.843 119.301 129.7 118.681 129.413C118.062 129.121 117.569 128.702 117.205 128.155C116.84 127.603 116.658 126.937 116.658 126.155C116.658 125.468 116.793 124.91 117.064 124.483C117.335 124.051 117.697 123.713 118.15 123.468C118.603 123.223 119.103 123.041 119.65 122.921C120.202 122.796 120.757 122.697 121.314 122.624C122.043 122.53 122.634 122.46 123.088 122.413C123.546 122.361 123.879 122.275 124.088 122.155C124.301 122.035 124.408 121.827 124.408 121.53V121.468C124.408 120.697 124.197 120.098 123.775 119.671C123.358 119.244 122.726 119.03 121.877 119.03C120.996 119.03 120.306 119.223 119.806 119.608C119.306 119.994 118.955 120.405 118.752 120.843L117.002 120.218C117.314 119.489 117.731 118.921 118.252 118.515C118.778 118.103 119.351 117.817 119.97 117.655C120.595 117.489 121.21 117.405 121.814 117.405C122.2 117.405 122.642 117.452 123.142 117.546C123.648 117.634 124.134 117.819 124.603 118.101C125.077 118.382 125.47 118.806 125.783 119.374C126.095 119.942 126.252 120.702 126.252 121.655V129.562H124.408V127.937H124.314C124.189 128.197 123.981 128.476 123.689 128.772C123.398 129.069 123.009 129.322 122.525 129.53C122.041 129.739 121.45 129.843 120.752 129.843ZM121.033 128.187C121.762 128.187 122.377 128.043 122.877 127.757C123.382 127.47 123.762 127.101 124.017 126.647C124.278 126.194 124.408 125.718 124.408 125.218V123.53C124.33 123.624 124.158 123.71 123.892 123.788C123.632 123.861 123.33 123.926 122.986 123.983C122.648 124.035 122.317 124.082 121.994 124.124C121.676 124.16 121.418 124.192 121.22 124.218C120.741 124.28 120.293 124.382 119.877 124.522C119.465 124.658 119.132 124.864 118.877 125.14C118.627 125.41 118.502 125.78 118.502 126.249C118.502 126.89 118.739 127.374 119.213 127.702C119.692 128.025 120.299 128.187 121.033 128.187ZM128.517 129.562V117.562H130.298V119.437H130.454C130.704 118.796 131.108 118.299 131.665 117.944C132.223 117.585 132.892 117.405 133.673 117.405C134.465 117.405 135.124 117.585 135.65 117.944C136.181 118.299 136.595 118.796 136.892 119.437H137.017C137.324 118.817 137.785 118.325 138.4 117.96C139.014 117.59 139.751 117.405 140.611 117.405C141.684 117.405 142.561 117.741 143.243 118.413C143.926 119.08 144.267 120.119 144.267 121.53V129.562H142.423V121.53C142.423 120.645 142.181 120.012 141.697 119.632C141.212 119.252 140.642 119.062 139.986 119.062C139.142 119.062 138.488 119.317 138.025 119.827C137.561 120.332 137.329 120.973 137.329 121.749V129.562H135.454V121.343C135.454 120.66 135.233 120.111 134.79 119.694C134.348 119.272 133.777 119.062 133.079 119.062C132.6 119.062 132.152 119.189 131.736 119.444C131.324 119.7 130.991 120.054 130.736 120.507C130.486 120.955 130.361 121.473 130.361 122.062V129.562H128.517ZM151.569 129.812C150.413 129.812 149.416 129.556 148.577 129.046C147.744 128.53 147.101 127.812 146.647 126.89C146.199 125.963 145.976 124.884 145.976 123.655C145.976 122.426 146.199 121.343 146.647 120.405C147.101 119.463 147.731 118.728 148.538 118.202C149.351 117.671 150.298 117.405 151.382 117.405C152.007 117.405 152.624 117.509 153.233 117.718C153.843 117.926 154.397 118.265 154.897 118.733C155.397 119.197 155.796 119.812 156.093 120.577C156.39 121.343 156.538 122.285 156.538 123.405V124.187H147.288V122.593H154.663C154.663 121.916 154.528 121.312 154.257 120.78C153.991 120.249 153.611 119.83 153.116 119.522C152.627 119.215 152.048 119.062 151.382 119.062C150.647 119.062 150.012 119.244 149.476 119.608C148.944 119.968 148.535 120.437 148.249 121.015C147.962 121.593 147.819 122.213 147.819 122.874V123.937C147.819 124.843 147.976 125.611 148.288 126.241C148.606 126.866 149.046 127.343 149.608 127.671C150.171 127.994 150.824 128.155 151.569 128.155C152.054 128.155 152.491 128.088 152.882 127.952C153.278 127.812 153.619 127.603 153.905 127.327C154.192 127.046 154.413 126.697 154.569 126.28L156.351 126.78C156.163 127.384 155.848 127.916 155.405 128.374C154.962 128.827 154.416 129.181 153.765 129.437C153.114 129.687 152.382 129.812 151.569 129.812ZM31.1478 151.812C30.1478 151.812 29.265 151.559 28.4993 151.054C27.7337 150.543 27.1347 149.825 26.7025 148.897C26.2702 147.965 26.054 146.864 26.054 145.593C26.054 144.332 26.2702 143.239 26.7025 142.312C27.1347 141.384 27.7363 140.668 28.5071 140.163C29.278 139.658 30.1686 139.405 31.179 139.405C31.9603 139.405 32.5775 139.535 33.0306 139.796C33.4889 140.051 33.8379 140.343 34.0775 140.671C34.3222 140.994 34.5123 141.259 34.6478 141.468H34.804V135.562H36.6478V151.562H34.8665V149.718H34.6478C34.5123 149.937 34.3196 150.213 34.0696 150.546C33.8196 150.874 33.4629 151.168 32.9993 151.429C32.5358 151.684 31.9186 151.812 31.1478 151.812ZM31.3978 150.155C32.1373 150.155 32.7623 149.963 33.2728 149.577C33.7832 149.187 34.1712 148.647 34.4368 147.96C34.7025 147.267 34.8353 146.468 34.8353 145.562C34.8353 144.666 34.7051 143.882 34.4446 143.21C34.1842 142.533 33.7988 142.007 33.2884 141.632C32.778 141.252 32.1478 141.062 31.3978 141.062C30.6165 141.062 29.9655 141.262 29.4446 141.663C28.929 142.059 28.541 142.598 28.2806 143.28C28.0254 143.957 27.8978 144.718 27.8978 145.562C27.8978 146.416 28.028 147.192 28.2884 147.89C28.554 148.582 28.9446 149.134 29.4603 149.546C29.9811 149.952 30.6269 150.155 31.3978 150.155ZM42.7118 151.843C41.9514 151.843 41.2613 151.7 40.6415 151.413C40.0217 151.121 39.5295 150.702 39.165 150.155C38.8004 149.603 38.6181 148.937 38.6181 148.155C38.6181 147.468 38.7535 146.91 39.0243 146.483C39.2952 146.051 39.6571 145.713 40.1103 145.468C40.5634 145.223 41.0634 145.041 41.6103 144.921C42.1623 144.796 42.717 144.697 43.2743 144.624C44.0035 144.53 44.5946 144.46 45.0478 144.413C45.5061 144.361 45.8394 144.275 46.0478 144.155C46.2613 144.035 46.3681 143.827 46.3681 143.53V143.468C46.3681 142.697 46.1571 142.098 45.7353 141.671C45.3186 141.244 44.6858 141.03 43.8368 141.03C42.9566 141.03 42.2665 141.223 41.7665 141.608C41.2665 141.994 40.915 142.405 40.7118 142.843L38.9618 142.218C39.2743 141.489 39.691 140.921 40.2118 140.515C40.7379 140.103 41.3108 139.817 41.9306 139.655C42.5556 139.489 43.1702 139.405 43.7743 139.405C44.1597 139.405 44.6025 139.452 45.1025 139.546C45.6077 139.634 46.0946 139.819 46.5634 140.101C47.0373 140.382 47.4306 140.806 47.7431 141.374C48.0556 141.942 48.2118 142.702 48.2118 143.655V151.562H46.3681V149.937H46.2743C46.1493 150.197 45.941 150.476 45.6493 150.772C45.3577 151.069 44.9696 151.322 44.4853 151.53C44.0009 151.739 43.4097 151.843 42.7118 151.843ZM42.9931 150.187C43.7222 150.187 44.3368 150.043 44.8368 149.757C45.342 149.47 45.7222 149.101 45.9775 148.647C46.2379 148.194 46.3681 147.718 46.3681 147.218V145.53C46.29 145.624 46.1181 145.71 45.8525 145.788C45.592 145.861 45.29 145.926 44.9462 145.983C44.6077 146.035 44.2769 146.082 43.954 146.124C43.6363 146.16 43.3785 146.192 43.1806 146.218C42.7014 146.28 42.2535 146.382 41.8368 146.522C41.4254 146.658 41.092 146.864 40.8368 147.14C40.5868 147.41 40.4618 147.78 40.4618 148.249C40.4618 148.89 40.6988 149.374 41.1728 149.702C41.6519 150.025 42.2587 150.187 42.9931 150.187ZM51.2349 156.062C50.9224 156.062 50.6437 156.035 50.3989 155.983C50.1541 155.937 49.9849 155.89 49.8911 155.843L50.3599 154.218C50.8078 154.332 51.2036 154.374 51.5474 154.343C51.8911 154.312 52.1958 154.158 52.4614 153.882C52.7323 153.611 52.9797 153.171 53.2036 152.562L53.5474 151.624L49.1099 139.562H51.1099L54.4224 149.124H54.5474L57.8599 139.562H59.8599L54.7661 153.312C54.537 153.931 54.2531 154.444 53.9146 154.851C53.576 155.262 53.1828 155.567 52.7349 155.765C52.2922 155.963 51.7922 156.062 51.2349 156.062Z" fill="#FAFAFA"/>
<path d="M109.414 75.9515C110.195 75.1705 110.195 73.9042 109.414 73.1231C108.633 72.3421 107.367 72.3421 106.586 73.1231L109.414 75.9515ZM91.6478 85.3271L90.9022 83.4713L90.9022 83.4713L91.6478 85.3271ZM72.2226 88.9117L72.2524 86.9119L72.2226 88.9117ZM52.6817 84.7455L51.897 86.5852L52.6817 84.7455ZM106.586 73.1231C102.12 77.5885 96.7917 81.105 90.9022 83.4713L92.3934 87.1829C98.7813 84.6164 104.566 80.8002 109.414 75.9515L106.586 73.1231ZM90.9022 83.4713C85.0125 85.8375 78.6757 87.0078 72.2524 86.9119L72.1927 90.9115C79.1411 91.0152 86.0056 89.7493 92.3934 87.1829L90.9022 83.4713ZM72.2524 86.9119C65.829 86.8161 59.4451 85.4558 53.4663 82.9058L51.897 86.5852C58.3484 89.3367 65.2445 90.8078 72.1927 90.9115L72.2524 86.9119ZM53.4663 82.9058C47.4874 80.3558 42.0324 76.6667 37.4142 72.0485L34.5858 74.8769C39.5639 79.855 45.4458 83.8337 51.897 86.5852L53.4663 82.9058Z" fill="#FAFAFA"/>
<path d="M36 73.4627C31.2724 68.7351 27.5083 63.1365 24.9228 56.9867C22.3372 50.8368 20.9808 44.256 20.9309 37.6201C20.881 30.9841 22.1386 24.423 24.632 18.3113C27.1254 12.1996 30.8056 6.65703 35.4626 2" stroke="#FAFAFA" stroke-width="4" stroke-dasharray="4 11"/>
<path d="M63.5025 60.3816H49.5784C47.3693 60.3816 45.5784 58.5907 45.5784 56.3816V18.291C45.5784 16.0819 47.3693 14.291 49.5784 14.291H87.669C89.8781 14.291 91.669 16.0819 91.669 18.291V33.7515" stroke="white" stroke-width="4" stroke-linecap="round"/>
<path d="M45.0663 27.606H93.2054" stroke="white" stroke-width="4"/>
<path d="M69.1359 14.291L69.1359 28.6303" stroke="white" stroke-width="4"/>
<circle cx="83.4752" cy="52.1874" r="12.3393" stroke="white" stroke-width="4"/>
<path d="M83.4751 46.5542V53.2117L79.8903 57.3087" stroke="white" stroke-width="4" stroke-linecap="round" stroke-linejoin="round"/>
</svg>
