<svg width="14" height="14" viewBox="0 0 14 14" fill="none" xmlns="http://www.w3.org/2000/svg">
<path d="M4.5 1.5V2.5H2.5C2.22386 2.5 2 2.72386 2 3V11C2 11.2761 2.22386 11.5 2.5 11.5H6.3773C5.82836 10.8152 5.5 9.94595 5.5 9C5.5 6.79085 7.29085 5 9.5 5C10.4459 5 11.3152 5.32836 12 5.87732V3C12 2.72386 11.7761 2.5 11.5 2.5H9.5V1.5H8.5V2.5H5.5V1.5H4.5ZM12.5 9C12.5 10.6568 11.1568 12 9.5 12C7.84315 12 6.5 10.6568 6.5 9C6.5 7.34315 7.84315 6 9.5 6C11.1568 6 12.5 7.34315 12.5 9ZM9 7V9.2071L10.1465 10.3535L10.8535 9.64645L10 8.7929V7H9Z" fill="#FF9100"/>
</svg>
