<svg width="42" height="37" viewBox="0 0 42 37" fill="none" xmlns="http://www.w3.org/2000/svg">
<circle cx="16.2781" cy="20.7176" r="16.2781" fill="#FF9100"/>
<g clip-path="url(#clip0_3869_1190)">
<path d="M17.9224 11.8389V14.7985H22.0331V17.7582H12.9896C12.7716 17.7582 12.5625 17.8361 12.4083 17.9749C12.2541 18.1137 12.1675 18.3019 12.1675 18.4981C12.1689 18.6729 12.239 18.8416 12.3654 18.9744C12.4918 19.1071 12.6664 19.1953 12.8581 19.2232H19.5667C20.6569 19.2232 21.7024 19.613 22.4733 20.3068C23.2442 21.0006 23.6773 21.9416 23.6773 22.9228C23.6773 23.904 23.2442 24.845 22.4733 25.5388C21.7024 26.2326 20.6569 26.6224 19.5667 26.6224H17.9224V29.582H14.6339V26.6372H10.5233V23.6775H19.5667C19.7847 23.6775 19.9938 23.5996 20.148 23.4608C20.3022 23.322 20.3888 23.1338 20.3888 22.9376C20.3914 22.7641 20.3248 22.5956 20.2011 22.4626C20.0774 22.3295 19.9048 22.2408 19.7147 22.2125H12.9896C11.8994 22.2125 10.8539 21.8227 10.083 21.1289C9.31208 20.4351 8.879 19.4941 8.879 18.5129C8.879 17.5317 9.31208 16.5907 10.083 15.8969C10.8539 15.2031 11.8994 14.8133 12.9896 14.8133H14.6339V11.8389H17.9224Z" fill="white"/>
</g>
<g clip-path="url(#clip1_3869_1190)">
<g filter="url(#filter0_b_3869_1190)">
<path d="M30.3366 0L40.4734 2.33881C40.7516 2.40373 40.9995 2.56656 41.1748 2.79958C41.3502 3.0326 41.4423 3.32141 41.4353 3.61684V16.3972C41.4371 17.6611 41.1375 18.9058 40.563 20.0207C39.9886 21.1355 39.1571 22.0859 38.1427 22.7874L30.3366 28.1168L22.5305 22.7235C21.516 22.022 20.6846 21.0716 20.1101 19.9568C19.5357 18.8419 19.236 17.5972 19.2378 16.3333V3.5785C19.2309 3.28307 19.3229 2.99426 19.4983 2.76124C19.6737 2.52822 19.9215 2.36539 20.1997 2.30046L30.3366 0Z" fill="#5E44FF" fill-opacity="0.8"/>
</g>
<path d="M26.637 12.6313L30.2994 16.2937L35.5314 11.0617" stroke="white" stroke-width="2" stroke-linecap="round" stroke-linejoin="round"/>
</g>
<defs>
<filter id="filter0_b_3869_1190" x="17.2375" y="-2" width="26.1982" height="32.1167" filterUnits="userSpaceOnUse" color-interpolation-filters="sRGB">
<feFlood flood-opacity="0" result="BackgroundImageFix"/>
<feGaussianBlur in="BackgroundImageFix" stdDeviation="1"/>
<feComposite in2="SourceAlpha" operator="in" result="effect1_backgroundBlur_3869_1190"/>
<feBlend mode="normal" in="SourceGraphic" in2="effect1_backgroundBlur_3869_1190" result="shape"/>
</filter>
<clipPath id="clip0_3869_1190">
<rect width="14.7983" height="17.758" fill="white" transform="translate(8.879 11.8389)"/>
</clipPath>
<clipPath id="clip1_3869_1190">
<rect width="22.1975" height="28.1168" fill="white" transform="translate(19.2378)"/>
</clipPath>
</defs>
</svg>
