<svg width="33" height="32" viewBox="0 0 33 32" fill="none" xmlns="http://www.w3.org/2000/svg">
<path d="M3.17334 12.6662V5.33285C3.17334 4.59647 3.7703 3.99951 4.50667 3.99951H28.5067C29.2431 3.99951 29.84 4.59647 29.84 5.33285V12.6662C27.9991 12.6662 26.5067 14.1586 26.5067 15.9996C26.5067 17.8405 27.9991 19.3329 29.84 19.3329V26.6662C29.84 27.4025 29.2431 27.9996 28.5067 27.9996H4.50667C3.7703 27.9996 3.17334 27.4025 3.17334 26.6662V19.3329C5.01429 19.3329 6.50667 17.8405 6.50667 15.9996C6.50667 14.1586 5.01429 12.6662 3.17334 12.6662ZM12.5067 11.9995V14.6662H20.5067V11.9995H12.5067ZM12.5067 17.3329V19.9996H20.5067V17.3329H12.5067Z" fill="#FF9100"/>
</svg>
