<svg width="381" height="39" viewBox="0 0 381 39" fill="none" xmlns="http://www.w3.org/2000/svg">
<rect x="3.5" y="8.5" width="377" height="30" rx="15" fill="#FFF8EF" stroke="#FB8700"/>
<rect x="14.85" y="2.47559" width="3.3" height="4.95" fill="#E17A01"/>
<rect x="25.0042" y="4.95117" width="3.29833" height="5.45759" rx="1" transform="rotate(30 25.0042 4.95117)" fill="#E17A01"/>
<rect x="21.4504" width="4.125" height="9.9" rx="2.0625" transform="rotate(90 21.4504 0)" fill="url(#paint0_linear_5620_2)"/>
<circle cx="16.5" cy="22.2739" r="16.5" fill="url(#paint1_linear_5620_2)"/>
<circle cx="16.5004" cy="22.2752" r="13.2" fill="url(#paint2_linear_5620_2)"/>
<circle cx="16.5" cy="22.2761" r="11.55" fill="url(#paint3_linear_5620_2)"/>
<path d="M16.5 22.2759V10.7262C16.5179 10.7262 16.536 10.7262 16.5542 10.7261C20.7369 10.7453 24.3944 12.9879 26.4056 16.3328L16.5 22.2759Z" fill="url(#paint4_linear_5620_2)"/>
<rect x="23.8065" y="17.106" width="1.65" height="13.2" rx="0.825" transform="rotate(60 23.8065 17.106)" fill="#F95554"/>
<circle cx="16.3598" cy="22.357" r="2.475" transform="rotate(60 16.3598 22.357)" fill="#F95554"/>
<circle cx="16.3597" cy="22.3565" r="1.65" transform="rotate(60 16.3597 22.3565)" fill="#F5A028"/>
<path d="M51.7195 22.2536H49.8601C49.8071 21.9486 49.7093 21.6785 49.5668 21.4432C49.4242 21.2045 49.2469 21.0024 49.0348 20.8366C48.8227 20.6709 48.5807 20.5466 48.3089 20.4638C48.0405 20.3776 47.7505 20.3345 47.4389 20.3345C46.8854 20.3345 46.3949 20.4737 45.9673 20.7521C45.5398 21.0272 45.205 21.4316 44.9631 21.9652C44.7211 22.4955 44.6001 23.1435 44.6001 23.9091C44.6001 24.688 44.7211 25.3442 44.9631 25.8778C45.2083 26.4081 45.5431 26.8092 45.9673 27.081C46.3949 27.3494 46.8838 27.4837 47.4339 27.4837C47.7389 27.4837 48.0239 27.4439 48.2891 27.3643C48.5575 27.2815 48.7978 27.1605 49.0099 27.0014C49.2254 26.8423 49.406 26.6468 49.5518 26.4148C49.701 26.1828 49.8037 25.9176 49.8601 25.6193L51.7195 25.6293C51.6499 26.1132 51.4991 26.5672 51.267 26.9915C51.0384 27.4157 50.7384 27.7902 50.3672 28.1151C49.996 28.4366 49.5618 28.6884 49.0646 28.8707C48.5675 29.0497 48.0156 29.1392 47.4091 29.1392C46.5142 29.1392 45.7154 28.9321 45.0128 28.5178C44.3101 28.1035 43.7566 27.5052 43.3523 26.723C42.9479 25.9408 42.7457 25.0028 42.7457 23.9091C42.7457 22.812 42.9496 21.8741 43.3572 21.0952C43.7649 20.313 44.3201 19.7147 45.0227 19.3004C45.7254 18.8861 46.5208 18.679 47.4091 18.679C47.9759 18.679 48.5028 18.7585 48.9901 18.9176C49.4773 19.0767 49.9115 19.3104 50.2926 19.6186C50.6738 19.9235 50.987 20.2981 51.2322 20.7422C51.4808 21.183 51.6432 21.6868 51.7195 22.2536ZM55.1287 24.5256V29H53.329V18.8182H55.089V22.6612H55.1784C55.3574 22.2304 55.6342 21.8906 56.0087 21.642C56.3865 21.3902 56.8671 21.2642 57.4505 21.2642C57.9808 21.2642 58.4431 21.3752 58.8375 21.5973C59.2319 21.8194 59.5369 22.1442 59.7523 22.5717C59.9711 22.9993 60.0804 23.5213 60.0804 24.1378V29H58.2807V24.4162C58.2807 23.9025 58.1481 23.5031 57.883 23.218C57.6212 22.9297 57.2533 22.7855 56.7793 22.7855C56.4611 22.7855 56.1761 22.8551 55.9242 22.9943C55.6756 23.1302 55.4801 23.3274 55.3375 23.5859C55.1983 23.8445 55.1287 24.1577 55.1287 24.5256ZM65.2956 29.1491C64.53 29.1491 63.8688 28.9901 63.312 28.6719C62.7585 28.3504 62.3326 27.8963 62.0343 27.3097C61.736 26.7197 61.5868 26.0253 61.5868 25.2266C61.5868 24.4411 61.736 23.7517 62.0343 23.1584C62.3359 22.5618 62.7568 22.0978 63.2971 21.7663C63.8373 21.4316 64.472 21.2642 65.2012 21.2642C65.6718 21.2642 66.1159 21.3404 66.5336 21.4929C66.9545 21.642 67.3257 21.8741 67.6472 22.1889C67.972 22.5038 68.2272 22.9048 68.4128 23.392C68.5984 23.8759 68.6912 24.4527 68.6912 25.1222V25.674H62.432V24.4609H66.9661C66.9628 24.1162 66.8882 23.8097 66.7424 23.5412C66.5965 23.2694 66.3927 23.0556 66.1309 22.8999C65.8723 22.7441 65.5707 22.6662 65.226 22.6662C64.8581 22.6662 64.535 22.7557 64.2566 22.9347C63.9782 23.1103 63.7611 23.3423 63.6053 23.6307C63.4528 23.9157 63.3749 24.2289 63.3716 24.5703V25.6293C63.3716 26.0734 63.4528 26.4545 63.6152 26.7727C63.7776 27.0876 64.0047 27.3295 64.2963 27.4986C64.588 27.6643 64.9294 27.7472 65.3205 27.7472C65.5823 27.7472 65.8193 27.7107 66.0314 27.6378C66.2435 27.5616 66.4275 27.4505 66.5833 27.3047C66.7391 27.1589 66.8567 26.9782 66.9363 26.7628L68.6167 26.9517C68.5106 27.3958 68.3084 27.7836 68.0101 28.1151C67.7151 28.4432 67.3373 28.6984 66.8766 28.8807C66.4159 29.0597 65.8889 29.1491 65.2956 29.1491ZM73.5447 29.1491C72.7824 29.1491 72.1278 28.9818 71.581 28.647C71.0374 28.3123 70.6181 27.8499 70.3232 27.2599C70.0315 26.6667 69.8857 25.9839 69.8857 25.2116C69.8857 24.4361 70.0348 23.7517 70.3331 23.1584C70.6314 22.5618 71.0523 22.0978 71.5959 21.7663C72.1428 21.4316 72.7891 21.2642 73.5348 21.2642C74.1546 21.2642 74.7031 21.3786 75.1804 21.6072C75.661 21.8326 76.0438 22.1525 76.3288 22.5668C76.6139 22.9777 76.7763 23.4583 76.8161 24.0085H75.0959C75.0263 23.6406 74.8606 23.334 74.5987 23.0888C74.3402 22.8402 73.9938 22.7159 73.5597 22.7159C73.1918 22.7159 72.8686 22.8153 72.5902 23.0142C72.3118 23.2098 72.0947 23.4915 71.9389 23.8594C71.7865 24.2273 71.7102 24.6681 71.7102 25.1818C71.7102 25.7022 71.7865 26.1496 71.9389 26.5241C72.0914 26.8954 72.3052 27.1821 72.5803 27.3842C72.8587 27.5831 73.1851 27.6825 73.5597 27.6825C73.8248 27.6825 74.0618 27.6328 74.2706 27.5334C74.4827 27.4306 74.66 27.2831 74.8026 27.0909C74.9451 26.8987 75.0429 26.665 75.0959 26.3899H76.8161C76.773 26.9302 76.6139 27.4091 76.3388 27.8267C76.0637 28.241 75.6892 28.5658 75.2152 28.8011C74.7412 29.0331 74.1844 29.1491 73.5447 29.1491ZM79.9345 26.6037L79.9295 24.4311H80.2179L82.9622 21.3636H85.0652L81.6895 25.1222H81.3166L79.9345 26.6037ZM78.2939 29V18.8182H80.0936V29H78.2939ZM83.0865 29L80.6007 25.5249L81.8137 24.2571L85.2392 29H83.0865ZM98.9148 23.9091C98.9148 25.0062 98.7093 25.9458 98.2983 26.728C97.8906 27.5069 97.3338 28.1035 96.6278 28.5178C95.9252 28.9321 95.1281 29.1392 94.2365 29.1392C93.3449 29.1392 92.5462 28.9321 91.8402 28.5178C91.1375 28.1001 90.5807 27.5019 90.1697 26.723C89.7621 25.9408 89.5582 25.0028 89.5582 23.9091C89.5582 22.812 89.7621 21.8741 90.1697 21.0952C90.5807 20.313 91.1375 19.7147 91.8402 19.3004C92.5462 18.8861 93.3449 18.679 94.2365 18.679C95.1281 18.679 95.9252 18.8861 96.6278 19.3004C97.3338 19.7147 97.8906 20.313 98.2983 21.0952C98.7093 21.8741 98.9148 22.812 98.9148 23.9091ZM97.0604 23.9091C97.0604 23.1368 96.9394 22.4856 96.6974 21.9553C96.4588 21.4216 96.1274 21.0189 95.7031 20.7472C95.2789 20.4721 94.79 20.3345 94.2365 20.3345C93.683 20.3345 93.1941 20.4721 92.7699 20.7472C92.3456 21.0189 92.0125 21.4216 91.7706 21.9553C91.532 22.4856 91.4126 23.1368 91.4126 23.9091C91.4126 24.6813 91.532 25.3343 91.7706 25.8679C92.0125 26.3982 92.3456 26.8009 92.7699 27.076C93.1941 27.3478 93.683 27.4837 94.2365 27.4837C94.79 27.4837 95.2789 27.3478 95.7031 27.076C96.1274 26.8009 96.4588 26.3982 96.6974 25.8679C96.9394 25.3343 97.0604 24.6813 97.0604 23.9091ZM105.446 25.7884V21.3636H107.246V29H105.501V27.6428H105.421C105.249 28.0703 104.966 28.42 104.571 28.6918C104.18 28.9635 103.698 29.0994 103.124 29.0994C102.624 29.0994 102.182 28.9884 101.797 28.7663C101.416 28.541 101.118 28.2145 100.902 27.7869C100.687 27.3561 100.579 26.8357 100.579 26.2259V21.3636H102.379V25.9474C102.379 26.4313 102.511 26.8158 102.776 27.1009C103.042 27.3859 103.39 27.5284 103.82 27.5284C104.086 27.5284 104.343 27.4638 104.591 27.3345C104.84 27.2053 105.044 27.013 105.203 26.7578C105.365 26.4993 105.446 26.1761 105.446 25.7884ZM112.91 21.3636V22.7557H108.52V21.3636H112.91ZM109.604 19.5341H111.403V26.7031C111.403 26.9451 111.44 27.1307 111.513 27.2599C111.589 27.3859 111.688 27.4721 111.811 27.5185C111.934 27.5649 112.07 27.5881 112.219 27.5881C112.331 27.5881 112.434 27.5798 112.527 27.5632C112.623 27.5466 112.696 27.5317 112.746 27.5185L113.049 28.9254C112.953 28.9586 112.815 28.995 112.636 29.0348C112.461 29.0746 112.245 29.0978 111.99 29.1044C111.539 29.1177 111.133 29.0497 110.772 28.9006C110.411 28.7481 110.124 28.5128 109.912 28.1946C109.703 27.8764 109.6 27.4787 109.604 27.0014V19.5341ZM117.967 29V18.8182H121.865C122.601 18.8182 123.212 18.9342 123.699 19.1662C124.19 19.3949 124.556 19.7081 124.798 20.1058C125.043 20.5036 125.166 20.9543 125.166 21.4581C125.166 21.8724 125.086 22.227 124.927 22.522C124.768 22.8137 124.555 23.0507 124.286 23.233C124.018 23.4152 123.718 23.5462 123.386 23.6257V23.7251C123.747 23.745 124.094 23.8561 124.425 24.0582C124.76 24.2571 125.033 24.5388 125.246 24.9034C125.458 25.268 125.564 25.7088 125.564 26.2259C125.564 26.7528 125.436 27.2268 125.181 27.6477C124.926 28.0653 124.541 28.3951 124.028 28.6371C123.514 28.879 122.867 29 122.089 29H117.967ZM119.812 27.4588H121.795C122.465 27.4588 122.947 27.3312 123.242 27.076C123.54 26.8175 123.689 26.486 123.689 26.0817C123.689 25.7801 123.615 25.5083 123.466 25.2663C123.317 25.0211 123.104 24.8288 122.829 24.6896C122.554 24.5471 122.226 24.4759 121.845 24.4759H119.812V27.4588ZM119.812 23.1484H121.636C121.954 23.1484 122.241 23.0904 122.496 22.9744C122.751 22.8551 122.952 22.6877 123.098 22.4723C123.247 22.2536 123.322 21.995 123.322 21.6967C123.322 21.3023 123.182 20.9775 122.904 20.7223C122.629 20.4671 122.22 20.3395 121.676 20.3395H119.812V23.1484ZM128.207 31.8636C127.962 31.8636 127.735 31.8438 127.526 31.804C127.321 31.7675 127.157 31.7244 127.034 31.6747L127.452 30.2727C127.714 30.349 127.947 30.3854 128.153 30.3821C128.358 30.3788 128.539 30.3142 128.695 30.1882C128.854 30.0656 128.988 29.8601 129.097 29.5717L129.251 29.1591L126.482 21.3636H128.391L130.151 27.1307H130.231L131.996 21.3636H133.91L130.852 29.9247C130.71 30.3291 130.521 30.6754 130.286 30.9638C130.05 31.2554 129.762 31.4775 129.42 31.63C129.082 31.7857 128.678 31.8636 128.207 31.8636ZM142.749 18.8182V29H140.905V20.6129H140.845L138.464 22.1342V20.4439L140.994 18.8182H142.749ZM145.354 31.8636V21.3636H147.124V22.6264H147.229C147.321 22.4408 147.452 22.2436 147.621 22.0348C147.79 21.8227 148.019 21.642 148.308 21.4929C148.596 21.3404 148.964 21.2642 149.411 21.2642C150.001 21.2642 150.533 21.415 151.007 21.7166C151.484 22.0149 151.862 22.4574 152.141 23.044C152.422 23.6274 152.563 24.3433 152.563 25.1918C152.563 26.0303 152.426 26.7429 152.151 27.3295C151.875 27.9162 151.501 28.3636 151.027 28.6719C150.553 28.9801 150.016 29.1342 149.416 29.1342C148.979 29.1342 148.616 29.0613 148.327 28.9155C148.039 28.7696 147.807 28.594 147.631 28.3885C147.459 28.1797 147.325 27.9825 147.229 27.7969H147.154V31.8636H145.354ZM147.119 25.1818C147.119 25.6757 147.189 26.1082 147.328 26.4794C147.471 26.8506 147.674 27.1406 147.94 27.3494C148.208 27.5549 148.533 27.6577 148.914 27.6577C149.312 27.6577 149.645 27.5516 149.913 27.3395C150.182 27.1241 150.384 26.8307 150.52 26.4595C150.659 26.085 150.729 25.6591 150.729 25.1818C150.729 24.7079 150.661 24.2869 150.525 23.919C150.389 23.5511 150.187 23.2628 149.918 23.054C149.65 22.8452 149.315 22.7408 148.914 22.7408C148.53 22.7408 148.203 22.8419 147.935 23.044C147.666 23.2462 147.462 23.5296 147.323 23.8942C147.187 24.2588 147.119 24.688 147.119 25.1818ZM154.104 29V21.3636H155.825V22.6612H155.914C156.073 22.2237 156.337 21.8823 156.705 21.6371C157.072 21.3885 157.512 21.2642 158.022 21.2642C158.539 21.2642 158.975 21.3902 159.33 21.642C159.688 21.8906 159.939 22.2304 160.085 22.6612H160.165C160.334 22.237 160.619 21.8989 161.02 21.647C161.424 21.3918 161.903 21.2642 162.457 21.2642C163.159 21.2642 163.733 21.4863 164.177 21.9304C164.621 22.3745 164.843 23.0225 164.843 23.8743V29H163.038V24.1527C163.038 23.6787 162.912 23.3324 162.661 23.1136C162.409 22.8916 162.1 22.7805 161.736 22.7805C161.302 22.7805 160.962 22.9164 160.717 23.1882C160.475 23.4567 160.354 23.8063 160.354 24.2372V29H158.589V24.0781C158.589 23.6837 158.469 23.3688 158.231 23.1335C157.996 22.8982 157.687 22.7805 157.306 22.7805C157.048 22.7805 156.812 22.8468 156.6 22.9794C156.388 23.1087 156.219 23.2926 156.093 23.5312C155.967 23.7666 155.904 24.0417 155.904 24.3565V29H154.104ZM168.782 27.608L168.717 28.1548C168.671 28.5724 168.588 28.9967 168.469 29.4276C168.353 29.8617 168.23 30.2611 168.101 30.6257C167.971 30.9903 167.867 31.277 167.787 31.4858H166.574C166.621 31.2836 166.684 31.0085 166.763 30.6605C166.846 30.3125 166.926 29.9214 167.002 29.4872C167.078 29.053 167.13 28.6122 167.156 28.1648L167.191 27.608H168.782Z" fill="#FB8700"/>
<path d="M178.119 29V18.8182H181.748C182.537 18.8182 183.191 18.9541 183.712 19.2259C184.235 19.4976 184.626 19.8738 184.885 20.3544C185.143 20.8317 185.273 21.3835 185.273 22.0099C185.273 22.633 185.142 23.1816 184.88 23.6555C184.621 24.1262 184.23 24.4924 183.707 24.7543C183.186 25.0161 182.532 25.147 181.743 25.147H178.994V23.8246H181.604C182.101 23.8246 182.505 23.7533 182.817 23.6108C183.132 23.4683 183.362 23.2611 183.508 22.9893C183.654 22.7176 183.727 22.3911 183.727 22.0099C183.727 21.6255 183.652 21.2924 183.503 21.0107C183.357 20.7289 183.127 20.5135 182.812 20.3643C182.5 20.2119 182.091 20.1357 181.584 20.1357H179.655V29H178.119ZM183.145 24.4062L185.661 29H183.911L181.445 24.4062H183.145ZM190.218 29.1541C189.466 29.1541 188.818 28.9934 188.274 28.6719C187.734 28.3471 187.316 27.8913 187.021 27.3047C186.73 26.7147 186.584 26.0237 186.584 25.2315C186.584 24.4493 186.73 23.7599 187.021 23.1634C187.316 22.5668 187.727 22.1011 188.254 21.7663C188.785 21.4316 189.405 21.2642 190.114 21.2642C190.545 21.2642 190.962 21.3355 191.367 21.478C191.771 21.6205 192.134 21.8442 192.455 22.1491C192.777 22.4541 193.03 22.8501 193.216 23.3374C193.402 23.8213 193.494 24.4096 193.494 25.1023V25.6293H187.424V24.5156H192.038C192.038 24.1245 191.958 23.7782 191.799 23.4766C191.64 23.1716 191.416 22.9313 191.128 22.7557C190.843 22.58 190.508 22.4922 190.124 22.4922C189.706 22.4922 189.342 22.5949 189.03 22.8004C188.722 23.0026 188.483 23.2678 188.314 23.5959C188.148 23.9207 188.066 24.2737 188.066 24.6548V25.5249C188.066 26.0353 188.155 26.4695 188.334 26.8274C188.516 27.1854 188.77 27.4588 189.095 27.6477C189.419 27.8333 189.799 27.9261 190.233 27.9261C190.515 27.9261 190.772 27.8864 191.004 27.8068C191.236 27.724 191.436 27.6013 191.605 27.4389C191.774 27.2765 191.904 27.076 191.993 26.8374L193.4 27.0909C193.287 27.5052 193.085 27.8681 192.794 28.1797C192.505 28.4879 192.142 28.7282 191.705 28.9006C191.271 29.0696 190.775 29.1541 190.218 29.1541ZM198.36 29.1541C197.621 29.1541 196.985 28.9867 196.451 28.652C195.921 28.3139 195.513 27.8482 195.228 27.255C194.943 26.6617 194.801 25.9822 194.801 25.2166C194.801 24.4411 194.947 23.7566 195.238 23.1634C195.53 22.5668 195.941 22.1011 196.471 21.7663C197.002 21.4316 197.626 21.2642 198.346 21.2642C198.926 21.2642 199.443 21.3719 199.897 21.5874C200.351 21.7995 200.717 22.0978 200.995 22.4822C201.277 22.8667 201.444 23.3158 201.498 23.8295H200.051C199.971 23.4716 199.789 23.1634 199.504 22.9048C199.222 22.6463 198.844 22.517 198.37 22.517C197.956 22.517 197.593 22.6264 197.282 22.8452C196.973 23.0606 196.733 23.3688 196.561 23.7699C196.388 24.1676 196.302 24.6383 196.302 25.1818C196.302 25.7386 196.387 26.2192 196.556 26.6236C196.725 27.0279 196.963 27.3411 197.272 27.5632C197.583 27.7853 197.949 27.8963 198.37 27.8963C198.652 27.8963 198.907 27.8449 199.136 27.7422C199.368 27.6361 199.562 27.4853 199.718 27.2898C199.877 27.0942 199.988 26.8589 200.051 26.5838H201.498C201.444 27.0777 201.284 27.5185 201.015 27.9062C200.747 28.294 200.387 28.599 199.936 28.821C199.489 29.0431 198.964 29.1541 198.36 29.1541ZM206.378 29.1541C205.626 29.1541 204.978 28.9934 204.434 28.6719C203.894 28.3471 203.477 27.8913 203.182 27.3047C202.89 26.7147 202.744 26.0237 202.744 25.2315C202.744 24.4493 202.89 23.7599 203.182 23.1634C203.477 22.5668 203.888 22.1011 204.415 21.7663C204.945 21.4316 205.565 21.2642 206.274 21.2642C206.705 21.2642 207.122 21.3355 207.527 21.478C207.931 21.6205 208.294 21.8442 208.616 22.1491C208.937 22.4541 209.191 22.8501 209.376 23.3374C209.562 23.8213 209.655 24.4096 209.655 25.1023V25.6293H203.584V24.5156H208.198C208.198 24.1245 208.118 23.7782 207.959 23.4766C207.8 23.1716 207.577 22.9313 207.288 22.7557C207.003 22.58 206.668 22.4922 206.284 22.4922C205.866 22.4922 205.502 22.5949 205.19 22.8004C204.882 23.0026 204.643 23.2678 204.474 23.5959C204.309 23.9207 204.226 24.2737 204.226 24.6548V25.5249C204.226 26.0353 204.315 26.4695 204.494 26.8274C204.676 27.1854 204.93 27.4588 205.255 27.6477C205.58 27.8333 205.959 27.9261 206.393 27.9261C206.675 27.9261 206.932 27.8864 207.164 27.8068C207.396 27.724 207.596 27.6013 207.765 27.4389C207.934 27.2765 208.064 27.076 208.153 26.8374L209.56 27.0909C209.448 27.5052 209.245 27.8681 208.954 28.1797C208.665 28.4879 208.302 28.7282 207.865 28.9006C207.431 29.0696 206.935 29.1541 206.378 29.1541ZM211.304 29V21.3636H212.79V29H211.304ZM212.055 20.1854C211.796 20.1854 211.574 20.0992 211.388 19.9268C211.206 19.7512 211.115 19.5424 211.115 19.3004C211.115 19.0552 211.206 18.8464 211.388 18.674C211.574 18.4983 211.796 18.4105 212.055 18.4105C212.313 18.4105 212.534 18.4983 212.716 18.674C212.902 18.8464 212.994 19.0552 212.994 19.3004C212.994 19.5424 212.902 19.7512 212.716 19.9268C212.534 20.0992 212.313 20.1854 212.055 20.1854ZM221.323 21.3636L218.554 29H216.963L214.189 21.3636H215.785L217.719 27.2401H217.798L219.727 21.3636H221.323ZM225.751 29.1541C224.999 29.1541 224.351 28.9934 223.808 28.6719C223.267 28.3471 222.85 27.8913 222.555 27.3047C222.263 26.7147 222.117 26.0237 222.117 25.2315C222.117 24.4493 222.263 23.7599 222.555 23.1634C222.85 22.5668 223.261 22.1011 223.788 21.7663C224.318 21.4316 224.938 21.2642 225.647 21.2642C226.078 21.2642 226.496 21.3355 226.9 21.478C227.304 21.6205 227.667 21.8442 227.989 22.1491C228.31 22.4541 228.564 22.8501 228.749 23.3374C228.935 23.8213 229.028 24.4096 229.028 25.1023V25.6293H222.957V24.5156H227.571C227.571 24.1245 227.491 23.7782 227.332 23.4766C227.173 23.1716 226.95 22.9313 226.661 22.7557C226.376 22.58 226.041 22.4922 225.657 22.4922C225.239 22.4922 224.875 22.5949 224.563 22.8004C224.255 23.0026 224.016 23.2678 223.847 23.5959C223.682 23.9207 223.599 24.2737 223.599 24.6548V25.5249C223.599 26.0353 223.688 26.4695 223.867 26.8274C224.049 27.1854 224.303 27.4588 224.628 27.6477C224.953 27.8333 225.332 27.9261 225.766 27.9261C226.048 27.9261 226.305 27.8864 226.537 27.8068C226.769 27.724 226.969 27.6013 227.138 27.4389C227.308 27.2765 227.437 27.076 227.526 26.8374L228.933 27.0909C228.821 27.5052 228.618 27.8681 228.327 28.1797C228.038 28.4879 227.675 28.7282 227.238 28.9006C226.804 29.0696 226.308 29.1541 225.751 29.1541ZM240.055 21.4929C240.002 21.0223 239.783 20.6577 239.398 20.3991C239.014 20.1373 238.53 20.0064 237.947 20.0064C237.529 20.0064 237.168 20.0727 236.863 20.2053C236.558 20.3345 236.321 20.5135 236.152 20.7422C235.986 20.9676 235.903 21.2244 235.903 21.5128C235.903 21.7547 235.96 21.9635 236.072 22.1392C236.188 22.3149 236.339 22.4624 236.525 22.5817C236.714 22.6977 236.916 22.7955 237.131 22.875C237.347 22.9512 237.554 23.0142 237.753 23.0639L238.747 23.3224C239.072 23.402 239.405 23.5097 239.746 23.6456C240.088 23.7815 240.404 23.9605 240.696 24.1825C240.988 24.4046 241.223 24.6797 241.402 25.0078C241.584 25.3359 241.675 25.7287 241.675 26.1861C241.675 26.7628 241.526 27.2749 241.228 27.7223C240.933 28.1697 240.504 28.5227 239.94 28.7812C239.38 29.0398 238.702 29.169 237.907 29.169C237.145 29.169 236.485 29.0481 235.928 28.8061C235.371 28.5642 234.936 28.2211 234.621 27.777C234.306 27.3295 234.132 26.7992 234.099 26.1861H235.64C235.67 26.554 235.789 26.8606 235.998 27.1058C236.21 27.3478 236.48 27.5284 236.808 27.6477C237.14 27.7637 237.503 27.8217 237.897 27.8217C238.331 27.8217 238.717 27.7538 239.055 27.6179C239.397 27.4787 239.665 27.2865 239.861 27.0412C240.056 26.7926 240.154 26.5026 240.154 26.1712C240.154 25.8696 240.068 25.6226 239.896 25.4304C239.727 25.2382 239.496 25.0791 239.205 24.9531C238.916 24.8272 238.59 24.7161 238.225 24.62L237.022 24.2919C236.207 24.0698 235.56 23.7434 235.083 23.3125C234.609 22.8816 234.372 22.3116 234.372 21.6023C234.372 21.0156 234.531 20.5036 234.849 20.0661C235.168 19.6286 235.598 19.2888 236.142 19.0469C236.686 18.8016 237.299 18.679 237.982 18.679C238.671 18.679 239.279 18.8 239.806 19.0419C240.336 19.2839 240.754 19.617 241.059 20.0412C241.364 20.4621 241.523 20.946 241.536 21.4929H240.055ZM245.515 29.1541C245.031 29.1541 244.595 29.0679 244.207 28.8956C243.823 28.7199 243.518 28.4614 243.292 28.12C243.07 27.7786 242.959 27.3577 242.959 26.8572C242.959 26.4264 243.039 26.0701 243.198 25.7884C243.357 25.5066 243.574 25.2812 243.849 25.1122C244.124 24.9432 244.434 24.8156 244.779 24.7294C245.127 24.6399 245.487 24.5753 245.858 24.5355C246.305 24.4891 246.668 24.4477 246.947 24.4112C247.225 24.3714 247.427 24.3118 247.553 24.2322C247.682 24.1494 247.747 24.0218 247.747 23.8494V23.8196C247.747 23.4451 247.636 23.1551 247.414 22.9496C247.192 22.7441 246.872 22.6413 246.454 22.6413C246.014 22.6413 245.664 22.7375 245.405 22.9297C245.15 23.1219 244.978 23.349 244.888 23.6108L243.208 23.3722C243.34 22.9081 243.559 22.5204 243.864 22.2088C244.169 21.8939 244.542 21.6586 244.983 21.5028C245.424 21.3438 245.911 21.2642 246.444 21.2642C246.812 21.2642 247.179 21.3073 247.543 21.3935C247.908 21.4796 248.241 21.6222 248.542 21.821C248.844 22.0166 249.086 22.2834 249.268 22.6214C249.454 22.9595 249.547 23.3821 249.547 23.8892V29H247.817V27.951H247.757C247.648 28.1631 247.493 28.362 247.295 28.5476C247.099 28.7299 246.852 28.8774 246.554 28.9901C246.259 29.0994 245.912 29.1541 245.515 29.1541ZM245.982 27.8317C246.343 27.8317 246.657 27.7604 246.922 27.6179C247.187 27.4721 247.391 27.2798 247.533 27.0412C247.679 26.8026 247.752 26.5424 247.752 26.2607V25.3608C247.696 25.4072 247.599 25.4503 247.464 25.4901C247.331 25.5298 247.182 25.5646 247.016 25.5945C246.85 25.6243 246.686 25.6508 246.524 25.674C246.362 25.6972 246.221 25.7171 246.101 25.7337C245.833 25.7701 245.593 25.8298 245.381 25.9126C245.168 25.9955 245.001 26.1115 244.878 26.2607C244.756 26.4065 244.694 26.5954 244.694 26.8274C244.694 27.1589 244.815 27.4091 245.057 27.5781C245.299 27.7472 245.608 27.8317 245.982 27.8317ZM251.356 29V21.3636H253.077V22.6612H253.166C253.325 22.2237 253.589 21.8823 253.956 21.6371C254.324 21.3885 254.764 21.2642 255.274 21.2642C255.791 21.2642 256.227 21.3902 256.581 21.642C256.939 21.8906 257.191 22.2304 257.337 22.6612H257.417C257.586 22.237 257.871 21.8989 258.272 21.647C258.676 21.3918 259.155 21.2642 259.709 21.2642C260.411 21.2642 260.985 21.4863 261.429 21.9304C261.873 22.3745 262.095 23.0225 262.095 23.8743V29H260.29V24.1527C260.29 23.6787 260.164 23.3324 259.912 23.1136C259.661 22.8916 259.352 22.7805 258.988 22.7805C258.554 22.7805 258.214 22.9164 257.969 23.1882C257.727 23.4567 257.606 23.8063 257.606 24.2372V29H255.841V24.0781C255.841 23.6837 255.721 23.3688 255.483 23.1335C255.247 22.8982 254.939 22.7805 254.558 22.7805C254.3 22.7805 254.064 22.8468 253.852 22.9794C253.64 23.1087 253.471 23.2926 253.345 23.5312C253.219 23.7666 253.156 24.0417 253.156 24.3565V29H251.356ZM267.301 29.1491C266.536 29.1491 265.875 28.9901 265.318 28.6719C264.764 28.3504 264.338 27.8963 264.04 27.3097C263.742 26.7197 263.593 26.0253 263.593 25.2266C263.593 24.4411 263.742 23.7517 264.04 23.1584C264.342 22.5618 264.763 22.0978 265.303 21.7663C265.843 21.4316 266.478 21.2642 267.207 21.2642C267.678 21.2642 268.122 21.3404 268.539 21.4929C268.96 21.642 269.332 21.8741 269.653 22.1889C269.978 22.5038 270.233 22.9048 270.419 23.392C270.604 23.8759 270.697 24.4527 270.697 25.1222V25.674H264.438V24.4609H268.972C268.969 24.1162 268.894 23.8097 268.748 23.5412C268.602 23.2694 268.399 23.0556 268.137 22.8999C267.878 22.7441 267.577 22.6662 267.232 22.6662C266.864 22.6662 266.541 22.7557 266.262 22.9347C265.984 23.1103 265.767 23.3423 265.611 23.6307C265.459 23.9157 265.381 24.2289 265.377 24.5703V25.6293C265.377 26.0734 265.459 26.4545 265.621 26.7727C265.783 27.0876 266.011 27.3295 266.302 27.4986C266.594 27.6643 266.935 27.7472 267.326 27.7472C267.588 27.7472 267.825 27.7107 268.037 27.6378C268.249 27.5616 268.433 27.4505 268.589 27.3047C268.745 27.1589 268.863 26.9782 268.942 26.7628L270.623 26.9517C270.516 27.3958 270.314 27.7836 270.016 28.1151C269.721 28.4432 269.343 28.6984 268.882 28.8807C268.422 29.0597 267.895 29.1491 267.301 29.1491ZM279.222 29H275.772V18.8182H279.292C280.303 18.8182 281.171 19.022 281.897 19.4297C282.626 19.834 283.186 20.4157 283.577 21.1747C283.968 21.9337 284.164 22.8419 284.164 23.8991C284.164 24.9598 283.967 25.8712 283.572 26.6335C283.181 27.3958 282.616 27.9808 281.877 28.3885C281.141 28.7962 280.256 29 279.222 29ZM277.616 27.4041H279.133C279.842 27.4041 280.434 27.2749 280.907 27.0163C281.381 26.7545 281.738 26.3651 281.976 25.848C282.215 25.3277 282.334 24.678 282.334 23.8991C282.334 23.1203 282.215 22.474 281.976 21.9602C281.738 21.4432 281.385 21.0571 280.917 20.8018C280.453 20.5433 279.877 20.4141 279.187 20.4141H277.616V27.4041ZM288.034 29.1541C287.55 29.1541 287.115 29.0679 286.727 28.8956C286.342 28.7199 286.037 28.4614 285.812 28.12C285.59 27.7786 285.479 27.3577 285.479 26.8572C285.479 26.4264 285.558 26.0701 285.718 25.7884C285.877 25.5066 286.094 25.2812 286.369 25.1122C286.644 24.9432 286.954 24.8156 287.298 24.7294C287.646 24.6399 288.006 24.5753 288.377 24.5355C288.825 24.4891 289.188 24.4477 289.466 24.4112C289.744 24.3714 289.947 24.3118 290.073 24.2322C290.202 24.1494 290.267 24.0218 290.267 23.8494V23.8196C290.267 23.4451 290.155 23.1551 289.933 22.9496C289.711 22.7441 289.392 22.6413 288.974 22.6413C288.533 22.6413 288.183 22.7375 287.925 22.9297C287.67 23.1219 287.497 23.349 287.408 23.6108L285.727 23.3722C285.86 22.9081 286.079 22.5204 286.384 22.2088C286.689 21.8939 287.061 21.6586 287.502 21.5028C287.943 21.3438 288.43 21.2642 288.964 21.2642C289.332 21.2642 289.698 21.3073 290.063 21.3935C290.427 21.4796 290.76 21.6222 291.062 21.821C291.364 22.0166 291.606 22.2834 291.788 22.6214C291.973 22.9595 292.066 23.3821 292.066 23.8892V29H290.336V27.951H290.276C290.167 28.1631 290.013 28.362 289.814 28.5476C289.619 28.7299 289.372 28.8774 289.073 28.9901C288.778 29.0994 288.432 29.1541 288.034 29.1541ZM288.502 27.8317C288.863 27.8317 289.176 27.7604 289.441 27.6179C289.706 27.4721 289.91 27.2798 290.053 27.0412C290.199 26.8026 290.271 26.5424 290.271 26.2607V25.3608C290.215 25.4072 290.119 25.4503 289.983 25.4901C289.851 25.5298 289.701 25.5646 289.536 25.5945C289.37 25.6243 289.206 25.6508 289.044 25.674C288.881 25.6972 288.74 25.7171 288.621 25.7337C288.352 25.7701 288.112 25.8298 287.9 25.9126C287.688 25.9955 287.521 26.1115 287.398 26.2607C287.275 26.4065 287.214 26.5954 287.214 26.8274C287.214 27.1589 287.335 27.4091 287.577 27.5781C287.819 27.7472 288.127 27.8317 288.502 27.8317ZM294.721 31.8636C294.476 31.8636 294.249 31.8438 294.04 31.804C293.834 31.7675 293.67 31.7244 293.548 31.6747L293.965 30.2727C294.227 30.349 294.461 30.3854 294.666 30.3821C294.872 30.3788 295.052 30.3142 295.208 30.1882C295.367 30.0656 295.502 29.8601 295.611 29.5717L295.765 29.1591L292.996 21.3636H294.905L296.665 27.1307H296.744L298.509 21.3636H300.423L297.366 29.9247C297.223 30.3291 297.035 30.6754 296.799 30.9638C296.564 31.2554 296.276 31.4775 295.934 31.63C295.596 31.7857 295.192 31.8636 294.721 31.8636ZM309.062 23.9091C309.062 22.6662 309.226 21.5244 309.554 20.4837C309.885 19.4396 310.377 18.4751 311.03 17.5902H312.726C312.474 17.9183 312.238 18.321 312.02 18.7983C311.801 19.2723 311.61 19.7926 311.448 20.3594C311.289 20.9228 311.163 21.5078 311.07 22.1143C310.981 22.7209 310.936 23.3191 310.936 23.9091C310.936 24.6946 311.014 25.4901 311.17 26.2955C311.329 27.1009 311.542 27.8482 311.811 28.5376C312.083 29.2237 312.388 29.7855 312.726 30.223H311.03C310.377 29.3381 309.885 28.3752 309.554 27.3345C309.226 26.2905 309.062 25.1487 309.062 23.9091ZM317.758 29.1392C317.042 29.1392 316.406 29.0166 315.849 28.7713C315.296 28.526 314.858 28.1847 314.537 27.7472C314.215 27.3097 314.044 26.8042 314.025 26.2308H315.894C315.91 26.5059 316.002 26.7462 316.167 26.9517C316.333 27.1539 316.553 27.3113 316.828 27.424C317.104 27.5367 317.412 27.593 317.753 27.593C318.118 27.593 318.441 27.5301 318.723 27.4041C319.004 27.2749 319.225 27.0959 319.384 26.8672C319.543 26.6385 319.621 26.375 319.618 26.0767C319.621 25.7685 319.541 25.4967 319.379 25.2614C319.217 25.026 318.981 24.8421 318.673 24.7095C318.368 24.5769 318 24.5107 317.569 24.5107H316.669V23.0888H317.569C317.924 23.0888 318.234 23.0275 318.499 22.9048C318.767 22.7822 318.978 22.6098 319.13 22.3878C319.283 22.1624 319.357 21.9022 319.354 21.6072C319.357 21.3189 319.293 21.0687 319.16 20.8565C319.031 20.6411 318.847 20.4737 318.608 20.3544C318.373 20.2351 318.096 20.1754 317.778 20.1754C317.467 20.1754 317.178 20.2318 316.913 20.3445C316.648 20.4571 316.434 20.6179 316.272 20.8267C316.109 21.0322 316.023 21.2775 316.013 21.5625H314.238C314.252 20.9924 314.416 20.492 314.73 20.0611C315.049 19.6269 315.473 19.2888 316.003 19.0469C316.533 18.8016 317.128 18.679 317.788 18.679C318.467 18.679 319.057 18.8066 319.558 19.0618C320.062 19.3137 320.451 19.6534 320.726 20.081C321.001 20.5085 321.139 20.9808 321.139 21.4979C321.142 22.0713 320.973 22.5518 320.632 22.9396C320.294 23.3274 319.85 23.581 319.299 23.7003V23.7798C320.015 23.8793 320.564 24.1444 320.945 24.5753C321.329 25.0028 321.52 25.5348 321.517 26.1712C321.517 26.7412 321.354 27.2517 321.029 27.7024C320.708 28.1499 320.264 28.5012 319.697 28.7564C319.134 29.0116 318.487 29.1392 317.758 29.1392ZM327.872 23.1683V24.6499H323.288V23.1683H327.872ZM329.735 29L334.065 20.429V20.3594H329.039V18.8182H335.974V20.3942L331.649 29H329.735ZM337.599 31.8636V21.3636H339.368V22.6264H339.473C339.566 22.4408 339.697 22.2436 339.866 22.0348C340.035 21.8227 340.263 21.642 340.552 21.4929C340.84 21.3404 341.208 21.2642 341.655 21.2642C342.245 21.2642 342.777 21.415 343.251 21.7166C343.729 22.0149 344.106 22.4574 344.385 23.044C344.666 23.6274 344.807 24.3433 344.807 25.1918C344.807 26.0303 344.67 26.7429 344.395 27.3295C344.12 27.9162 343.745 28.3636 343.271 28.6719C342.797 28.9801 342.26 29.1342 341.66 29.1342C341.223 29.1342 340.86 29.0613 340.572 28.9155C340.283 28.7696 340.051 28.594 339.876 28.3885C339.703 28.1797 339.569 27.9825 339.473 27.7969H339.398V31.8636H337.599ZM339.363 25.1818C339.363 25.6757 339.433 26.1082 339.572 26.4794C339.715 26.8506 339.919 27.1406 340.184 27.3494C340.452 27.5549 340.777 27.6577 341.158 27.6577C341.556 27.6577 341.889 27.5516 342.157 27.3395C342.426 27.1241 342.628 26.8307 342.764 26.4595C342.903 26.085 342.973 25.6591 342.973 25.1818C342.973 24.7079 342.905 24.2869 342.769 23.919C342.633 23.5511 342.431 23.2628 342.162 23.054C341.894 22.8452 341.559 22.7408 341.158 22.7408C340.774 22.7408 340.447 22.8419 340.179 23.044C339.91 23.2462 339.706 23.5296 339.567 23.8942C339.431 24.2588 339.363 24.688 339.363 25.1818ZM346.349 29V21.3636H348.069V22.6612H348.158C348.317 22.2237 348.581 21.8823 348.949 21.6371C349.317 21.3885 349.756 21.2642 350.266 21.2642C350.783 21.2642 351.219 21.3902 351.574 21.642C351.932 21.8906 352.184 22.2304 352.329 22.6612H352.409C352.578 22.237 352.863 21.8989 353.264 21.647C353.668 21.3918 354.147 21.2642 354.701 21.2642C355.403 21.2642 355.977 21.4863 356.421 21.9304C356.865 22.3745 357.087 23.0225 357.087 23.8743V29H355.282V24.1527C355.282 23.6787 355.157 23.3324 354.905 23.1136C354.653 22.8916 354.345 22.7805 353.98 22.7805C353.546 22.7805 353.206 22.9164 352.961 23.1882C352.719 23.4567 352.598 23.8063 352.598 24.2372V29H350.833V24.0781C350.833 23.6837 350.714 23.3688 350.475 23.1335C350.24 22.8982 349.931 22.7805 349.55 22.7805C349.292 22.7805 349.056 22.8468 348.844 22.9794C348.632 23.1087 348.463 23.2926 348.337 23.5312C348.211 23.7666 348.148 24.0417 348.148 24.3565V29H346.349ZM362.125 24.8487C362.125 26.0883 361.959 27.2301 361.627 28.2741C361.299 29.3149 360.809 30.2777 360.156 31.1626H358.461C358.716 30.8345 358.951 30.4335 359.167 29.9595C359.385 29.4856 359.574 28.9652 359.733 28.3984C359.896 27.8317 360.022 27.245 360.111 26.6385C360.204 26.032 360.25 25.4354 360.25 24.8487C360.25 24.0632 360.171 23.2678 360.012 22.4624C359.856 21.657 359.642 20.9096 359.37 20.2202C359.102 19.5308 358.799 18.9673 358.461 18.5298H360.156C360.809 19.4148 361.299 20.3793 361.627 21.4233C361.959 22.464 362.125 23.6058 362.125 24.8487Z" fill="#FB8700"/>
<defs>
<linearGradient id="paint0_linear_5620_2" x1="21.4504" y1="4.95" x2="25.5754" y2="4.95" gradientUnits="userSpaceOnUse">
<stop stop-color="#FFCA14"/>
<stop offset="1" stop-color="#FF9F03"/>
</linearGradient>
<linearGradient id="paint1_linear_5620_2" x1="16.5" y1="5.77393" x2="16.5" y2="38.7739" gradientUnits="userSpaceOnUse">
<stop stop-color="#FFCB14"/>
<stop offset="1" stop-color="#FF9900"/>
</linearGradient>
<linearGradient id="paint2_linear_5620_2" x1="16.5004" y1="35.4752" x2="16.5004" y2="9.07519" gradientUnits="userSpaceOnUse">
<stop stop-color="#FC8800"/>
<stop offset="1" stop-color="#E07900"/>
</linearGradient>
<linearGradient id="paint3_linear_5620_2" x1="16.5" y1="33.8261" x2="16.5" y2="10.7261" gradientUnits="userSpaceOnUse">
<stop stop-color="#E3DFFA"/>
<stop offset="1" stop-color="#FFF7FF"/>
</linearGradient>
<linearGradient id="paint4_linear_5620_2" x1="20.5835" y1="10.7261" x2="20.5835" y2="22.2758" gradientUnits="userSpaceOnUse">
<stop stop-color="#5E44FF"/>
<stop offset="1" stop-color="#7D2DFF"/>
</linearGradient>
</defs>
</svg>
