<svg width="88" height="18" viewBox="0 0 88 18" fill="none" xmlns="http://www.w3.org/2000/svg">
<path d="M77.0049 18C77.0049 17.1715 76.3333 16.5 75.5049 16.5C74.6765 16.5 74.0049 17.1715 74.0049 18H1C0.44772 18 0 17.5522 0 17V1C0 0.44772 0.44772 0 1 0L74.0049 0C74.0049 0.82843 74.6765 1.5 75.5049 1.5C76.3333 1.5 77.0049 0.82843 77.0049 0H87.0049C87.5572 0 88.0049 0.44772 88.0049 1V6.5C86.6242 6.5 85.5049 7.61934 85.5049 9.00004C85.5049 10.3807 86.6242 11.5 88.0049 11.5V17C88.0049 17.5522 87.5572 18 87.0049 18H77.0049ZM75.5049 7.50004C76.3333 7.50004 77.0049 6.82843 77.0049 6C77.0049 5.17158 76.3333 4.5 75.5049 4.5C74.6765 4.5 74.0049 5.17158 74.0049 6C74.0049 6.82843 74.6765 7.50004 75.5049 7.50004ZM75.5049 13.5C76.3333 13.5 77.0049 12.8284 77.0049 12C77.0049 11.1715 76.3333 10.5 75.5049 10.5C74.6765 10.5 74.0049 11.1715 74.0049 12C74.0049 12.8284 74.6765 13.5 75.5049 13.5Z" fill="#FF4495"/>
</svg>
