<svg width="434" height="199" viewBox="0 0 434 199" fill="none" xmlns="http://www.w3.org/2000/svg">
<path d="M0 8C0 3.58172 3.58172 0 8 0H336V170H8.00001C3.58173 170 0 166.418 0 162V8Z" fill="white"/>
<circle cx="61.5" cy="57.5" r="32.5" fill="#FF9019"/>
<path d="M56.6055 40V51.9937C56.6055 54.8442 59.0487 57.1633 62.0519 57.1633C65.055 57.1633 67.4982 54.8442 67.4982 51.9937V40H56.6055Z" fill="white"/>
<path d="M69.6602 40V51.778C69.6602 54.7474 72.2039 57.1634 75.3306 57.1634C78.9602 57.1634 81.7179 53.8145 80.8295 50.4631L78.1633 40.4054C78.1 40.1668 77.8747 40 77.6153 40H69.6602Z" fill="white"/>
<path d="M58.0352 66.4121H65.9669V76.815H58.0352V66.4121Z" fill="white"/>
<path d="M46.368 40C46.1085 40 45.8832 40.1668 45.8199 40.4056L43.1696 50.4033C42.2726 53.7871 45.0525 57.1643 48.7175 57.1633C51.872 57.1633 54.4384 54.7259 54.4384 51.7299V40H46.368Z" fill="white"/>
<path d="M76.1065 59.2222C73.1714 59.2222 70.5748 57.8205 69.02 55.6848C67.514 57.8165 64.9523 59.2222 62.051 59.2222C59.1421 59.2222 56.5745 57.8092 55.0701 55.668C53.5058 57.8141 50.8954 59.2222 47.9448 59.2222C46.7312 59.2222 45.5517 58.9851 44.4688 58.5348V76.2827C44.4688 76.5785 44.7223 76.8192 45.0339 76.8192H55.0957V65.0214C55.0957 64.2512 55.7535 63.6267 56.565 63.6267H67.4356C68.2472 63.6267 68.905 64.2512 68.905 65.0214V76.8191H78.9659C79.2775 76.8191 79.531 76.5785 79.531 76.2826V58.5514C78.4627 58.9909 77.3009 59.2222 76.1065 59.2222V59.2222Z" fill="white"/>
<path fill-rule="evenodd" clip-rule="evenodd" d="M336 0H362.844C367.238 0 370.804 3.54114 370.844 7.92477C370.884 3.54114 374.451 0 378.844 0H425.999C430.418 0 433.999 3.58172 433.999 8V162C433.999 166.418 430.418 170 425.999 170H378.844C374.847 170 371.534 167.069 370.939 163.238H371.844V159.399C371.844 158.847 371.396 158.399 370.844 158.399C370.291 158.399 369.844 158.847 369.844 159.399V163.238H370.749C370.154 167.069 366.842 170 362.844 170H336V0ZM369.844 9.6589V13.4984C369.844 14.0507 370.291 14.4984 370.844 14.4984C371.396 14.4984 371.844 14.0507 371.844 13.4984V9.6589H369.844ZM371.844 21.1774C371.844 20.6251 371.396 20.1774 370.844 20.1774C370.291 20.1774 369.844 20.6251 369.844 21.1774V28.8563C369.844 29.4086 370.291 29.8563 370.844 29.8563C371.396 29.8563 371.844 29.4086 371.844 28.8563V21.1774ZM371.844 36.5353C371.844 35.983 371.396 35.5353 370.844 35.5353C370.291 35.5353 369.844 35.983 369.844 36.5353V44.2143C369.844 44.7666 370.291 45.2143 370.844 45.2143C371.396 45.2143 371.844 44.7666 371.844 44.2143V36.5353ZM371.844 51.8933C371.844 51.341 371.396 50.8933 370.844 50.8933C370.291 50.8933 369.844 51.341 369.844 51.8933V59.5723C369.844 60.1245 370.291 60.5723 370.844 60.5723C371.396 60.5723 371.844 60.1245 371.844 59.5723V51.8933ZM371.844 67.2512C371.844 66.6989 371.396 66.2512 370.844 66.2512C370.291 66.2512 369.844 66.6989 369.844 67.2512V74.9302C369.844 75.4825 370.291 75.9302 370.844 75.9302C371.396 75.9302 371.844 75.4825 371.844 74.9302V67.2512ZM371.844 82.6092C371.844 82.0569 371.396 81.6092 370.844 81.6092C370.291 81.6092 369.844 82.0569 369.844 82.6092V90.2882C369.844 90.8404 370.291 91.2882 370.844 91.2882C371.396 91.2882 371.844 90.8404 371.844 90.2882V82.6092ZM371.844 97.9671C371.844 97.4149 371.396 96.9671 370.844 96.9671C370.291 96.9671 369.844 97.4149 369.844 97.9671V105.646C369.844 106.198 370.291 106.646 370.844 106.646C371.396 106.646 371.844 106.198 371.844 105.646V97.9671ZM371.844 113.325C371.844 112.773 371.396 112.325 370.844 112.325C370.291 112.325 369.844 112.773 369.844 113.325V121.004C369.844 121.556 370.291 122.004 370.844 122.004C371.396 122.004 371.844 121.556 371.844 121.004V113.325ZM371.844 128.683C371.844 128.131 371.396 127.683 370.844 127.683C370.291 127.683 369.844 128.131 369.844 128.683V136.362C369.844 136.914 370.291 137.362 370.844 137.362C371.396 137.362 371.844 136.914 371.844 136.362V128.683ZM371.844 144.041C371.844 143.489 371.396 143.041 370.844 143.041C370.291 143.041 369.844 143.489 369.844 144.041V151.72C369.844 152.272 370.291 152.72 370.844 152.72C371.396 152.72 371.844 152.272 371.844 151.72V144.041Z" fill="white"/>
</svg>
