<svg width="313" height="100" viewBox="0 0 313 100" fill="none" xmlns="http://www.w3.org/2000/svg">
<g clip-path="url(#clip0_2587_39884)">
<path d="M310 100H3C2.20435 100 1.44152 99.6837 0.878906 99.1211C0.316297 98.5585 0 97.7956 0 97V58C2.12173 58 4.15596 57.157 5.65625 55.6567C7.15654 54.1564 8 52.1217 8 50C8 47.8783 7.15654 45.8436 5.65625 44.3433C4.15596 42.843 2.12173 42 0 42V3C0 2.20435 0.316297 1.44152 0.878906 0.878906C1.44152 0.316297 2.20435 0 3 0H220.268C220.093 0.30408 220.002 0.648685 220.002 0.999512C220.002 1.35034 220.094 1.69484 220.27 1.99854C220.445 2.30223 220.698 2.55468 221.002 2.72998C221.306 2.90528 221.651 2.99756 222.002 2.99756C222.353 2.99756 222.696 2.90528 223 2.72998C223.304 2.55468 223.557 2.30223 223.732 1.99854C223.908 1.69484 224.002 1.35034 224.002 0.999512C224.002 0.648685 223.909 0.30408 223.734 0H310C310.796 0 311.558 0.316297 312.121 0.878906C312.684 1.44152 313 2.20435 313 3V42C310.878 42 308.844 42.843 307.344 44.3433C305.843 45.8436 305 47.8783 305 50C305 52.1217 305.843 54.1564 307.344 55.6567C308.844 57.157 310.878 58 313 58V97C313 97.7956 312.684 98.5585 312.121 99.1211C311.558 99.6837 310.796 100 310 100ZM222 95C221.604 95 221.218 95.1172 220.889 95.3369C220.56 95.5567 220.304 95.8694 220.152 96.2349C220.001 96.6003 219.962 97.0022 220.039 97.3901C220.116 97.7781 220.306 98.1344 220.586 98.4141C220.866 98.6938 221.221 98.8843 221.609 98.9614C221.997 99.0386 222.4 98.999 222.766 98.8477C223.131 98.6963 223.442 98.4402 223.662 98.1113C223.882 97.7824 224 97.3956 224 97C224 96.4696 223.789 95.961 223.414 95.5859C223.039 95.2109 222.53 95 222 95ZM222 87C221.604 87 221.218 87.1172 220.889 87.3369C220.56 87.5567 220.304 87.8694 220.152 88.2349C220.001 88.6003 219.962 89.0022 220.039 89.3901C220.116 89.7781 220.306 90.1344 220.586 90.4141C220.866 90.6938 221.221 90.8843 221.609 90.9614C221.997 91.0386 222.4 90.999 222.766 90.8477C223.131 90.6963 223.442 90.4402 223.662 90.1113C223.882 89.7824 224 89.3956 224 89C224 88.4696 223.789 87.961 223.414 87.5859C223.039 87.2109 222.53 87 222 87ZM222 79C221.604 79 221.218 79.1172 220.889 79.3369C220.56 79.5567 220.304 79.8694 220.152 80.2349C220.001 80.6003 219.962 81.0022 220.039 81.3901C220.116 81.7781 220.306 82.1344 220.586 82.4141C220.866 82.6938 221.221 82.8843 221.609 82.9614C221.997 83.0386 222.4 82.999 222.766 82.8477C223.131 82.6963 223.442 82.4402 223.662 82.1113C223.882 81.7824 224 81.3956 224 81C224 80.4696 223.789 79.961 223.414 79.5859C223.039 79.2109 222.53 79 222 79ZM222 71C221.604 71 221.218 71.1172 220.889 71.3369C220.56 71.5567 220.304 71.8694 220.152 72.2349C220.001 72.6003 219.962 73.0022 220.039 73.3901C220.116 73.7781 220.306 74.1344 220.586 74.4141C220.866 74.6938 221.221 74.8843 221.609 74.9614C221.997 75.0386 222.4 74.999 222.766 74.8477C223.131 74.6963 223.442 74.4402 223.662 74.1113C223.882 73.7824 224 73.3956 224 73C224 72.4696 223.789 71.961 223.414 71.5859C223.039 71.2109 222.53 71 222 71ZM222 63C221.604 63 221.218 63.1172 220.889 63.3369C220.56 63.5567 220.304 63.8694 220.152 64.2349C220.001 64.6003 219.962 65.0022 220.039 65.3901C220.116 65.7781 220.306 66.1344 220.586 66.4141C220.866 66.6938 221.221 66.8843 221.609 66.9614C221.997 67.0386 222.4 66.999 222.766 66.8477C223.131 66.6963 223.442 66.4402 223.662 66.1113C223.882 65.7824 224 65.3956 224 65C224 64.4696 223.789 63.961 223.414 63.5859C223.039 63.2109 222.53 63 222 63ZM222 55C221.604 55 221.218 55.1172 220.889 55.3369C220.56 55.5567 220.304 55.8694 220.152 56.2349C220.001 56.6003 219.962 57.0022 220.039 57.3901C220.116 57.7781 220.306 58.1344 220.586 58.4141C220.866 58.6938 221.221 58.8843 221.609 58.9614C221.997 59.0386 222.4 58.999 222.766 58.8477C223.131 58.6963 223.442 58.4402 223.662 58.1113C223.882 57.7824 224 57.3956 224 57C224 56.4696 223.789 55.961 223.414 55.5859C223.039 55.2109 222.53 55 222 55ZM222 47C221.604 47 221.218 47.1172 220.889 47.3369C220.56 47.5567 220.304 47.8694 220.152 48.2349C220.001 48.6003 219.962 49.0022 220.039 49.3901C220.116 49.7781 220.306 50.1344 220.586 50.4141C220.866 50.6938 221.221 50.8843 221.609 50.9614C221.997 51.0386 222.4 50.999 222.766 50.8477C223.131 50.6963 223.442 50.4402 223.662 50.1113C223.882 49.7824 224 49.3956 224 49C224 48.4696 223.789 47.961 223.414 47.5859C223.039 47.2109 222.53 47 222 47ZM222 39C221.604 39 221.218 39.1172 220.889 39.3369C220.56 39.5567 220.304 39.8694 220.152 40.2349C220.001 40.6003 219.962 41.0022 220.039 41.3901C220.116 41.7781 220.306 42.1344 220.586 42.4141C220.866 42.6938 221.221 42.8843 221.609 42.9614C221.997 43.0386 222.4 42.999 222.766 42.8477C223.131 42.6963 223.442 42.4402 223.662 42.1113C223.882 41.7824 224 41.3956 224 41C224 40.4696 223.789 39.961 223.414 39.5859C223.039 39.2109 222.53 39 222 39ZM222 31C221.604 31 221.218 31.1172 220.889 31.3369C220.56 31.5567 220.304 31.8694 220.152 32.2349C220.001 32.6003 219.962 33.0022 220.039 33.3901C220.116 33.7781 220.306 34.1344 220.586 34.4141C220.866 34.6938 221.221 34.8843 221.609 34.9614C221.997 35.0386 222.4 34.999 222.766 34.8477C223.131 34.6963 223.442 34.4402 223.662 34.1113C223.882 33.7824 224 33.3956 224 33C224 32.4696 223.789 31.961 223.414 31.5859C223.039 31.2109 222.53 31 222 31ZM222 23C221.604 23 221.218 23.1172 220.889 23.3369C220.56 23.5567 220.304 23.8694 220.152 24.2349C220.001 24.6003 219.962 25.0022 220.039 25.3901C220.116 25.7781 220.306 26.1344 220.586 26.4141C220.866 26.6938 221.221 26.8843 221.609 26.9614C221.997 27.0386 222.4 26.999 222.766 26.8477C223.131 26.6963 223.442 26.4402 223.662 26.1113C223.882 25.7824 224 25.3956 224 25C224 24.4696 223.789 23.961 223.414 23.5859C223.039 23.2109 222.53 23 222 23ZM222 15C221.604 15 221.218 15.1172 220.889 15.3369C220.56 15.5567 220.304 15.8694 220.152 16.2349C220.001 16.6003 219.962 17.0022 220.039 17.3901C220.116 17.7781 220.306 18.1344 220.586 18.4141C220.866 18.6938 221.221 18.8843 221.609 18.9614C221.997 19.0386 222.4 18.999 222.766 18.8477C223.131 18.6963 223.442 18.4402 223.662 18.1113C223.882 17.7824 224 17.3956 224 17C224 16.4696 223.789 15.961 223.414 15.5859C223.039 15.2109 222.53 15 222 15ZM222 7C221.604 7 221.218 7.11715 220.889 7.33691C220.56 7.55668 220.304 7.86941 220.152 8.23486C220.001 8.60032 219.962 9.00217 220.039 9.39014C220.116 9.7781 220.306 10.1344 220.586 10.4141C220.866 10.6938 221.221 10.8843 221.609 10.9614C221.997 11.0386 222.4 10.999 222.766 10.8477C223.131 10.6963 223.442 10.4402 223.662 10.1113C223.882 9.78243 224 9.39556 224 9C224 8.46957 223.789 7.96101 223.414 7.58594C223.039 7.21086 222.53 7 222 7Z" fill="#828282" fill-opacity="0.38"/>
<g opacity="0.2">
<path d="M246.508 11.3568L246.537 17.0446C246.545 18.3964 247.646 19.4905 248.993 19.4834C250.34 19.4764 251.43 18.3709 251.423 17.0191L251.393 11.3313L246.508 11.3568Z" fill="white"/>
<path d="M252.365 11.3262L252.394 16.9117C252.402 18.3199 253.549 19.4597 254.951 19.4524C256.579 19.4439 257.807 17.8493 257.401 16.262L256.18 11.4986C256.151 11.3855 256.049 11.307 255.933 11.3076L252.365 11.3262Z" fill="white"/>
<path d="M247.215 23.8797L250.772 23.8611L250.798 28.7945L247.241 28.8131L247.215 23.8797Z" fill="white"/>
<path d="M241.917 11.3808C241.8 11.3814 241.7 11.461 241.672 11.5744L240.508 16.3219C240.114 17.9287 241.369 19.5238 243.013 19.5147C244.428 19.5073 245.573 18.3455 245.565 16.9246L245.536 11.3619L241.917 11.3808Z" fill="white"/>
<path d="M255.302 20.426C253.985 20.4328 252.817 19.7742 252.115 18.765C251.445 19.7794 250.299 20.4521 248.998 20.4588C247.693 20.4657 246.538 19.8016 245.858 18.7897C245.162 19.8111 243.995 20.485 242.671 20.4919C242.127 20.4947 241.597 20.385 241.111 20.174L241.155 28.5907C241.155 28.7309 241.27 28.8445 241.409 28.8438L245.922 28.8202L245.893 23.2253C245.891 22.8601 246.184 22.5624 246.548 22.5605L251.424 22.535C251.788 22.5331 252.084 22.8277 252.086 23.193L252.116 28.7879L256.628 28.7643C256.768 28.7636 256.881 28.6489 256.88 28.5086L256.836 20.0998C256.358 20.3108 255.838 20.4232 255.302 20.426V20.426Z" fill="white"/>
<path d="M234.397 17.9185C234.557 17.9164 235.815 17.8468 237.193 17.7637C238.571 17.6806 239.75 17.6106 239.813 17.6082C240.074 17.607 240.004 17.5469 240.117 17.9069L240.203 18.1196C240.221 18.163 240.189 18.2105 240.142 18.2107C240.089 18.211 239.134 18.1723 238.018 18.1248C236.903 18.0772 235.576 18.0218 235.071 18.0016C234.16 17.9653 233.838 17.9255 234.397 17.9185Z" fill="white"/>
<path d="M233.471 16.6477C234.107 16.6203 235.659 16.5529 236.921 16.4978C238.183 16.4427 239.363 16.395 239.544 16.3918L239.851 16.3807C239.927 16.3779 239.987 16.4458 239.975 16.5215L239.962 16.6501L239.952 16.7823C239.951 16.849 239.895 16.9014 239.828 16.8984L239.539 16.8851C239.291 16.8756 237.623 16.8327 235.832 16.7897C234.042 16.7467 232.518 16.7084 232.446 16.7045C232.375 16.7006 232.836 16.6751 233.471 16.6477Z" fill="white"/>
<path d="M235.407 15.3465C237.278 15.2836 238.911 15.2273 239.036 15.2215C239.161 15.2156 239.494 15.2069 239.776 15.2019L240.074 15.1962C240.18 15.1942 240.259 15.2928 240.234 15.3954L240.196 15.5488C240.178 15.6229 240.11 15.674 240.034 15.6712L239.727 15.6599C239.049 15.6401 232.594 15.5233 231.885 15.52L231.38 15.5176L231.901 15.4882C232.187 15.472 233.537 15.4095 235.407 15.3465Z" fill="white"/>
<path d="M233.187 14.3046C233.339 14.2996 235.045 14.2251 236.978 14.139C238.911 14.0529 240.519 13.9806 240.55 13.9783C240.599 13.978 240.613 13.9665 240.586 14.0623L240.481 14.4911L240.185 14.4926C240.016 14.4907 239.415 14.4775 238.851 14.4632C238.287 14.449 236.778 14.4135 235.498 14.3844C233.021 14.3281 232.75 14.3188 233.187 14.3046Z" fill="white"/>
<path d="M237.639 12.8698C238.784 12.801 239.934 12.7311 240.193 12.7146C240.478 12.6963 240.647 12.6898 240.751 12.6887C240.849 12.6876 240.915 12.7823 240.891 12.8772L240.822 13.1528C240.803 13.2257 240.737 13.2762 240.662 13.2744L240.302 13.2654C237.283 13.15 235.543 13.0814 235.198 13.0642L234.775 13.0432L235.166 13.019C235.38 13.0057 236.493 12.9386 237.639 12.8698Z" fill="white"/>
<path d="M236.141 11.8349C236.087 11.8331 237.178 11.7211 238.565 11.5859C239.607 11.4843 240.589 11.3952 241.018 11.3563L241.071 11.3515C241.151 11.3442 241.218 11.4252 241.196 11.5027L241.148 11.6698L241.101 11.8644C241.083 11.9377 241.016 11.9888 240.941 11.9871L239.917 11.9645C239.613 11.9551 239.196 11.9412 238.99 11.9337C238.674 11.9223 236.449 11.845 236.141 11.8349Z" fill="white"/>
<path d="M237.312 19.0474C238.141 19.0055 239.033 18.9589 239.294 18.944C239.555 18.9291 239.909 18.9139 240.081 18.9104L240.22 18.9096C240.313 18.909 240.399 18.9614 240.441 19.0447L240.518 19.1981C240.569 19.3007 240.489 19.4215 240.375 19.4114C240.299 19.3952 236.049 19.1527 235.87 19.1503C235.531 19.1456 235.919 19.1179 237.312 19.0474Z" fill="white"/>
<path d="M270.116 25.1426C269.377 24.5956 269.004 23.8157 268.999 22.8028C268.999 22.7026 269.008 22.5523 269.028 22.3519L271.777 22.3375C271.748 22.7608 271.842 23.0942 272.06 23.3378C272.277 23.5816 272.608 23.7022 273.05 23.6999C273.452 23.6978 273.768 23.6017 273.999 23.4111C274.229 23.2208 274.344 22.9531 274.342 22.608C274.34 22.2519 274.192 21.9634 273.897 21.7421C273.603 21.5212 273.146 21.2731 272.527 20.998C271.928 20.734 271.44 20.4836 271.063 20.246C270.686 20.0088 270.357 19.6849 270.077 19.2745C269.797 18.8643 269.656 18.3475 269.652 17.7241C269.638 16.9562 269.809 16.2875 270.167 15.718C270.524 15.1485 271.021 14.7118 271.658 14.408C272.295 14.1042 273.025 13.9501 273.849 13.9458C274.59 13.9419 275.25 14.0637 275.828 14.3111C276.405 14.5585 276.855 14.918 277.177 15.3893C277.498 15.8608 277.661 16.4192 277.664 17.0645C277.665 17.2315 277.661 17.3541 277.651 17.4319L274.84 17.4466C274.85 17.4022 274.855 17.3354 274.855 17.2462C274.853 16.9347 274.751 16.682 274.549 16.4882C274.348 16.2946 274.072 16.1985 273.722 16.2003C273.351 16.2022 273.05 16.3013 272.82 16.4972C272.589 16.6932 272.475 16.9581 272.476 17.292C272.478 17.6259 272.624 17.9063 272.913 18.1328C273.202 18.3595 273.652 18.6214 274.261 18.9188C274.87 19.2161 275.368 19.4919 275.756 19.7457C276.143 19.9999 276.477 20.3404 276.757 20.7673C277.037 21.1944 277.179 21.7196 277.182 22.3427C277.186 23.033 277.019 23.6515 276.682 24.1985C276.345 24.7457 275.859 25.174 275.222 25.4833C274.585 25.7929 273.839 25.9496 272.985 25.9541C271.811 25.9602 270.855 25.6897 270.116 25.1426V25.1426Z" fill="white"/>
<path d="M285.201 18.8643C285.62 19.255 285.831 19.8011 285.835 20.503C285.836 20.7371 285.811 20.9879 285.76 21.2555L285.017 25.3457L282.779 25.3574L283.47 21.5558C283.495 21.4136 283.508 21.2882 283.507 21.1795C283.506 20.8286 283.401 20.5577 283.194 20.3664C282.986 20.1754 282.698 20.0807 282.33 20.0826C281.891 20.0849 281.522 20.2165 281.225 20.477C280.928 20.7376 280.737 21.1021 280.652 21.5705L280.652 21.5454L279.96 25.3721L277.709 25.3838L279.385 16.0994L281.637 16.0877L281.061 19.2996C281.349 18.989 281.704 18.7427 282.124 18.5607C282.545 18.3789 283.001 18.2867 283.492 18.2841C284.212 18.2803 284.782 18.4738 285.201 18.8643L285.201 18.8643Z" fill="white"/>
<path d="M287.799 24.9729C287.352 24.7364 287.006 24.4005 286.761 23.965C286.516 23.5297 286.392 23.0237 286.389 22.447C286.385 21.6644 286.56 20.9508 286.915 20.3064C287.27 19.6619 287.76 19.1549 288.387 18.7849C289.013 18.4152 289.712 18.2281 290.484 18.2241C291.057 18.2211 291.569 18.34 292.02 18.5806C292.47 18.8213 292.82 19.1593 293.069 19.5946C293.318 20.0301 293.444 20.5361 293.447 21.1126C293.451 21.9035 293.274 22.6192 292.915 23.2594C292.556 23.8998 292.062 24.4029 291.431 24.7686C290.801 25.1345 290.099 25.3192 289.328 25.3233C288.755 25.3262 288.245 25.2096 287.799 24.9729V24.9729ZM290.504 23.1855C290.77 22.974 290.975 22.7011 291.12 22.3667C291.266 22.0323 291.338 21.6839 291.336 21.3213C291.334 20.9095 291.225 20.5928 291.009 20.3715C290.793 20.1502 290.522 20.0404 290.195 20.0421C289.853 20.0439 289.553 20.1505 289.296 20.3619C289.039 20.5733 288.839 20.8484 288.698 21.1868C288.556 21.5254 288.487 21.8799 288.488 22.2507C288.491 22.6544 288.595 22.9649 288.804 23.182C289.012 23.3993 289.279 23.507 289.605 23.5053C289.939 23.5035 290.239 23.3969 290.504 23.1855V23.1855Z" fill="white"/>
<path d="M297.703 18.4854C298.109 18.284 298.559 18.1819 299.054 18.1794C299.809 18.1754 300.421 18.4173 300.889 18.9049C301.357 19.3927 301.593 20.0559 301.598 20.8949C301.599 21.1524 301.575 21.4308 301.527 21.7301C301.405 22.4452 301.16 23.0757 300.794 23.6216C300.428 24.1677 299.985 24.5896 299.467 24.887C298.948 25.1847 298.4 25.3349 297.821 25.3379C297.334 25.3405 296.923 25.243 296.586 25.0454C296.249 24.8477 296.001 24.5917 295.84 24.2767L295.094 28.5669L292.943 28.5782L294.714 18.3017L296.865 18.2904L296.694 19.2757C296.961 18.9503 297.297 18.6869 297.703 18.4854V18.4854ZM299.386 21.355C299.383 20.9397 299.262 20.6164 299.022 20.385C298.782 20.1538 298.477 20.0389 298.108 20.0409C297.68 20.0431 297.291 20.1989 296.94 20.508C296.589 20.8172 296.365 21.2379 296.267 21.77C296.243 21.9196 296.231 22.0568 296.231 22.1813C296.234 22.5884 296.353 22.9077 296.589 23.1389C296.825 23.3703 297.127 23.485 297.497 23.4831C297.924 23.4808 298.316 23.323 298.671 23.0097C299.025 22.6963 299.252 22.2736 299.35 21.7414C299.374 21.6002 299.386 21.4714 299.386 21.355L299.386 21.355Z" fill="white"/>
<path d="M260.92 22.4165L261.67 18.3744L263.846 18.3631L263.157 22.1383C263.131 22.274 263.117 22.4054 263.117 22.5325C263.114 22.889 263.212 23.1631 263.411 23.3555C263.61 23.5476 263.888 23.645 264.246 23.6473C264.655 23.6498 265.002 23.5311 265.289 23.2914C265.576 23.0513 265.768 22.7072 265.864 22.258L266.585 18.3488L268.774 18.3374L267.479 25.4116L265.294 25.3976L265.467 24.4313C265.184 24.7434 264.839 24.9937 264.434 25.1818C264.028 25.37 263.595 25.4626 263.135 25.4597C262.42 25.455 261.86 25.25 261.454 24.8444C261.047 24.4388 260.847 23.8754 260.851 23.1543C260.853 22.8828 260.876 22.637 260.92 22.4165Z" fill="white"/>
</g>
</g>
<defs>
<clipPath id="clip0_2587_39884">
<rect width="313" height="100" fill="white"/>
</clipPath>
</defs>
</svg>
