<svg width="32" height="32" viewBox="0 0 32 32" fill="none" xmlns="http://www.w3.org/2000/svg">
<circle cx="16" cy="16" r="16" fill="white"/>
<path d="M13.1539 22C12.9266 22 12.7086 21.9095 12.5479 21.7485L10.2617 19.4597C10.1798 19.3805 10.1145 19.2858 10.0696 19.1811C10.0247 19.0764 10.001 18.9638 10 18.8499C9.99904 18.7359 10.0207 18.6229 10.0638 18.5174C10.1069 18.412 10.1706 18.3161 10.2511 18.2356C10.3316 18.155 10.4273 18.0913 10.5326 18.0481C10.638 18.005 10.7508 17.9832 10.8647 17.9842C10.9785 17.9852 11.091 18.0089 11.1956 18.0539C11.3001 18.0989 11.3947 18.1642 11.4738 18.2462L13.0734 19.8476L20.478 10.3164C20.6195 10.1424 20.8234 10.0308 21.046 10.0055C21.2687 9.98017 21.4924 10.0431 21.6692 10.1809C21.8461 10.3187 21.962 10.5203 21.9922 10.7426C22.0224 10.9649 21.9644 11.1902 21.8307 11.3703L13.8303 21.6687C13.7557 21.7647 13.6615 21.8438 13.5541 21.9006C13.4466 21.9574 13.3284 21.9907 13.2071 21.9983L13.1539 22Z" fill="#51A24D"/>
</svg>
