<svg width="18" height="19" viewBox="0 0 18 19" fill="none" xmlns="http://www.w3.org/2000/svg">
<path d="M9 18.5C13.9706 18.5 18 14.4706 18 9.5C18 4.52944 13.9706 0.5 9 0.5C4.02944 0.5 0 4.52944 0 9.5C0 14.4706 4.02944 18.5 9 18.5Z" fill="#CBBC32"/>
<path d="M12.0204 17.9806C14.7069 17.0237 16.8046 14.8267 17.6248 12.0783L12.6818 7.13525L8.47304 6.94516L6.63335 5.10547L5.74934 6.94516L4.1709 6.75989L10.2647 12.8537L7.93561 13.8958L12.0204 17.9806Z" fill="#B7A825"/>
<path d="M6.63335 5.95347V5.10547L4.1709 6.75992L6.63335 8.41434V7.47736H9.00007L9.38102 6.75989L9.00007 5.95347H6.63335Z" fill="white"/>
<path d="M7.93555 13.895H8.99997L9.38093 13.133L8.99997 12.3711H7.93555V13.895Z" fill="white"/>
<path d="M9.85799 5.95312H9V7.47701H9.85799C11.2075 7.47701 12.3053 8.5749 12.3053 9.92434C12.3053 11.2738 11.2074 12.3716 9.85799 12.3716H9V13.8955H9.85799C12.0477 13.8955 13.8292 12.114 13.8292 9.92434C13.8292 7.7346 12.0477 5.95312 9.85799 5.95312Z" fill="#DCEAEC"/>
</svg>
