<svg width="19" height="15" viewBox="0 0 19 15" fill="none" xmlns="http://www.w3.org/2000/svg">
<path d="M3.83333 14.1562C3.15278 14.1562 2.57292 13.9201 2.09375 13.4479C1.61458 12.9757 1.375 12.3924 1.375 11.6979H1.25C0.902778 11.6979 0.607639 11.5764 0.364583 11.3333C0.121528 11.0903 0 10.7951 0 10.4479V2.09375C0 1.76042 0.125 1.46875 0.375 1.21875C0.625 0.96875 0.916667 0.84375 1.25 0.84375H12.0625C12.4097 0.84375 12.7049 0.965278 12.9479 1.20833C13.191 1.45139 13.3125 1.74653 13.3125 2.09375V4.32292H15.1875C15.2986 4.32292 15.3958 4.34375 15.4792 4.38542C15.5625 4.42708 15.6319 4.48958 15.6875 4.57292L18.2083 7.92708C18.25 7.98264 18.2812 8.04167 18.3021 8.10417C18.3229 8.16667 18.3333 8.23264 18.3333 8.30208V11.0729C18.3333 11.2535 18.2743 11.4028 18.1563 11.5208C18.0382 11.6389 17.8889 11.6979 17.7083 11.6979H16.8542C16.8542 12.3924 16.6146 12.9757 16.1354 13.4479C15.6562 13.9201 15.0764 14.1562 14.3958 14.1562C13.7153 14.1562 13.1354 13.9201 12.6563 13.4479C12.1771 12.9757 11.9375 12.3924 11.9375 11.6979H6.29167C6.29167 12.3924 6.05208 12.9757 5.57292 13.4479C5.09375 13.9201 4.51389 14.1562 3.83333 14.1562ZM3.83333 12.9062C4.16667 12.9062 4.45139 12.7882 4.6875 12.5521C4.92361 12.316 5.04167 12.0312 5.04167 11.6979C5.04167 11.3646 4.92361 11.0799 4.6875 10.8438C4.45139 10.6076 4.16667 10.4896 3.83333 10.4896C3.5 10.4896 3.21528 10.6076 2.97917 10.8438C2.74306 11.0799 2.625 11.3646 2.625 11.6979C2.625 12.0312 2.74306 12.316 2.97917 12.5521C3.21528 12.7882 3.5 12.9062 3.83333 12.9062ZM1.25 2.09375V10.4479H1.70833C1.94444 10.0729 2.24306 9.77431 2.60417 9.55208C2.96528 9.32986 3.36806 9.21875 3.8125 9.21875C4.25694 9.21875 4.66319 9.33333 5.03125 9.5625C5.39931 9.79167 5.70139 10.0868 5.9375 10.4479H12.0625V2.09375H1.25ZM14.3958 12.9062C14.7292 12.9062 15.0139 12.7882 15.25 12.5521C15.4861 12.316 15.6042 12.0312 15.6042 11.6979C15.6042 11.3646 15.4861 11.0799 15.25 10.8438C15.0139 10.6076 14.7292 10.4896 14.3958 10.4896C14.0625 10.4896 13.7778 10.6076 13.5417 10.8438C13.3056 11.0799 13.1875 11.3646 13.1875 11.6979C13.1875 12.0312 13.3056 12.316 13.5417 12.5521C13.7778 12.7882 14.0625 12.9062 14.3958 12.9062ZM13.3125 8.65625H17.1875L14.875 5.57292H13.3125V8.65625Z" fill="#49A387"/>
</svg>
